<svg width="380" height="450" viewBox="0 0 380 450" fill="none" xmlns="http://www.w3.org/2000/svg">
<path d="M360 0C371.046 0 380 8.95431 380 20V40C380 45.5228 375.523 50 370 50H360C354.477 50 350 54.4772 350 60V140C350 145.523 354.477 150 360 150H370C375.523 150 380 154.477 380 160V410C380 415.523 375.523 420 370 420H300C293.705 420 287.777 422.964 284 428L270.5 446C268.611 448.518 265.648 450 262.5 450H20C8.95431 450 2.61746e-07 441.046 0 430V20C0 8.95431 8.95431 8.05322e-08 20 0H360Z" fill="url(#paint0_radial_1_106)"/>
<defs>
<radialGradient id="paint0_radial_1_106" cx="0" cy="0" r="1" gradientUnits="userSpaceOnUse" gradientTransform="translate(445 554.5) rotate(-129.049) scale(528.582 610.304)">
<stop stop-color="#9EC5EC"/>
<stop offset="1" stop-color="#366CD1"/>
</radialGradient>
</defs>
</svg>
