<svg width="71" height="52" viewBox="0 0 71 52" fill="none" xmlns="http://www.w3.org/2000/svg">
<g opacity="0.6">
<path d="M58.3436 42.0355C58.3436 42.5752 57.9472 42.9374 57.478 42.9374V42.9341C56.9955 42.9374 56.6064 42.5752 56.6064 42.0357C56.6064 41.4963 56.9955 41.1351 57.478 41.1351C57.9474 41.135 58.3436 41.4962 58.3436 42.0355ZM58.6947 42.0355C58.6947 41.2948 58.1193 40.865 57.478 40.865C56.8323 40.865 56.2568 41.2948 56.2568 42.0355C56.2568 42.7757 56.8324 43.2073 57.478 43.2073C58.1193 43.2073 58.6947 42.7757 58.6947 42.0355ZM57.2762 42.1346H57.4064L57.7083 42.6645H58.0397L57.7053 42.1122C57.8781 42.0999 58.0202 42.0178 58.0202 41.7853C58.0202 41.4962 57.8208 41.4035 57.4834 41.4035H56.9952V42.6645H57.2759L57.2762 42.1346ZM57.2762 41.9211V41.6175H57.4714C57.5776 41.6175 57.7224 41.6261 57.7224 41.7556C57.7224 41.8964 57.6475 41.9211 57.5222 41.9211H57.2762ZM50.5008 35.5842L52.0179 39.733H48.9368L50.5008 35.5842ZM48.8761 33.9687L45.38 42.8239H47.8486L48.4016 41.2591H52.5389L53.0622 42.8239H55.7422L52.2201 33.9676L48.8761 33.9687ZM41.8572 42.8272H44.3618V33.966L41.8568 33.9654L41.8572 42.8272ZM24.4698 33.9654L22.3801 40.9886L20.3784 33.966L17.6759 33.9654L20.5348 42.8272H24.1431L27.025 33.9654H24.4698ZM34.5937 35.895H35.6703C37.2319 35.895 38.2421 36.5959 38.2421 38.4149C38.2421 40.2342 37.2319 40.9352 35.6703 40.9352H34.5937V35.895ZM32.1102 33.9654V42.8272H36.1705C38.3338 42.8272 39.0404 42.4677 39.8042 41.6613C40.3438 41.0951 40.6927 39.8522 40.6927 38.4939C40.6927 37.2479 40.3974 36.1372 39.8825 35.4451C38.955 34.2076 37.6185 33.9654 35.624 33.9654H32.1102ZM8.38477 33.9531V42.8272H10.9106V36.0891L12.8677 36.0896C13.5157 36.0896 13.9776 36.2512 14.2897 36.5843C14.6855 37.0058 14.8471 37.6861 14.8471 38.9307V42.8272H17.2946V37.9242C17.2946 34.4249 15.0635 33.9531 12.8805 33.9531H8.38477ZM28.0792 33.9654L28.0802 42.8272H30.5836V33.9654H28.0792Z" fill="#E6E3DE"/>
<path d="M15.2657 16.3186C15.2657 16.3186 18.487 11.5672 24.919 11.0756V9.35181C17.7948 9.92379 11.6255 15.9558 11.6255 15.9558C11.6255 15.9558 15.1197 26.0537 24.919 26.9784V25.1461C17.7278 24.2417 15.2657 16.3186 15.2657 16.3186ZM24.919 21.5022V23.1804C19.484 22.2115 17.9754 16.5637 17.9754 16.5637C17.9754 16.5637 20.585 13.6738 24.919 13.2051V15.0464C24.9157 15.0464 24.9134 15.0454 24.9107 15.0454C22.636 14.7725 20.859 16.8969 20.859 16.8969C20.859 16.8969 21.855 20.473 24.919 21.5022ZM24.919 6.17236V9.35181C25.1281 9.33578 25.3373 9.32219 25.5475 9.31503C33.647 9.04214 38.9244 15.9558 38.9244 15.9558C38.9244 15.9558 32.8631 23.3239 26.5484 23.3239C25.9697 23.3239 25.4279 23.2702 24.919 23.1801V25.1461C25.3691 25.204 25.8224 25.2332 26.2762 25.2337C32.1524 25.2337 36.402 22.2336 40.5169 18.6828C41.1991 19.229 43.9921 20.5579 44.5663 21.1394C40.6538 24.4142 31.5356 27.0538 26.3662 27.0538C25.8679 27.0538 25.3894 27.0238 24.919 26.9784V29.741H47.2543V6.17236H24.919ZM24.919 13.2051V11.0756C25.126 11.0612 25.3345 11.0501 25.5475 11.0434C31.3719 10.8605 35.193 16.047 35.193 16.047C35.193 16.047 31.0658 21.7771 26.6406 21.7771C26.0038 21.7771 25.4327 21.6748 24.9189 21.502V15.0463C27.1863 15.3202 27.6426 16.3215 29.0058 18.5932L32.0378 16.0375C32.0378 16.0375 29.8246 13.1359 26.0938 13.1359C25.6881 13.1357 25.3 13.1643 24.919 13.2051Z" fill="#E6E3DE"/>
</g>
</svg>
