<svg width="107" height="52" viewBox="0 0 107 52" fill="none" xmlns="http://www.w3.org/2000/svg">
<g clip-path="url(#clip0_237_10347)">
<g opacity="0.6">
<path d="M42.7841 32.7312V23.5003C42.7841 20.4494 40.3274 18.9857 36.7334 18.9857C34.8203 18.923 32.9217 19.3372 31.2086 20.1911L32.4366 22.1981C33.7546 21.5967 35.1933 21.3068 36.6413 21.3511C38.6055 21.3511 39.674 22.1701 39.674 23.6258V24.637C38.5146 24.2612 37.2987 24.0903 36.0807 24.1318C32.4286 24.1318 29.6636 25.4914 29.6636 28.4922C29.6636 31.7981 32.6435 33.0423 35.2518 33.0423C36.8685 33.0319 38.4317 32.4611 39.6746 31.427V32.7619L42.7841 32.7312ZM39.6827 28.9094C39.183 29.4452 38.5797 29.8738 37.9093 30.1692C37.239 30.4647 36.5155 30.6208 35.783 30.6281C33.6954 30.6281 32.6816 29.731 32.6816 28.3961C32.6816 27.1653 33.9703 26.3938 35.9979 26.3938C37.2533 26.3399 38.5066 26.5401 39.6827 26.9825V28.9061V28.9094ZM49.7498 32.7312V19.2687H46.5856V32.7312H49.7498ZM66.4163 32.7312L61.3206 25.7577L66.0799 19.2694H62.4552L61.2265 21.1169C60.6125 22.0647 59.8463 23.3462 59.5079 23.8594C59.2323 23.3542 58.4641 22.1407 57.8194 21.1676L56.5553 19.2694H52.906L57.6352 25.7577L52.5803 32.7312H56.1415L57.7086 30.4232C58.3226 29.4981 59.1822 28.1912 59.4599 27.6779C59.7656 28.1832 60.5037 29.422 61.1484 30.3978L62.6835 32.7339L66.4163 32.7312ZM72.3989 32.7312V19.2687H69.2367V32.7312H72.3989ZM106.535 25.9339C106.535 21.7289 103.465 18.983 99.3494 18.983C95.3056 18.983 92.1634 21.5994 92.1634 26.01C92.1634 30.2149 95.1961 33.0089 99.2579 33.0089C103.403 33.0089 106.533 30.3952 106.533 25.9339H106.535ZM103.343 26.01C103.343 28.4722 101.776 30.4966 99.3801 30.4966C96.9841 30.4966 95.359 28.8814 95.359 25.9339C95.359 23.2641 96.8326 21.498 99.2299 21.498C101.775 21.5007 103.342 23.2701 103.342 26.0126L103.343 26.01Z" fill="#E6E3DE"/>
<path d="M88.5645 21.2528C87.8625 20.5098 87.0109 19.924 86.0659 19.5341C85.121 19.1442 84.1042 18.959 83.0824 18.9908C79.0386 18.9908 75.8965 21.6072 75.8965 26.0151C75.8965 30.22 78.9292 33.0167 82.9883 33.0167C87.1336 33.0167 90.2677 30.4003 90.2677 25.9417C90.2688 25.4231 90.218 24.9057 90.1162 24.3972H82.4504V26.6238H87.0375C86.8026 28.8024 85.3062 30.5064 83.1125 30.5064C80.7165 30.5064 79.0887 28.8911 79.0887 25.9417C79.0887 23.2719 80.5623 21.5058 82.9596 21.5058C83.5317 21.4822 84.1019 21.5848 84.6299 21.8064C85.1578 22.028 85.6305 22.3631 86.0144 22.7879L88.5645 21.2528Z" fill="#E6E3DE"/>
<path d="M11.5543 25.53L5.5083 31.5738L12.9339 38.9999L25.9329 25.9999L21.2724 21.3364L14.314 28.2913L13.4064 27.3836L11.551 25.528L11.5543 25.53Z" fill="#E6E3DE"/>
<path d="M14.3163 26.4779L20.3643 20.4294L12.9341 13L-0.0649414 26L4.60089 30.6662L10.6469 24.6224L11.5546 23.7146L12.4596 24.6224L14.315 26.4779H14.3163Z" fill="#E6E3DE"/>
</g>
</g>
<defs>
<clipPath id="clip0_237_10347">
<rect width="106.6" height="52" fill="white"/>
</clipPath>
</defs>
</svg>
