<svg width="71" height="52" viewBox="0 0 71 52" fill="none" xmlns="http://www.w3.org/2000/svg">
<g clip-path="url(#clip0_237_10334)">
<g opacity="0.6">
<path d="M43.4997 21.4583C42.3553 21.4583 41.4564 21.7039 40.5571 22.1941C40.5571 19.5771 40.5571 17.2057 40.6392 16.3882L35.1614 17.3691V17.8599L35.7336 17.9416C36.4686 18.105 36.7151 18.5135 36.877 19.4954C37.0418 21.4583 36.9591 31.9267 36.877 33.6445C38.3485 33.9718 39.9022 34.2174 41.4559 34.2174C45.7889 34.2174 48.4048 31.5182 48.4048 27.2652C48.4048 23.9123 46.2794 21.4583 43.4997 21.4583ZM41.6193 33.3172C41.2921 33.3172 40.8828 33.3172 40.6383 33.236C40.5561 32.0911 40.4749 27.2652 40.5561 23.0126C41.0466 22.8487 41.3733 22.767 41.7826 22.767C43.5823 22.767 44.5633 24.8933 44.5633 27.5098C44.5629 30.7824 43.3363 33.3172 41.6193 33.3172ZM14.5587 16.715H0.169922V17.4509L0.987607 17.5326C2.04984 17.696 2.45916 18.3501 2.62203 19.904C2.868 22.8483 2.78585 28.1649 2.62203 30.6992C2.45868 32.2536 2.05031 32.9899 0.987607 33.0706L0.169922 33.235V33.8891H9.40806V33.235L8.42703 33.0706C7.36432 32.9894 6.95548 32.2536 6.79213 30.6992C6.70999 29.6356 6.62831 27.9179 6.62831 25.7921L8.59038 25.8738C9.81691 25.8738 10.3886 26.8552 10.6341 28.2452H11.3701V22.4402H10.6341C10.3882 23.8306 9.81691 24.8116 8.59038 24.8116L6.62878 24.8938C6.62878 22.1129 6.71046 19.4959 6.7926 17.942H9.65356C11.8616 17.942 13.006 19.332 13.8232 21.7861L14.6409 21.5405L14.5587 16.715Z" fill="#E6E3DE"/>
<path d="M19.2195 21.2949C23.3074 21.2949 25.3512 24.0758 25.3512 27.7559C25.3512 31.2726 23.0619 34.2179 18.974 34.2179C14.8865 34.2179 12.8428 31.4365 12.8428 27.7559C12.8428 24.2392 15.1315 21.2949 19.2195 21.2949ZM18.974 22.1129C17.1753 22.1129 16.6848 24.5665 16.6848 27.7559C16.6848 30.8636 17.5024 33.3989 19.1378 33.3989C21.0168 33.3989 21.5083 30.9453 21.5083 27.7559C21.5083 24.6482 20.6915 22.1129 18.974 22.1129ZM49.4677 27.8381C49.4677 24.4848 51.5931 21.2949 55.7627 21.2949C59.1954 21.2949 60.8313 23.8307 60.8313 27.1835H53.228C53.1459 30.2095 54.6174 32.418 57.561 32.418C58.8692 32.418 59.5231 32.0916 60.3412 31.5187L60.6674 31.9273C59.8498 33.0721 58.0515 34.2179 55.7627 34.2179C52.0836 34.2174 49.4677 31.6004 49.4677 27.8381ZM53.228 26.2843L57.0705 26.2021C57.0705 24.5665 56.825 22.1129 55.4356 22.1129C54.0462 22.1129 53.3092 24.4026 53.228 26.2843ZM70.5613 21.9495C69.5803 21.54 68.2726 21.2949 66.801 21.2949C63.7767 21.2949 61.8954 23.0939 61.8954 25.2206C61.8954 27.3474 63.2838 28.2466 65.2483 28.9012C67.2915 29.6366 67.8642 30.2095 67.8642 31.1909C67.8642 32.1724 67.1282 33.0716 65.82 33.0716C64.2672 33.0716 63.1219 32.1724 62.223 29.7183L61.6504 29.8827L61.7325 33.4811C62.7135 33.8896 64.5118 34.2174 66.0655 34.2174C69.2541 34.2174 71.2983 32.5809 71.2983 30.0461C71.2983 28.3284 70.3985 27.3474 68.273 26.5289C65.9833 25.6296 65.1666 25.0572 65.1666 23.9936C65.1666 22.9305 65.9036 22.1942 66.8846 22.1942C68.3552 22.1942 69.3362 23.0939 70.0732 25.3023L70.6449 25.1389L70.5613 21.9495ZM35.9787 21.6222C34.5893 20.8051 32.1363 21.2132 30.8285 24.158L30.9097 21.2954L25.4329 22.3585V22.8492L26.0051 22.9309C26.7415 23.0131 27.0678 23.4217 27.1499 24.4853C27.3133 26.4481 27.2316 29.8836 27.1499 31.6009C27.0678 32.5814 26.7415 33.0721 26.0051 33.1543L25.4329 33.2365V33.8906H33.0356V33.2365L32.0546 33.1543C31.2374 33.0721 30.9919 32.5814 30.9097 31.6009C30.7464 30.0466 30.7464 26.9389 30.8285 24.976C31.2369 24.4031 33.0356 23.9129 34.6705 24.976L35.9787 21.6222Z" fill="#E6E3DE"/>
</g>
</g>
<defs>
<clipPath id="clip0_237_10334">
<rect width="71" height="52" fill="white"/>
</clipPath>
</defs>
</svg>
