<svg width="79" height="52" viewBox="0 0 79 52" fill="none" xmlns="http://www.w3.org/2000/svg">
<g opacity="0.6">
<path d="M36.0356 39.1857C24.9386 40.2093 13.3724 38.5971 11.7524 29.9258C10.9599 25.6512 12.9101 21.1183 15.4937 18.3009V16.7964C10.8396 20.8777 8.31732 26.0417 9.77012 32.142C11.6259 39.9662 21.55 44.397 36.7019 42.9256C42.6994 42.3445 50.5428 40.4164 55.9994 37.4196V33.1655C51.0471 36.1158 42.8579 38.5529 36.0356 39.1857ZM65.2688 16.6948C62.6366 3.84541 37.6847 3.03082 21.6003 12.8205V13.9018C37.6663 5.64307 60.4551 5.69325 62.5299 17.5299C63.2262 21.4454 61.0202 25.5247 57.0794 27.8735V30.9448C61.8199 29.2062 66.6826 23.5828 65.2688 16.6948Z" fill="#E6E3DE"/>
<path d="M55.1018 14.8237H52.1922V27.7807C52.1922 29.2992 52.9264 30.6197 55.1018 30.8306V14.8237ZM20.4575 19.5545H17.5426L17.541 28.0197C17.541 29.5435 18.2775 30.8627 20.4575 31.0697V19.5545ZM17.5426 15.2179H20.4484V17.9755H17.5426V15.2179ZM37.8822 30.9356C35.5272 30.9356 34.5306 29.299 34.5306 27.6868V16.447H37.4148V19.5545H39.5869V21.8838H37.4148V27.5087C37.4148 28.166 37.7269 28.5323 38.4124 28.5323H39.5869V30.9357L37.8822 30.9356ZM43.1895 26.1471C43.1895 27.6229 44.1124 28.7076 45.7456 28.7076C47.0252 28.7076 47.6559 28.3525 48.3946 27.6229L50.1768 29.3204C49.0342 30.4491 47.8371 31.1354 45.7243 31.1354C42.9641 31.1354 40.3195 29.6291 40.3195 25.2378C40.3195 21.4837 42.6303 19.3616 45.6603 19.3616C48.7404 19.3616 50.5105 21.8459 50.5105 25.1069V26.1474H43.1895M45.5339 21.7467C44.5466 21.7467 43.7882 22.2551 43.4666 22.9409C43.2794 23.353 43.2108 23.6742 43.1894 24.1807H47.6345C47.5783 22.9409 47.0161 21.7467 45.5339 21.7467ZM28.2911 21.8838C29.1368 21.8838 29.4884 22.3019 29.4884 22.9805V30.9525H32.3733V22.9637C32.3733 21.345 31.5107 19.5576 28.9774 19.5576L23.0182 19.5545V30.9525H25.9042V21.8838H28.2911ZM58.2323 17.139C57.5909 17.139 57.079 16.6218 57.079 15.9813C57.079 15.3439 57.5909 14.8237 58.2323 14.8237C58.8705 14.8237 59.3945 15.3439 59.3945 15.9813C59.3945 16.6218 58.8704 17.139 58.2323 17.139ZM58.2323 15.0168C57.7037 15.0168 57.2785 15.4536 57.2785 15.9813C57.2785 16.5121 57.7037 16.9412 58.2323 16.9412C58.7607 16.9412 59.1996 16.5121 59.1996 15.9813C59.1995 15.4536 58.7608 15.0168 58.2323 15.0168ZM58.7455 16.6751H58.5292C58.5199 16.675 58.5108 16.6722 58.503 16.6671C58.4952 16.662 58.4891 16.6547 58.4853 16.6462L58.1926 16.1489C58.1834 16.1382 58.1591 16.1261 58.1516 16.1261H58.0176V16.6219C58.0176 16.6463 58.0008 16.6752 57.9689 16.6752H57.7738C57.7447 16.6752 57.7251 16.6463 57.7251 16.6219V15.3714C57.7251 15.2982 57.7494 15.2681 57.8134 15.259C57.8835 15.2514 58.0663 15.2422 58.1686 15.2422C58.5295 15.2422 58.7414 15.3485 58.7414 15.6832V15.7076C58.7414 15.9144 58.6394 16.027 58.4809 16.0773L58.7856 16.596C58.7906 16.6075 58.7931 16.62 58.7932 16.6326C58.7928 16.6522 58.7822 16.6751 58.7455 16.6751ZM58.4653 15.6832C58.4653 15.5435 58.3785 15.4993 58.1925 15.4993H58.0082V15.896C58.0372 15.896 58.1683 15.9021 58.1925 15.9021C58.3785 15.9021 58.4653 15.8401 58.4653 15.7076V15.6832Z" fill="#E6E3DE"/>
</g>
</svg>
