<svg width="70" height="52" viewBox="0 0 70 52" fill="none" xmlns="http://www.w3.org/2000/svg">
<g clip-path="url(#clip0_237_10336)">
<g clip-path="url(#clip1_237_10336)">
<path opacity="0.6" fill-rule="evenodd" clip-rule="evenodd" d="M-0.266602 11.0898H69.7334V46.1887H-0.266602V11.0898ZM36.108 26.2769V26.6716H38.8013V26.2769C38.2687 26.2208 38.045 26.0795 38.045 25.6017V22.423C38.045 21.3551 37.3157 20.8192 36.4746 20.8192C35.5775 20.8192 34.8753 21.3822 34.5105 21.7188V21.3822L34.5666 18.0913C33.8661 18.2887 33.1368 18.4009 32.4346 18.4279V18.7646C33.052 18.9058 33.2199 19.0741 33.2199 19.552V25.5978C33.2199 26.0757 32.996 26.1879 32.5464 26.273V26.6677H35.2108V26.273C34.6495 26.273 34.5105 26.1047 34.5105 25.5978V22.7848C34.5105 22.1096 34.9871 21.6317 35.6893 21.6317C36.3915 21.6317 36.7544 22.0264 36.7544 22.7558V25.5959C36.7544 26.0738 36.5865 26.186 36.1099 26.2711L36.108 26.2769ZM11.064 36.9081H10.5585C9.74434 36.9081 9.52056 36.6547 9.52056 36.1207V33.0833L10.7823 33.1394C11.3997 33.1684 11.6235 33.3077 11.7354 34.2363H12.1849V31.4524H11.7354C11.6235 32.381 11.3997 32.5493 10.7823 32.5764L9.52056 32.6325V29.9317C9.52056 29.3687 9.7733 29.1443 10.4177 29.1443H11.3148C12.3238 29.1443 12.4936 29.566 12.7444 30.634H13.1939V28.6374H7.05109V29.0321C7.69545 29.1733 8.00416 29.3977 8.00416 29.8756V36.1188C8.00416 36.6527 7.69545 36.8772 6.99512 37.0184V37.4131H13.3058L13.5585 35.1069H13.0531C12.6884 36.4573 12.4916 36.9062 11.0621 36.9062L11.064 36.9081ZM52.8233 32.942V36.3161L52.8252 36.318C52.8252 36.879 52.9373 36.9912 53.5258 37.0203V37.4149H50.8324V37.0203C51.28 36.9932 51.4766 36.852 51.4766 36.318V32.8298C51.4766 32.2958 51.3377 31.9592 50.7206 31.9301V31.5645C51.4498 31.5064 52.1501 31.3942 52.8794 31.1698L52.8233 32.942ZM49.3738 36.3161V32.8569C49.3738 31.7328 48.5885 31.1698 47.7474 31.1698C47.0739 31.1698 46.3178 31.5916 45.7275 32.0985C45.5036 31.4794 44.9422 31.1698 44.3537 31.1698C43.5974 31.1698 42.7834 31.6477 42.2507 32.0985L42.2797 31.1698C41.5795 31.3942 40.9062 31.5064 40.2038 31.5645V31.9301C40.8212 31.9592 40.9601 32.2958 40.9601 32.8298V36.318C40.9601 36.852 40.7075 36.9932 40.2598 37.0203V37.4149H43.065V37.0203C42.5037 36.9912 42.3087 36.879 42.3087 36.318V33.1393C42.3087 32.408 42.7853 31.9572 43.4875 31.9572C44.1049 31.9572 44.4965 32.408 44.4965 33.1103V36.3161C44.4965 36.85 44.2728 36.9912 43.7962 37.0183V37.413H46.6014V37.0183C46.04 36.9893 45.8451 36.8771 45.8451 36.3161V33.1374C45.8451 32.4061 46.3217 31.9553 47.0239 31.9553C47.6413 31.9553 48.0328 32.4061 48.0328 33.1084V36.3141C48.0328 36.8481 47.8092 36.9893 47.3326 37.0164V37.4111H50.1088V37.0164C49.5764 36.9874 49.3795 36.8751 49.3795 36.3141L49.3738 36.3161ZM56.2729 33.4469L57.2819 33.9538H57.2838C58.1249 34.3756 58.5454 34.8263 58.5454 35.5847C58.5454 36.7088 57.5925 37.5252 56.1898 37.5252C55.4337 37.5252 54.7313 37.2988 54.3957 37.1305L54.3668 35.5557H54.7873C54.9842 36.4283 55.2639 37.0899 56.1898 37.0899C56.7782 37.0899 57.2838 36.7939 57.2838 36.1748C57.2838 35.6679 57.0021 35.4145 56.4137 35.134L55.4876 34.6832C54.8434 34.3736 54.4225 33.8106 54.4225 33.0794C54.4225 31.8702 55.5455 31.1679 56.7514 31.1679C57.2277 31.1679 57.7872 31.2801 58.2367 31.4774L58.2657 32.7156H57.9012C57.6754 32.1817 57.3666 31.5626 56.6106 31.5626C56.0222 31.5626 55.5726 31.9282 55.5726 32.4912C55.5726 32.8569 55.7673 33.1935 56.2729 33.4469ZM44.2129 25.4605L43.9332 25.1509C43.5127 25.5456 42.98 25.9384 42.2507 25.9384C41.0162 25.9384 40.5686 25.0658 40.5686 23.7174V23.52H44.2419C44.3267 21.9723 43.4856 20.8192 41.9981 20.8192C40.3717 20.8192 39.2219 22.1967 39.2219 24.054C39.2219 25.741 40.119 26.867 41.6894 26.867C42.9242 26.867 43.7653 26.0796 44.2129 25.4605ZM41.8302 21.299C42.4747 21.299 42.98 21.8059 42.8952 23.0712H40.5666C40.6514 21.8059 41.1841 21.299 41.8283 21.299H41.8302ZM52.1498 28.5832C52.6264 28.5832 52.9909 28.9488 52.9909 29.4267C52.9909 29.9046 52.6264 30.2702 52.1498 30.2702C51.6732 30.2702 51.3087 29.9046 51.3087 29.4267C51.3087 28.9488 51.6732 28.5832 52.1498 28.5832ZM23.0392 31.1698C21.1601 31.1698 20.1511 32.7737 20.1511 34.4878C20.1511 36.3722 21.4417 37.5252 22.9832 37.5252C24.8624 37.5252 25.8714 35.8943 25.8714 34.2343C25.8714 32.2939 24.6096 31.1698 23.0392 31.1698ZM23.1511 37.0764C22.3099 37.0764 21.7485 36.4012 21.5806 34.5458C21.5517 34.2924 21.5517 34.0389 21.5517 33.8145C21.5517 32.3809 22.0012 31.6206 22.8694 31.6206C23.7376 31.6206 24.272 32.2958 24.4398 34.1511C24.4688 34.4046 24.4688 34.658 24.4688 34.8824C24.4688 36.3161 23.9923 37.0764 23.1511 37.0764ZM15.7752 34.1511C15.7752 35.6427 16.4466 36.5985 17.6254 36.5985H17.6292C18.3585 36.5985 18.891 36.2057 19.3116 35.8111L19.5913 36.1206C19.1148 36.7958 18.2736 37.5271 16.9829 37.5271C15.4125 37.5271 14.4305 36.4011 14.4305 34.6019C14.4305 32.5492 15.7212 31.1717 17.6273 31.1717C18.6093 31.1717 19.3656 31.5374 19.3656 32.1275C19.3656 32.5202 19.0569 32.8297 18.6922 32.8297C18.3465 32.8297 18.1647 32.564 17.9734 32.2845C17.7613 31.9746 17.5376 31.6477 17.0659 31.6477C16.1687 31.6477 15.7752 32.7446 15.7752 34.1511ZM32.2937 32.8569C32.2937 31.7328 31.5374 31.1698 30.6115 31.1698C29.7037 31.1698 29.1204 31.6568 28.6215 32.0733L28.5914 32.0985L28.6204 31.1698C27.9201 31.3942 27.2469 31.5064 26.5445 31.5645V31.9301C27.1618 31.9592 27.3008 32.2958 27.3008 32.8298V36.318C27.3008 36.852 27.048 36.9932 26.6005 37.0203V37.4149H29.3767V37.0203C28.8153 36.9912 28.6474 36.879 28.6474 36.318V32.971C28.6474 32.3519 29.124 31.9592 29.8533 31.9592C30.5825 31.9592 30.947 32.3538 30.947 33.1122V36.318C30.947 36.852 30.7234 36.9932 30.2468 37.0203V37.4149H33.023V37.0203C32.4906 36.9912 32.2937 36.879 32.2937 36.318V32.8569ZM33.7524 34.4878C33.7524 32.7737 34.7614 31.1698 36.6408 31.1698C38.2111 31.1698 39.4727 32.2939 39.4727 34.2343C39.4727 35.8943 38.4638 37.5252 36.5847 37.5252C35.0431 37.5252 33.7524 36.3722 33.7524 34.4878ZM35.182 34.5458C35.3499 36.4012 35.9112 37.0764 36.7526 37.0764C37.5937 37.0764 38.0703 36.3161 38.0703 34.8824C38.0703 34.658 38.0703 34.4046 38.0413 34.1511C37.8734 32.2958 37.3391 31.6206 36.471 31.6206C35.6028 31.6206 35.1533 32.3809 35.1533 33.8145C35.1533 34.0389 35.1533 34.2924 35.182 34.5458ZM27.4146 19.3295C27.5825 19.3295 27.6675 19.3856 27.6675 19.583V25.4044C27.6675 25.9113 27.3317 26.1918 26.6584 26.2769V26.6716H30.079V26.2769C29.4058 26.1918 29.07 25.9113 29.07 25.4044V19.583C29.07 19.3856 29.1818 19.3295 29.2939 19.3295H29.7703C30.6674 19.3295 30.9761 19.6952 31.3138 20.9605H31.7344V18.8788H25.0031V20.9605H25.4237C25.7594 19.6952 26.0411 19.3295 26.9671 19.3295H27.4146ZM61.0959 35.9793C61.0959 36.5984 61.4046 36.7667 61.7691 36.7667C62.0778 36.7667 62.4155 36.6545 62.6392 36.5133L62.8071 36.8228C62.2747 37.3278 61.6843 37.5251 61.0398 37.5251C60.0019 37.5251 59.7221 37.0182 59.7221 36.2308L59.7782 32.0693H59.1047V31.7037C59.834 31.6186 60.4514 30.9724 60.6753 29.9315H61.0959V31.4502H62.7781V32.0693H61.0959V35.9793Z" fill="#E6E3DE"/>
</g>
</g>
<defs>
<clipPath id="clip0_237_10336">
<rect width="70" height="52" fill="white"/>
</clipPath>
<clipPath id="clip1_237_10336">
<rect width="70" height="35.2778" fill="white" transform="translate(-0.266602 11)"/>
</clipPath>
</defs>
</svg>
