<svg width="200" height="117" viewBox="0 0 200 117" fill="none" xmlns="http://www.w3.org/2000/svg">
<g clip-path="url(#clip0_4001_76)">
<g clip-path="url(#clip1_4001_76)">
<path d="M126.367 62.7962L134.2 51.3962L126.933 40.9629H132.667L137.1 47.9962L141.567 40.9629H146.933L139.767 51.3962L147.567 62.7962H141.733L136.867 55.2296L131.933 62.7962H126.367ZM99.7333 53.1962C98.2666 54.3629 96.3666 54.9629 93.9999 54.9629H88.9999V62.8296H84.1666V40.9962H93.7666C96.2666 40.9962 98.2666 41.5962 99.7333 42.7629C101.2 43.9296 101.933 45.6962 101.933 48.0296C101.933 50.2629 101.2 51.9962 99.7333 53.1962ZM97.1999 48.0296C97.1999 45.9296 95.9332 44.8629 93.4332 44.8629H89.0666V51.1629H93.3999C95.8999 51.1629 97.1999 50.1296 97.1999 48.0296ZM151.667 60.1629C149.633 58.0629 148.633 55.2962 148.633 51.8962C148.633 48.4296 149.633 45.6629 151.667 43.5629C153.667 41.4629 156.367 40.4296 159.7 40.4296C162.967 40.4296 165.567 41.4962 167.6 43.5962C169.6 45.7296 170.6 48.4962 170.6 51.8962C170.6 55.3296 169.6 58.0629 167.6 60.1629C165.6 62.2629 162.933 63.2962 159.667 63.2962C156.367 63.3296 153.7 62.2629 151.667 60.1629ZM153.567 51.8296C153.567 54.1962 154.1 56.0296 155.2 57.3629C156.3 58.6962 157.767 59.3629 159.667 59.3962C161.533 59.3962 162.967 58.7296 164.033 57.3629C165.1 55.9962 165.633 54.1629 165.633 51.8296C165.633 49.5296 165.1 47.7296 164 46.3962C162.9 45.0629 161.433 44.3962 159.6 44.3962C157.767 44.3962 156.3 45.0629 155.2 46.4296C154.133 47.7296 153.567 49.5296 153.567 51.8296ZM125.967 51.8962C125.967 55.3296 124.967 58.0629 122.933 60.1629C120.933 62.2629 118.267 63.2962 115 63.2962C111.7 63.2962 109.033 62.2629 107.033 60.1629C105 58.0629 104 55.2962 104 51.8962C104 48.4296 105 45.6629 107 43.5629C109 41.4629 111.7 40.4296 115.033 40.4296C118.3 40.4296 120.9 41.4962 122.933 43.5962C124.967 45.7296 125.967 48.4962 125.967 51.8962ZM121.033 51.8296C121.033 49.5296 120.5 47.7296 119.4 46.3962C118.3 45.0629 116.833 44.3962 115 44.3962C113.167 44.3962 111.7 45.0629 110.6 46.4296C109.5 47.7962 108.967 49.5962 108.967 51.8629C108.967 54.2296 109.5 56.0629 110.6 57.3962C111.7 58.7296 113.167 59.3962 115.067 59.4296C116.933 59.4296 118.367 58.7629 119.433 57.3962C120.5 55.9962 121.033 54.1629 121.033 51.8296ZM61.8999 60.1629C59.8666 58.0629 58.8666 55.2962 58.8666 51.8962C58.8666 48.4296 59.8666 45.6629 61.8666 43.5629C63.8666 41.4629 66.5666 40.4296 69.8999 40.4296C73.1666 40.4296 75.7666 41.4962 77.7999 43.5962C79.7999 45.7296 80.8332 48.4962 80.8332 51.8962C80.8332 55.3296 79.8332 58.0629 77.7999 60.1629C75.7999 62.2629 73.1333 63.2962 69.8666 63.2962C66.5666 63.3296 63.8999 62.2629 61.8999 60.1629ZM63.7999 51.8296C63.7999 54.1962 64.3332 56.0296 65.4333 57.3629C66.5332 58.6962 67.9999 59.3629 69.8999 59.3962C71.7666 59.3962 73.1999 58.7296 74.2666 57.3629C75.3332 55.9962 75.8666 54.1629 75.8666 51.8296C75.8666 49.5296 75.3332 47.7296 74.2332 46.3962C73.1332 45.0629 71.6666 44.3962 69.8332 44.3962C67.9999 44.3962 66.5332 45.0629 65.4333 46.4296C64.3332 47.7296 63.7999 49.5296 63.7999 51.8296ZM185.033 62.7962H173.9V40.9629H184.433C186.533 40.9629 188.233 41.4296 189.533 42.3296C190.867 43.2296 191.533 44.6296 191.533 46.4629C191.533 47.4962 191.267 48.3962 190.733 49.1629C190.2 49.9629 189.467 50.5629 188.5 50.9629C191.2 51.7296 192.567 53.4962 192.567 56.2962C192.567 58.3629 191.867 59.9629 190.433 61.0962C189.033 62.2296 187.233 62.7962 185.033 62.7962ZM178.667 49.7962H183.1C185.567 49.7962 186.8 48.9629 186.8 47.2629C186.8 46.2629 186.467 45.5962 185.8 45.2296C185.133 44.8629 184.233 44.6962 183.1 44.6962H178.667V49.7962ZM183.567 58.9962C184.833 58.9962 185.833 58.7962 186.567 58.3962C187.3 57.9962 187.667 57.1962 187.667 56.0296C187.667 54.8296 187.267 54.0629 186.5 53.6629C185.733 53.2629 184.667 53.0629 183.3 53.0629H178.633V58.9962H183.567ZM173.4 89.3296V71.2629H158.867V89.3296H162.633V74.6296H169.633V89.3296H173.4ZM148.133 80.7629L144.267 71.2629H140.1L145.133 82.4296C145.167 82.4962 145.233 82.6296 145.333 82.8629C145.433 83.0962 145.5 83.2629 145.567 83.3629C145.6 83.4629 145.667 83.6296 145.733 83.7962C145.8 83.9962 145.833 84.1629 145.867 84.2962C145.9 84.4629 145.9 84.5962 145.9 84.7629C145.9 85.1962 145.733 85.5629 145.433 85.8629C145.133 86.1629 144.7 86.2962 144.167 86.2962C143.567 86.2962 142.967 86.1629 142.367 85.8962V89.2296C143 89.4962 143.7 89.6296 144.467 89.6296C145.8 89.6296 146.9 89.2629 147.733 88.4962C148.567 87.7296 149.367 86.4296 150.2 84.5296L156 71.2296H151.967L148.133 80.7629ZM109.267 89.3296H113.033V74.6296H121.233V71.2629H109.267V89.3296ZM136.333 81.3629C135.2 82.3296 133.733 82.8296 131.933 82.8296H128.067V89.3296H124.333V71.2629H131.733C133.667 71.2629 135.2 71.7629 136.333 72.7296C137.467 73.6962 138.033 75.1629 138.033 77.0962C138.033 78.9629 137.467 80.3962 136.333 81.3629ZM134.367 77.1296C134.367 75.3962 133.4 74.5296 131.467 74.5296H128.1V79.7296H131.467C133.367 79.6962 134.367 78.8296 134.367 77.1296ZM181.7 74.6296H188.7V89.3296H192.467V71.2629H177.933V89.3296H181.7V74.6296ZM47.0999 97.9962L49.7666 105.23H48.4666L47.7999 103.296H45.0666L44.3999 105.23H43.1666L45.8332 97.9962H47.0999ZM47.4999 102.363L46.4666 99.3296L45.3999 102.363H47.4999ZM20.8666 105.23H22.0666V99.0962H25.1999V105.23H26.3999V97.9962H20.8333L20.8666 105.23ZM16.1333 104.33C15.7666 104.33 15.4666 104.263 15.1999 104.096C14.9333 103.93 14.7333 103.73 14.5666 103.463C14.3999 103.196 14.2999 102.93 14.2333 102.596C14.1666 102.263 14.1333 101.963 14.1333 101.596C14.1333 101.13 14.1999 100.696 14.3333 100.296C14.4666 99.8962 14.6999 99.5629 14.9999 99.2962C15.3333 99.0296 15.6999 98.8962 16.1666 98.8962C16.5999 98.8962 16.9666 99.0296 17.2999 99.2629C17.5999 99.4962 17.7999 99.8629 17.8666 100.296H19.0666C18.9666 99.4962 18.6333 98.8962 18.0999 98.4629C17.5666 98.0296 16.9333 97.8296 16.1999 97.8296C15.5333 97.8296 14.9333 97.9962 14.4333 98.3629C13.9333 98.7296 13.5666 99.1629 13.2999 99.7296C13.0333 100.296 12.9333 100.93 12.9333 101.63C12.9333 102.763 13.2333 103.696 13.7999 104.396C14.3999 105.096 15.1666 105.43 16.1333 105.43C16.9999 105.43 17.6999 105.163 18.2333 104.63C18.7666 104.096 19.0666 103.396 19.1333 102.496H17.9333C17.7333 103.73 17.1666 104.33 16.1333 104.33ZM55.4666 100.896H52.3332V98.0296H51.1332V105.263H52.3332V101.996H55.4666V105.23H56.6666V97.9962H55.4666V100.896ZM29.7666 103.563V98.0296H28.5666V105.263H29.9666L32.9333 99.7296V105.263H34.1333V98.0296H32.7332L29.7666 103.563ZM39.1999 104.33C38.8333 104.33 38.5333 104.263 38.2666 104.096C37.9999 103.93 37.7999 103.73 37.6333 103.463C37.4666 103.196 37.3666 102.93 37.2999 102.596C37.2333 102.263 37.1999 101.963 37.1999 101.596C37.1999 101.13 37.2666 100.696 37.3999 100.296C37.5332 99.8962 37.7666 99.5629 38.0666 99.2962C38.3999 99.0296 38.7666 98.8962 39.2332 98.8962C39.6666 98.8962 40.0332 99.0296 40.3666 99.2629C40.6666 99.4962 40.8666 99.8629 40.9333 100.296H42.1333C42.0333 99.4962 41.6999 98.8962 41.1666 98.4629C40.6333 98.0296 39.9999 97.8296 39.2666 97.8296C38.5999 97.8296 37.9999 97.9962 37.4999 98.3629C36.9999 98.7296 36.6332 99.1629 36.3666 99.7296C36.0999 100.296 35.9999 100.93 35.9999 101.63C35.9999 102.763 36.2999 103.696 36.8666 104.396C37.4666 105.096 38.2332 105.43 39.1999 105.43C40.0666 105.43 40.7666 105.163 41.2999 104.63C41.8333 104.096 42.1332 103.396 42.1999 102.496H40.9999C40.7999 103.73 40.2332 104.33 39.1999 104.33ZM126.1 103.563V98.0296H124.9V105.263H126.3L129.267 99.7296V105.263H130.467V98.0296H129.067L126.1 103.563ZM148.733 100.23C148.733 100.93 148.533 101.463 148.133 101.863C147.733 102.263 147.2 102.463 146.5 102.463H144.567V105.23H143.333V97.9962H146.3C147.033 97.9962 147.633 98.1962 148.067 98.5629C148.5 98.9296 148.733 99.4962 148.733 100.23ZM147.533 100.263C147.533 99.4629 147.067 99.0962 146.1 99.0962H144.533V101.463H146.2C147.1 101.43 147.533 101.03 147.533 100.263ZM151.667 102.03H155.133V100.996H151.667V99.0629H155.433V97.9962H150.5V105.23H155.5V104.13H151.667V102.03ZM141.733 98.0296H140.2L137.167 101.296V98.0296H136V105.263H137.2V102.83L138.2 101.796L140.467 105.263H141.967L139.033 100.93L141.733 98.0296ZM162.633 104.163H163.4V107.063H162.233V105.263H157.767V107.063H156.6V104.163H157.267C157.533 103.663 157.733 102.963 157.9 102.03C158.067 101.096 158.167 100.13 158.167 99.1296V97.9962H162.633V104.163ZM161.433 99.0962H159.333V99.5296C159.333 100.396 159.267 101.263 159.1 102.13C158.933 102.996 158.767 103.663 158.533 104.13H161.4V99.0962H161.433ZM184.267 98.8962C184.867 99.5962 185.167 100.496 185.167 101.63C185.167 102.763 184.867 103.663 184.267 104.363C183.667 105.063 182.867 105.43 181.9 105.43C180.9 105.43 180.133 105.096 179.5 104.396C178.9 103.696 178.6 102.796 178.6 101.663C178.6 100.563 178.9 99.6629 179.5 98.9629C180.1 98.2629 180.9 97.8962 181.933 97.8962C182.867 97.8296 183.667 98.1962 184.267 98.8962ZM183.967 101.63C183.967 100.796 183.767 100.13 183.4 99.6629C183.033 99.1629 182.533 98.9296 181.867 98.9296C181.233 98.9296 180.733 99.1629 180.367 99.6629C180 100.163 179.8 100.796 179.8 101.63C179.8 102.463 180 103.13 180.367 103.63C180.733 104.13 181.267 104.363 181.9 104.363C182.533 104.363 183.033 104.13 183.4 103.63C183.767 103.096 183.967 102.463 183.967 101.63ZM59.9999 103.563V98.0296H58.7999V105.263H60.1999L63.1666 99.7296V105.263H64.3666V98.0296H62.9666L59.9999 103.563ZM166.167 103.563V98.0296H164.967V105.263H166.367L169.333 99.7296V105.263H170.533V98.0296H169.133L166.167 103.563ZM172 99.0962H174.2V105.23H175.4V99.0962H177.6V97.9962H172V99.0962ZM192.633 103.13C192.633 103.763 192.433 104.296 192.033 104.663C191.633 105.063 191.1 105.263 190.467 105.263H186.967V98.0296H190.1C190.833 98.0296 191.367 98.1962 191.767 98.5296C192.133 98.8629 192.333 99.2962 192.333 99.8629C192.333 100.196 192.233 100.53 192.067 100.796C191.9 101.063 191.633 101.263 191.367 101.396C191.767 101.496 192.067 101.696 192.3 101.996C192.533 102.263 192.633 102.663 192.633 103.13ZM188.167 101.03H189.8C190.267 101.03 190.6 100.963 190.833 100.796C191.067 100.63 191.167 100.396 191.167 100.03C191.167 99.6296 191.067 99.3629 190.833 99.2296C190.6 99.0962 190.267 99.0296 189.867 99.0296H188.2L188.167 101.03ZM191.433 103.096C191.433 102.863 191.4 102.663 191.3 102.496C191.233 102.33 191.1 102.23 190.967 102.13C190.8 102.063 190.667 101.996 190.5 101.963C190.333 101.93 190.133 101.93 189.933 101.93H188.133V104.196H189.933C190.4 104.196 190.767 104.13 191.033 103.963C191.3 103.796 191.433 103.496 191.433 103.096ZM82.0666 104.163H82.8332V107.063H81.6666V105.263H77.1999V107.063H76.0332V104.163H76.6999C76.9666 103.663 77.1666 102.963 77.3332 102.03C77.4999 101.096 77.5999 100.13 77.5999 99.1296V97.9962H82.0666V104.163ZM80.8666 99.0962H78.7666V99.5296C78.7666 100.396 78.6999 101.263 78.5332 102.13C78.3666 102.996 78.1999 103.663 77.9666 104.13H80.8332L80.8666 99.0962ZM67.6666 102.03H71.1332V100.996H67.6666V99.0629H71.4333V97.9962H66.4999V105.23H71.4999V104.13H67.6666V102.03ZM89.6999 98.8962C90.2999 99.5962 90.5999 100.496 90.5999 101.63C90.5999 102.763 90.2999 103.663 89.6999 104.363C89.0999 105.063 88.2999 105.43 87.3332 105.43C86.3332 105.43 85.5666 105.096 84.9333 104.396C84.3333 103.696 84.0332 102.796 84.0332 101.663C84.0332 100.563 84.3333 99.6629 84.9333 98.9629C85.5332 98.2629 86.3333 97.8962 87.3666 97.8962C88.3333 97.8296 89.0999 98.1962 89.6999 98.8962ZM89.3999 101.63C89.3999 100.796 89.1999 100.13 88.8332 99.6629C88.4666 99.1629 87.9666 98.9296 87.2999 98.9296C86.6666 98.9296 86.1666 99.1629 85.7999 99.6629C85.4332 100.163 85.2332 100.796 85.2332 101.63C85.2332 102.463 85.4332 103.13 85.7999 103.63C86.1666 104.13 86.6999 104.363 87.3332 104.363C87.9666 104.363 88.4666 104.13 88.8332 103.63C89.2332 103.096 89.3999 102.463 89.3999 101.63ZM111.267 98.8962C111.867 99.5962 112.167 100.496 112.167 101.63C112.167 102.763 111.867 103.663 111.267 104.363C110.667 105.063 109.867 105.43 108.9 105.43C107.9 105.43 107.133 105.096 106.5 104.396C105.9 103.696 105.6 102.796 105.6 101.663C105.6 100.563 105.9 99.6629 106.5 98.9629C107.1 98.2629 107.9 97.8962 108.933 97.8962C109.867 97.8296 110.667 98.1962 111.267 98.8962ZM110.967 101.63C110.967 100.796 110.767 100.13 110.4 99.6629C110.033 99.1629 109.533 98.9296 108.867 98.9296C108.233 98.9296 107.733 99.1629 107.367 99.6629C107 100.163 106.8 100.796 106.8 101.63C106.8 102.463 107 103.13 107.367 103.63C107.733 104.13 108.267 104.363 108.9 104.363C109.533 104.363 110.033 104.13 110.4 103.63C110.767 103.096 110.967 102.463 110.967 101.63ZM119.3 101.963C119.533 102.263 119.633 102.663 119.633 103.096C119.633 103.73 119.433 104.263 119.033 104.63C118.633 105.03 118.1 105.23 117.467 105.23H113.967V97.9962H117.1C117.833 97.9962 118.367 98.1629 118.767 98.4962C119.133 98.8296 119.333 99.2629 119.333 99.8296C119.333 100.163 119.233 100.496 119.067 100.763C118.9 101.03 118.633 101.23 118.367 101.363C118.767 101.463 119.067 101.663 119.3 101.963ZM115.167 101.03H116.8C117.267 101.03 117.6 100.963 117.833 100.796C118.067 100.63 118.167 100.396 118.167 100.03C118.167 99.6296 118.067 99.3629 117.833 99.2296C117.6 99.0962 117.267 99.0296 116.867 99.0296H115.2V101.03H115.167ZM118.433 103.096C118.433 102.863 118.4 102.663 118.3 102.496C118.233 102.33 118.1 102.23 117.967 102.13C117.8 102.063 117.667 101.996 117.5 101.963C117.333 101.93 117.133 101.93 116.933 101.93H115.133V104.196H116.933C117.4 104.196 117.767 104.13 118.033 103.963C118.3 103.796 118.433 103.496 118.433 103.096ZM99.7999 105.23H101V99.0962H104.467V97.9962H99.7999V105.23ZM93.0332 102.196C92.9999 102.763 92.9666 103.23 92.8666 103.563C92.7666 103.896 92.6666 104.096 92.5666 104.196C92.4666 104.296 92.2999 104.33 92.0999 104.33C91.8999 104.33 91.7666 104.296 91.6332 104.263V105.23C91.8999 105.33 92.1332 105.363 92.3666 105.363C92.8999 105.363 93.3332 105.13 93.6666 104.663C93.9999 104.196 94.1666 103.496 94.2333 102.53L94.3666 99.0962H96.4999V105.23H97.6999V97.9962H93.1999L93.0332 102.196ZM54.7666 47.1962C54.7666 52.5296 53.0999 56.5296 49.7332 59.1962C46.3666 61.8962 41.8333 63.2296 36.1333 63.2296H12.3333V22.4629H23.3999V31.2962H36.6999C42.0666 31.2962 46.4333 32.6296 49.7666 35.3296C53.0999 37.9962 54.7666 41.9629 54.7666 47.1962ZM43.8999 47.0629C43.8999 42.2962 40.9999 39.9296 35.1999 39.9296H23.3999V54.2962H35.2666C41.0333 54.2629 43.8999 51.8629 43.8999 47.0629Z" fill="white"/>
<path d="M54.7998 9.12891H7.1665V18.2622H54.7998V9.12891Z" fill="#F36B21"/>
</g>
</g>
<defs>
<clipPath id="clip0_4001_76">
<rect width="200" height="116.66" fill="white"/>
</clipPath>
<clipPath id="clip1_4001_76">
<rect width="200" height="116.66" fill="white"/>
</clipPath>
</defs>
</svg>
