<svg width="24" height="24" viewBox="0 0 24 24" fill="none" xmlns="http://www.w3.org/2000/svg">
<path fill-rule="evenodd" clip-rule="evenodd" d="M12.0114 14.6921L18.7467 21.4197C19.1041 21.7767 19.5888 21.9772 20.0943 21.9772C20.5997 21.9772 21.0844 21.7767 21.4418 21.4197C21.7992 21.0627 22 20.5785 22 20.0736C22 19.5688 21.7992 19.0846 21.4418 18.7276L14.704 12L21.4405 5.27238C21.6174 5.09562 21.7577 4.88579 21.8534 4.65487C21.9491 4.42395 21.9983 4.17646 21.9983 3.92654C21.9982 3.67662 21.9489 3.42915 21.8531 3.19828C21.7573 2.9674 21.6169 2.75764 21.4399 2.58096C21.2629 2.40428 21.0529 2.26414 20.8217 2.16856C20.5905 2.07297 20.3427 2.0238 20.0925 2.02386C19.8423 2.02392 19.5946 2.0732 19.3634 2.1689C19.1323 2.26459 18.9223 2.40483 18.7454 2.58159L12.0114 9.30921L5.2761 2.58159C5.10044 2.39976 4.89028 2.25469 4.6579 2.15485C4.42551 2.05501 4.17554 2.00239 3.92258 2.00008C3.66962 1.99777 3.41873 2.0458 3.18456 2.14137C2.95038 2.23694 2.7376 2.37814 2.55864 2.55673C2.37967 2.73532 2.23811 2.94772 2.14221 3.18154C2.04631 3.41537 1.99799 3.66592 2.00006 3.9186C2.00214 4.17127 2.05458 4.421 2.15431 4.65322C2.25405 4.88543 2.39909 5.09549 2.58096 5.27111L9.3188 12L2.58223 18.7289C2.40036 18.9045 2.25532 19.1146 2.15558 19.3468C2.05585 19.579 2.00341 19.8287 2.00133 20.0814C1.99926 20.3341 2.04758 20.5846 2.14348 20.8185C2.23938 21.0523 2.38094 21.2647 2.55991 21.4433C2.73887 21.6219 2.95165 21.7631 3.18583 21.8586C3.42 21.9542 3.67089 22.0022 3.92385 21.9999C4.17681 21.9976 4.42678 21.945 4.65917 21.8452C4.89155 21.7453 5.10171 21.6002 5.27736 21.4184L12.0114 14.6921Z" fill="white"/>
</svg>
