<?xml version="1.0" encoding="UTF-8" standalone="no"?>
<!-- Generator: Adobe Illustrator 19.0.1, SVG Export Plug-In . SVG Version: 6.00 Build 0)  -->

<svg
   version="1.1"
   id="Слой_1"
   inkscape:version="1.3.2 (091e20e, 2023-11-25, custom)"
   sodipodi:docname="logo-white.svg"
   x="0px"
   y="0px"
   viewBox="296.74887 466.76569 1227.5786 808.84621"
   xml:space="preserve"
   width="368.27359"
   height="242.65387"
   xmlns:inkscape="http://www.inkscape.org/namespaces/inkscape"
   xmlns:sodipodi="http://sodipodi.sourceforge.net/DTD/sodipodi-0.dtd"
   xmlns="http://www.w3.org/2000/svg"
   xmlns:svg="http://www.w3.org/2000/svg"><defs
   id="defs6" />
<sodipodi:namedview
   id="namedview15"
   inkscape:window-y="579"
   inkscape:window-x="-8"
   inkscape:deskcolor="#d1d1d1"
   inkscape:pagecheckerboard="0"
   inkscape:pageopacity="0.0"
   inkscape:showpageshadow="2"
   inkscape:window-height="1009"
   inkscape:current-layer="Слой_1"
   inkscape:window-width="1920"
   inkscape:window-maximized="1"
   inkscape:cy="126.5452"
   inkscape:zoom="2.0980645"
   bordercolor="#ffffff"
   pagecolor="#000000"
   borderopacity="0.25"
   inkscape:cx="168.01199">
	</sodipodi:namedview>
<g
   class="socchat"
   id="g6"
   transform="translate(-89.46179,-79.46435)"
   style="fill:#ffffff">
	<g
   id="g5"
   style="fill:#ffffff">
		<path
   d="m 593.61884,1322.3151 c -8.47571,-12.1525 -9.18555,-28.6408 -9.18555,-43.1416 0,-16.8017 0.8031,-35.8036 10.39191,-48.6636 12.41741,-16.6698 33.57006,-16.6698 40.52105,-16.6698 h 52.14502 v -13.5656 h -56.88586 c -24.54859,0 -39.05902,11.7273 -45.54047,18.7359 -13.95599,15.5556 -15.87982,38.0053 -15.87982,59.949 0,28.2875 4.79132,44.7996 16.53754,56.9945 7.64984,7.9425 21.53894,17.4101 44.26428,17.4101 h 59.77173 v -13.5649 h -57.5044 c -23.08362,0 -34.11261,-10.9516 -38.63543,-17.484 z"
   id="path1"
   style="fill:#ffffff" />
		<path
   d="m 787.65833,1198.563 c -13.21113,0 -37.80182,0 -53.95185,16.7674 -17.56836,18.2405 -17.56836,47.4512 -17.56836,61.4889 0,14.0384 0,43.2489 17.56836,61.4894 16.15131,16.7676 40.74133,16.7676 53.95185,16.7676 13.21051,0 37.80023,0 53.95184,-16.7676 17.56799,-18.2405 17.56799,-47.451 17.56799,-61.4894 0,-14.0377 0,-43.2484 -17.56799,-61.4889 -16.15033,-16.7674 -40.74103,-16.7674 -53.95184,-16.7674 z m 0,142.9484 c -13.68647,0 -32.43061,0 -44.30286,-13.7651 -11.05377,-12.8604 -11.96912,-31.4284 -11.96912,-50.927 0,-19.4986 0.91535,-38.0665 11.96717,-50.9251 11.8742,-13.7663 30.61834,-13.7663 44.30481,-13.7663 13.68615,0 32.43029,0 44.30255,13.7643 11.05407,12.8612 11.96942,31.4285 11.96942,50.9271 0,19.4986 -0.91535,38.0658 -11.96747,50.9252 -11.87421,13.7669 -30.61835,13.7669 -44.3045,13.7669 z"
   id="path2"
   style="fill:#ffffff" />
		<path
   d="m 1008.131,1200.2745 h -14.4236 v 139.5246 h -82.44849 c -1.42956,0 -4.09027,0 -5.27832,-1.6949 -0.84711,-1.1308 -0.78082,-3.4747 -0.72778,-5.3574 0.0135,-0.4773 0.0261,-0.9353 0.0261,-1.3591 v -131.1132 h -14.42365 v 134.3228 c 0,3.1943 0,10.6749 5.53235,15.1692 3.74774,3.1614 9.56024,3.5975 15.28333,3.5975 h 116.45336 v -13.5649 h -19.9933 z"
   id="path3"
   style="fill:#ffffff" />
		<path
   d="m 1139.6381,1272.3907 h -62.8672 c -7.1719,0 -12.4386,-1.895 -15.6425,-5.6204 -3.9404,-4.6757 -3.9404,-10.987 -3.9404,-16.0588 v -50.437 h -14.4236 v 50.0099 c 0,10.8904 1.8209,18.029 6.1067,23.8944 5.6089,7.3739 15.191,11.7768 25.6331,11.7768 h 65.1339 v 67.4084 h 14.4243 v -153.0895 h -14.4243 z"
   id="path4"
   style="fill:#ffffff" />
		<path
   d="m 1245.0195,1198.563 c -9.4612,0 -14.0512,8.1046 -17.6018,16.8614 l -56.1629,137.9396 h 15.5164 l 17.5202,-43.6549 h 81.4563 l 17.5194,43.6549 h 15.5165 l -56.1668,-137.9518 c -3.395,-8.1522 -7.8352,-16.8492 -17.5973,-16.8492 z m -35.0749,97.5806 30.62,-76.0462 c 0.1395,-0.337 0.2862,-0.7063 0.4411,-1.0961 0.7675,-1.9283 2.564,-6.445 4.0138,-6.445 1.4505,0 3.247,4.5167 4.0143,6.445 0.155,0.3898 0.3018,0.7591 0.4356,1.0826 l 30.625,76.0597 z"
   id="path5"
   style="fill:#ffffff" />
		<polygon
   points="1356.3604,1353.364 1370.7839,1353.364 1370.7839,1213.8401 1431.1761,1213.8401 1431.1761,1200.2745 1295.9683,1200.2745 1295.9683,1213.8401 1356.3604,1213.8401 "
   id="polygon5"
   style="fill:#ffffff" />
	</g>
	<g
   id="g14"
   style="fill:#ffffff">
		<g
   id="g9"
   style="fill:#ffffff">
			<path
   id="path6"
   d="m 1606.7606,546.23004 h -559.6885 c -3.8822,0 -7.0288,3.14716 -7.0288,7.02875 v 559.68751 c 0,3.8821 3.1466,7.0288 7.0288,7.0288 h 559.6885 c 3.8821,0 7.0287,-3.1467 7.0287,-7.0288 V 553.25879 c 0,-3.88159 -3.1466,-7.02875 -7.0287,-7.02875 z m -7.0287,559.68756 H 1054.1008 V 560.28754 h 545.6311 z"
   style="fill:#ffffff" />
			<path
   id="path7"
   d="m 1326.9164,852.7782 c 45.419,0 82.3708,-36.95185 82.3708,-82.37189 0,-45.41962 -36.9518,-82.37091 -82.3708,-82.37091 -45.4192,0 -82.371,36.95129 -82.371,82.37091 0,45.42005 36.9518,82.37189 82.371,82.37189 z m 0,-150.68537 c 37.6686,0 68.3135,30.64533 68.3135,68.31348 0,37.66858 -30.6449,68.31439 -68.3135,68.31439 -37.6687,0 -68.3135,-30.64581 -68.3135,-68.31439 0,-37.66815 30.6448,-68.31348 68.3135,-68.31348 z"
   style="fill:#ffffff" />
			<circle
   id="circle7"
   cx="1297.9302"
   cy="749.76514"
   r="14.338903"
   style="fill:#ffffff" />
			<circle
   id="circle8"
   cx="1355.9025"
   cy="749.76514"
   r="14.338903"
   style="fill:#ffffff" />
			<path
   id="path8"
   d="m 1160.8271,773.52545 v 92.69245 c 0,2.61029 1.4465,5.00585 3.7566,6.22076 l 76.492,40.23712 c -11.3877,16.66669 -18.0568,36.80084 -18.0568,58.46521 0,3.88214 3.1467,7.02875 7.0287,7.02875 3.8822,0 7.0288,-3.14661 7.0288,-7.02875 0,-49.53747 40.3025,-89.8399 89.84,-89.8399 49.5375,0 89.8398,40.30243 89.8398,89.8399 0,3.88214 3.1468,7.02875 7.0288,7.02875 3.8821,0 7.0288,-3.14661 7.0288,-7.02875 0,-21.66437 -6.6691,-41.79852 -18.0568,-58.46521 l 76.4919,-40.23712 c 2.3103,-1.21491 3.7566,-3.61047 3.7566,-6.22076 v -92.69245 l 37.7344,-37.73529 c 2.7446,-2.74512 2.7446,-7.19543 0,-9.94006 -2.7456,-2.74457 -7.1955,-2.74457 -9.9411,0 l -27.7933,27.79333 v -51.09906 c 0,-3.88208 -3.1466,-7.02875 -7.0287,-7.02875 -3.8822,0 -7.0288,3.14667 -7.0288,7.02875 v 51.09937 l -27.7943,-27.79364 c -2.7455,-2.74457 -7.1954,-2.74457 -9.9409,0 -2.7448,2.74511 -2.7448,7.19543 0,9.94006 l 37.7352,37.73535 v 88.44751 l -75.0428,39.4751 c -19.0237,-20.99561 -46.4924,-34.20453 -76.9888,-34.20453 -30.4966,0 -57.9651,13.20892 -76.9889,34.20453 l -75.0429,-39.4751 v -88.44751 l 37.7354,-37.73535 c 2.7446,-2.74463 2.7446,-7.19495 0,-9.94006 -2.7437,-2.74457 -7.1935,-2.74457 -9.941,0 l -27.7944,27.79364 v -51.09937 c 0,-3.88208 -3.1467,-7.02875 -7.0286,-7.02875 -3.8821,0 -7.0289,3.14667 -7.0289,7.02875 v 51.09906 l -27.7932,-27.79333 c -2.7447,-2.74457 -7.1944,-2.74457 -9.9411,0 -2.7445,2.74463 -2.7445,7.19494 0,9.94006 z"
   style="fill:#ffffff" />
			<path
   id="path9"
   d="m 1297.3571,796.54437 c -1.8346,-3.42218 -6.0982,-4.70569 -9.5165,-2.87207 -3.4213,1.83563 -4.7068,6.09625 -2.8722,9.51648 6.9053,12.87293 23.371,21.1911 41.948,21.1911 18.5769,0 35.0426,-8.31817 41.9477,-21.1911 1.8348,-3.42023 0.5492,-7.68085 -2.872,-9.51648 -3.4182,-1.83264 -7.6808,-0.54815 -9.5164,2.87207 -4.4204,8.24073 -16.2991,13.77802 -29.5593,13.77802 -13.2604,0 -25.1389,-5.53729 -29.5593,-13.77802 z"
   style="fill:#ffffff" />
		</g>
		<g
   id="g13"
   style="fill:#ffffff">
			<path
   id="path10"
   d="m 952.92694,1119.9751 c 3.88208,0 7.02875,-3.1467 7.02875,-7.0288 V 553.25879 c 0,-3.88159 -3.14667,-7.02875 -7.02875,-7.02875 H 393.23938 c -3.88205,0 -7.02872,3.14716 -7.02872,7.02875 v 559.68751 c 0,3.8821 3.14667,7.0288 7.02872,7.0288 z M 400.26813,560.28754 H 945.89819 V 1105.9176 H 400.26813 Z"
   style="fill:#ffffff" />
			<path
   id="path11"
   d="m 673.08313,852.7782 c 45.41962,0 82.37146,-36.95185 82.37146,-82.37189 0,-45.41962 -36.95184,-82.37091 -82.37146,-82.37091 -45.41956,0 -82.3714,36.95129 -82.3714,82.37091 0,45.42005 36.95184,82.37189 82.3714,82.37189 z m 0,-150.68537 c 37.6687,0 68.31396,30.64533 68.31396,68.31348 0,37.66858 -30.64526,68.31439 -68.31396,68.31439 -37.66864,0 -68.3139,-30.64581 -68.3139,-68.31439 0,-37.66815 30.64526,-68.31348 68.3139,-68.31348 z"
   style="fill:#ffffff" />
			<circle
   id="circle11"
   cx="644.09692"
   cy="749.76514"
   r="14.338903"
   style="fill:#ffffff" />
			<circle
   id="circle12"
   cx="702.06927"
   cy="749.76514"
   r="14.338903"
   style="fill:#ffffff" />
			<path
   id="path12"
   d="m 647.73291,805.53131 c 0,14.638 11.37225,26.54706 25.35022,26.54706 13.97809,0 25.35022,-11.90906 25.35022,-26.54706 0,-14.63794 -11.37213,-26.547 -25.35022,-26.547 -13.97797,0 -25.35022,11.90906 -25.35022,26.547 z m 25.35022,-12.4895 c 6.22668,0 11.29279,5.60297 11.29279,12.4895 0,6.88654 -5.06611,12.48956 -11.29279,12.48956 -6.22662,0 -11.29272,-5.60302 -11.29272,-12.48956 0,-6.88653 5.0661,-12.4895 11.29272,-12.4895 z"
   style="fill:#ffffff" />
			<path
   id="path13"
   d="m 913.58691,778.38519 -31.16095,0.39746 35.66962,-36.5913 c 2.70935,-2.77991 2.65241,-7.22974 -0.12701,-9.93958 -2.7804,-2.70984 -7.22974,-2.65295 -9.93952,0.12701 l -35.6687,36.59101 -0.50165,-39.30329 c -0.049,-3.88159 -3.19616,-6.99444 -7.11798,-6.93853 -3.88159,0.0496 -6.98803,3.23639 -6.93853,7.11798 l 0.67919,53.2091 -117.67657,109.35688 c -18.20001,-15.67719 -41.87256,-25.16834 -67.72168,-25.16834 -25.84918,0 -49.52185,9.49121 -67.72186,25.16852 l -117.67636,-109.35712 0.67871,-53.20904 c 0.0495,-3.88159 -3.05692,-7.06842 -6.93851,-7.11798 -0.0304,-4.9e-4 -0.0613,-4.9e-4 -0.0917,-4.9e-4 -3.83993,0 -6.97726,3.08832 -7.0263,6.93902 l -0.50128,39.3031 -35.66855,-36.59082 c -2.7103,-2.77996 -7.16062,-2.83685 -9.93958,-0.12701 -2.77942,2.70984 -2.83627,7.15967 -0.12698,9.93958 l 35.66965,36.5913 -31.16095,-0.39746 c -0.0309,-9.7e-4 -0.0613,-9.7e-4 -0.0917,-9.7e-4 -3.8399,0 -6.97723,3.08783 -7.02627,6.93951 -0.0495,3.8811 3.05694,7.06793 6.93853,7.11694 l 45.35639,0.5785 117.58713,109.27429 c -16.26496,18.34466 -26.15827,42.46069 -26.15827,68.84753 0,3.88214 3.14667,7.02875 7.02875,7.02875 3.88208,0 7.02875,-3.14661 7.02875,-7.02875 0,-49.53747 40.30249,-89.8399 89.84039,-89.8399 49.53796,0 89.84045,40.30243 89.84045,89.8399 0,3.88214 3.14667,7.02875 7.02875,7.02875 3.88208,0 7.02875,-3.14661 7.02875,-7.02875 0,-26.38696 -9.89343,-50.50317 -26.15851,-68.84778 l 117.5874,-109.27404 45.35639,-0.5785 c 3.88159,-0.049 6.98803,-3.23584 6.93854,-7.11694 -0.0495,-3.88208 -3.22022,-7.02484 -7.11799,-6.93854 z"
   style="fill:#ffffff" />
		</g>
	</g>
</g>
</svg>
