<?xml version="1.0" encoding="utf-8"?>
<!-- Generator: Adobe Illustrator 28.0.0, SVG Export Plug-In . SVG Version: 6.00 Build 0)  -->
<svg version="1.1" id="Capa_1" xmlns="http://www.w3.org/2000/svg" xmlns:xlink="http://www.w3.org/1999/xlink" x="0px" y="0px"
	 viewBox="0 0 512 512" style="enable-background:new 0 0 512 512;" xml:space="preserve">
<style type="text/css">
	.st0{fill:url(#SVGID_1_);}
</style>
<g>
	<g>
		<linearGradient id="SVGID_1_" gradientUnits="userSpaceOnUse" x1="256" y1="512" x2="256" y2="-9.094947e-13">
			<stop  offset="0" style="stop-color:#FF3300"/>
			<stop  offset="1" style="stop-color:#FF6600"/>
		</linearGradient>
		<path class="st0" d="M256,0C148.5,0,61,87.5,61,195c0,42.6,13.4,83,38.9,116.9L244,506c0.4,0.5,0.9,0.6,1.3,1.1
			c7.2,7.7,17.6,5.8,22.7-1.1c41.5-55.4,117.5-158.8,146.8-197.8c0,0,0,0,0,0l0.2-0.2c23.6-33.1,36-72.1,36-112.9
			C451,87.5,363.5,0,256,0z M256,300.2c-57.9,0-105.2-47.3-105.2-105.2S198.1,89.8,256,89.8S361.2,137.1,361.2,195
			S313.9,300.2,256,300.2z"/>
	</g>
</g>
</svg>
