<?xml version="1.0" encoding="utf-8"?>
<!-- Generator: Adobe Illustrator 28.0.0, SVG Export Plug-In . SVG Version: 6.00 Build 0)  -->
<svg version="1.1" id="Layer_1" xmlns="http://www.w3.org/2000/svg" xmlns:xlink="http://www.w3.org/1999/xlink" x="0px" y="0px"
	 viewBox="0 0 512 512" style="enable-background:new 0 0 512 512;" xml:space="preserve">
<style type="text/css">
	.st0{fill:#FFFFFF;}
</style>
<path class="st0" d="M490.7,234.7c-11.8,0-21.3,9.6-21.3,21.3c0.4,118.2-95.1,214.4-213.3,214.8c-118.2,0.4-214.4-95.1-214.8-213.3
	C40.8,139.3,136.3,43.1,254.5,42.7c57.4-0.2,112.5,22.7,152.9,63.5c-0.7,0.2-1.4,0.3-2.1,0.4h-64c-11.8,0-21.3,9.6-21.3,21.3
	s9.6,21.3,21.3,21.3h64c35.3,0,64-28.7,64-64v-64C469.3,9.6,459.8,0,448,0c-11.8,0-21.3,9.6-21.3,21.3v44.1
	C321.3-28.8,159.6-19.7,65.4,85.6s-85.1,267.1,20.2,361.3s267.1,85.1,361.3-20.2C488.8,379.7,512,319,512,256
	C512,244.2,502.4,234.7,490.7,234.7z"/>
<path class="st0" d="M256,128c-11.8,0-21.3,9.6-21.3,21.3V256c0,5.7,2.2,11.1,6.3,15.1l64,64c8.5,8.2,22,8,30.2-0.5
	c8-8.3,8-21.4,0-29.6l-57.7-57.7v-97.8C277.3,137.6,267.8,128,256,128L256,128z"/>
</svg>
