<svg width="60" height="60" viewBox="0 0 60 60" fill="none" xmlns="http://www.w3.org/2000/svg">
<rect width="60" height="60" rx="20" fill="white"/>
<g clip-path="url(#clip0_184_1311)">
<path d="M34.5 16.5C34.5 17.5609 34.9214 18.5783 35.6716 19.3284C36.4217 20.0786 37.4391 20.5 38.5 20.5C39.5609 20.5 40.5783 20.0786 41.3284 19.3284C42.0786 18.5783 42.5 17.5609 42.5 16.5C42.5 15.4391 42.0786 14.4217 41.3284 13.6716C40.5783 12.9214 39.5609 12.5 38.5 12.5C37.4391 12.5 36.4217 12.9214 35.6716 13.6716C34.9214 14.4217 34.5 15.4391 34.5 16.5Z" fill="#263957"/>
<path d="M27.5 33C27.5 33.7223 27.6423 34.4375 27.9187 35.1048C28.1951 35.7721 28.6002 36.3784 29.1109 36.8891C29.6216 37.3998 30.2279 37.8049 30.8952 38.0813C31.5625 38.3577 32.2777 38.5 33 38.5C33.7223 38.5 34.4375 38.3577 35.1048 38.0813C35.7721 37.8049 36.3784 37.3998 36.8891 36.8891C37.3998 36.3784 37.8049 35.7721 38.0813 35.1048C38.3577 34.4375 38.5 33.7223 38.5 33C38.5 32.2777 38.3577 31.5625 38.0813 30.8952C37.8049 30.228 37.3998 29.6216 36.8891 29.1109C36.3784 28.6002 35.7721 28.1951 35.1048 27.9187C34.4375 27.6423 33.7223 27.5 33 27.5C32.2777 27.5 31.5625 27.6423 30.8952 27.9187C30.2279 28.1951 29.6216 28.6002 29.1109 29.1109C28.6002 29.6216 28.1951 30.228 27.9187 30.8952C27.6423 31.5625 27.5 32.2777 27.5 33Z" fill="#263957"/>
<path d="M16.5 44C16.5 44.9283 16.8687 45.8185 17.5251 46.4749C18.1815 47.1312 19.0717 47.5 20 47.5C20.9283 47.5 21.8185 47.1312 22.4749 46.4749C23.1313 45.8185 23.5 44.9283 23.5 44C23.5 43.0717 23.1313 42.1815 22.4749 41.5251C21.8185 40.8687 20.9283 40.5 20 40.5C19.0717 40.5 18.1815 40.8687 17.5251 41.5251C16.8687 42.1815 16.5 43.0717 16.5 44Z" fill="#263957"/>
<path d="M40.5 34.5C40.5 35.2957 40.8161 36.0587 41.3787 36.6213C41.9413 37.1839 42.7044 37.5 43.5 37.5C44.2956 37.5 45.0587 37.1839 45.6213 36.6213C46.1839 36.0587 46.5 35.2957 46.5 34.5C46.5 33.7044 46.1839 32.9413 45.6213 32.3787C45.0587 31.8161 44.2956 31.5 43.5 31.5C42.7044 31.5 41.9413 31.8161 41.3787 32.3787C40.8161 32.9413 40.5 33.7044 40.5 34.5Z" fill="#263957"/>
<path d="M20.5 22.5C20.5 23.2956 20.8161 24.0587 21.3787 24.6213C21.9413 25.1839 22.7044 25.5 23.5 25.5C24.2956 25.5 25.0587 25.1839 25.6213 24.6213C26.1839 24.0587 26.5 23.2956 26.5 22.5C26.5 21.7044 26.1839 20.9413 25.6213 20.3787C25.0587 19.8161 24.2956 19.5 23.5 19.5C22.7044 19.5 21.9413 19.8161 21.3787 20.3787C20.8161 20.9413 20.5 21.7044 20.5 22.5Z" fill="#263957"/>
<path d="M35.5 44.5C35.5 45.0304 35.7107 45.5391 36.0858 45.9142C36.4609 46.2893 36.9696 46.5 37.5 46.5C38.0304 46.5 38.5391 46.2893 38.9142 45.9142C39.2893 45.5391 39.5 45.0304 39.5 44.5C39.5 43.9696 39.2893 43.4609 38.9142 43.0858C38.5391 42.7107 38.0304 42.5 37.5 42.5C36.9696 42.5 36.4609 42.7107 36.0858 43.0858C35.7107 43.4609 35.5 43.9696 35.5 44.5Z" fill="#263957"/>
<path d="M15.5 30.5C15.5 31.0304 15.7107 31.5391 16.0858 31.9142C16.4609 32.2893 16.9696 32.5 17.5 32.5C18.0304 32.5 18.5391 32.2893 18.9142 31.9142C19.2893 31.5391 19.5 31.0304 19.5 30.5C19.5 29.9696 19.2893 29.4609 18.9142 29.0858C18.5391 28.7107 18.0304 28.5 17.5 28.5C16.9696 28.5 16.4609 28.7107 16.0858 29.0858C15.7107 29.4609 15.5 29.9696 15.5 30.5Z" fill="#263957"/>
</g>
<defs>
<clipPath id="clip0_184_1311">
<rect width="35" height="35" fill="white" transform="translate(12.5 12.5)"/>
</clipPath>
</defs>
</svg>
