<svg width="60" height="60" viewBox="0 0 60 60" fill="none" xmlns="http://www.w3.org/2000/svg">
<rect width="60" height="60" rx="20" fill="white"/>
<path d="M42.2524 39.6936C42.2463 39.6911 42.2401 39.6886 42.2339 39.6861C41.428 39.3765 40.6394 39.1491 39.9451 38.9556C39.4827 38.8269 39.0665 38.7132 38.7163 38.6045C38.3136 36.4892 38.6639 33.0212 40.3392 27.9013C41.4348 24.5527 46.732 7 30 7C13.2681 7 18.9346 24.4496 19.6609 27.9013C20.5605 32.1772 21.883 36.5923 21.338 38.5411C20.5179 38.8318 19.5881 39.2112 18.6176 39.7922C15.2497 39.058 10.0931 42.4218 11.137 48.8027C11.2443 49.5652 12.8216 50.2114 15.0691 50.7333C15.2411 50.7974 15.4107 50.8627 15.5969 50.9268C18.7323 52.007 23.8969 52.9981 30 53C35.1123 52.9994 39.4272 52.3236 42.5071 51.4751C43.2791 51.2622 43.9721 51.0386 44.5843 50.8106C47.0144 50.2761 48.7507 49.6041 48.8629 48.8028C49.8205 42.9506 45.5629 39.6371 42.2524 39.6936ZM39.0763 46.8734C38.6027 46.8734 34.4198 45.3793 30 47.1479C25.5803 45.3793 21.3973 46.8734 20.9237 46.8734C20.547 46.8734 20.1734 42.7 19.6369 40.8341C21.0008 40.0772 22.2858 39.725 23.3642 39.3405C24.0727 39.083 24.6652 38.8112 25.132 38.3583C25.3633 38.1322 25.5544 37.8558 25.6765 37.5437C25.7992 37.2316 25.8541 36.8912 25.8535 36.5364C25.8535 35.7858 25.8535 34.8475 25.8535 33.5619V33.29L25.6753 33.0885C24.7282 32.0138 23.4456 30.5882 23.0011 28.0527L22.9308 27.6476L22.5509 27.5094C22.3092 27.4215 22.1249 27.3316 21.9639 27.218C21.7266 27.0472 21.5113 26.8142 21.2597 26.3363C21.0113 25.8615 20.7479 25.1524 20.46 24.1231C20.3336 23.6728 20.2886 23.323 20.2886 23.063C20.2893 22.7615 20.346 22.5844 20.404 22.4732C20.4915 22.3112 20.5989 22.2422 20.7358 22.1863C20.8294 22.1499 20.9287 22.1361 20.9855 22.131L21.6581 22.2768C21.9091 22.6838 22.0287 23.0782 22.0287 23.0782C22.0287 23.0782 21.5551 21.6311 22.8179 19.7018C24.0487 17.8215 29.3286 19.4506 32.6644 14.6204C35.9243 18.5375 35.9977 15.9632 37.1822 17.7724C38.4449 19.7018 37.9714 23.0782 37.9714 23.0782C37.9714 23.0782 38.1096 22.6285 38.3969 22.1939L38.9808 22.1305C39.0246 22.1292 39.246 22.1512 39.3921 22.2504C39.4717 22.3019 39.5364 22.3622 39.5956 22.4734C39.6535 22.5847 39.7102 22.7611 39.7115 23.0632C39.7115 23.3232 39.6658 23.6724 39.54 24.1232C39.1571 25.4974 38.8136 26.2963 38.4986 26.7397C38.3408 26.9632 38.1965 27.1039 38.0361 27.2182C37.8752 27.3319 37.6909 27.4217 37.4492 27.5096L37.0694 27.6478L36.9992 28.0529C36.5546 30.5883 35.272 32.014 34.3249 33.0886L34.1468 33.2902V33.5621C34.1468 34.8483 34.1468 35.786 34.1468 36.5366C34.1455 37.0032 34.3237 37.4221 34.5678 37.7568C34.9372 38.2618 35.4502 38.6355 36.0088 38.9615C36.5686 39.2855 37.181 39.5518 37.7568 39.7717C38.4449 40.0317 39.3218 40.2364 40.2805 40.5215C40.3348 40.5379 40.3903 40.5555 40.4446 40.5717C39.8637 42.2711 39.4716 46.8734 39.0763 46.8734Z" fill="#263957"/>
</svg>
