<svg width="123" height="23" viewBox="0 0 123 23" fill="none" xmlns="http://www.w3.org/2000/svg">
<path d="M11.8136 0L14.6025 8.78522H23.6273L16.326 14.2148L19.1149 23L11.8136 17.5704L4.51241 23L7.30123 14.2148L0 8.78522H9.02481L11.8136 0Z" fill="#FFC300"/>
<path d="M36.6568 0L39.4456 8.78522H48.4705L41.1692 14.2148L43.958 23L36.6568 17.5704L29.3556 23L32.1444 14.2148L24.8432 8.78522H33.868L36.6568 0Z" fill="#FFC300"/>
<path d="M61.5 0L64.2888 8.78522H73.3136L66.0124 14.2148L68.8012 23L61.5 17.5704L54.1988 23L56.9876 14.2148L49.6864 8.78522H58.7112L61.5 0Z" fill="#FFC300"/>
<path d="M86.3432 0L89.132 8.78522H98.1568L90.8556 14.2148L93.6444 23L86.3432 17.5704L79.042 23L81.8308 14.2148L74.5295 8.78522H83.5544L86.3432 0Z" fill="#FFC300"/>
<path d="M111.186 0L113.975 8.78522H123L115.699 14.2148L118.488 23L111.186 17.5704L103.885 23L106.674 14.2148L99.3727 8.78522H108.398L111.186 0Z" fill="#FFC300"/>
</svg>
