<svg width="60" height="60" viewBox="0 0 60 60" fill="none" xmlns="http://www.w3.org/2000/svg">
<rect width="60" height="60" rx="20" fill="white"/>
<g clip-path="url(#clip0_184_459)">
<path d="M27.6269 27.5709L30.7408 24.4563C27.1193 22.7925 22.6861 23.4471 19.7072 26.4259C15.884 30.2498 15.884 36.4696 19.7072 40.2921C23.5297 44.1161 29.7502 44.1161 33.5735 40.2921C36.5524 37.3133 37.2065 32.8801 35.5425 29.2582L32.4286 32.3728C32.7372 34.1879 32.1989 36.1197 30.8 37.5187C28.506 39.8119 24.774 39.8119 22.4804 37.5187C20.1862 35.2247 20.1862 31.4933 22.4804 29.1994C23.8789 27.8005 25.8112 27.2622 27.6269 27.5709Z" fill="#263957"/>
<path d="M39.6615 29.0337C41.2387 33.8046 40.1367 39.276 36.3475 43.0654C30.9954 48.4172 22.2868 48.4172 16.9346 43.0654C11.5828 37.7135 11.5828 29.0046 16.9346 23.6535C20.7247 19.8627 26.1954 18.7609 30.967 20.3389L30.5138 16.1495C24.8097 14.8756 18.5915 16.4494 14.1614 20.8792C7.27953 27.761 7.27953 38.9577 14.1614 45.8389C21.0425 52.7199 32.2389 52.7199 39.1203 45.8389C43.5505 41.4084 45.124 35.1913 43.8496 29.4876L39.6615 29.0337Z" fill="#263957"/>
<path d="M33.8072 24.7189L27.0744 31.4521C26.4397 31.3076 25.7484 31.4791 25.254 31.9729C24.4883 32.7383 24.4883 33.9797 25.254 34.7458C26.0199 35.5117 27.2611 35.5117 28.0274 34.7458C28.5219 34.2514 28.6922 33.5596 28.5483 32.9254L35.2814 26.1929L43.5939 27.0926L43.9253 26.7609L52.9999 17.6859L43.3575 16.6429L42.3135 7.00049L32.9075 16.4065L32.9581 16.8733L33.8072 24.7189ZM42.8712 25.0419L37.061 24.413L39.0834 22.3899L39.0702 22.3777L44.9046 23.0086L42.8712 25.0419ZM42.829 18.5572L48.7181 19.1948L46.6845 21.2293L40.7953 20.5917L42.829 18.5572ZM40.8049 11.2823L41.4418 17.1712L39.4086 19.2043L38.772 13.3162L40.8049 11.2823ZM36.9915 15.0954L37.623 20.9295L37.6098 20.916L35.5871 22.9391L34.9579 17.1279L36.9915 15.0954Z" fill="#263957"/>
</g>
<defs>
<clipPath id="clip0_184_459">
<rect width="44" height="44" fill="white" transform="translate(8 8)"/>
</clipPath>
</defs>
</svg>
