<svg width="60" height="60" viewBox="0 0 60 60" fill="none" xmlns="http://www.w3.org/2000/svg">
<rect width="60" height="60" rx="20" fill="white"/>
<g clip-path="url(#clip0_184_455)">
<path d="M29.9998 56.0001C44.3591 56.0001 55.9996 44.3596 55.9996 30.0003C55.9996 15.641 44.3591 4.00049 29.9998 4.00049C15.6405 4.00049 4 15.641 4 30.0003C4 44.3596 15.6405 56.0001 29.9998 56.0001Z" fill="white"/>
<path d="M20.4915 5.0002C20.2891 7.37235 20.1321 10.0422 20.2552 11.7231C20.519 15.3302 26.5097 17.9008 24.3895 22.7924C22.2691 27.684 23.4106 27.0461 24.2894 29.6359C25.1681 32.2257 25.5574 36.8546 23.4907 43.4534C21.9499 48.3722 19.7037 51.0507 18.9809 53C13.5503 50.5342 9.12916 46.1385 6.53198 40.654C6.15338 38.9956 5.91479 37.6023 5.97461 36.8163C6.05313 35.7824 5.25424 34.175 4.19297 32.5334C4.06589 31.4782 4 30.404 4 29.3135C4 18.1351 10.8709 8.61354 20.4916 5L20.4915 5.0001V5.0002Z" fill="#263957"/>
<path d="M24.0929 26.4707C19.2164 27.0207 6.84822 31.2991 4.0003 30.0003H4C4 33.067 4.53249 36.0092 5.50749 38.7411C5.77064 38.1746 6.04852 37.5419 6.04852 37.5419L6.74097 34.9146C6.74097 34.9146 8.50348 31.3652 13.2546 30.1377C18.0057 28.9104 23.9853 27.5158 23.9853 27.5158L24.0927 26.4709L24.0929 26.4707Z" fill="#B3D8FF"/>
<path d="M39.2622 5C39.6823 7.33526 40.4491 10.3224 40.35 11.6324C39.881 17.8343 37.1815 20.7721 36.3848 25.376C35.4572 30.7353 35.9406 38.0879 40.8285 52L40.8345 51.9973C40.9998 51.9246 41.1641 51.8503 41.3275 51.7744L41.3549 51.7615C42.283 51.3287 43.1803 50.8415 44.043 50.3041L44.0494 50.3001C44.9092 49.7641 45.7345 49.1783 46.521 48.5466L46.5559 48.5185C46.6888 48.4114 46.821 48.3028 46.9516 48.1931L46.999 48.1532C47.4787 47.7485 47.943 47.3264 48.3909 46.8879L48.4117 46.8678C48.528 46.7537 48.6433 46.6382 48.7574 46.5219L48.8265 46.4514C48.9373 46.3375 49.0469 46.2229 49.1553 46.1073L49.2189 46.039C49.3294 45.9203 49.4387 45.8011 49.5468 45.6805L49.594 45.6274C49.8744 45.3129 50.1469 44.9914 50.4114 44.6631L50.4633 44.599C50.5593 44.4788 50.6543 44.3578 50.7481 44.2359L50.8246 44.1362C50.9131 44.0202 51.0009 43.9034 51.0871 43.7857L51.1781 43.6614C51.265 43.5416 51.3513 43.4214 51.4361 43.3L51.5026 43.2045C51.5883 43.0807 51.6733 42.9567 51.7568 42.8315C51.8034 42.7614 51.8495 42.6913 51.8956 42.6208C51.9691 42.5082 52.0417 42.3948 52.1137 42.2812C52.1545 42.2162 52.1956 42.1511 52.2359 42.0859C52.3028 41.9775 52.3688 41.8684 52.4342 41.7592L52.5413 41.5785C52.606 41.4683 52.6698 41.3575 52.7328 41.2461L52.8388 41.0568C52.9004 40.9461 52.9612 40.8344 53.0213 40.7223C53.0571 40.6554 53.0928 40.5878 53.1282 40.5203C53.1835 40.4148 53.2381 40.309 53.2922 40.2025C53.3407 40.1068 53.3885 40.0105 53.436 39.914C53.8195 38.291 54.0704 37.0485 54.0005 36.1577C53.9835 35.94 54.3605 35.9324 54.9549 36.0216C55.6341 33.7374 56 31.3181 56 28.8137C56 17.8576 49.0241 8.52751 39.2615 5.0003L39.2622 5Z" fill="#263957"/>
<path d="M35.9079 26.4711C40.7844 27.0211 53.1526 31.2995 56.0005 30.0007H56.0007C56.0007 32.7228 55.5814 35.3471 54.8056 37.8127C54.3506 37.7863 53.9995 37.7229 53.952 37.5421L53.2595 34.9148C53.2595 34.9148 51.497 31.3654 46.7459 30.1379C41.9948 28.9104 35.7539 27.4782 35.7539 27.4782L35.908 26.4707L35.9079 26.4711Z" fill="#B3D8FF"/>
<path d="M11.8166 12.3481C11.9282 12.231 12.0408 12.1151 12.1542 12L13.2322 12.803C13.3521 12.9082 13.3939 13.5412 12.7046 12.9797L11.8166 12.3481ZM5.31248 27.3595C5.10783 27.3129 4.64451 27.7047 5.48676 27.8852L7.63451 28.0813C7.83621 28.0782 8.1673 27.6128 7.37837 27.6128L5.31258 27.3597L5.31248 27.3595ZM9.00611 27.4566C8.87489 27.4864 8.40333 28.1037 9.53728 27.8233L11.4174 27.1252C11.598 27.0302 11.6796 26.4797 11.0087 26.7983L9.00611 27.4566ZM12.3811 25.9774C12.277 26.0595 12.1205 26.8154 13.0099 26.091L14.4133 24.655C14.5553 24.4776 14.3477 23.9867 13.9039 24.5302L12.3811 25.9774ZM14.7853 23.2106C14.7219 23.325 14.9146 24.0772 15.4044 23.0431C15.5697 22.6942 16.1002 21.4088 16.0451 21.0723C16.0366 21.0193 15.7219 20.4785 15.5141 21.3181L14.7852 23.2103L14.7853 23.2106ZM15.7457 19.694C15.7457 19.8865 16.2317 20.3124 16.2317 19.3534L15.9865 17.3039C15.9428 17.122 15.4092 16.8759 15.5722 17.6383L15.746 19.694H15.7457ZM15.0824 16.1102C15.133 16.2302 15.8507 16.5581 15.335 15.5199L14.2541 13.8525C14.1372 13.7093 13.5425 13.7074 14.0284 14.3329L15.0824 16.1102Z" fill="#C30025"/>
<path d="M21.7316 15.4843C21.4512 15.6225 21.6638 16.0459 21.9472 15.9061C22.9934 15.3831 24.1474 15.2559 25.2654 15.5136C25.5951 15.5918 25.6864 15.125 25.3882 15.0572L25.3758 15.0543C24.1492 14.7695 22.8717 14.9146 21.7316 15.4843ZM26.7816 15.6032C26.4926 15.4477 26.2776 15.87 26.5427 16.0125C27.2001 16.3771 27.7737 16.9215 28.1876 17.5416C28.3538 17.7991 28.7618 17.5515 28.5889 17.2839C28.1402 16.6055 27.4984 16.0006 26.7816 15.6032ZM29.2243 18.6242C29.1287 18.3413 28.7137 18.4412 28.7594 18.7344L28.7655 18.7594L28.7741 18.787C28.9824 19.4936 29.0291 20.2347 28.9035 20.9606L28.8988 20.9861C28.8486 21.3077 29.3245 21.3629 29.3701 21.0688C29.5161 20.2685 29.4644 19.4312 29.2327 18.6516L29.2243 18.6242ZM28.8998 22.4747C29.0415 22.1948 28.6123 21.9856 28.4721 22.262C28.1295 22.9378 27.6367 23.5221 27.0208 23.9724C26.7823 24.1605 27.0219 24.5074 27.2834 24.3665L27.3052 24.3524C27.9837 23.8533 28.5213 23.2213 28.8998 22.4747ZM25.9867 25.0569C26.2419 24.973 26.1737 24.5557 25.8543 24.6041L25.8221 24.6134C25.0923 24.8761 24.3482 24.9606 23.5911 24.8772L23.577 24.8757C23.2568 24.8513 23.209 25.2975 23.5196 25.3447C24.3623 25.4404 25.1898 25.3434 25.9867 25.0569ZM22.0701 24.965C22.3673 25.0872 22.5444 24.6483 22.2591 24.531C21.5685 24.2437 20.9211 23.7726 20.4431 23.2028C20.2539 22.9696 19.8703 23.2529 20.0756 23.5058C20.6222 24.1405 21.2905 24.6409 22.0701 24.965ZM19.2843 22.2492C19.4019 22.5276 19.8483 22.3568 19.7232 22.0604C19.4214 21.3696 19.2814 20.6229 19.3258 19.8714L19.326 19.867C19.3496 19.5647 18.8728 19.5189 18.8482 19.8372L18.8477 19.8443C18.803 20.6805 18.9481 21.4802 19.2843 22.2492ZM19.146 18.3876C19.0477 18.6787 19.4722 18.8426 19.5959 18.5493L19.5963 18.548C19.8542 17.8324 20.277 17.204 20.8341 16.6816C21.0219 16.4964 20.8278 16.2021 20.5845 16.2894C20.5584 16.2989 20.5256 16.3186 20.5052 16.3384C19.8927 16.915 19.4303 17.5992 19.146 18.3876Z" fill="#C30025"/>
<path d="M23.5186 29.2627C22.6967 29.2627 21.8689 29.374 21.082 29.6101C20.8379 29.6834 20.7642 30.1821 21.4124 30.0084C22.755 29.6486 24.1577 29.6598 25.5055 29.9813C25.6927 30.0259 26.2211 29.6405 25.2749 29.4433L23.5186 29.2627ZM27.0185 30.0076C26.8899 29.9548 26.2435 30.1481 27.0736 30.5562L28.7675 31.6717C28.8872 31.7704 29.6269 31.7236 28.7556 31.0496L27.0182 30.0077L27.0185 30.0076ZM30.1095 32.3634C29.9878 32.2135 29.4046 32.2261 29.8765 32.8347L30.9225 34.6227C30.981 34.7609 31.6724 35.0534 31.1905 34.0539L30.1095 32.3634ZM31.8079 35.8328C31.7625 35.6389 31.2416 35.409 31.3838 36.1437L31.5066 38.2123C31.4913 38.406 31.973 38.8358 32.0019 37.9104L31.8079 35.8328ZM31.751 39.6863C31.7969 39.4898 31.4414 39.0474 31.2232 39.8049L30.4028 41.681C30.3178 41.8179 30.5141 42.4813 30.9808 41.6339L31.7508 39.6862H31.751V39.6863ZM29.9504 43.1054C30.0686 42.9596 29.9831 42.3799 29.4125 42.991L27.8396 44.2959C27.7234 44.3696 27.5255 45.116 28.4706 44.4433L29.9504 43.1054ZM26.791 45.3712C26.9775 45.2946 27.1101 44.7466 26.4049 45.0154L24.3631 45.5019C24.2294 45.5139 23.7021 46.0951 24.8573 45.9138L26.791 45.3712ZM22.9365 45.9996C23.1274 46.014 23.5228 45.5844 22.7421 45.5105L20.7057 45.0487C20.5384 44.9842 19.9542 45.3069 20.8364 45.5948L22.9365 45.9996ZM19.2041 44.8633C19.4713 45.031 19.7018 44.61 19.4472 44.4565L17.6424 43.0254C17.4112 42.7975 17.0844 43.1197 17.2899 43.3453C17.8296 43.9282 18.5145 44.4636 19.2041 44.8633ZM16.382 42.1974C16.4798 42.3493 17.0802 42.4262 16.6559 41.7395L15.8175 39.8656C15.7606 39.687 15.1666 39.4435 15.4467 40.2786L16.3823 42.1973L16.382 42.1974ZM15.0684 38.5692C15.083 38.7556 15.5867 39.064 15.523 38.2991L15.6219 36.2348C15.653 36.0651 15.2298 35.5409 15.099 36.4691L15.0684 38.5692ZM15.5382 34.7437C15.4885 34.8912 15.7476 35.4727 16.0876 34.6522L17.094 32.9022C17.1853 32.786 17.084 32.0654 16.4962 32.9147L15.538 34.7437H15.5382ZM17.697 31.5324C17.5866 31.6412 17.5519 32.279 18.2293 31.6936L19.9228 30.5693C20.0488 30.5072 20.3171 29.7947 19.3274 30.3475L17.697 31.5324Z" fill="#C30025"/>
</g>
<defs>
<clipPath id="clip0_184_455">
<rect width="52" height="52" fill="white" transform="translate(4 4)"/>
</clipPath>
</defs>
</svg>
