<svg width="60" height="60" viewBox="0 0 60 60" fill="none" xmlns="http://www.w3.org/2000/svg">
<rect width="60" height="60" rx="20" fill="white"/>
<path d="M13.6982 21.7119C15.4951 21.7119 16.7454 22.1799 17.4492 23.1157C18.1605 24.0441 18.5161 25.0024 18.5161 25.9907H16.5171C16.3973 25.3543 16.2064 24.8564 15.9443 24.4971C15.4577 23.8232 14.7202 23.4863 13.7319 23.4863C12.6014 23.4863 11.703 24.0104 11.0366 25.0586C10.3703 26.0993 9.99967 27.5929 9.9248 29.5396C10.389 28.8582 10.973 28.3491 11.6768 28.0122C12.3206 27.7127 13.0394 27.563 13.833 27.563C15.1807 27.563 16.3561 27.9935 17.3594 28.8545C18.3626 29.7155 18.8643 30.9995 18.8643 32.7065C18.8643 34.1665 18.3888 35.4618 17.438 36.5923C16.4871 37.7153 15.132 38.2769 13.3726 38.2769C11.8677 38.2769 10.5687 37.7078 9.47559 36.5698C8.38249 35.4243 7.83594 33.5002 7.83594 30.7974C7.83594 28.7983 8.07926 27.1025 8.56592 25.71C9.50179 23.0446 11.2126 21.7119 13.6982 21.7119ZM13.5522 36.48C14.6154 36.48 15.409 36.1243 15.9331 35.4131C16.4647 34.6943 16.7305 33.8483 16.7305 32.875C16.7305 32.0514 16.4946 31.269 16.0229 30.5278C15.5513 29.7791 14.694 29.4048 13.4512 29.4048C12.5827 29.4048 11.819 29.693 11.1602 30.2695C10.5088 30.846 10.1831 31.7145 10.1831 32.875C10.1831 33.8932 10.4788 34.7505 11.0703 35.4468C11.6693 36.1356 12.4966 36.48 13.5522 36.48Z" fill="#263957"/>
<path d="M26.501 21.7119C28.2979 21.7119 29.5482 22.1799 30.252 23.1157C30.9632 24.0441 31.3188 25.0024 31.3188 25.9907H29.3198C29.2 25.3543 29.0091 24.8564 28.7471 24.4971C28.2604 23.8232 27.5229 23.4863 26.5347 23.4863C25.4041 23.4863 24.5057 24.0104 23.8394 25.0586C23.173 26.0993 22.8024 27.5929 22.7275 29.5396C23.1917 28.8582 23.7757 28.3491 24.4795 28.0122C25.1234 27.7127 25.8421 27.563 26.6357 27.563C27.9834 27.563 29.1589 27.9935 30.1621 28.8545C31.1654 29.7155 31.667 30.9995 31.667 32.7065C31.667 34.1665 31.1916 35.4618 30.2407 36.5923C29.2899 37.7153 27.9347 38.2769 26.1753 38.2769C24.6704 38.2769 23.3714 37.7078 22.2783 36.5698C21.1852 35.4243 20.6387 33.5002 20.6387 30.7974C20.6387 28.7983 20.882 27.1025 21.3687 25.71C22.3045 23.0446 24.0153 21.7119 26.501 21.7119ZM26.355 36.48C27.4181 36.48 28.2118 36.1243 28.7358 35.4131C29.2674 34.6943 29.5332 33.8483 29.5332 32.875C29.5332 32.0514 29.2974 31.269 28.8257 30.5278C28.354 29.7791 27.4967 29.4048 26.2539 29.4048C25.3854 29.4048 24.6217 29.693 23.9629 30.2695C23.3115 30.846 22.9858 31.7145 22.9858 32.875C22.9858 33.8932 23.2816 34.7505 23.873 35.4468C24.472 36.1356 25.2993 36.48 26.355 36.48Z" fill="#263957"/>
<path d="M48.2544 30.0449C49.3325 30.0449 50.2534 30.4268 51.0171 31.1904C51.7808 31.9541 52.1626 32.875 52.1626 33.9531C52.1626 35.0312 51.7808 35.9521 51.0171 36.7158C50.2534 37.4795 49.3325 37.8613 48.2544 37.8613C47.1688 37.8613 46.2441 37.4795 45.4805 36.7158C44.7168 35.9521 44.335 35.0312 44.335 33.9531C44.335 32.875 44.7168 31.9541 45.4805 31.1904C46.2441 30.4268 47.1688 30.0449 48.2544 30.0449ZM46.626 21.8467H47.8726L38.877 38.2881H37.6304L46.626 21.8467ZM37.2261 28.4951C37.87 28.4951 38.4165 28.2705 38.8657 27.8213C39.3224 27.3646 39.5508 26.818 39.5508 26.1816C39.5508 25.5452 39.3224 25.0024 38.8657 24.5532C38.4165 24.0965 37.87 23.8682 37.2261 23.8682C36.5897 23.8682 36.0431 24.0928 35.5864 24.542C35.1372 24.9912 34.9126 25.5378 34.9126 26.1816C34.9126 26.818 35.1372 27.3646 35.5864 27.8213C36.0431 28.2705 36.5897 28.4951 37.2261 28.4951ZM37.2261 22.2622C38.3117 22.2622 39.2363 22.6478 40 23.4189C40.7637 24.1826 41.1455 25.1035 41.1455 26.1816C41.1455 27.2598 40.7637 28.1807 40 28.9443C39.2363 29.708 38.3117 30.0898 37.2261 30.0898C36.1479 30.0898 35.2271 29.708 34.4634 28.9443C33.6997 28.1807 33.3179 27.2598 33.3179 26.1816C33.3179 25.1035 33.6997 24.1826 34.4634 23.4189C35.2271 22.6478 36.1479 22.2622 37.2261 22.2622ZM48.2544 36.2666C48.8908 36.2666 49.4336 36.042 49.8828 35.5928C50.3395 35.1361 50.5679 34.5895 50.5679 33.9531C50.5679 33.3167 50.3395 32.7739 49.8828 32.3247C49.4336 31.868 48.8908 31.6396 48.2544 31.6396C47.6105 31.6396 47.0602 31.868 46.6035 32.3247C46.1543 32.7739 45.9297 33.3167 45.9297 33.9531C45.9297 34.5895 46.1543 35.1361 46.6035 35.5928C47.0602 36.042 47.6105 36.2666 48.2544 36.2666Z" fill="#263957"/>
</svg>
