<svg width="60" height="60" viewBox="0 0 60 60" fill="none" xmlns="http://www.w3.org/2000/svg">
<rect width="60" height="60" rx="20" fill="white"/>
<path d="M29.9999 16.5C22.5437 16.5005 16.5005 22.5435 16.5 29.9999C16.5005 37.4569 22.546 43.4645 29.9961 43.4998H30.0137L30.0294 43.4993C31.4597 43.5013 32.6401 43.0496 33.4551 42.3078C34.2707 41.569 34.7063 40.5542 34.7053 39.5268C34.7063 39.0444 34.6043 38.5615 34.4141 38.1017C34.7351 37.9191 34.949 37.7531 35.0101 37.7092C35.229 37.5532 35.8538 36.7196 35.4158 36.0328C34.9758 35.3465 33.4096 33.7822 32.982 33.5172C32.5556 33.2528 31.843 33.5107 31.4999 34.0143C31.1557 34.5179 30.8843 34.367 30.8843 34.367C30.8843 34.367 29.9078 33.5783 28.5574 30.8538C27.207 28.1278 27.1724 26.8748 27.1724 26.8748C27.1724 26.8748 27.2164 26.5665 27.8257 26.5973C28.4337 26.63 29.0701 26.2193 29.1185 25.7187C29.1675 25.2196 28.8708 23.0245 28.5912 22.2594C28.3109 21.4939 27.2696 21.4869 27.013 21.5666C26.7551 21.6458 24.1108 22.2897 23.9009 25.0582C23.6918 27.827 24.4053 30.3411 25.4272 32.4045C26.4496 34.4674 28.0179 36.5582 30.3473 38.0685C31.2907 38.6801 32.1961 38.7593 32.9573 38.6312C33.0882 38.9233 33.1534 39.2266 33.1548 39.5269C33.1534 40.1224 32.9111 40.7057 32.4131 41.1599C31.9137 41.6115 31.1437 41.9471 30.0295 41.9491L30.0023 41.9496C23.3975 41.9158 18.0497 36.5964 18.0502 29.9999C18.0508 26.6976 19.3865 23.7147 21.5501 21.5499C23.715 19.3866 26.6976 18.0508 29.9999 18.0502C33.3022 18.0508 36.2848 19.3865 38.4496 21.5499C40.6135 23.7147 41.9488 26.6971 41.9498 29.9999C41.9492 32.0391 41.44 33.9532 40.5419 35.6311C40.0393 36.5717 39.4135 37.4362 38.6868 38.2052C38.3932 38.5165 38.4073 39.007 38.7182 39.3008C39.029 39.5949 39.52 39.5813 39.8142 39.27C40.6337 38.402 41.3402 37.4255 41.9084 36.3622C42.9237 34.4674 43.5 32.2985 43.5 29.9999C43.4989 22.5435 37.4561 16.5005 29.9999 16.5Z" fill="#263957"/>
</svg>
