<svg width="60" height="60" viewBox="0 0 60 60" fill="none" xmlns="http://www.w3.org/2000/svg">
<rect width="60" height="60" rx="20" fill="white"/>
<path d="M36.1853 32.6798C35.8496 32.5121 34.1981 31.7044 33.8907 31.5919C33.5821 31.4805 33.3583 31.4254 33.1333 31.7606C32.9107 32.0948 32.2664 32.8474 32.0708 33.0701C31.8752 33.294 31.6786 33.321 31.3428 33.1545C31.0071 32.9858 29.9242 32.6336 28.6413 31.4951C27.6432 30.6086 26.9683 29.514 26.7728 29.1788C26.5772 28.8447 26.7524 28.6635 26.9197 28.497C27.0712 28.3474 27.2566 28.1067 27.4239 27.912C27.5923 27.7163 27.6477 27.5768 27.7607 27.3529C27.8726 27.1302 27.8172 26.9355 27.7325 26.7679C27.6477 26.6003 26.9762 24.9544 26.697 24.285C26.4235 23.6337 26.1465 23.7225 25.9408 23.7113C25.7453 23.7023 25.5215 23.7 25.2965 23.7C25.0727 23.7 24.7087 23.7833 24.4013 24.1185C24.0938 24.4527 23.2257 25.2615 23.2257 26.9074C23.2257 28.5522 24.4295 30.1418 24.5968 30.3656C24.7652 30.5884 26.9661 33.9656 30.3357 35.4135C31.1371 35.7578 31.7622 35.9636 32.2505 36.1166C33.0553 36.372 33.7878 36.336 34.3654 36.2494C35.0109 36.1538 36.3526 35.4405 36.633 34.6598C36.9133 33.879 36.9133 33.2096 36.8285 33.0701C36.7449 32.9306 36.5222 32.8474 36.1853 32.6798ZM30.0565 41.0081H30.052C28.051 41.0083 26.0867 40.4728 24.3651 39.4579L23.957 39.2171L19.7283 40.3219L20.8564 36.2179L20.5908 35.7971C19.4722 34.0244 18.8805 31.9729 18.8839 29.8796C18.8851 23.7484 23.8982 18.7602 30.061 18.7602C33.0452 18.7602 35.8507 19.9189 37.96 22.0204C39.0007 23.0516 39.8256 24.278 40.3869 25.6286C40.9482 26.9791 41.2348 28.4271 41.2302 29.8886C41.2268 36.0199 36.2147 41.0081 30.0565 41.0081ZM39.5663 20.424C38.3208 19.1763 36.8389 18.187 35.2065 17.5134C33.5741 16.8399 31.8236 16.4954 30.0565 16.5C22.6469 16.5 16.6164 22.5019 16.613 29.8785C16.613 32.2365 17.2313 34.5383 18.4081 36.5666L16.5 43.5L23.627 41.6393C25.5979 42.7079 27.8064 43.268 30.0508 43.2682H30.0565C37.4649 43.2682 43.4965 37.2664 43.4999 29.8886C43.5054 28.1306 43.1606 26.3889 42.4854 24.7643C41.8101 23.1397 40.818 21.6645 39.5663 20.424Z" fill="#263957"/>
</svg>
