<svg width="48" height="48" viewBox="0 0 48 48" fill="none" xmlns="http://www.w3.org/2000/svg">
<rect width="48" height="48" rx="24" fill="#FFC800"/>
<g clip-path="url(#clip0_209_24503)">
<mask id="mask0_209_24503" style="mask-type:luminance" maskUnits="userSpaceOnUse" x="9" y="10" width="29" height="29">
<path d="M9.99683 10.0007H37.9968V38.0007H9.99683V10.0007Z" fill="white"/>
</mask>
<g mask="url(#mask0_209_24503)">
<path d="M12.5117 33.0242V29.7429H20.7148C22.527 29.7429 23.9961 31.212 23.9961 33.0242V34.6648" stroke="#202020" stroke-width="1.64062" stroke-miterlimit="10" stroke-linecap="round" stroke-linejoin="round"/>
<path d="M23.9961 33.0242C23.9961 31.212 25.4652 29.7429 27.2773 29.7429H35.4805V33.0242" stroke="#202020" stroke-width="1.64062" stroke-miterlimit="10" stroke-linecap="round" stroke-linejoin="round"/>
<path d="M10.8164 33.0242H18.5703C20.1287 33.0242 21.7546 33.3289 22.9699 34.3043C23.251 34.5299 23.6078 34.6648 23.9961 34.6648C24.3844 34.6648 24.7412 34.5299 25.0222 34.3043C26.2376 33.3289 27.8635 33.0242 29.4219 33.0242H37.1758" stroke="#202020" stroke-width="1.64062" stroke-miterlimit="10" stroke-linecap="round" stroke-linejoin="round"/>
<path d="M28.918 18.4928V23.1803L25.2903 24.9941C24.8083 25.2352 24.3738 25.5436 23.9961 25.9048C23.6184 25.5436 23.1839 25.2352 22.7019 24.9941L19.0742 23.1803V18.4928" stroke="#202020" stroke-width="1.64062" stroke-miterlimit="10" stroke-linecap="round" stroke-linejoin="round"/>
<path d="M32.1992 17.5554V24.821" stroke="#202020" stroke-width="1.64062" stroke-miterlimit="10" stroke-linecap="round" stroke-linejoin="round"/>
<path d="M23.9961 13.3367L12.5117 16.6179L23.9961 19.8992L35.4805 16.6179L23.9961 13.3367Z" stroke="#202020" stroke-width="1.64062" stroke-miterlimit="10" stroke-linecap="round" stroke-linejoin="round"/>
</g>
</g>
<defs>
<clipPath id="clip0_209_24503">
<rect width="28" height="28" fill="white" transform="translate(10.0002 10.0002)"/>
</clipPath>
</defs>
</svg>
