<svg width="48" height="48" viewBox="0 0 48 48" fill="none" xmlns="http://www.w3.org/2000/svg">
<rect width="48" height="48" rx="24" fill="#FFC800"/>
<g clip-path="url(#clip0_209_24509)">
<path d="M34.2029 13.5958H33.5621V12.9554C33.5621 11.7766 32.6057 10.8211 31.4259 10.8211C30.2462 10.8211 29.2898 11.7766 29.2898 12.9554V17.8645H34.2029C35.3827 17.8645 36.3391 16.9089 36.3391 15.7301C36.3391 14.5514 35.3827 13.5958 34.2029 13.5958Z" stroke="#202020" stroke-width="1.4" stroke-miterlimit="10" stroke-linecap="round" stroke-linejoin="round"/>
<path d="M21.1331 32.0988L18.2658 34.9639L16.9123 33.6114L13.5288 30.2312L12.1753 28.8788L15.0426 26.0137L21.1331 32.0988Z" stroke="#202020" stroke-width="1.4" stroke-miterlimit="10" stroke-linecap="round" stroke-linejoin="round"/>
<path d="M16.9118 33.6119L15.7366 34.7871C14.8025 35.7201 13.2877 35.7201 12.3531 34.7871C11.8861 34.32 11.6525 33.7081 11.6531 33.0967C11.6525 32.4847 11.8861 31.8727 12.3531 31.4063L13.5283 30.2316L16.9118 33.6119Z" stroke="#202020" stroke-width="1.4" stroke-miterlimit="10" stroke-linecap="round" stroke-linejoin="round"/>
<path d="M23.7199 30.0472L27.0322 33.3568C27.8643 34.1882 27.8643 35.5366 27.0322 36.3681L26.2189 37.1807L21.1333 32.0993" stroke="#202020" stroke-width="1.4" stroke-miterlimit="10" stroke-linecap="round" stroke-linejoin="round"/>
<path d="M21.1339 32.0991C21.1339 32.0991 25.8758 27.6743 32.4725 25.5595L29.2676 22.3573L25.1801 18.2732L21.5885 14.6845C19.4719 21.2758 15.0435 26.0137 15.0435 26.0137" stroke="#202020" stroke-width="1.4" stroke-miterlimit="10" stroke-linecap="round" stroke-linejoin="round"/>
<path d="M25.4229 13.4504V10.8591" stroke="#202020" stroke-width="1.4" stroke-miterlimit="10" stroke-linecap="round" stroke-linejoin="round"/>
<path d="M33.5278 21.7285H36.1213" stroke="#202020" stroke-width="1.4" stroke-miterlimit="10" stroke-linecap="round" stroke-linejoin="round"/>
</g>
<defs>
<clipPath id="clip0_209_24509">
<rect width="28" height="28" fill="white" transform="translate(10.0002 10.0002)"/>
</clipPath>
</defs>
</svg>
