<svg width="48" height="48" viewBox="0 0 48 48" fill="none" xmlns="http://www.w3.org/2000/svg">
<rect width="48" height="48" rx="24" fill="#FFC800"/>
<g clip-path="url(#clip0_209_24511)">
<path d="M27.7472 30.2268C29.9527 28.9352 31.4319 26.5379 31.424 23.7957C31.4123 19.7424 28.108 16.4234 24.0549 16.3945C19.9304 16.3651 16.5774 19.7 16.5774 23.8176C16.5774 26.5506 18.0546 28.9386 20.2543 30.2268" stroke="#202020" stroke-width="1.4" stroke-miterlimit="10" stroke-linecap="round" stroke-linejoin="round"/>
<path d="M27.7472 30.2268H20.2544V33.8987H27.7472V30.2268Z" stroke="#202020" stroke-width="1.4" stroke-miterlimit="10" stroke-linecap="round" stroke-linejoin="round"/>
<path d="M24.0014 29.9844V24.1831L22.0315 22.2131" stroke="#202020" stroke-width="1.4" stroke-miterlimit="10" stroke-linecap="round" stroke-linejoin="round"/>
<path d="M24.0015 24.1831L25.9714 22.2131" stroke="#202020" stroke-width="1.4" stroke-miterlimit="10" stroke-linecap="round" stroke-linejoin="round"/>
<path d="M25.4026 37.1799H22.598C21.7494 37.1799 21.0615 36.492 21.0615 35.6434V33.8987H26.9391V35.6434C26.9391 36.492 26.2511 37.1799 25.4026 37.1799Z" stroke="#202020" stroke-width="1.4" stroke-miterlimit="10" stroke-linecap="round" stroke-linejoin="round"/>
<path d="M19.0608 33.8987H28.9395" stroke="#202020" stroke-width="1.4" stroke-miterlimit="10" stroke-linecap="round" stroke-linejoin="round"/>
<path d="M24.0002 10.8206V13.1133" stroke="#202020" stroke-width="1.4" stroke-miterlimit="10" stroke-linecap="round" stroke-linejoin="round"/>
<path d="M17.4558 12.5742L18.6021 14.5598" stroke="#202020" stroke-width="1.4" stroke-miterlimit="10" stroke-linecap="round" stroke-linejoin="round"/>
<path d="M30.5447 12.5742L29.3984 14.5598" stroke="#202020" stroke-width="1.4" stroke-miterlimit="10" stroke-linecap="round" stroke-linejoin="round"/>
<path d="M12.6648 17.365L14.6503 18.5113" stroke="#202020" stroke-width="1.4" stroke-miterlimit="10" stroke-linecap="round" stroke-linejoin="round"/>
<path d="M35.3356 17.365L33.3501 18.5113" stroke="#202020" stroke-width="1.4" stroke-miterlimit="10" stroke-linecap="round" stroke-linejoin="round"/>
<path d="M10.8206 23.9097H13.1133" stroke="#202020" stroke-width="1.4" stroke-miterlimit="10" stroke-linecap="round" stroke-linejoin="round"/>
<path d="M37.1799 23.9097H34.8872" stroke="#202020" stroke-width="1.4" stroke-miterlimit="10" stroke-linecap="round" stroke-linejoin="round"/>
</g>
<defs>
<clipPath id="clip0_209_24511">
<rect width="28" height="28" fill="white" transform="translate(10.0002 10.0002)"/>
</clipPath>
</defs>
</svg>
