<svg width="22" height="22" viewBox="0 0 22 22" fill="none" xmlns="http://www.w3.org/2000/svg">
<path fill-rule="evenodd" clip-rule="evenodd" d="M0.5 1C0.5 0.867392 0.552678 0.740215 0.646447 0.646447C0.740215 0.552678 0.867392 0.5 1 0.5H15C15.1326 0.5 15.2598 0.552678 15.3536 0.646447C15.4473 0.740215 15.5 0.867392 15.5 1V8H14.5V1.5H1.5V20.5H10V21.5H1C0.867392 21.5 0.740215 21.4473 0.646447 21.3536C0.552678 21.2598 0.5 21.1326 0.5 21V1Z" fill="#121212"/>
<path fill-rule="evenodd" clip-rule="evenodd" d="M10 5.5H6V4.5H10V5.5ZM9 12.5H4V11.5H9V12.5ZM8 16.5H4V15.5H8V16.5Z" fill="#121212"/>
<path fill-rule="evenodd" clip-rule="evenodd" d="M8.5 5V9H7.5V5H8.5ZM16 11.5C14.8065 11.5 13.6619 11.9741 12.818 12.818C11.9741 13.6619 11.5 14.8065 11.5 16C11.5 17.1935 11.9741 18.3381 12.818 19.182C13.6619 20.0259 14.8065 20.5 16 20.5C17.1935 20.5 18.3381 20.0259 19.182 19.182C20.0259 18.3381 20.5 17.1935 20.5 16C20.5 14.8065 20.0259 13.6619 19.182 12.818C18.3381 11.9741 17.1935 11.5 16 11.5ZM10.5 16C10.5 14.5413 11.0795 13.1424 12.1109 12.1109C13.1424 11.0795 14.5413 10.5 16 10.5C17.4587 10.5 18.8576 11.0795 19.8891 12.1109C20.9205 13.1424 21.5 14.5413 21.5 16C21.5 17.4587 20.9205 18.8576 19.8891 19.8891C18.8576 20.9205 17.4587 21.5 16 21.5C14.5413 21.5 13.1424 20.9205 12.1109 19.8891C11.0795 18.8576 10.5 17.4587 10.5 16Z" fill="#121212"/>
<path fill-rule="evenodd" clip-rule="evenodd" d="M15.6402 17.043L17.8432 13.959L18.6572 14.541L16.1572 18.041C16.1184 18.0952 16.0692 18.1411 16.0125 18.176C15.9557 18.211 15.8925 18.2342 15.8266 18.2443C15.7608 18.2545 15.6935 18.2514 15.6289 18.2352C15.5642 18.219 15.5035 18.19 15.4502 18.15L13.4502 16.65L14.0502 15.85L15.6402 17.043Z" fill="#121212"/>
</svg>
