<svg width="16" height="16" viewBox="0 0 16 16" fill="none" xmlns="http://www.w3.org/2000/svg">
<g clip-path="url(#clip0_0_418)">
<path d="M7.9718 16.0052L7.50709 15.6069C6.86643 15.0704 1.27246 10.2393 1.27246 6.70539C1.27246 3.00545 4.27187 0.00604248 7.9718 0.00604248C11.6717 0.00604248 14.6711 3.00545 14.6711 6.70539C14.6711 10.2393 9.07718 15.0704 8.43918 15.6095L7.9718 16.0052ZM7.9718 1.45464C5.07327 1.45792 2.72437 3.80682 2.72109 6.70535C2.72109 8.92542 6.16271 12.4719 7.9718 14.0951C9.78093 12.4713 13.2225 8.92273 13.2225 6.70535C13.2192 3.80682 10.8704 1.45795 7.9718 1.45464Z" fill="#121212"/>
<path d="M7.97197 9.36072C6.50534 9.36072 5.31641 8.17178 5.31641 6.70515C5.31641 5.23853 6.50534 4.04959 7.97197 4.04959C9.43859 4.04959 10.6275 5.23853 10.6275 6.70515C10.6275 8.17178 9.43862 9.36072 7.97197 9.36072ZM7.97197 5.37734C7.23866 5.37734 6.64419 5.97181 6.64419 6.70512C6.64419 7.43844 7.23866 8.0329 7.97197 8.0329C8.70528 8.0329 9.29975 7.43844 9.29975 6.70512C9.29975 5.97181 8.70531 5.37734 7.97197 5.37734Z" fill="#121212"/>
</g>
<defs>
<clipPath id="clip0_0_418">
<rect width="16" height="16" fill="white"/>
</clipPath>
</defs>
</svg>
