<svg width="24" height="24" viewBox="0 0 24 24" fill="none" xmlns="http://www.w3.org/2000/svg">
<g clip-path="url(#clip0_0_237)">
<path d="M14.6003 21.3002C14.3003 21.5262 13.9813 21.7642 13.7103 22.0002H16.0003C16.2655 22.0002 16.5199 22.1056 16.7074 22.2931C16.8949 22.4807 17.0003 22.735 17.0003 23.0002C17.0003 23.2654 16.8949 23.5198 16.7074 23.7073C16.5199 23.8949 16.2655 24.0002 16.0003 24.0002H12.0003C11.7351 24.0002 11.4807 23.8949 11.2932 23.7073C11.1056 23.5198 11.0003 23.2654 11.0003 23.0002C11.0003 21.5002 12.2753 20.5442 13.4003 19.7002C14.1503 19.1382 15.0003 18.5002 15.0003 18.0002C15.0003 17.735 14.8949 17.4807 14.7074 17.2931C14.5199 17.1056 14.2655 17.0002 14.0003 17.0002C13.7351 17.0002 13.4807 17.1056 13.2932 17.2931C13.1056 17.4807 13.0003 17.735 13.0003 18.0002C13.0003 18.2654 12.8949 18.5198 12.7074 18.7073C12.5199 18.8949 12.2655 19.0002 12.0003 19.0002C11.7351 19.0002 11.4807 18.8949 11.2932 18.7073C11.1056 18.5198 11.0003 18.2654 11.0003 18.0002C11.0003 17.2046 11.3164 16.4415 11.879 15.8789C12.4416 15.3163 13.2046 15.0002 14.0003 15.0002C14.7959 15.0002 15.559 15.3163 16.1216 15.8789C16.6842 16.4415 17.0003 17.2046 17.0003 18.0002C17.0003 19.5002 15.7253 20.4562 14.6003 21.3002ZM23.0003 15.0002C22.7351 15.0002 22.4807 15.1056 22.2932 15.2931C22.1056 15.4807 22.0003 15.735 22.0003 16.0002V19.0002H21.0003C20.7351 19.0002 20.4807 18.8949 20.2932 18.7073C20.1056 18.5198 20.0003 18.2654 20.0003 18.0002V16.0002C20.0003 15.735 19.8949 15.4807 19.7074 15.2931C19.5199 15.1056 19.2655 15.0002 19.0003 15.0002C18.7351 15.0002 18.4807 15.1056 18.2932 15.2931C18.1056 15.4807 18.0003 15.735 18.0003 16.0002V18.0002C18.0003 18.7959 18.3164 19.5589 18.879 20.1216C19.4416 20.6842 20.2046 21.0002 21.0003 21.0002H22.0003V23.0002C22.0003 23.2654 22.1056 23.5198 22.2932 23.7073C22.4807 23.8949 22.7351 24.0002 23.0003 24.0002C23.2655 24.0002 23.5199 23.8949 23.7074 23.7073C23.8949 23.5198 24.0003 23.2654 24.0003 23.0002V16.0002C24.0003 15.735 23.8949 15.4807 23.7074 15.2931C23.5199 15.1056 23.2655 15.0002 23.0003 15.0002ZM13.0003 12.0002V7.00023C13.0003 6.73502 12.8949 6.48066 12.7074 6.29313C12.5199 6.10559 12.2655 6.00023 12.0003 6.00023C11.7351 6.00023 11.4807 6.10559 11.2932 6.29313C11.1056 6.48066 11.0003 6.73502 11.0003 7.00023V11.0002H8.00029C7.73507 11.0002 7.48072 11.1056 7.29318 11.2931C7.10565 11.4807 7.00029 11.735 7.00029 12.0002C7.00029 12.2654 7.10565 12.5198 7.29318 12.7073C7.48072 12.8949 7.73507 13.0002 8.00029 13.0002H12.0003C12.2655 13.0002 12.5199 12.8949 12.7074 12.7073C12.8949 12.5198 13.0003 12.2654 13.0003 12.0002ZM23.0003 2.00023C22.7351 2.00023 22.4807 2.10559 22.2932 2.29312C22.1056 2.48066 22.0003 2.73502 22.0003 3.00023V5.37423C20.9584 3.80181 19.5604 2.49715 17.9199 1.56613C16.2793 0.635116 14.4424 0.103956 12.5582 0.0157521C10.674 -0.072452 8.79546 0.284784 7.07512 1.05848C5.35479 1.83217 3.84108 3.00052 2.65681 4.46874C1.47254 5.93695 0.651075 7.66367 0.259064 9.50879C-0.132947 11.3539 -0.0844604 13.2655 0.400589 15.0883C0.885639 16.9112 1.79359 18.5941 3.05077 20.0004C4.30795 21.4066 5.87894 22.4968 7.63629 23.1822C7.75243 23.227 7.87581 23.2501 8.00029 23.2502C8.23365 23.2506 8.45979 23.1693 8.63954 23.0205C8.81929 22.8717 8.94134 22.6647 8.98455 22.4354C9.02775 22.2061 8.9894 21.9688 8.87612 21.7648C8.76285 21.5608 8.58178 21.4028 8.36429 21.3182C6.87232 20.7413 5.54051 19.8149 4.48067 18.6167C3.42084 17.4186 2.6639 15.9837 2.2734 14.4324C1.8829 12.8812 1.87023 11.2589 2.23646 9.70177C2.6027 8.14463 3.33714 6.69806 4.37814 5.4835C5.41914 4.26895 6.73631 3.32185 8.2191 2.72171C9.70189 2.12156 11.307 1.88589 12.8997 2.03448C14.4924 2.18306 16.0263 2.71157 17.3725 3.57562C18.7187 4.43968 19.8379 5.61408 20.6363 7.00023H18.0003C17.7351 7.00023 17.4807 7.10559 17.2932 7.29313C17.1056 7.48066 17.0003 7.73502 17.0003 8.00023C17.0003 8.26545 17.1056 8.5198 17.2932 8.70734C17.4807 8.89487 17.7351 9.00023 18.0003 9.00023H21.0003C21.7959 9.00023 22.559 8.68416 23.1216 8.12155C23.6842 7.55894 24.0003 6.79588 24.0003 6.00023V3.00023C24.0003 2.73502 23.8949 2.48066 23.7074 2.29312C23.5199 2.10559 23.2655 2.00023 23.0003 2.00023Z" fill="#C2272E"/>
</g>
<defs>
<clipPath id="clip0_0_237">
<rect width="24" height="24" fill="white"/>
</clipPath>
</defs>
</svg>
