<svg width="24" height="24" viewBox="0 0 24 24" fill="none" xmlns="http://www.w3.org/2000/svg">
<path fill-rule="evenodd" clip-rule="evenodd" d="M13 2C8.02944 2 4 6.02944 4 11C4 13.1248 4.73631 15.0776 5.96769 16.6172L2.29289 20.2929C1.90237 20.6834 1.90237 21.3166 2.29289 21.7071C2.65338 22.0676 3.22061 22.0953 3.6129 21.7903L3.70711 21.7071L7.38282 18.0323C8.92242 19.2637 10.8752 20 13 20C17.9706 20 22 15.9706 22 11C22 6.02944 17.9706 2 13 2ZM13 4C16.866 4 20 7.13401 20 11C20 14.866 16.866 18 13 18C9.13401 18 6 14.866 6 11C6 7.13401 9.13401 4 13 4Z" fill="black"/>
</svg>
