<svg width="18" height="18" viewBox="0 0 18 18" fill="none" xmlns="http://www.w3.org/2000/svg">
<path fill-rule="evenodd" clip-rule="evenodd" d="M9.80827 9.0002L12.8329 5.97558C13.0564 5.75215 13.0564 5.39101 12.8329 5.16757C12.6095 4.94414 12.2483 4.94414 12.0249 5.16757L9.00025 8.19219L5.9756 5.16757C5.75216 4.94414 5.39101 4.94414 5.16758 5.16757C4.94414 5.39101 4.94414 5.75215 5.16758 5.97558L8.19223 9.0002L5.16758 12.0248C4.94414 12.2482 4.94414 12.6094 5.16758 12.8328C5.27901 12.9442 5.4253 13.0002 5.57159 13.0002C5.71788 13.0002 5.86417 12.9442 5.9756 12.8328L9.00025 9.80821L12.0249 12.8328C12.1363 12.9442 12.2826 13.0002 12.4289 13.0002C12.5752 13.0002 12.7215 12.9442 12.8329 12.8328C13.0564 12.6094 13.0564 12.2482 12.8329 12.0248L9.80827 9.0002Z" fill="#C1272D"/>
</svg>
