<svg width="157" height="37" viewBox="0 0 157 37" fill="none" xmlns="http://www.w3.org/2000/svg">
<path d="M19.3901 9.6034V28.3209C19.9703 27.9844 20.4995 27.5767 20.9779 27.0975C21.782 26.2921 22.4793 25.3083 23.0696 24.1461C23.6701 22.9839 24.0875 21.6382 24.3216 20.109C24.3419 19.9255 24.4386 19.8542 24.6117 19.895C24.7949 19.9357 24.8865 20.0173 24.8865 20.1396C24.6015 23.3306 23.3597 25.9047 21.1611 27.8621C20.0415 28.851 18.7081 29.5799 17.161 30.0489C15.6138 30.5178 14.026 30.7523 12.3974 30.7523C8.9571 30.7523 6.03077 29.6207 3.61846 27.3575C1.20615 25.0942 0 22.3315 0 19.0692C0 16.2554 0.951692 13.7374 2.85507 11.5149C4.75846 9.29247 7.31836 7.90599 10.5348 7.35547C10.6874 7.33508 10.7536 7.37586 10.7332 7.47781C10.7129 7.56956 10.6722 7.62054 10.6111 7.63073C9.78665 7.78365 9.13522 8.24241 8.65683 9.00702C8.18862 9.76142 7.84764 10.6993 7.63389 11.8208L17.4053 9.37402C16.4587 9.12935 15.4917 8.76234 14.5044 8.273C13.5171 7.78365 12.4992 7.29431 11.4508 6.80496C8.97745 5.67335 6.71273 5.0056 4.65667 4.8017C2.60061 4.59781 1.26723 5.89254 0.656515 8.68588L0.213749 8.71647C0.732853 6.04546 1.80669 3.87908 3.43525 2.21735C5.07399 0.545416 7.013 -0.178407 9.25227 0.0458761C11.6137 0.290549 14.0413 1.09593 16.535 2.46202C19.0389 3.81791 21.0339 4.51625 22.52 4.55703C23.1409 4.58761 23.6294 4.35314 23.9857 3.8536C24.3521 3.34386 24.5608 2.6914 24.6117 1.89621L25.1002 1.98797C24.8254 4.73034 24.1485 6.67753 23.0696 7.82953C21.9907 8.97133 20.7642 9.56263 19.3901 9.6034ZM18.6114 28.7338V9.87866L16.5197 10.3986V23.1216L16.7182 23.8097L8.94692 25.7671C9.28281 26.4298 9.71031 27.0058 10.2294 27.4951C11.3592 28.6165 12.6926 29.2588 14.2296 29.4219C15.7767 29.585 17.2373 29.3556 18.6114 28.7338ZM8.59576 25.0331L9.95459 24.6967V12.0501L7.49648 12.6618C7.29291 14.242 7.24202 16.0821 7.3438 18.1822C7.45577 21.1081 7.87308 23.3917 8.59576 25.0331Z" fill="black"/>
<path d="M27.6347 1.728L33.1005 0V14.0075L39.1924 8.24241L42.2917 11.2397C42.7803 11.7902 43.5335 11.5914 44.5514 10.6433C44.5819 10.6229 44.6226 10.6484 44.6735 10.7197C44.7346 10.7911 44.7499 10.8421 44.7193 10.8726C44.2817 11.2804 43.7829 11.7341 43.2231 12.2336C42.6734 12.723 42.3986 13.4723 42.3986 14.4816L42.6582 23.3968C42.7192 25.4358 42.5666 27.2555 42.2001 28.8561C41.8439 30.4465 41.1721 31.8329 40.1848 33.0155C38.5257 34.9627 36.0676 36.2625 32.8105 36.915L32.9173 36.5174C33.4364 36.3849 33.8894 36.2472 34.2762 36.1045C34.6731 35.9618 35.0243 35.7528 35.3296 35.4775C36.3679 34.4887 36.9022 33.1684 36.9328 31.5169C36.9735 29.8654 36.9938 28.2852 36.9938 26.7764V13.8852L35.4518 12.5242L33.1005 14.7568V23.9015C33.1005 24.3296 33.3194 24.7018 33.7571 25.0178C34.2049 25.3236 34.6833 25.553 35.1922 25.7059C35.2329 25.7161 35.2533 25.7671 35.2533 25.8589C35.2533 25.9404 35.2329 25.9863 35.1922 25.9965C34.0319 26.5266 33.2023 27.021 32.7036 27.4798C32.215 27.9284 31.5483 28.9784 30.7035 30.63C30.5915 30.8033 30.505 30.8033 30.444 30.63C29.5482 29.0498 28.8408 28.0354 28.3217 27.5869C27.8128 27.1383 26.9934 26.6082 25.8636 25.9965C25.8229 25.9863 25.8025 25.9506 25.8025 25.8894C25.8025 25.8181 25.8229 25.7773 25.8636 25.7671C26.2911 25.7059 26.6932 25.4918 27.0698 25.1248C27.4464 24.7578 27.6347 24.3602 27.6347 23.9321V1.728Z" fill="black"/>
<path d="M52.7044 20.0785L52.7502 23.0757L56.7656 25.8283L59.4222 22.4793L59.7886 22.8769L54.0632 30.5688L49.5592 27.6021C49.2437 27.3982 48.6839 27.1689 47.8798 26.914C47.0858 26.6489 46.3377 26.914 45.6354 27.7092C45.6049 27.75 45.5641 27.7347 45.5132 27.6633C45.4522 27.5818 45.4318 27.5206 45.4522 27.4798C45.7677 26.9905 46.1291 26.5572 46.5362 26.18C46.9433 25.7926 47.1469 25.1248 47.1469 24.1767V10.8879C49.0096 10.8166 50.7399 10.6586 52.3379 10.4139C53.9462 10.159 55.4017 9.54224 56.7045 8.56355L61.1017 15.5367L52.7044 20.0785ZM56.0022 17.6164L52.5975 11.5149L52.7044 19.3444L56.0022 17.6164Z" fill="black"/>
<path d="M92.7518 22.2652L93.3472 22.8004L87.3928 30.4923C86.0899 29.1874 84.7565 28.326 83.3926 27.908C82.0389 27.49 80.6851 27.3269 79.3314 27.4186C77.9471 27.5308 77.0819 28.2138 76.7359 29.4678C76.3898 30.7217 76.6035 31.7157 77.3771 32.4497C77.9573 33.0002 78.909 33.4182 80.2322 33.7037C81.5656 33.9993 82.9804 34.1624 84.4766 34.193C85.5657 34.2032 86.6294 34.142 87.6676 34.0095C88.7058 33.8872 89.6219 33.6119 90.4158 33.1837C91.6881 32.4701 92.365 31.053 92.4464 28.9326L92.935 29.0243C93.2403 31.0021 92.4668 32.8473 90.6143 34.56C88.772 36.2829 86.7413 37.0934 84.5224 36.9915C82.9855 36.9099 81.5045 36.5684 80.0795 35.9669C78.6647 35.3756 77.6061 34.453 76.9038 33.199C75.8859 31.3844 75.5908 29.4321 76.0183 27.3422C76.4458 25.2421 77.3517 23.458 78.7359 21.99V16.2096L76.0488 16.0872C75.0513 16.0668 74.4711 16.913 74.3083 18.6257L74.0335 18.5951V15.185C74.0335 14.6651 74.1505 13.9412 74.3846 13.0135C74.6187 12.0858 75.5602 11.622 77.2092 11.622H78.7359V6.86613C78.1863 7.01905 77.6367 7.15158 77.087 7.26372C76.5374 7.36567 75.9827 7.46252 75.4228 7.55427C75.3618 7.57466 75.3414 7.51859 75.3618 7.38606C75.3821 7.25353 75.4228 7.17707 75.4839 7.15668C77.8046 6.67753 80.0388 5.93331 82.1865 4.92404C84.3443 3.91476 86.1968 2.39066 87.7439 0.351717C87.8966 0.127434 88.0187 0.127434 88.1104 0.351717C88.7821 2.37027 89.6524 3.36935 90.7211 3.34896C91.7899 3.32857 92.3701 2.4977 92.4617 0.856355C92.4617 0.805381 92.5126 0.790089 92.6143 0.810478C92.7161 0.830868 92.767 0.871647 92.767 0.932815C92.767 2.65572 92.4159 4.05749 91.7135 5.13813C91.0112 6.20857 90.1817 6.87632 89.2249 7.14139C88.8076 7.27392 88.3801 7.3045 87.9424 7.23314V22.6475C89.0315 23.1165 90.1511 23.7027 91.3013 24.4061L92.7518 22.2652ZM84.7514 4.37353V20.262C83.0415 20.3333 81.7081 20.6596 80.7513 21.2407C79.7945 21.8218 79.0209 22.5354 78.4306 23.3815C78.9802 22.9738 79.6266 22.6373 80.3696 22.3723C81.4485 21.9951 82.5173 21.7861 83.5758 21.7453C84.6446 21.6943 85.8355 21.8982 87.1485 22.357V7.04963C86.6905 6.87632 86.2579 6.5399 85.8507 6.04036C85.4436 5.54082 85.0772 4.98521 84.7514 4.37353Z" fill="black"/>
<path d="M101.485 24.4826L103.287 26.0729L104.538 24.9719L104.89 25.3695L99.5612 30.0947L96.0343 26.7152L95.8817 14.4204L94.5686 13.2582L93.4693 14.2981L93.1029 13.9005L98.2329 8.56355L101.332 12.0043C101.587 12.2897 101.887 12.3764 102.233 12.2642C102.589 12.1521 103.042 11.9278 103.592 11.5914C103.622 11.571 103.668 11.5965 103.729 11.6678C103.79 11.7392 103.806 11.7902 103.775 11.8208C103.337 12.2285 102.844 12.6516 102.294 13.09C101.755 13.5182 101.485 14.2369 101.485 15.2462V24.4826ZM94.5686 4.20531C96.2277 3.47129 97.4441 2.25303 98.2176 0.550514C98.3601 0.224283 98.4874 0.224283 98.5993 0.550514C99.0675 1.96758 100.284 3.18584 102.248 4.20531C102.472 4.33784 102.472 4.47037 102.248 4.60291C100.365 5.83646 99.149 7.05473 98.5993 8.2577C98.4874 8.50238 98.3601 8.50238 98.2176 8.2577C97.1692 6.66733 95.9529 5.44907 94.5686 4.60291C94.304 4.46018 94.304 4.32765 94.5686 4.20531Z" fill="black"/>
<path d="M121.715 27.2045C120.687 27.2657 119.75 27.3218 118.905 27.3728C118.071 27.4135 117.302 27.5869 116.6 27.8927C115.837 28.2291 115.053 28.5961 114.249 28.9937C113.445 29.3811 112.727 29.901 112.096 30.5535L109.088 27.6939C108.671 27.3371 108.305 26.9803 107.989 26.6235C107.673 26.2666 107.353 26.078 107.027 26.0576C106.518 26.0475 105.907 26.2666 105.195 26.7152C105.164 26.7458 105.119 26.7254 105.058 26.654C104.997 26.5725 104.981 26.5113 105.012 26.4705C105.439 26.0729 105.846 25.7671 106.233 25.553C106.62 25.3389 106.813 24.7221 106.813 23.7027V12.9371H112.264V23.1827L116.264 27.174V15.5214L106.065 7.63073L105.79 0.51993L119.684 11.1173C120.712 11.9125 121.374 12.356 121.669 12.4477C121.964 12.5293 122.631 12.254 123.669 11.622C123.71 11.5914 123.756 11.6169 123.806 11.6984C123.867 11.7698 123.883 11.8208 123.852 11.8513C123.415 12.2591 122.946 12.6312 122.448 12.9677C121.959 13.2939 121.715 13.9616 121.715 14.9709V27.2045Z" fill="black"/>
<path d="M131.853 20.0785L131.898 23.0757L135.914 25.8283L138.57 22.4793L138.937 22.8769L133.211 30.5688L128.707 27.6021C128.392 27.3982 127.832 27.1689 127.028 26.914C126.234 26.6489 125.486 26.914 124.784 27.7092C124.753 27.75 124.712 27.7347 124.661 27.6633C124.6 27.5818 124.58 27.5206 124.6 27.4798C124.916 26.9905 125.277 26.5572 125.684 26.18C126.091 25.7926 126.295 25.1248 126.295 24.1767V10.8879C128.158 10.8166 129.888 10.6586 131.486 10.4139C133.094 10.159 134.55 9.54224 135.853 8.56355L140.25 15.5367L131.853 20.0785ZM135.15 17.6164L131.746 11.5149L131.853 19.3444L135.15 17.6164Z" fill="black"/>
<path d="M139.868 13.1359L144.739 8.34946L148.403 11.4996V13.6252L153.09 8.48709C153.395 8.16086 153.584 8.15066 153.655 8.4565C153.696 8.60942 153.777 8.85919 153.899 9.20581C154.032 9.55243 154.194 9.89395 154.388 10.2304C154.632 10.6688 154.912 11.0154 155.228 11.2702C155.543 11.5251 155.864 11.4843 156.189 11.1479C156.352 10.9746 156.49 10.4241 156.602 9.49636C156.612 9.43519 156.678 9.39951 156.8 9.38932C156.932 9.36893 156.999 9.38932 156.999 9.45048C157.019 10.6331 156.82 11.7137 156.403 12.6924C155.996 13.6711 155.507 14.3592 154.937 14.7568C154.194 15.2768 153.248 15.5061 152.098 15.445C150.947 15.3838 150.052 14.6702 149.41 13.3041L148.403 14.3286V23.198L152.098 25.9506L154.556 23.2898L154.922 23.6721L149.044 30.4312L144.54 27.2963C144.225 27.0822 143.777 26.9038 143.197 26.7611C142.627 26.6082 141.99 26.9293 141.288 27.7245C141.247 27.7551 141.196 27.7347 141.135 27.6633C141.084 27.5919 141.074 27.5308 141.105 27.4798C141.42 26.9905 141.782 26.5572 142.189 26.18C142.596 25.8028 142.8 25.1401 142.8 24.192V14.1299L141.196 12.5242L140.235 13.5488L139.868 13.1359Z" fill="black"/>
</svg>
