<svg width="24" height="24" viewBox="0 0 24 24" fill="none" xmlns="http://www.w3.org/2000/svg">
<path fill-rule="evenodd" clip-rule="evenodd" d="M1.5 6C1.5 5.60218 1.65804 5.22064 1.93934 4.93934C2.22064 4.65804 2.60218 4.5 3 4.5H21C21.3978 4.5 21.7794 4.65804 22.0607 4.93934C22.342 5.22064 22.5 5.60218 22.5 6V18C22.5 18.3978 22.342 18.7794 22.0607 19.0607C21.7794 19.342 21.3978 19.5 21 19.5H3C2.60218 19.5 2.22064 19.342 1.93934 19.0607C1.65804 18.7794 1.5 18.3978 1.5 18V6ZM3 5.5C2.86739 5.5 2.74021 5.55268 2.64645 5.64645C2.55268 5.74021 2.5 5.86739 2.5 6V18C2.5 18.1326 2.55268 18.2598 2.64645 18.3536C2.74021 18.4473 2.86739 18.5 3 18.5H21C21.1326 18.5 21.2598 18.4473 21.3536 18.3536C21.4473 18.2598 21.5 18.1326 21.5 18V6C21.5 5.86739 21.4473 5.74021 21.3536 5.64645C21.2598 5.55268 21.1326 5.5 21 5.5H3Z" fill="#121212"/>
<path fill-rule="evenodd" clip-rule="evenodd" d="M22 9H2V8H22V9ZM11 16H5V15H11V16ZM18 14C17.7348 14 17.4804 14.1054 17.2929 14.2929C17.1054 14.4804 17 14.7348 17 15C17 15.2652 17.1054 15.5196 17.2929 15.7071C17.4804 15.8946 17.7348 16 18 16C18.2652 16 18.5196 15.8946 18.7071 15.7071C18.8946 15.5196 19 15.2652 19 15C19 14.7348 18.8946 14.4804 18.7071 14.2929C18.5196 14.1054 18.2652 14 18 14ZM16 15C16 14.4696 16.2107 13.9609 16.5858 13.5858C16.9609 13.2107 17.4696 13 18 13C18.5304 13 19.0391 13.2107 19.4142 13.5858C19.7893 13.9609 20 14.4696 20 15C20 15.5304 19.7893 16.0391 19.4142 16.4142C19.0391 16.7893 18.5304 17 18 17C17.4696 17 16.9609 16.7893 16.5858 16.4142C16.2107 16.0391 16 15.5304 16 15Z" fill="#121212"/>
</svg>
