<svg width="24" height="24" viewBox="0 0 24 24" fill="none" xmlns="http://www.w3.org/2000/svg">
<path fill-rule="evenodd" clip-rule="evenodd" d="M3.25 9.5C3.11739 9.5 2.99021 9.55268 2.89645 9.64645C2.80268 9.74021 2.75 9.86739 2.75 10V20C2.75 20.1326 2.80268 20.2598 2.89645 20.3536C2.99021 20.4473 3.11739 20.5 3.25 20.5H19.25C19.3826 20.5 19.5098 20.4473 19.6036 20.3536C19.6973 20.2598 19.75 20.1326 19.75 20V17.014H20.75V20C20.75 20.3978 20.592 20.7794 20.3107 21.0607C20.0294 21.342 19.6478 21.5 19.25 21.5H3.25C2.85218 21.5 2.47064 21.342 2.18934 21.0607C1.90804 20.7794 1.75 20.3978 1.75 20V10C1.75 9.60218 1.90804 9.22064 2.18934 8.93934C2.47064 8.65804 2.85218 8.5 3.25 8.5H19.25C19.6478 8.5 20.0294 8.65804 20.3107 8.93934C20.592 9.22064 20.75 9.60218 20.75 10V12.986H19.75V10C19.75 9.86739 19.6973 9.74021 19.6036 9.64645C19.5098 9.55268 19.3826 9.5 19.25 9.5H3.25Z" fill="#121212"/>
<path fill-rule="evenodd" clip-rule="evenodd" d="M22.25 13C22.25 12.8674 22.1973 12.7402 22.1036 12.6464C22.0098 12.5527 21.8826 12.5 21.75 12.5H18.25C17.587 12.5 16.9511 12.7634 16.4822 13.2322C16.0134 13.7011 15.75 14.337 15.75 15C15.75 15.663 16.0134 16.2989 16.4822 16.7678C16.9511 17.2366 17.587 17.5 18.25 17.5H21.75C21.8826 17.5 22.0098 17.4473 22.1036 17.3536C22.1973 17.2598 22.25 17.1326 22.25 17V13ZM21.25 13.5V16.5H18.25C17.8522 16.5 17.4706 16.342 17.1893 16.0607C16.908 15.7794 16.75 15.3978 16.75 15C16.75 14.6022 16.908 14.2206 17.1893 13.9393C17.4706 13.658 17.8522 13.5 18.25 13.5H21.25ZM12 9.5C12.1326 9.5 12.2598 9.44732 12.3536 9.35355C12.4473 9.25979 12.5 9.13261 12.5 9V3C12.5 2.86739 12.4473 2.74021 12.3536 2.64645C12.2598 2.55268 12.1326 2.5 12 2.5H6C5.86739 2.5 5.74021 2.55268 5.64645 2.64645C5.55268 2.74021 5.5 2.86739 5.5 3V9C5.5 9.13261 5.55268 9.25979 5.64645 9.35355C5.74021 9.44732 5.86739 9.5 6 9.5H12ZM11.5 8.5H6.5V3.5H11.5V8.5Z" fill="#121212"/>
<path fill-rule="evenodd" clip-rule="evenodd" d="M18 9.5C18.1326 9.5 18.2598 9.44732 18.3536 9.35355C18.4473 9.25979 18.5 9.13261 18.5 9V4C18.5 3.86739 18.4473 3.74021 18.3536 3.64645C18.2598 3.55268 18.1326 3.5 18 3.5H12C11.8674 3.5 11.7402 3.55268 11.6464 3.64645C11.5527 3.74021 11.5 3.86739 11.5 4V9C11.5 9.13261 11.5527 9.25979 11.6464 9.35355C11.7402 9.44732 11.8674 9.5 12 9.5H18ZM17.5 8.5H12.5V4.5H17.5V8.5Z" fill="#121212"/>
</svg>
