<svg width="31" height="24" viewBox="0 0 31 24" fill="none" xmlns="http://www.w3.org/2000/svg">
<path fill-rule="evenodd" clip-rule="evenodd" d="M11 16H21C23.7614 16 26 18.2386 26 21C26 21.5523 25.5523 22 25 22C24.4872 22 24.0645 21.614 24.0067 21.1166L23.9949 20.8237C23.907 19.3072 22.6928 18.093 21.1763 18.0051L21 18H11C9.34315 18 8 19.3431 8 21C8 21.5523 7.55228 22 7 22C6.44772 22 6 21.5523 6 21C6 18.3112 8.12231 16.1182 10.7831 16.0046L11 16H21H11ZM16 2C19.3137 2 22 4.68629 22 8C22 11.3137 19.3137 14 16 14C12.6863 14 10 11.3137 10 8C10 4.68629 12.6863 2 16 2ZM16 4C13.7909 4 12 5.79086 12 8C12 10.2091 13.7909 12 16 12C18.2091 12 20 10.2091 20 8C20 5.79086 18.2091 4 16 4Z" fill="black"/>
</svg>
