<svg width="13" height="10" viewBox="0 0 13 10" fill="none" xmlns="http://www.w3.org/2000/svg">
<path d="M2.00005 9.80001C1.67005 9.80001 1.38505 9.68501 1.14505 9.45501C0.915049 9.21501 0.800049 8.93001 0.800049 8.60001V1.40001C0.800049 1.07001 0.915049 0.790012 1.14505 0.560012C1.38505 0.320012 1.67005 0.200012 2.00005 0.200012H11.6C11.93 0.200012 12.2101 0.320012 12.4401 0.560012C12.68 0.790012 12.8 1.07001 12.8 1.40001V8.60001C12.8 8.93001 12.68 9.21501 12.4401 9.45501C12.2101 9.68501 11.93 9.80001 11.6 9.80001H2.00005ZM6.80005 5.60001L11.6 2.60001V1.40001L6.80005 4.40001L2.00005 1.40001V2.60001L6.80005 5.60001Z" fill="black" fill-opacity="0.6"/>
</svg>
