<svg width="16" height="17" viewBox="0 0 16 17" fill="none" xmlns="http://www.w3.org/2000/svg">
<path fill-rule="evenodd" clip-rule="evenodd" d="M12.82 10.6733L11.1267 10.4799C10.72 10.4333 10.32 10.5733 10.0334 10.8599L8.80669 12.0866C6.92003 11.1266 5.37336 9.58659 4.41336 7.69326L5.64669 6.45993C5.93336 6.17326 6.07336 5.77326 6.02669 5.36659L5.83336 3.68659C5.75336 3.01326 5.18669 2.50659 4.50669 2.50659H3.35336C2.60003 2.50659 1.97336 3.13326 2.02003 3.88659C2.37336 9.57993 6.92669 14.1266 12.6134 14.4799C13.3667 14.5266 13.9934 13.8999 13.9934 13.1466V11.9933C14 11.3199 13.4934 10.7533 12.82 10.6733Z" fill="#468AE7"/>
</svg>
