<svg width="16" height="17" viewBox="0 0 16 17" fill="none" xmlns="http://www.w3.org/2000/svg">
<path fill-rule="evenodd" clip-rule="evenodd" d="M8.00004 1.83337C5.42004 1.83337 3.33337 3.92004 3.33337 6.50004C3.33337 9.28004 6.28004 13.1134 7.49338 14.5734C7.76004 14.8934 8.24671 14.8934 8.51338 14.5734C9.72004 13.1134 12.6667 9.28004 12.6667 6.50004C12.6667 3.92004 10.58 1.83337 8.00004 1.83337ZM8.00004 8.16668C7.08004 8.16668 6.33337 7.42002 6.33337 6.50002C6.33337 5.58002 7.08004 4.83335 8.00004 4.83335C8.92004 4.83335 9.66671 5.58002 9.66671 6.50002C9.66671 7.42002 8.92004 8.16668 8.00004 8.16668Z" fill="#468AE7"/>
</svg>
