<svg width="16" height="16" viewBox="0 0 16 16" fill="none" xmlns="http://www.w3.org/2000/svg">
<path fill-rule="evenodd" clip-rule="evenodd" d="M10.3334 9.33332H9.80672L9.62005 9.15332C10.4201 8.21999 10.8334 6.94666 10.6067 5.59332C10.2934 3.73999 8.74672 2.25999 6.88005 2.03332C4.06005 1.68666 1.68672 4.05999 2.03338 6.87999C2.26005 8.74666 3.74005 10.2933 5.59338 10.6067C6.94672 10.8333 8.22005 10.42 9.15338 9.61999L9.33338 9.80666V10.3333L12.1667 13.1667C12.4401 13.44 12.8867 13.44 13.1601 13.1667C13.4334 12.8933 13.4334 12.4467 13.1601 12.1733L10.3334 9.33332ZM6.33338 9.33333C4.67338 9.33333 3.33338 7.99333 3.33338 6.33333C3.33338 4.67333 4.67338 3.33333 6.33338 3.33333C7.99338 3.33333 9.33338 4.67333 9.33338 6.33333C9.33338 7.99333 7.99338 9.33333 6.33338 9.33333Z" fill="#468AE7"/>
</svg>
