<svg width="20" height="16" viewBox="0 0 20 16" fill="none" xmlns="http://www.w3.org/2000/svg">
<path fill-rule="evenodd" clip-rule="evenodd" d="M4.18988 7.22149C8.05534 5.64091 10.6329 4.5989 11.9226 4.09545C15.605 2.658 16.3701 2.4083 16.8689 2.40005C16.9785 2.39824 17.2238 2.42375 17.3827 2.54473C17.5168 2.64689 17.5537 2.78489 17.5714 2.88175C17.589 2.9786 17.611 3.19924 17.5936 3.37164C17.394 5.3394 16.5306 10.1146 16.0913 12.3186C15.9054 13.2511 15.5394 13.5638 15.1851 13.5944C14.4151 13.6609 13.8304 13.1168 13.0846 12.658C11.9176 11.94 11.2583 11.4931 10.1255 10.7925C8.81633 9.98283 9.665 9.53782 10.4111 8.81056C10.6063 8.62023 13.999 5.72404 14.0647 5.46131C14.0729 5.42845 14.0805 5.30596 14.003 5.24129C13.9255 5.17661 13.811 5.19873 13.7285 5.21632C13.6114 5.24125 11.7471 6.39775 8.13545 8.68581C7.60627 9.02685 7.12695 9.19301 6.69749 9.1843C6.22406 9.1747 5.31335 8.93307 4.63633 8.72653C3.80595 8.4732 3.14597 8.33926 3.20344 7.90903C3.23337 7.68493 3.56219 7.45576 4.18988 7.22149Z" fill="black" fill-opacity="0.6"/>
</svg>
