<svg width="17" height="16" viewBox="0 0 17 16" fill="none" xmlns="http://www.w3.org/2000/svg">
<g clip-path="url(#clip0_8_108)">
<g clip-path="url(#clip1_8_108)">
<path d="M16.8 7.79418C16.8 12.0985 13.2836 15.5878 8.94483 15.5878C7.56798 15.5878 6.2746 15.2357 5.1487 14.619L0.800049 16L2.2176 11.8173C1.50282 10.6434 1.09118 9.26494 1.09118 7.79365C1.0917 3.48935 4.60714 0 8.94587 0C13.2841 0.00104347 16.8 3.48988 16.8 7.79418ZM8.94431 1.24277C5.30313 1.24277 2.34125 4.18222 2.34125 7.79574C2.34125 9.22947 2.80872 10.5568 3.59915 11.6367L2.77481 14.0696L5.31148 13.2635C6.35495 13.948 7.60345 14.3466 8.94431 14.3466C12.5855 14.3466 15.5484 11.4077 15.5484 7.79418C15.5495 4.18222 12.586 1.24277 8.94431 1.24277ZM12.9116 9.58946C12.8625 9.51068 12.7342 9.46268 12.5422 9.36668C12.3507 9.27068 11.4027 8.80895 11.2269 8.74634C11.0495 8.68217 10.9212 8.64982 10.7928 8.8413C10.666 9.03277 10.2966 9.46268 10.1834 9.59103C10.0713 9.71885 9.95908 9.73503 9.76656 9.64059C9.57404 9.54355 8.95318 9.3432 8.21753 8.6926C7.64519 8.18548 7.25859 7.56096 7.14694 7.36949C7.03372 7.17853 7.13546 7.07523 7.23094 6.98027C7.31702 6.89419 7.42346 6.75697 7.51998 6.6448C7.6165 6.53367 7.64832 6.45489 7.7125 6.32706C7.77563 6.19924 7.7438 6.08811 7.69632 5.99159C7.64832 5.89559 7.2638 4.95647 7.10259 4.57404C6.94242 4.19213 6.78224 4.25526 6.66955 4.25526C6.55738 4.25526 6.42903 4.23961 6.30068 4.23961C6.17234 4.23961 5.96364 4.28604 5.78782 4.47752C5.612 4.66899 5.11426 5.13073 5.11426 6.07089C5.11426 7.0121 5.80347 7.91939 5.89999 8.0467C5.99704 8.17348 7.2325 10.166 9.18952 10.9308C11.1476 11.6952 11.1476 11.44 11.5003 11.4077C11.854 11.3754 12.6397 10.946 12.7994 10.5004C12.9601 10.0528 12.9601 9.66929 12.9116 9.58946Z" fill="black" fill-opacity="0.6"/>
</g>
</g>
<defs>
<clipPath id="clip0_8_108">
<rect width="16" height="16" fill="white" transform="translate(0.800049)"/>
</clipPath>
<clipPath id="clip1_8_108">
<rect width="16" height="16" fill="white" transform="translate(0.800049)"/>
</clipPath>
</defs>
</svg>
