<svg width="1920" height="176" viewBox="0 0 1920 176" fill="none" xmlns="http://www.w3.org/2000/svg">
<path d="M99.2624 337C80.5608 337 63.7294 333.683 48.7681 327.05C34.0945 320.128 22.4419 310.899 13.8104 299.363C5.17891 287.539 0.575435 274.416 0 259.996H50.9259C51.7891 270.09 56.5364 278.598 65.168 285.52C74.0872 292.153 85.1643 295.47 98.3993 295.47C112.21 295.47 122.855 292.874 130.336 287.683C138.104 282.203 141.988 275.282 141.988 266.918C141.988 257.977 137.673 251.344 129.041 247.018C120.697 242.692 107.319 237.933 88.9046 232.742C71.0662 227.839 56.5364 223.08 45.3155 218.466C34.0945 213.852 24.3121 206.786 15.9683 197.268C7.91222 187.751 3.88418 175.205 3.88418 159.632C3.88418 146.942 7.62451 135.406 15.1052 125.023C22.5858 114.352 33.2313 105.988 47.0418 99.932C61.1399 93.8755 77.2521 90.8473 95.3783 90.8473C122.424 90.8473 144.146 97.7689 160.546 111.612C177.234 125.167 186.153 143.769 187.304 167.418H138.104C137.241 156.748 132.925 148.24 125.157 141.895C117.389 135.55 106.887 132.377 93.652 132.377C80.7047 132.377 70.7784 134.829 63.8732 139.732C56.968 144.635 53.5154 151.124 53.5154 159.199C53.5154 165.544 55.8171 170.879 60.4206 175.205C65.0241 179.531 70.6346 182.992 77.2521 185.588C83.8696 187.895 93.652 190.923 106.599 194.673C123.862 199.287 137.96 204.046 148.894 208.949C160.115 213.563 169.753 220.485 177.809 229.714C185.865 238.943 190.037 251.2 190.325 266.485C190.325 280.04 186.585 292.153 179.104 302.824C171.623 313.495 160.978 321.859 147.167 327.915C133.645 333.972 117.676 337 99.2624 337Z" fill="url(#paint0_linear_16_66)"/>
<path d="M346.633 337C324.191 337 303.907 331.953 285.781 321.859C267.655 311.476 253.413 297.056 243.055 278.598C232.697 259.852 227.518 238.222 227.518 213.707C227.518 189.481 232.841 167.995 243.486 149.249C254.132 130.503 268.662 116.083 287.076 105.988C305.489 95.8943 326.061 90.8473 348.791 90.8473C371.521 90.8473 392.092 95.8943 410.506 105.988C428.92 116.083 443.45 130.503 454.095 149.249C464.741 167.995 470.064 189.481 470.064 213.707C470.064 237.933 464.597 259.419 453.664 278.166C442.731 296.912 427.769 311.476 408.78 321.859C390.078 331.953 369.363 337 346.633 337ZM346.633 294.172C359.292 294.172 371.089 291.144 382.022 285.087C393.243 279.031 402.306 269.946 409.211 257.833C416.117 245.72 419.569 231.012 419.569 213.707C419.569 196.403 416.261 181.839 409.643 170.014C403.026 157.901 394.25 148.816 383.317 142.76C372.384 136.703 360.587 133.675 347.928 133.675C335.268 133.675 323.472 136.703 312.538 142.76C301.893 148.816 293.405 157.901 287.076 170.014C280.746 181.839 277.581 196.403 277.581 213.707C277.581 239.375 284.054 259.275 297.002 273.407C310.237 287.25 326.78 294.172 346.633 294.172Z" fill="url(#paint1_linear_16_66)"/>
<path d="M567.9 12.9782V333.107H518.7V12.9782H567.9Z" fill="url(#paint2_linear_16_66)"/>
<path d="M847.851 94.7407V333.107H798.651V304.987C790.883 314.793 780.669 322.58 768.009 328.348C755.638 333.828 742.403 336.567 728.304 336.567C709.603 336.567 692.771 332.674 677.81 324.887C663.136 317.1 651.484 305.564 642.852 290.279C634.509 274.993 630.337 256.535 630.337 234.905V94.7407H679.105V227.551C679.105 248.893 684.428 265.332 695.073 276.868C705.719 288.116 720.248 293.739 738.662 293.739C757.076 293.739 771.606 288.116 782.251 276.868C793.185 265.332 798.651 248.893 798.651 227.551V94.7407H847.851Z" fill="url(#paint3_linear_16_66)"/>
<path d="M970.166 134.973V266.918C970.166 275.858 972.18 282.347 976.208 286.385C980.523 290.134 987.716 292.009 997.786 292.009H1028V333.107H989.155C967.001 333.107 950.025 327.915 938.229 317.533C926.433 307.15 920.534 290.279 920.534 266.918V134.973H892.482V94.7407H920.534V35.4737H970.166V94.7407H1028V134.973H970.166Z" fill="url(#paint4_linear_16_66)"/>
<path d="M1098.37 63.1605C1089.45 63.1605 1081.97 60.1322 1075.93 54.0757C1069.89 48.0193 1066.87 40.5208 1066.87 31.5802C1066.87 22.6397 1069.89 15.1412 1075.93 9.08473C1081.97 3.02824 1089.45 0 1098.37 0C1107.01 0 1114.34 3.02824 1120.38 9.08473C1126.43 15.1412 1129.45 22.6397 1129.45 31.5802C1129.45 40.5208 1126.43 48.0193 1120.38 54.0757C1114.34 60.1322 1107.01 63.1605 1098.37 63.1605ZM1122.54 94.7407V333.107H1073.34V94.7407H1122.54Z" fill="url(#paint5_linear_16_66)"/>
<path d="M1290.28 337C1267.84 337 1247.56 331.953 1229.43 321.859C1211.31 311.476 1197.06 297.056 1186.71 278.598C1176.35 259.852 1171.17 238.222 1171.17 213.707C1171.17 189.481 1176.49 167.995 1187.14 149.249C1197.78 130.503 1212.31 116.083 1230.73 105.988C1249.14 95.8943 1269.71 90.8473 1292.44 90.8473C1315.17 90.8473 1335.74 95.8943 1354.16 105.988C1372.57 116.083 1387.1 130.503 1397.75 149.249C1408.39 167.995 1413.71 189.481 1413.71 213.707C1413.71 237.933 1408.25 259.419 1397.31 278.166C1386.38 296.912 1371.42 311.476 1352.43 321.859C1333.73 331.953 1313.01 337 1290.28 337ZM1290.28 294.172C1302.94 294.172 1314.74 291.144 1325.67 285.087C1336.89 279.031 1345.96 269.946 1352.86 257.833C1359.77 245.72 1363.22 231.012 1363.22 213.707C1363.22 196.403 1359.91 181.839 1353.29 170.014C1346.68 157.901 1337.9 148.816 1326.97 142.76C1316.03 136.703 1304.24 133.675 1291.58 133.675C1278.92 133.675 1267.12 136.703 1256.19 142.76C1245.54 148.816 1237.06 157.901 1230.73 170.014C1224.4 181.839 1221.23 196.403 1221.23 213.707C1221.23 239.375 1227.71 259.275 1240.65 273.407C1253.89 287.25 1270.43 294.172 1290.28 294.172Z" fill="url(#paint6_linear_16_66)"/>
<path d="M1582.33 90.8473C1601.03 90.8473 1617.72 94.7407 1632.39 102.528C1647.35 110.314 1659.01 121.851 1667.35 137.136C1675.69 152.421 1679.87 170.879 1679.87 192.51V333.107H1631.1V199.864C1631.1 178.522 1625.77 162.227 1615.13 150.979C1604.48 139.443 1589.95 133.675 1571.54 133.675C1553.13 133.675 1538.45 139.443 1527.52 150.979C1516.87 162.227 1511.55 178.522 1511.55 199.864V333.107H1462.35V94.7407H1511.55V121.995C1519.61 112.189 1529.82 104.546 1542.19 99.0668C1554.85 93.5871 1568.23 90.8473 1582.33 90.8473Z" fill="url(#paint7_linear_16_66)"/>
<path d="M1828.94 337C1810.24 337 1793.4 333.683 1778.44 327.05C1763.77 320.128 1752.12 310.899 1743.49 299.363C1734.85 287.539 1730.25 274.416 1729.68 259.996H1780.6C1781.46 270.09 1786.21 278.598 1794.84 285.52C1803.76 292.153 1814.84 295.47 1828.07 295.47C1841.88 295.47 1852.53 292.874 1860.01 287.683C1867.78 282.203 1871.66 275.282 1871.66 266.918C1871.66 257.977 1867.35 251.344 1858.72 247.018C1850.37 242.692 1836.99 237.933 1818.58 232.742C1800.74 227.839 1786.21 223.08 1774.99 218.466C1763.77 213.852 1753.99 206.786 1745.64 197.268C1737.59 187.751 1733.56 175.205 1733.56 159.632C1733.56 146.942 1737.3 135.406 1744.78 125.023C1752.26 114.352 1762.91 105.988 1776.72 99.932C1790.82 93.8755 1806.93 90.8473 1825.05 90.8473C1852.1 90.8473 1873.82 97.7689 1890.22 111.612C1906.91 125.167 1915.83 143.769 1916.98 167.418H1867.78C1866.92 156.748 1862.6 148.24 1854.83 141.895C1847.06 135.55 1836.56 132.377 1823.33 132.377C1810.38 132.377 1800.45 134.829 1793.55 139.732C1786.64 144.635 1783.19 151.124 1783.19 159.199C1783.19 165.544 1785.49 170.879 1790.1 175.205C1794.7 179.531 1800.31 182.992 1806.93 185.588C1813.54 187.895 1823.33 190.923 1836.27 194.673C1853.54 199.287 1867.64 204.046 1878.57 208.949C1889.79 213.563 1899.43 220.485 1907.48 229.714C1915.54 238.943 1919.71 251.2 1920 266.485C1920 280.04 1916.26 292.153 1908.78 302.824C1901.3 313.495 1890.65 321.859 1876.84 327.915C1863.32 333.972 1847.35 337 1828.94 337Z" fill="url(#paint8_linear_16_66)"/>
<defs>
<linearGradient id="paint0_linear_16_66" x1="937.5" y1="-6.96674e-06" x2="937.5" y2="179" gradientUnits="userSpaceOnUse">
<stop stop-color="#D2D2DD"/>
<stop offset="1" stop-color="#D9D9E5" stop-opacity="0"/>
</linearGradient>
<linearGradient id="paint1_linear_16_66" x1="937.5" y1="-6.96674e-06" x2="937.5" y2="179" gradientUnits="userSpaceOnUse">
<stop stop-color="#D2D2DD"/>
<stop offset="1" stop-color="#D9D9E5" stop-opacity="0"/>
</linearGradient>
<linearGradient id="paint2_linear_16_66" x1="937.5" y1="-6.96674e-06" x2="937.5" y2="179" gradientUnits="userSpaceOnUse">
<stop stop-color="#D2D2DD"/>
<stop offset="1" stop-color="#D9D9E5" stop-opacity="0"/>
</linearGradient>
<linearGradient id="paint3_linear_16_66" x1="937.5" y1="-6.96674e-06" x2="937.5" y2="179" gradientUnits="userSpaceOnUse">
<stop stop-color="#D2D2DD"/>
<stop offset="1" stop-color="#D9D9E5" stop-opacity="0"/>
</linearGradient>
<linearGradient id="paint4_linear_16_66" x1="937.5" y1="-6.96674e-06" x2="937.5" y2="179" gradientUnits="userSpaceOnUse">
<stop stop-color="#D2D2DD"/>
<stop offset="1" stop-color="#D9D9E5" stop-opacity="0"/>
</linearGradient>
<linearGradient id="paint5_linear_16_66" x1="937.5" y1="-6.96674e-06" x2="937.5" y2="179" gradientUnits="userSpaceOnUse">
<stop stop-color="#D2D2DD"/>
<stop offset="1" stop-color="#D9D9E5" stop-opacity="0"/>
</linearGradient>
<linearGradient id="paint6_linear_16_66" x1="937.5" y1="-6.96674e-06" x2="937.5" y2="179" gradientUnits="userSpaceOnUse">
<stop stop-color="#D2D2DD"/>
<stop offset="1" stop-color="#D9D9E5" stop-opacity="0"/>
</linearGradient>
<linearGradient id="paint7_linear_16_66" x1="937.5" y1="-6.96674e-06" x2="937.5" y2="179" gradientUnits="userSpaceOnUse">
<stop stop-color="#D2D2DD"/>
<stop offset="1" stop-color="#D9D9E5" stop-opacity="0"/>
</linearGradient>
<linearGradient id="paint8_linear_16_66" x1="937.5" y1="-6.96674e-06" x2="937.5" y2="179" gradientUnits="userSpaceOnUse">
<stop stop-color="#D2D2DD"/>
<stop offset="1" stop-color="#D9D9E5" stop-opacity="0"/>
</linearGradient>
</defs>
</svg>
