<svg width="20" height="23" viewBox="0 0 20 23" fill="none" xmlns="http://www.w3.org/2000/svg">
<path d="M16.1792 13.62C15.5192 13.62 14.9792 13.08 14.9792 12.42C14.9792 11.76 15.5192 11.22 16.1792 11.22C16.8592 11.22 17.3792 11.76 17.3792 12.42C17.3792 13.08 16.8592 13.62 16.1792 13.62ZM4.01922 13.64C3.33922 13.64 2.81922 13.08 2.81922 12.44C2.81922 11.78 3.35922 11.24 4.01922 11.24C4.63922 11.24 5.21922 11.74 5.21922 12.44C5.21922 13.1 4.67922 13.64 4.01922 13.64ZM10.1392 13.64C9.47922 13.64 8.93922 13.1 8.93922 12.44C8.93922 11.76 9.49922 11.24 10.1392 11.24C10.7592 11.24 11.3392 11.74 11.3392 12.44C11.3392 13.1 10.7992 13.64 10.1392 13.64Z" fill="black"/>
</svg>
