<svg width="18" height="16" viewBox="0 0 18 16" fill="none" xmlns="http://www.w3.org/2000/svg">
<g clip-path="url(#clip0_31_657)">
<path d="M9.08861 13.6766L8.99997 13.7633L8.90247 13.6766C4.69225 9.94128 1.90906 7.47128 1.90906 4.96662C1.90906 3.23328 3.23861 1.93328 5.01134 1.93328C6.37634 1.93328 7.70588 2.79995 8.17566 3.97862H9.82429C10.2941 2.79995 11.6236 1.93328 12.9886 1.93328C14.7613 1.93328 16.0909 3.23328 16.0909 4.96662C16.0909 7.47128 13.3077 9.94128 9.08861 13.6766ZM12.9886 0.199951C11.4463 0.199951 9.96611 0.901951 8.99997 2.00262C8.03384 0.901951 6.55361 0.199951 5.01134 0.199951C2.28134 0.199951 0.136337 2.28862 0.136337 4.96662C0.136337 8.23395 3.14997 10.912 7.71475 14.9593L8.99997 16.1033L10.2852 14.9593C14.85 10.912 17.8636 8.23395 17.8636 4.96662C17.8636 2.28862 15.7186 0.199951 12.9886 0.199951Z" fill="black"/>
</g>
<defs>
<clipPath id="clip0_31_657">
<rect width="18" height="16" fill="white"/>
</clipPath>
</defs>
</svg>
