<svg width="37" height="27" viewBox="0 0 37 27" fill="none" xmlns="http://www.w3.org/2000/svg">
<path d="M34.0579 21.0973C35.6829 21.0973 37 22.4192 37 24.0491C36.9999 25.6789 35.6828 27 34.0579 27H2.9421C1.31715 27 0.000139221 25.6789 0 24.0491C0 22.4192 1.31707 21.0973 2.9421 21.0973H34.0579ZM34.0579 10.5491C35.6829 10.5491 37 11.8701 37 13.5C36.9999 15.1298 35.6829 16.4509 34.0579 16.4509H2.9421C1.31711 16.4509 6.96127e-05 15.1298 0 13.5C0 11.8701 1.31707 10.5491 2.9421 10.5491H34.0579ZM34.0579 0C35.6829 0 37 1.32101 37 2.95091C37 4.58081 35.6829 5.90182 34.0579 5.90182H2.9421C1.31707 5.90182 0 4.58081 0 2.95091C0 1.32101 1.31707 0 2.9421 0H34.0579Z" fill="black"/>
</svg>
