<svg width="26" height="26" viewBox="0 0 26 26" fill="none" xmlns="http://www.w3.org/2000/svg">
<path d="M2.16669 6.50008C2.16669 4.45691 2.16669 3.43641 2.80152 2.80158C3.43635 2.16675 4.45685 2.16675 6.50002 2.16675C8.54319 2.16675 9.56369 2.16675 10.1985 2.80158C10.8334 3.43641 10.8334 4.45691 10.8334 6.50008V19.5001C10.8334 21.5432 10.8334 22.5637 10.1985 23.1986C9.56369 23.8334 8.54319 23.8334 6.50002 23.8334C4.45685 23.8334 3.43635 23.8334 2.80152 23.1986C2.16669 22.5637 2.16669 21.5432 2.16669 19.5001V6.50008ZM15.1667 6.50008C15.1667 4.45691 15.1667 3.43641 15.8015 2.80158C16.4364 2.16675 17.4569 2.16675 19.5 2.16675C21.5432 2.16675 22.5637 2.16675 23.1985 2.80158C23.8334 3.43641 23.8334 4.45691 23.8334 6.50008V19.5001C23.8334 21.5432 23.8334 22.5637 23.1985 23.1986C22.5637 23.8334 21.5432 23.8334 19.5 23.8334C17.4569 23.8334 16.4364 23.8334 15.8015 23.1986C15.1667 22.5637 15.1667 21.5432 15.1667 19.5001V6.50008Z" fill="#0071E3"/>
</svg>
