<svg width="20" height="23" viewBox="0 0 20 23" fill="none" xmlns="http://www.w3.org/2000/svg">
<path d="M4.01925 3.09438C3.91677 3.03362 3.80003 3.00107 3.68089 3.00003C3.56176 2.99899 3.44447 3.0295 3.34094 3.08846C3.23742 3.14742 3.15134 3.23273 3.09146 3.33573C3.03158 3.43873 3.00002 3.55574 3 3.67488V19.3056C3.00002 19.4248 3.03158 19.5418 3.09146 19.6448C3.15134 19.7478 3.23742 19.8331 3.34094 19.8921C3.44447 19.951 3.56176 19.9815 3.68089 19.9805C3.80003 19.9795 3.91677 19.9469 4.01925 19.8861L17.2076 12.0708C17.3083 12.011 17.3918 11.926 17.4497 11.8243C17.5077 11.7225 17.5382 11.6074 17.5382 11.4903C17.5382 11.3731 17.5077 11.258 17.4497 11.1562C17.3918 11.0545 17.3083 10.9695 17.2076 10.9098L4.01925 3.09438Z" fill="#0071E3" stroke="#0071E3" stroke-width="4" stroke-linecap="round" stroke-linejoin="round"/>
</svg>
