<svg width="25" height="20" viewBox="0 0 25 20" fill="none" xmlns="http://www.w3.org/2000/svg">
<g clip-path="url(#clip0_28_95)">
<path d="M0.987461 0.260858C1.59893 -0.0802315 2.35457 -0.0874024 2.97262 0.242758L6.739 2.25534C7.36848 2.59171 7.75855 3.22542 7.75862 3.91288C7.75862 4.60047 7.36863 5.23474 6.739 5.57112L2.97262 7.58301C2.35459 7.91316 1.59892 7.90666 0.987461 7.5656C0.37609 7.22457 0.00012453 6.60026 0 5.92546V1.901C0 1.2261 0.376039 0.60196 0.987461 0.260858Z" fill="black"/>
<path d="M23.1233 16.0865C24.1596 16.0865 25 16.9627 25 18.0432C25 19.1237 24.1596 19.9999 23.1233 19.9999H1.87672C0.840387 19.9999 4.13395e-05 19.1237 0 18.0432C0 16.9627 0.840362 16.0865 1.87672 16.0865H23.1233ZM23.1233 8.91311C24.1595 8.91311 24.9998 9.78871 25 10.8691C25 11.9496 24.1596 12.8258 23.1233 12.8258H1.87672C0.840362 12.8258 0 11.9496 0 10.8691C0.000164981 9.78871 0.840463 8.91311 1.87672 8.91311H23.1233ZM23.1233 1.73901C24.1596 1.73901 25 2.61519 25 3.69571C25 4.77624 24.1596 5.65242 23.1233 5.65242H10.1395C9.10314 5.65242 8.26278 4.77624 8.26278 3.69571C8.26278 2.61519 9.10314 1.73901 10.1395 1.73901H23.1233Z" fill="black"/>
</g>
<defs>
<clipPath id="clip0_28_95">
<rect width="25" height="20" fill="white"/>
</clipPath>
</defs>
</svg>
