<svg width="29" height="26" viewBox="0 0 29 26" fill="none" xmlns="http://www.w3.org/2000/svg">
<g clip-path="url(#clip0_28_174)">
<path d="M10.7785 8.29625C10.1313 9.29292 9.39238 10.7717 8.56177 12.7325C8.32445 12.245 8.12489 11.8523 7.96308 11.5544C7.80127 11.2565 7.58283 10.9125 7.30776 10.5225C7.03268 10.1325 6.75761 9.82646 6.48254 9.60437C6.20746 9.38229 5.86767 9.19271 5.46315 9.03562C5.05863 8.87854 4.61905 8.8 4.14442 8.8H0.519921C0.368901 8.8 0.244848 8.75125 0.147763 8.65375C0.0506786 8.55625 0.00213623 8.43167 0.00213623 8.28V5.16C0.00213623 5.00833 0.0506786 4.88375 0.147763 4.78625C0.244848 4.68875 0.368901 4.64 0.519921 4.64H4.14442C6.84121 4.64 9.05258 5.85875 10.7785 8.29625ZM28.9981 21.28C28.9981 21.4317 28.9495 21.5562 28.8525 21.6537L23.6746 26.8537C23.5775 26.9512 23.4535 27 23.3025 27C23.1622 27 23.0409 26.9485 22.9384 26.8456C22.8359 26.7427 22.7847 26.6208 22.7847 26.48V23.36C22.4395 23.36 21.981 23.3627 21.4093 23.3681C20.8376 23.3735 20.4007 23.379 20.0987 23.3844C19.7966 23.3898 19.4029 23.3844 18.9175 23.3681C18.432 23.3519 18.0491 23.3248 17.7686 23.2869C17.4882 23.249 17.143 23.1921 16.7331 23.1162C16.3231 23.0404 15.9834 22.9402 15.7137 22.8156C15.444 22.691 15.1312 22.5367 14.7752 22.3525C14.4192 22.1683 14.101 21.9517 13.8205 21.7025C13.5401 21.4533 13.2434 21.1635 12.9306 20.8331C12.6177 20.5027 12.3157 20.1262 12.0245 19.7037C12.6609 18.6962 13.3944 17.2175 14.225 15.2675C14.4624 15.755 14.6619 16.1477 14.8237 16.4456C14.9855 16.7435 15.204 17.0875 15.4791 17.4775C15.7541 17.8675 16.0292 18.1735 16.3043 18.3956C16.5793 18.6177 16.9191 18.8073 17.3237 18.9644C17.7282 19.1215 18.1678 19.2 18.6424 19.2H22.7847V16.08C22.7847 15.9283 22.8332 15.8037 22.9303 15.7062C23.0274 15.6087 23.1514 15.56 23.3025 15.56C23.4319 15.56 23.5613 15.6142 23.6908 15.7225L28.8525 20.9062C28.9495 21.0037 28.9981 21.1283 28.9981 21.28ZM28.9981 6.72C28.9981 6.87167 28.9495 6.99625 28.8525 7.09375L23.6746 12.2937C23.5775 12.3912 23.4535 12.44 23.3025 12.44C23.1622 12.44 23.0409 12.3885 22.9384 12.2856C22.8359 12.1827 22.7847 12.0608 22.7847 11.92V8.8H18.6424C18.1246 8.8 17.6554 8.88125 17.2347 9.04375C16.814 9.20625 16.4418 9.45 16.1182 9.775C15.7946 10.1 15.5195 10.4331 15.293 10.7744C15.0664 11.1156 14.8237 11.5354 14.5648 12.0337C14.2196 12.7054 13.7989 13.6317 13.3027 14.8125C12.9899 15.5275 12.7229 16.1287 12.5018 16.6162C12.2807 17.1038 11.9894 17.6725 11.628 18.3225C11.2667 18.9725 10.9215 19.5142 10.5925 19.9475C10.2634 20.3808 9.86432 20.8304 9.39508 21.2962C8.92584 21.7621 8.44041 22.1331 7.93881 22.4094C7.4372 22.6856 6.86279 22.9131 6.21556 23.0919C5.56832 23.2706 4.87794 23.36 4.14442 23.36H0.519921C0.368901 23.36 0.244848 23.3112 0.147763 23.2137C0.0506786 23.1162 0.00213623 22.9917 0.00213623 22.84V19.72C0.00213623 19.5683 0.0506786 19.4437 0.147763 19.3462C0.244848 19.2487 0.368901 19.2 0.519921 19.2H4.14442C4.6622 19.2 5.13144 19.1187 5.55214 18.9562C5.97284 18.7937 6.345 18.55 6.66862 18.225C6.99223 17.9 7.26731 17.5669 7.49384 17.2256C7.72037 16.8844 7.96308 16.4646 8.22197 15.9662C8.56716 15.2946 8.98786 14.3683 9.48407 13.1875C9.7969 12.4725 10.0639 11.8712 10.285 11.3837C10.5062 10.8962 10.7974 10.3275 11.1588 9.6775C11.5202 9.0275 11.8653 8.48583 12.1944 8.0525C12.5234 7.61917 12.9225 7.16958 13.3917 6.70375C13.861 6.23792 14.3464 5.86687 14.848 5.59062C15.3496 5.31437 15.924 5.08687 16.5713 4.90812C17.2185 4.72937 17.9089 4.64 18.6424 4.64H22.7847V1.52C22.7847 1.36833 22.8332 1.24375 22.9303 1.14625C23.0274 1.04875 23.1514 1 23.3025 1C23.4319 1 23.5613 1.05417 23.6908 1.1625L28.8525 6.34625C28.9495 6.44375 28.9981 6.56833 28.9981 6.72Z" fill="black"/>
</g>
<defs>
<clipPath id="clip0_28_174">
<rect width="29" height="26" fill="white"/>
</clipPath>
</defs>
</svg>
