<svg width="26" height="25" viewBox="0 0 26 25" fill="none" xmlns="http://www.w3.org/2000/svg">
<g clip-path="url(#clip0_28_101)">
<path d="M23.6667 8.66665C24.1639 8.66667 24.6432 8.85187 25.0112 9.18614C25.3793 9.52041 25.6096 9.97977 25.6573 10.4746L25.6667 10.6666V16C25.6667 17.5423 25.0727 19.0255 24.0081 20.1415C22.9435 21.2575 21.49 21.9207 19.9493 21.9933L19.6667 22H8.41334L8.38668 22.416L8.37201 22.6026C8.29734 23.5613 7.37334 24.1626 6.59734 23.756L6.17868 23.532L5.68801 23.2533L5.41734 23.0946L4.83201 22.736C4.41506 22.4726 4.00514 22.1983 3.60268 21.9133L3.08934 21.54L2.65868 21.2133L2.47601 21.0706C1.82401 20.5506 1.84934 19.4773 2.54268 18.9293L2.72401 18.7866L3.15068 18.464L3.65734 18.0973L4.24134 17.696C4.55473 17.4868 4.87213 17.2836 5.19334 17.0866L5.76134 16.7467L6.26134 16.4653L6.68268 16.2386C7.45201 15.8386 8.29201 16.352 8.36534 17.2467L8.41601 18H19.6667C20.1639 18 20.6432 17.8148 21.0112 17.4805C21.3793 17.1462 21.6096 16.6869 21.6573 16.192L21.6667 16V10.6666C21.6667 10.1362 21.8774 9.62751 22.2525 9.25243C22.6275 8.87736 23.1362 8.66665 23.6667 8.66665ZM19.4027 0.243982L19.8213 0.467982L20.312 0.746648C20.4009 0.796426 20.4911 0.849315 20.5827 0.905315L21.168 1.26398C21.585 1.52733 21.9949 1.80165 22.3973 2.08665L22.9107 2.45998L23.3413 2.78665L23.524 2.92932C24.176 3.44932 24.1507 4.52265 23.4573 5.07065L23.276 5.21332L22.8493 5.53598L22.3427 5.90265C21.8414 6.25551 21.3291 6.59256 20.8067 6.91332L20.2387 7.25331L19.7387 7.53465L19.3173 7.76132C18.548 8.16131 17.708 7.64798 17.636 6.75331L17.5827 5.99998H6.33334C5.80291 5.99998 5.2942 6.2107 4.91913 6.58577C4.54406 6.96084 4.33334 7.46955 4.33334 7.99998V13.3333C4.33334 13.8637 4.12263 14.3725 3.74756 14.7475C3.37248 15.1226 2.86378 15.3333 2.33334 15.3333C1.80291 15.3333 1.2942 15.1226 0.91913 14.7475C0.544057 14.3725 0.333344 13.8637 0.333344 13.3333V7.99998C0.333344 6.40868 0.965484 4.88256 2.0907 3.75734C3.21592 2.63212 4.74204 1.99998 6.33334 1.99998H17.5867L17.628 1.39731C17.7027 0.438648 18.6267 -0.162685 19.4027 0.243982Z" fill="black"/>
</g>
<defs>
<clipPath id="clip0_28_101">
<rect width="26" height="25" fill="white"/>
</clipPath>
</defs>
</svg>
