<svg width="22" height="20" viewBox="0 0 22 20" fill="none" xmlns="http://www.w3.org/2000/svg">
<path d="M12.1983 0.222456C12.3679 0.101167 12.5663 0.0264795 12.7737 0.00584975C12.9812 -0.01478 13.1904 0.0193701 13.3805 0.10489C13.5706 0.190411 13.735 0.324308 13.8572 0.493214C13.9794 0.66212 14.0551 0.860124 14.0768 1.06746L14.0833 1.19096V18.104C14.0834 18.3124 14.0288 18.5173 13.9249 18.698C13.8211 18.8788 13.6716 19.0291 13.4915 19.1341C13.3113 19.239 13.1068 19.2948 12.8983 19.296C12.6898 19.2972 12.4847 19.2436 12.3034 19.1407L12.1994 19.0735L5.07 13.9808H2.16667C1.62004 13.981 1.09355 13.7745 0.69274 13.4028C0.291927 13.0312 0.0464137 12.5217 0.0054169 11.9766L1.08624e-07 11.8141V7.48079C-0.000172877 6.93417 0.206274 6.40768 0.577955 6.00686C0.949636 5.60605 1.45908 5.36054 2.00417 5.31954L2.16667 5.31412H5.07L12.1983 0.222456ZM19.1392 3.99571C19.9344 4.70698 20.5705 5.57802 21.006 6.55191C21.4415 7.5258 21.6666 8.58062 21.6667 9.64746C21.6666 10.7143 21.4415 11.7691 21.006 12.743C20.5705 13.7169 19.9344 14.5879 19.1392 15.2992C19.0335 15.3956 18.9097 15.4702 18.775 15.5185C18.6403 15.5668 18.4974 15.588 18.3544 15.5808C18.2115 15.5735 18.0714 15.5381 17.9423 15.4764C17.8132 15.4147 17.6975 15.3281 17.6021 15.2214C17.5066 15.1148 17.4332 14.9903 17.3861 14.8552C17.3391 14.72 17.3192 14.5769 17.3278 14.4341C17.3363 14.2912 17.3731 14.1515 17.436 14.0229C17.4989 13.8943 17.5866 13.7795 17.6941 13.685C18.2622 13.177 18.7167 12.5547 19.0279 11.859C19.3391 11.1632 19.5 10.4096 19.5 9.64746C19.5 8.04412 18.8045 6.60329 17.6941 5.60987C17.5866 5.51541 17.4989 5.40058 17.436 5.27202C17.3731 5.14346 17.3363 5.00371 17.3278 4.86086C17.3192 4.718 17.3391 4.57487 17.3861 4.43972C17.4332 4.30458 17.5066 4.1801 17.6021 4.07347C17.6975 3.96685 17.8132 3.8802 17.9423 3.81852C18.0714 3.75685 18.2115 3.72137 18.3544 3.71414C18.4974 3.70691 18.6403 3.72807 18.775 3.7764C18.9097 3.82472 19.0335 3.89926 19.1392 3.99571ZM16.9726 6.41804C17.4268 6.82436 17.7901 7.3219 18.039 7.87818C18.2878 8.43446 18.4165 9.03697 18.4167 9.64637C18.4168 10.2561 18.2882 10.8591 18.0394 11.4157C17.7906 11.9724 17.427 12.4703 16.9726 12.8769C16.7671 13.0593 16.5 13.1569 16.2254 13.1498C15.9507 13.1428 15.689 13.0316 15.4932 12.8389C15.2974 12.6461 15.1821 12.3861 15.1708 12.1116C15.1594 11.8371 15.2529 11.5685 15.4321 11.3602L15.5274 11.2627C15.9716 10.864 16.25 10.2888 16.25 9.64746C16.2502 9.0929 16.0377 8.55939 15.6563 8.15679L15.5274 8.03221C15.4199 7.93774 15.3322 7.82291 15.2693 7.69435C15.2065 7.56579 15.1697 7.42604 15.1611 7.28319C15.1526 7.14034 15.1724 6.9972 15.2195 6.86205C15.2666 6.72691 15.3399 6.60243 15.4354 6.49581C15.5309 6.38919 15.6465 6.30253 15.7756 6.24086C15.9048 6.17918 16.0448 6.1437 16.1878 6.13647C16.3307 6.12924 16.4736 6.1504 16.6084 6.19873C16.7431 6.24706 16.8669 6.3216 16.9726 6.41804Z" fill="black"/>
</svg>
