<svg width="48" height="48" viewBox="0 0 48 48" fill="none" xmlns="http://www.w3.org/2000/svg">
<rect width="48" height="48" rx="10" fill="#E4E4E4"/>
<rect width="44.6667" height="44.6667" fill="url(#paint0_linear_4221_797)"/>
<g filter="url(#filter0_d_4221_797)">
<path opacity="0.4" d="M39 29.9998V17.9998C39 13.0292 34.9706 8.99976 30 8.99976H18L9 17.9998H25.5C27.9853 17.9998 30 20.0145 30 22.4998L30 38.9998L39 29.9998Z" fill="url(#paint1_linear_4221_797)"/>
<path d="M9 17.9998L9 29.9998C9 34.9703 13.0294 38.9998 18 38.9998H30L39 29.9998L24 29.9998C20.6863 29.9998 18 27.3135 18 23.9998L18 8.99976L9 17.9998Z" fill="url(#paint2_linear_4221_797)"/>
</g>
<defs>
<filter id="filter0_d_4221_797" x="6" y="5.25" width="36" height="42" filterUnits="userSpaceOnUse" color-interpolation-filters="sRGB">
<feFlood flood-opacity="0" result="BackgroundImageFix"/>
<feColorMatrix in="SourceAlpha" type="matrix" values="0 0 0 0 0 0 0 0 0 0 0 0 0 0 0 0 0 0 127 0" result="hardAlpha"/>
<feMorphology radius="1.5" operator="erode" in="SourceAlpha" result="effect1_dropShadow_4221_797"/>
<feOffset dy="2.25"/>
<feGaussianBlur stdDeviation="2.25"/>
<feComposite in2="hardAlpha" operator="out"/>
<feColorMatrix type="matrix" values="0 0 0 0 0.141176 0 0 0 0 0.141176 0 0 0 0 0.141176 0 0 0 0.1 0"/>
<feBlend mode="normal" in2="BackgroundImageFix" result="effect1_dropShadow_4221_797"/>
<feBlend mode="normal" in="SourceGraphic" in2="effect1_dropShadow_4221_797" result="shape"/>
</filter>
<linearGradient id="paint0_linear_4221_797" x1="22.3333" y1="5.54655e-07" x2="24.1944" y2="44.6667" gradientUnits="userSpaceOnUse">
<stop stop-color="white" stop-opacity="0"/>
<stop offset="1" stop-color="white" stop-opacity="0.12"/>
</linearGradient>
<linearGradient id="paint1_linear_4221_797" x1="24" y1="8.99976" x2="24" y2="38.9998" gradientUnits="userSpaceOnUse">
<stop stop-color="white" stop-opacity="0.8"/>
<stop offset="1" stop-color="white" stop-opacity="0.5"/>
</linearGradient>
<linearGradient id="paint2_linear_4221_797" x1="24" y1="8.99976" x2="24" y2="38.9998" gradientUnits="userSpaceOnUse">
<stop stop-color="white" stop-opacity="0.8"/>
<stop offset="1" stop-color="white" stop-opacity="0.5"/>
</linearGradient>
</defs>
</svg>
