<svg width="16" height="15" viewBox="0 0 16 15" fill="none" xmlns="http://www.w3.org/2000/svg">
<path d="M9 11C9 10.4477 8.55228 10 8 10C7.44772 10 7 10.4477 7 11L8 11L9 11ZM7.29289 11.7072C7.68342 12.0977 8.31658 12.0977 8.70711 11.7072L15.0711 5.34325C15.4616 4.95272 15.4616 4.31956 15.0711 3.92903C14.6805 3.53851 14.0474 3.53851 13.6569 3.92903L8 9.58589L2.34315 3.92903C1.95262 3.53851 1.31946 3.53851 0.928932 3.92903C0.538408 4.31956 0.538408 4.95272 0.928932 5.34325L7.29289 11.7072ZM8 11L7 11L7 11.0001L8 11.0001L9 11.0001L9 11L8 11Z" fill="white"/>
</svg>
