<svg width="12" height="11" viewBox="0 0 12 11" fill="none" xmlns="http://www.w3.org/2000/svg">
<path d="M6.75 8C6.75 7.58579 6.41421 7.25 6 7.25C5.58579 7.25 5.25 7.58579 5.25 8L6 8L6.75 8ZM5.46967 8.53043C5.76256 8.82332 6.23744 8.82332 6.53033 8.53043L11.3033 3.75746C11.5962 3.46457 11.5962 2.98969 11.3033 2.6968C11.0104 2.40391 10.5355 2.40391 10.2426 2.6968L6 6.93944L1.75736 2.6968C1.46447 2.40391 0.989592 2.40391 0.696699 2.6968C0.403806 2.98969 0.403806 3.46457 0.696699 3.75746L5.46967 8.53043ZM6 8L5.25 8L5.25 8.0001L6 8.0001L6.75 8.0001L6.75 8L6 8Z" fill="#616161"/>
</svg>
