<svg width="19" height="15" viewBox="0 0 19 15" fill="none" xmlns="http://www.w3.org/2000/svg">
<path d="M17.9707 8.36426C18.523 8.36426 18.9707 7.91654 18.9707 7.36426C18.9707 6.81197 18.523 6.36426 17.9707 6.36426L17.9707 7.36426L17.9707 8.36426ZM0.293032 6.65715C-0.0974922 7.04768 -0.0974922 7.68084 0.293032 8.07137L6.65699 14.4353C7.04752 14.8259 7.68068 14.8259 8.07121 14.4353C8.46173 14.0448 8.46173 13.4116 8.07121 13.0211L2.41435 7.36426L8.07121 1.7074C8.46173 1.31688 8.46173 0.683715 8.07121 0.293191C7.68068 -0.0973335 7.04752 -0.0973334 6.65699 0.293191L0.293032 6.65715ZM17.9707 7.36426L17.9707 6.36426L1.00014 6.36426L1.00014 7.36426L1.00014 8.36426L17.9707 8.36426L17.9707 7.36426Z" fill="white"/>
</svg>
