<svg width="50" height="50" viewBox="0 0 50 50" fill="none" xmlns="http://www.w3.org/2000/svg">
<rect width="50" height="50" transform="matrix(-1 0 0 1 50 0)" fill="#E41919"/>
<path d="M16 26C15.4477 26 15 25.5523 15 25C15 24.4477 15.4477 24 16 24L16 25L16 26ZM33.6777 24.2929C34.0682 24.6834 34.0682 25.3166 33.6777 25.7071L27.3137 32.0711C26.9232 32.4616 26.29 32.4616 25.8995 32.0711C25.509 31.6805 25.509 31.0474 25.8995 30.6569L31.5564 25L25.8995 19.3431C25.509 18.9526 25.509 18.3195 25.8995 17.9289C26.29 17.5384 26.9232 17.5384 27.3137 17.9289L33.6777 24.2929ZM16 25L16 24L32.9706 24L32.9706 25L32.9706 26L16 26L16 25Z" fill="white"/>
</svg>
