<svg width="181" height="174" viewBox="0 0 181 174" fill="none" xmlns="http://www.w3.org/2000/svg">
<path d="M125.039 83.16C125.039 102.49 109.369 118.16 90.0391 118.16C70.7091 118.16 55.0391 102.49 55.0391 83.16C55.0391 63.83 70.7091 48.16 90.0391 48.16C109.369 48.16 125.039 63.83 125.039 83.16Z" fill="#CA110F"/>
<g filter="url(#filter0_d_6106_78)">
<path d="M90.5557 83.16V66.192H93.0997V73.752H95.5477L100.732 66.192H103.636L97.7557 74.544L103.66 83.16H100.684L95.7397 76.08H93.0997V83.16H90.5557Z" fill="white"/>
</g>
<g filter="url(#filter1_d_6106_78)">
<path d="M82.1194 83.352C81.3994 83.352 80.6874 83.272 79.9834 83.112C79.2794 82.952 78.6234 82.704 78.0154 82.368C77.4234 82.032 76.9194 81.584 76.5034 81.024C76.1034 80.464 75.8474 79.784 75.7354 78.984H78.3034C78.4794 79.496 78.7674 79.904 79.1674 80.208C79.5834 80.496 80.0474 80.704 80.5594 80.832C81.0874 80.96 81.6154 81.024 82.1434 81.024C82.4954 81.024 82.8714 80.992 83.2714 80.928C83.6874 80.864 84.0714 80.736 84.4234 80.544C84.7914 80.352 85.0874 80.072 85.3114 79.704C85.5354 79.336 85.6474 78.864 85.6474 78.288C85.6474 77.728 85.5434 77.28 85.3354 76.944C85.1274 76.592 84.8474 76.32 84.4954 76.128C84.1594 75.936 83.7754 75.808 83.3434 75.744C82.9114 75.68 82.4634 75.648 81.9994 75.648H80.2714V73.44H81.3514C81.8634 73.44 82.3434 73.392 82.7914 73.296C83.2394 73.184 83.6234 73.032 83.9434 72.84C84.2794 72.632 84.5434 72.368 84.7354 72.048C84.9274 71.712 85.0234 71.304 85.0234 70.824C85.0234 70.152 84.8794 69.64 84.5914 69.288C84.3034 68.92 83.9274 68.664 83.4634 68.52C82.9994 68.376 82.4954 68.304 81.9514 68.304C81.5034 68.304 81.0554 68.376 80.6074 68.52C80.1754 68.648 79.7914 68.856 79.4554 69.144C79.1194 69.432 78.8954 69.8 78.7834 70.248H76.2874C76.3834 69.496 76.6074 68.856 76.9594 68.328C77.3274 67.784 77.7754 67.336 78.3034 66.984C78.8474 66.632 79.4474 66.384 80.1034 66.24C80.7594 66.08 81.4394 66 82.1434 66C82.8634 66 83.5434 66.08 84.1834 66.24C84.8394 66.384 85.4154 66.632 85.9114 66.984C86.4074 67.336 86.7994 67.8 87.0874 68.376C87.3914 68.936 87.5434 69.624 87.5434 70.44C87.5434 71 87.4474 71.52 87.2554 72C87.0794 72.48 86.8074 72.904 86.4394 73.272C86.0874 73.624 85.6554 73.92 85.1434 74.16C85.8314 74.304 86.4074 74.568 86.8714 74.952C87.3354 75.336 87.6794 75.808 87.9034 76.368C88.1434 76.912 88.2634 77.52 88.2634 78.192C88.2634 79.248 88.0714 80.112 87.6874 80.784C87.3034 81.456 86.7994 81.976 86.1754 82.344C85.5674 82.712 84.9034 82.976 84.1834 83.136C83.4634 83.28 82.7754 83.352 82.1194 83.352Z" fill="white"/>
</g>
<g filter="url(#filter2_d_6106_78)">
<path d="M105.949 99.16V93.89H107.989C108.223 93.89 108.453 93.9066 108.679 93.94C108.913 93.9666 109.123 94.0266 109.309 94.12C109.503 94.2066 109.656 94.3366 109.769 94.51C109.889 94.6833 109.949 94.9133 109.949 95.2C109.949 95.3733 109.923 95.5333 109.869 95.68C109.816 95.82 109.736 95.9433 109.629 96.05C109.529 96.1566 109.399 96.25 109.239 96.33C109.599 96.41 109.859 96.5666 110.019 96.8C110.179 97.0333 110.259 97.3 110.259 97.6C110.259 97.8666 110.209 98.1 110.109 98.3C110.016 98.4933 109.883 98.6533 109.709 98.78C109.543 98.9066 109.346 99.0033 109.119 99.07C108.899 99.13 108.663 99.16 108.409 99.16H105.949ZM106.819 98.42H108.209C108.416 98.42 108.609 98.4 108.789 98.36C108.969 98.32 109.116 98.2466 109.229 98.14C109.343 98.0266 109.399 97.8666 109.399 97.66C109.399 97.4466 109.349 97.2866 109.249 97.18C109.156 97.0666 109.033 96.99 108.879 96.95C108.733 96.9033 108.573 96.8766 108.399 96.87C108.226 96.8633 108.063 96.86 107.909 96.86H106.819V98.42ZM106.819 96.14H107.549C107.683 96.14 107.836 96.1333 108.009 96.12C108.189 96.1066 108.363 96.0766 108.529 96.03C108.703 95.9766 108.843 95.8966 108.949 95.79C109.063 95.6833 109.119 95.5366 109.119 95.35C109.119 95.1033 109.049 94.9333 108.909 94.84C108.776 94.74 108.616 94.6833 108.429 94.67C108.243 94.65 108.069 94.64 107.909 94.64H106.819V96.14Z" fill="white"/>
</g>
<g filter="url(#filter3_d_6106_78)">
<path d="M102.702 99.22C102.149 99.22 101.685 99.1066 101.312 98.88C100.939 98.6466 100.659 98.3266 100.472 97.92C100.292 97.5133 100.202 97.05 100.202 96.53C100.202 96.0033 100.292 95.54 100.472 95.14C100.659 94.7333 100.939 94.4133 101.312 94.18C101.685 93.9466 102.155 93.83 102.722 93.83C103.275 93.83 103.735 93.9466 104.102 94.18C104.475 94.4133 104.752 94.7333 104.932 95.14C105.119 95.54 105.212 96.0033 105.212 96.53C105.212 97.05 105.119 97.5133 104.932 97.92C104.745 98.3266 104.465 98.6466 104.092 98.88C103.725 99.1066 103.262 99.22 102.702 99.22ZM102.702 98.47C103.089 98.47 103.402 98.3833 103.642 98.21C103.889 98.0366 104.069 97.8033 104.182 97.51C104.302 97.2166 104.362 96.89 104.362 96.53C104.362 96.17 104.302 95.8433 104.182 95.55C104.069 95.2566 103.889 95.0233 103.642 94.85C103.402 94.6766 103.089 94.59 102.702 94.59C102.322 94.59 102.009 94.6766 101.762 94.85C101.522 95.0233 101.342 95.2566 101.222 95.55C101.109 95.8433 101.052 96.17 101.052 96.53C101.052 96.89 101.109 97.2166 101.222 97.51C101.342 97.8033 101.522 98.0366 101.762 98.21C102.009 98.3833 102.322 98.47 102.702 98.47Z" fill="white"/>
</g>
<g filter="url(#filter4_d_6106_78)">
<path d="M97.3842 99.16V94.64H95.5742V93.89H100.044V94.64H98.2342V99.16H97.3842Z" fill="white"/>
</g>
<g filter="url(#filter5_d_6106_78)">
<path d="M90.8701 99.16V93.89H91.7201V96.2H94.3601V93.89H95.2101V99.16H94.3601V96.95H91.7201V99.16H90.8701Z" fill="white"/>
</g>
<g filter="url(#filter6_d_6106_78)">
<path d="M87.8179 99.22C87.2579 99.22 86.7946 99.1066 86.4279 98.88C86.0612 98.6466 85.7879 98.3266 85.6079 97.92C85.4279 97.5133 85.3379 97.05 85.3379 96.53C85.3379 96.0033 85.4312 95.54 85.6179 95.14C85.8112 94.7333 86.0912 94.4133 86.4579 94.18C86.8246 93.9466 87.2746 93.83 87.8079 93.83C88.2012 93.83 88.5446 93.9066 88.8379 94.06C89.1379 94.2066 89.3846 94.4066 89.5779 94.66C89.7779 94.9133 89.9212 95.1966 90.0079 95.51C90.1012 95.8233 90.1412 96.1466 90.1279 96.48C90.1212 96.54 90.1179 96.6 90.1179 96.66C90.1179 96.72 90.1146 96.78 90.1079 96.84H86.1979C86.2246 97.1466 86.3012 97.4233 86.4279 97.67C86.5546 97.9166 86.7346 98.1133 86.9679 98.26C87.2012 98.4 87.4912 98.47 87.8379 98.47C88.0112 98.47 88.1846 98.45 88.3579 98.41C88.5379 98.3633 88.6979 98.2866 88.8379 98.18C88.9846 98.0733 89.0879 97.93 89.1479 97.75H90.0179C89.9379 98.09 89.7879 98.37 89.5679 98.59C89.3479 98.8033 89.0846 98.9633 88.7779 99.07C88.4712 99.17 88.1512 99.22 87.8179 99.22ZM86.2179 96.1H89.2679C89.2612 95.8 89.1946 95.5366 89.0679 95.31C88.9412 95.0833 88.7679 94.9066 88.5479 94.78C88.3346 94.6533 88.0779 94.59 87.7779 94.59C87.4512 94.59 87.1746 94.66 86.9479 94.8C86.7279 94.94 86.5579 95.1233 86.4379 95.35C86.3179 95.5766 86.2446 95.8266 86.2179 96.1Z" fill="white"/>
</g>
<g filter="url(#filter7_d_6106_78)">
<path d="M79.9805 99.16V93.89H80.8305V97.93C80.8771 97.8366 80.9405 97.7366 81.0205 97.63C81.1005 97.5166 81.1638 97.43 81.2105 97.37L83.7605 93.89H84.6005V99.16H83.7505V95.12C83.6971 95.22 83.6371 95.3133 83.5705 95.4C83.5105 95.4866 83.4538 95.5666 83.4005 95.64L80.8105 99.16H79.9805Z" fill="white"/>
</g>
<g filter="url(#filter8_d_6106_78)">
<path d="M74.3057 99.17V98.43C74.439 98.43 74.559 98.4033 74.6657 98.35C74.7723 98.29 74.8657 98.2033 74.9457 98.09C75.039 97.9566 75.1123 97.7633 75.1657 97.51C75.219 97.2566 75.2557 96.9866 75.2757 96.7C75.3023 96.38 75.3223 96.0666 75.3357 95.76C75.349 95.4466 75.359 95.1366 75.3657 94.83C75.379 94.5233 75.3857 94.21 75.3857 93.89H79.0457V99.16H78.1957V94.64H76.2157C76.209 94.8666 76.199 95.0966 76.1857 95.33C76.179 95.5566 76.169 95.7866 76.1557 96.02C76.149 96.2466 76.139 96.4766 76.1257 96.71C76.119 96.9766 76.0923 97.2766 76.0457 97.61C75.999 97.9433 75.899 98.2466 75.7457 98.52C75.599 98.78 75.419 98.9533 75.2057 99.04C74.999 99.1266 74.699 99.17 74.3057 99.17Z" fill="white"/>
</g>
<g filter="url(#filter9_d_6106_78)">
<path d="M70 99.16V93.89H70.85V96.16H71.77L73.33 93.89H74.3L72.54 96.4L74.45 99.16H73.45L71.87 96.9H70.85V99.16H70Z" fill="white"/>
</g>
<defs>
<filter id="filter0_d_6106_78" x="20.5557" y="0.191956" width="153.104" height="156.968" filterUnits="userSpaceOnUse" color-interpolation-filters="sRGB">
<feFlood flood-opacity="0" result="BackgroundImageFix"/>
<feColorMatrix in="SourceAlpha" type="matrix" values="0 0 0 0 0 0 0 0 0 0 0 0 0 0 0 0 0 0 127 0" result="hardAlpha"/>
<feOffset dy="4"/>
<feGaussianBlur stdDeviation="35"/>
<feComposite in2="hardAlpha" operator="out"/>
<feColorMatrix type="matrix" values="0 0 0 0 0 0 0 0 0 0 0 0 0 0 0 0 0 0 0.1 0"/>
<feBlend mode="normal" in2="BackgroundImageFix" result="effect1_dropShadow_6106_78"/>
<feBlend mode="normal" in="SourceGraphic" in2="effect1_dropShadow_6106_78" result="shape"/>
</filter>
<filter id="filter1_d_6106_78" x="5.73535" y="0" width="152.528" height="157.352" filterUnits="userSpaceOnUse" color-interpolation-filters="sRGB">
<feFlood flood-opacity="0" result="BackgroundImageFix"/>
<feColorMatrix in="SourceAlpha" type="matrix" values="0 0 0 0 0 0 0 0 0 0 0 0 0 0 0 0 0 0 127 0" result="hardAlpha"/>
<feOffset dy="4"/>
<feGaussianBlur stdDeviation="35"/>
<feComposite in2="hardAlpha" operator="out"/>
<feColorMatrix type="matrix" values="0 0 0 0 0 0 0 0 0 0 0 0 0 0 0 0 0 0 0.1 0"/>
<feBlend mode="normal" in2="BackgroundImageFix" result="effect1_dropShadow_6106_78"/>
<feBlend mode="normal" in="SourceGraphic" in2="effect1_dropShadow_6106_78" result="shape"/>
</filter>
<filter id="filter2_d_6106_78" x="35.9492" y="27.89" width="144.31" height="145.27" filterUnits="userSpaceOnUse" color-interpolation-filters="sRGB">
<feFlood flood-opacity="0" result="BackgroundImageFix"/>
<feColorMatrix in="SourceAlpha" type="matrix" values="0 0 0 0 0 0 0 0 0 0 0 0 0 0 0 0 0 0 127 0" result="hardAlpha"/>
<feOffset dy="4"/>
<feGaussianBlur stdDeviation="35"/>
<feComposite in2="hardAlpha" operator="out"/>
<feColorMatrix type="matrix" values="0 0 0 0 0 0 0 0 0 0 0 0 0 0 0 0 0 0 0.1 0"/>
<feBlend mode="normal" in2="BackgroundImageFix" result="effect1_dropShadow_6106_78"/>
<feBlend mode="normal" in="SourceGraphic" in2="effect1_dropShadow_6106_78" result="shape"/>
</filter>
<filter id="filter3_d_6106_78" x="30.2021" y="27.83" width="145.01" height="145.39" filterUnits="userSpaceOnUse" color-interpolation-filters="sRGB">
<feFlood flood-opacity="0" result="BackgroundImageFix"/>
<feColorMatrix in="SourceAlpha" type="matrix" values="0 0 0 0 0 0 0 0 0 0 0 0 0 0 0 0 0 0 127 0" result="hardAlpha"/>
<feOffset dy="4"/>
<feGaussianBlur stdDeviation="35"/>
<feComposite in2="hardAlpha" operator="out"/>
<feColorMatrix type="matrix" values="0 0 0 0 0 0 0 0 0 0 0 0 0 0 0 0 0 0 0.1 0"/>
<feBlend mode="normal" in2="BackgroundImageFix" result="effect1_dropShadow_6106_78"/>
<feBlend mode="normal" in="SourceGraphic" in2="effect1_dropShadow_6106_78" result="shape"/>
</filter>
<filter id="filter4_d_6106_78" x="25.5742" y="27.89" width="144.47" height="145.27" filterUnits="userSpaceOnUse" color-interpolation-filters="sRGB">
<feFlood flood-opacity="0" result="BackgroundImageFix"/>
<feColorMatrix in="SourceAlpha" type="matrix" values="0 0 0 0 0 0 0 0 0 0 0 0 0 0 0 0 0 0 127 0" result="hardAlpha"/>
<feOffset dy="4"/>
<feGaussianBlur stdDeviation="35"/>
<feComposite in2="hardAlpha" operator="out"/>
<feColorMatrix type="matrix" values="0 0 0 0 0 0 0 0 0 0 0 0 0 0 0 0 0 0 0.1 0"/>
<feBlend mode="normal" in2="BackgroundImageFix" result="effect1_dropShadow_6106_78"/>
<feBlend mode="normal" in="SourceGraphic" in2="effect1_dropShadow_6106_78" result="shape"/>
</filter>
<filter id="filter5_d_6106_78" x="20.8701" y="27.89" width="144.34" height="145.27" filterUnits="userSpaceOnUse" color-interpolation-filters="sRGB">
<feFlood flood-opacity="0" result="BackgroundImageFix"/>
<feColorMatrix in="SourceAlpha" type="matrix" values="0 0 0 0 0 0 0 0 0 0 0 0 0 0 0 0 0 0 127 0" result="hardAlpha"/>
<feOffset dy="4"/>
<feGaussianBlur stdDeviation="35"/>
<feComposite in2="hardAlpha" operator="out"/>
<feColorMatrix type="matrix" values="0 0 0 0 0 0 0 0 0 0 0 0 0 0 0 0 0 0 0.1 0"/>
<feBlend mode="normal" in2="BackgroundImageFix" result="effect1_dropShadow_6106_78"/>
<feBlend mode="normal" in="SourceGraphic" in2="effect1_dropShadow_6106_78" result="shape"/>
</filter>
<filter id="filter6_d_6106_78" x="15.3379" y="27.83" width="144.793" height="145.39" filterUnits="userSpaceOnUse" color-interpolation-filters="sRGB">
<feFlood flood-opacity="0" result="BackgroundImageFix"/>
<feColorMatrix in="SourceAlpha" type="matrix" values="0 0 0 0 0 0 0 0 0 0 0 0 0 0 0 0 0 0 127 0" result="hardAlpha"/>
<feOffset dy="4"/>
<feGaussianBlur stdDeviation="35"/>
<feComposite in2="hardAlpha" operator="out"/>
<feColorMatrix type="matrix" values="0 0 0 0 0 0 0 0 0 0 0 0 0 0 0 0 0 0 0.1 0"/>
<feBlend mode="normal" in2="BackgroundImageFix" result="effect1_dropShadow_6106_78"/>
<feBlend mode="normal" in="SourceGraphic" in2="effect1_dropShadow_6106_78" result="shape"/>
</filter>
<filter id="filter7_d_6106_78" x="9.98047" y="27.89" width="144.62" height="145.27" filterUnits="userSpaceOnUse" color-interpolation-filters="sRGB">
<feFlood flood-opacity="0" result="BackgroundImageFix"/>
<feColorMatrix in="SourceAlpha" type="matrix" values="0 0 0 0 0 0 0 0 0 0 0 0 0 0 0 0 0 0 127 0" result="hardAlpha"/>
<feOffset dy="4"/>
<feGaussianBlur stdDeviation="35"/>
<feComposite in2="hardAlpha" operator="out"/>
<feColorMatrix type="matrix" values="0 0 0 0 0 0 0 0 0 0 0 0 0 0 0 0 0 0 0.1 0"/>
<feBlend mode="normal" in2="BackgroundImageFix" result="effect1_dropShadow_6106_78"/>
<feBlend mode="normal" in="SourceGraphic" in2="effect1_dropShadow_6106_78" result="shape"/>
</filter>
<filter id="filter8_d_6106_78" x="4.30566" y="27.89" width="144.74" height="145.28" filterUnits="userSpaceOnUse" color-interpolation-filters="sRGB">
<feFlood flood-opacity="0" result="BackgroundImageFix"/>
<feColorMatrix in="SourceAlpha" type="matrix" values="0 0 0 0 0 0 0 0 0 0 0 0 0 0 0 0 0 0 127 0" result="hardAlpha"/>
<feOffset dy="4"/>
<feGaussianBlur stdDeviation="35"/>
<feComposite in2="hardAlpha" operator="out"/>
<feColorMatrix type="matrix" values="0 0 0 0 0 0 0 0 0 0 0 0 0 0 0 0 0 0 0.1 0"/>
<feBlend mode="normal" in2="BackgroundImageFix" result="effect1_dropShadow_6106_78"/>
<feBlend mode="normal" in="SourceGraphic" in2="effect1_dropShadow_6106_78" result="shape"/>
</filter>
<filter id="filter9_d_6106_78" x="0" y="27.89" width="144.45" height="145.27" filterUnits="userSpaceOnUse" color-interpolation-filters="sRGB">
<feFlood flood-opacity="0" result="BackgroundImageFix"/>
<feColorMatrix in="SourceAlpha" type="matrix" values="0 0 0 0 0 0 0 0 0 0 0 0 0 0 0 0 0 0 127 0" result="hardAlpha"/>
<feOffset dy="4"/>
<feGaussianBlur stdDeviation="35"/>
<feComposite in2="hardAlpha" operator="out"/>
<feColorMatrix type="matrix" values="0 0 0 0 0 0 0 0 0 0 0 0 0 0 0 0 0 0 0.1 0"/>
<feBlend mode="normal" in2="BackgroundImageFix" result="effect1_dropShadow_6106_78"/>
<feBlend mode="normal" in="SourceGraphic" in2="effect1_dropShadow_6106_78" result="shape"/>
</filter>
</defs>
</svg>
