<svg width="49" height="49" viewBox="0 0 49 49" fill="none" xmlns="http://www.w3.org/2000/svg">
<rect width="48.4698" height="48.4698" fill="#E41919"/>
<path d="M25.426 32.7164C16.3179 32.7164 11.1227 26.3483 10.9062 15.752H15.4686C15.6185 23.5294 18.982 26.8238 21.6462 27.5031V15.752H25.9422V22.4596C28.573 22.1709 31.3371 19.1143 32.2696 15.752H36.5656C36.2142 17.4957 35.5138 19.1468 34.5081 20.602C33.5025 22.0571 32.2132 23.2849 30.721 24.2087C32.3867 25.0528 33.8579 26.2475 35.0375 27.714C36.2172 29.1805 37.0785 30.8855 37.5646 32.7164H32.8357C32.3993 31.1261 31.5124 29.7025 30.2862 28.6241C29.0599 27.5457 27.5487 26.8603 25.9422 26.654V32.7164H25.426Z" fill="white"/>
</svg>
