<svg width="49" height="49" viewBox="0 0 49 49" fill="none" xmlns="http://www.w3.org/2000/svg">
<rect width="48.4698" height="48.4698" fill="#E41919"/>
<path d="M33.8409 14.6172C31.447 12.2316 28.2551 10.9062 24.8858 10.9062C17.8813 10.9062 12.2068 16.5611 12.2068 23.5412C12.2068 25.7501 12.8275 27.959 13.8914 29.8145L12.1182 36.3529L18.8566 34.5858C20.7186 35.5577 22.7579 36.0878 24.8858 36.0878C31.8903 36.0878 37.5648 30.433 37.5648 23.4529C37.4761 20.1837 36.2348 17.0028 33.8409 14.6172ZM31.0036 28.0474C30.7376 28.7542 29.4963 29.4611 28.8757 29.5494C28.3437 29.6378 27.6344 29.6378 26.9251 29.4611C26.4818 29.2844 25.8611 29.1077 25.1518 28.7542C21.9599 27.4289 19.9206 24.2481 19.7433 23.983C19.566 23.8063 18.4133 22.3042 18.4133 20.7138C18.4133 19.1234 19.2113 18.4165 19.4773 18.0631C19.7433 17.7097 20.0979 17.7097 20.3639 17.7097C20.5413 17.7097 20.8073 17.7097 20.9846 17.7097C21.1619 17.7097 21.4279 17.6213 21.6939 18.2398C21.9599 18.8583 22.5805 20.4487 22.6692 20.5371C22.7579 20.7138 22.7579 20.8905 22.6692 21.0672C22.5805 21.2439 22.4919 21.4207 22.3145 21.5974C22.1372 21.7741 21.9599 22.0392 21.8712 22.1275C21.6939 22.3042 21.5166 22.4809 21.6939 22.746C21.8712 23.0994 22.4919 24.0713 23.4672 24.9549C24.7085 26.0152 25.6838 26.3686 26.0384 26.5453C26.3931 26.722 26.5704 26.6337 26.7478 26.457C26.9251 26.2803 27.5457 25.5734 27.7231 25.22C27.9004 24.8666 28.1664 24.9549 28.4324 25.0433C28.6984 25.1316 30.2943 25.9268 30.5603 26.1035C30.915 26.2803 31.0923 26.3686 31.181 26.457C31.2696 26.722 31.2696 27.3405 31.0036 28.0474Z" fill="white"/>
</svg>
