<svg width="30" height="30" viewBox="0 0 30 30" fill="none" xmlns="http://www.w3.org/2000/svg">
<rect width="30" height="30" rx="6.25" fill="#E41919"/>
<path d="M18.2586 8.28113H12.3664C9.80703 8.28113 8.28125 9.80691 8.28125 12.3663V18.2585C8.28125 20.2343 9.18828 21.5913 10.7844 22.1046C11.2484 22.2663 11.7828 22.3436 12.3664 22.3436H18.2586C18.8422 22.3436 19.3766 22.2663 19.8406 22.1046C21.4367 21.5913 22.3438 20.2343 22.3438 18.2585V12.3663C22.3438 9.80691 20.818 8.28113 18.2586 8.28113ZM21.2891 18.2585C21.2891 19.7632 20.6984 20.7124 19.5102 21.1061C18.8281 19.7632 17.2109 18.8069 15.3125 18.8069C13.4141 18.8069 11.8039 19.7561 11.1148 21.1061H11.1078C9.93359 20.7264 9.33594 19.7702 9.33594 18.2655V12.3663C9.33594 10.3835 10.3836 9.33582 12.3664 9.33582H18.2586C20.2414 9.33582 21.2891 10.3835 21.2891 12.3663V18.2585Z" fill="white"/>
<path d="M15.3121 12.4999C13.9199 12.4999 12.7949 13.6249 12.7949 15.0171C12.7949 16.4093 13.9199 17.5413 15.3121 17.5413C16.7043 17.5413 17.8293 16.4093 17.8293 15.0171C17.8293 13.6249 16.7043 12.4999 15.3121 12.4999Z" fill="white"/>
</svg>
