<svg width="30" height="30" viewBox="0 0 30 30" fill="none" xmlns="http://www.w3.org/2000/svg">
<rect width="30" height="30" rx="6.25" fill="#E41919"/>
<path d="M19.6061 10.5562L15.9436 8.92495C15.4061 8.68745 14.5936 8.68745 14.0561 8.92495L10.3936 10.5562C9.46855 10.9687 9.33105 11.5312 9.33105 11.8312C9.33105 12.1312 9.46855 12.6937 10.3936 13.1062L14.0561 14.7375C14.3248 14.8562 14.6623 14.9187 14.9998 14.9187C15.3373 14.9187 15.6748 14.8562 15.9436 14.7375L19.6061 13.1062C20.5311 12.6937 20.6686 12.1312 20.6686 11.8312C20.6686 11.5312 20.5373 10.9687 19.6061 10.5562Z" fill="white"/>
<path d="M15.0002 18.15C14.7627 18.15 14.5252 18.1 14.3064 18.0062L10.0939 16.1313C9.4502 15.8438 8.9502 15.075 8.9502 14.3687C8.9502 14.1125 9.15645 13.9062 9.4127 13.9062C9.66895 13.9062 9.8752 14.1125 9.8752 14.3687C9.8752 14.7062 10.1564 15.1437 10.4689 15.2812L14.6814 17.1562C14.8814 17.2437 15.1127 17.2437 15.3127 17.1562L19.5252 15.2812C19.8377 15.1437 20.1189 14.7125 20.1189 14.3687C20.1189 14.1125 20.3252 13.9062 20.5814 13.9062C20.8377 13.9062 21.0439 14.1125 21.0439 14.3687C21.0439 15.0687 20.5439 15.8438 19.9002 16.1313L15.6877 18.0062C15.4752 18.1 15.2377 18.15 15.0002 18.15Z" fill="white"/>
<path d="M15.0002 21.25C14.7627 21.25 14.5252 21.2 14.3064 21.1062L10.0939 19.2312C9.4002 18.925 8.9502 18.2312 8.9502 17.4687C8.9502 17.2125 9.15645 17.0062 9.4127 17.0062C9.66895 17.0062 9.8752 17.2125 9.8752 17.4687C9.8752 17.8625 10.1064 18.2187 10.4689 18.3812L14.6814 20.2562C14.8814 20.3437 15.1127 20.3437 15.3127 20.2562L19.5252 18.3812C19.8814 18.225 20.1189 17.8625 20.1189 17.4687C20.1189 17.2125 20.3252 17.0062 20.5814 17.0062C20.8377 17.0062 21.0439 17.2125 21.0439 17.4687C21.0439 18.2312 20.5939 18.9187 19.9002 19.2312L15.6877 21.1062C15.4752 21.2 15.2377 21.25 15.0002 21.25Z" fill="white"/>
</svg>
