<svg width="48" height="48" viewBox="0 0 48 48" fill="none" xmlns="http://www.w3.org/2000/svg">
<rect width="48" height="48" rx="10" fill="#E41919"/>
<path d="M29.7219 15.4892H29.3777C29.2548 14.5013 28.8983 13.7134 28.3329 13.1256C27.5953 12.3752 26.5259 12 25.1492 12H18.29C15.5243 12 14 13.5508 14 16.3647C14 17.7654 14.3688 18.8534 15.1063 19.6038C15.8439 20.3542 16.9133 20.7294 18.29 20.7294H25.1492C27.6076 20.7294 29.0827 19.4912 29.3777 17.2401H29.7219C32.291 17.2401 32.291 17.5903 32.291 19.8539V22.1801C32.291 24.4437 32.291 24.7939 29.7219 24.7939H25.1492C21.4738 24.7939 20.9452 26.5698 20.8714 28.2956C19.7651 28.3707 18.5728 28.896 18.5728 30.8969V34.3862C18.5728 36.5498 19.9741 37 21.1419 37H22.285C23.4528 37 24.8541 36.5498 24.8541 34.3862V30.8969C24.8541 28.921 23.6864 28.3707 22.5801 28.2956C22.6415 27.0325 22.998 26.5323 25.1369 26.5323H29.7096C33.7046 26.5323 33.9997 24.8814 33.9997 22.1676V19.8539C34.0119 17.1401 33.7169 15.4892 29.7219 15.4892Z" fill="white"/>
</svg>
