<svg width="48" height="48" viewBox="0 0 48 48" fill="none" xmlns="http://www.w3.org/2000/svg">
<rect width="48" height="48" rx="10" fill="#E41919"/>
<path d="M31.3697 16.8901L25.5097 14.2801C24.6497 13.9001 23.3497 13.9001 22.4897 14.2801L16.6297 16.8901C15.1497 17.5501 14.9297 18.4501 14.9297 18.9301C14.9297 19.4101 15.1497 20.3101 16.6297 20.9701L22.4897 23.5801C22.9197 23.7701 23.4597 23.8701 23.9997 23.8701C24.5397 23.8701 25.0797 23.7701 25.5097 23.5801L31.3697 20.9701C32.8497 20.3101 33.0697 19.4101 33.0697 18.9301C33.0697 18.4501 32.8597 17.5501 31.3697 16.8901Z" fill="white"/>
<path d="M24.0003 29.04C23.6203 29.04 23.2403 28.96 22.8903 28.81L16.1503 25.81C15.1203 25.35 14.3203 24.12 14.3203 22.99C14.3203 22.58 14.6503 22.25 15.0603 22.25C15.4703 22.25 15.8003 22.58 15.8003 22.99C15.8003 23.53 16.2503 24.23 16.7503 24.45L23.4903 27.45C23.8103 27.59 24.1803 27.59 24.5003 27.45L31.2403 24.45C31.7403 24.23 32.1903 23.54 32.1903 22.99C32.1903 22.58 32.5203 22.25 32.9303 22.25C33.3403 22.25 33.6703 22.58 33.6703 22.99C33.6703 24.11 32.8703 25.35 31.8403 25.81L25.1003 28.81C24.7603 28.96 24.3803 29.04 24.0003 29.04Z" fill="white"/>
<path d="M24.0003 34C23.6203 34 23.2403 33.92 22.8903 33.77L16.1503 30.77C15.0403 30.28 14.3203 29.17 14.3203 27.95C14.3203 27.54 14.6503 27.21 15.0603 27.21C15.4703 27.21 15.8003 27.54 15.8003 27.95C15.8003 28.58 16.1703 29.15 16.7503 29.41L23.4903 32.41C23.8103 32.55 24.1803 32.55 24.5003 32.41L31.2403 29.41C31.8103 29.16 32.1903 28.58 32.1903 27.95C32.1903 27.54 32.5203 27.21 32.9303 27.21C33.3403 27.21 33.6703 27.54 33.6703 27.95C33.6703 29.17 32.9503 30.27 31.8403 30.77L25.1003 33.77C24.7603 33.92 24.3803 34 24.0003 34Z" fill="white"/>
</svg>
