<svg width="30" height="30" viewBox="0 0 30 30" fill="none" xmlns="http://www.w3.org/2000/svg">
<rect width="30" height="30" rx="6.25" fill="#E41919"/>
<path d="M18.6378 9.68078H18.419C18.3408 9.06328 18.1141 8.57085 17.7546 8.20348C17.2856 7.73449 16.6055 7.5 15.7301 7.5H11.3686C9.60986 7.5 8.64062 8.46923 8.64062 10.2279C8.64062 11.1034 8.87512 11.7834 9.3441 12.2524C9.81309 12.7214 10.4931 12.9559 11.3686 12.9559H15.7301C17.2934 12.9559 18.2314 12.182 18.419 10.7751H18.6378C20.2714 10.7751 20.2714 10.9939 20.2714 12.4087V13.8626C20.2714 15.2773 20.2714 15.4962 18.6378 15.4962H15.7301C13.393 15.4962 13.0569 16.6061 13.01 17.6848C12.3065 17.7317 11.5483 18.06 11.5483 19.3106V21.4914C11.5483 22.8436 12.4394 23.125 13.182 23.125H13.9089C14.6514 23.125 15.5425 22.8436 15.5425 21.4914V19.3106C15.5425 18.0756 14.8 17.7317 14.0965 17.6848C14.1356 16.8953 14.3622 16.5827 15.7223 16.5827H18.63C21.1703 16.5827 21.3579 15.5509 21.3579 13.8547V12.4087C21.3657 10.7125 21.1781 9.68078 18.6378 9.68078Z" fill="white"/>
</svg>
