<svg width="30" height="30" viewBox="0 0 30 30" fill="none" xmlns="http://www.w3.org/2000/svg">
<rect width="30" height="30" rx="6.25" fill="#E41919"/>
<path d="M19.9632 10.7207L15.7179 8.4322C15.271 8.18845 14.7294 8.18845 14.2825 8.4322L10.0372 10.7207C9.72572 10.89 9.53613 11.215 9.53613 11.5874C9.53613 11.953 9.72572 12.2848 10.0372 12.4541L14.2825 14.7426C14.5059 14.8645 14.7564 14.9254 15.0002 14.9254C15.2439 14.9254 15.4945 14.8645 15.7179 14.7426L19.9632 12.4541C20.2747 12.2848 20.4643 11.9598 20.4643 11.5874C20.4643 11.215 20.2747 10.89 19.9632 10.7207Z" fill="white"/>
<path d="M13.5852 15.5348L9.63105 13.5577C9.32637 13.4088 8.97428 13.4223 8.68991 13.5984C8.39876 13.7812 8.22949 14.0859 8.22949 14.4244V18.1551C8.22949 18.7984 8.58835 19.3806 9.16387 19.6718L13.1113 21.6489C13.2467 21.7166 13.3956 21.7504 13.5446 21.7504C13.7206 21.7504 13.8967 21.703 14.0524 21.6083C14.3436 21.4322 14.5128 21.1208 14.5128 20.7822V17.0515C14.5196 16.4015 14.1607 15.8192 13.5852 15.5348Z" fill="white"/>
<path d="M21.3102 13.5983C21.0191 13.4222 20.667 13.4019 20.3691 13.5577L16.4217 15.5347C15.8462 15.8259 15.4873 16.4014 15.4873 17.0514V20.7821C15.4873 21.1207 15.6566 21.4321 15.9477 21.6082C16.1035 21.703 16.2795 21.7504 16.4555 21.7504C16.6045 21.7504 16.7535 21.7165 16.8889 21.6488L20.8363 19.6717C21.4118 19.3806 21.7706 18.8051 21.7706 18.1551V14.4243C21.7706 14.0858 21.6014 13.7811 21.3102 13.5983Z" fill="white"/>
</svg>
