<svg width="48" height="48" viewBox="0 0 48 48" fill="none" xmlns="http://www.w3.org/2000/svg">
<rect width="48" height="48" rx="10" fill="#E41919"/>
<path d="M29.2138 13.25H19.7863C15.6912 13.25 13.25 15.6912 13.25 19.7863V29.2138C13.25 32.375 14.7012 34.5462 17.255 35.3675C17.9975 35.6262 18.8525 35.75 19.7863 35.75H29.2138C30.1475 35.75 31.0025 35.6262 31.745 35.3675C34.2987 34.5462 35.75 32.375 35.75 29.2138V19.7863C35.75 15.6912 33.3088 13.25 29.2138 13.25ZM34.0625 29.2138C34.0625 31.6213 33.1175 33.14 31.2162 33.77C30.125 31.6213 27.5375 30.0912 24.5 30.0912C21.4625 30.0912 18.8863 31.61 17.7838 33.77H17.7725C15.8937 33.1625 14.9375 31.6325 14.9375 29.225V19.7863C14.9375 16.6137 16.6137 14.9375 19.7863 14.9375H29.2138C32.3863 14.9375 34.0625 16.6137 34.0625 19.7863V29.2138Z" fill="white"/>
<path d="M24.5002 20C22.2727 20 20.4727 21.8 20.4727 24.0275C20.4727 26.255 22.2727 28.0662 24.5002 28.0662C26.7277 28.0662 28.5277 26.255 28.5277 24.0275C28.5277 21.8 26.7277 20 24.5002 20Z" fill="white"/>
</svg>
