<svg width="48" height="48" viewBox="0 0 48 48" fill="none" xmlns="http://www.w3.org/2000/svg">
<rect width="48" height="48" rx="10" fill="#E41919"/>
<path d="M31.9407 17.1534L25.1482 13.4917C24.4332 13.1017 23.5665 13.1017 22.8515 13.4917L16.059 17.1534C15.5607 17.4242 15.2573 17.9442 15.2573 18.5401C15.2573 19.1251 15.5607 19.6559 16.059 19.9267L22.8515 23.5884C23.209 23.7834 23.6098 23.8809 23.9998 23.8809C24.3898 23.8809 24.7907 23.7834 25.1482 23.5884L31.9407 19.9267C32.439 19.6559 32.7423 19.1359 32.7423 18.5401C32.7423 17.9442 32.439 17.4242 31.9407 17.1534Z" fill="white"/>
<path d="M21.7357 24.8558L15.409 21.6924C14.9215 21.4541 14.3582 21.4758 13.9032 21.7574C13.4373 22.0499 13.1665 22.5374 13.1665 23.0791V29.0483C13.1665 30.0774 13.7407 31.0091 14.6615 31.4749L20.9773 34.6383C21.194 34.7466 21.4323 34.8007 21.6707 34.8007C21.9523 34.8007 22.234 34.7249 22.4832 34.5733C22.949 34.2916 23.2198 33.7933 23.2198 33.2516V27.2824C23.2307 26.2424 22.6565 25.3108 21.7357 24.8558Z" fill="white"/>
<path d="M34.0965 21.7574C33.6306 21.4757 33.0673 21.4432 32.5906 21.6924L26.2748 24.8557C25.354 25.3216 24.7798 26.2424 24.7798 27.2824V33.2516C24.7798 33.7932 25.0506 34.2916 25.5165 34.5732C25.7656 34.7249 26.0473 34.8007 26.329 34.8007C26.5673 34.8007 26.8056 34.7466 27.0223 34.6382L33.3381 31.4749C34.259 31.0091 34.8331 30.0882 34.8331 29.0482V23.0791C34.8331 22.5374 34.5623 22.0499 34.0965 21.7574Z" fill="white"/>
</svg>
