<svg width="84" height="84" viewBox="0 0 84 84" fill="none" xmlns="http://www.w3.org/2000/svg">
<path d="M22.4004 22.155C19.4892 24.4676 16.3897 24.8898 12.9086 23.8098C12.415 25.1085 11.9144 26.4255 11.4138 27.7425C14.0916 25.8627 16.9181 25.1289 20.1006 25.9893C18.985 28.2361 14.7444 29.7044 11.0194 29.1064C10.7492 30.3965 10.4777 31.6927 10.2061 32.9888C12.0673 31.5102 14.1061 30.6767 16.4365 30.5874C17.3299 30.5532 18.2085 30.6341 19.1552 30.9561C16.7015 33.734 13.6934 34.7122 10.0477 34.208C10.0477 35.6047 10.0477 36.983 10.0477 38.3723C12.2549 35.8435 15.0071 34.5752 18.5269 34.895C17.6472 36.5042 16.3944 37.5685 14.8922 38.3709C13.3953 39.1705 11.7935 39.5325 9.98063 39.4531C10.2102 41.0222 10.4318 42.5375 10.6535 44.0527C12.6113 41.1217 15.1925 39.4019 18.7498 39.3174C17.2479 42.6786 14.6035 44.4645 10.8843 44.9493C11.3074 46.2685 11.7242 47.568 12.1797 48.9885C13.9381 45.882 16.4326 44.0886 19.9306 43.8166C18.6346 47.2006 16.1187 49.101 12.5354 49.8206C13.2028 51.1063 13.8503 52.3536 14.5558 53.7127C15.8077 50.3549 17.9824 48.1686 21.416 47.3618C20.6507 50.8868 18.4966 53.1688 15.0291 54.4502C16.0154 55.7425 16.9881 57.0171 17.961 58.2918C18.0095 58.273 18.058 58.2541 18.1065 58.2353C18.2844 56.5588 18.8919 55.0524 19.8755 53.7027C20.8525 52.3621 22.067 51.3146 23.7349 50.6547C23.5456 54.4112 21.7897 57.0696 18.5579 58.9299C19.7103 59.979 20.8338 61.0017 22.0827 62.1386C22.0396 60.3484 22.3402 58.7902 23.0578 57.3237C23.781 55.8459 24.7722 54.6079 26.25 53.6884C26.6227 55.419 26.3739 57.0257 25.766 58.596C25.1541 60.1762 24.1901 61.5072 22.7531 62.6456C24.265 63.567 25.7026 64.443 27.1404 65.3192C26.1599 61.958 26.5117 58.9057 28.667 56.1412C30.2698 59.4164 30.0261 62.5808 28.08 65.7385C29.3554 66.2381 30.6269 66.7362 32.015 67.28C30.4937 64.0667 30.4636 60.9955 32.174 57.9234C33.6762 59.5389 34.7954 63.7941 32.8657 67.524C33.015 67.587 33.1585 67.6537 33.3061 67.709C36.0113 68.723 38.7156 69.7393 41.4254 70.7404C41.6265 70.8147 41.896 70.852 42.0877 70.7816C44.9098 69.7444 47.7241 68.686 50.5399 67.6316C50.6007 67.6088 50.6565 67.5726 50.7357 67.5319C49.2409 64.2282 49.3611 61.0403 51.3913 57.9828C53.1493 60.9862 53.1789 64.0389 51.6041 67.2766C52.986 66.7399 54.2656 66.2429 55.5542 65.7425C53.6151 62.6044 53.3572 59.4381 54.9258 56.0401C56.0828 57.3723 56.6427 58.8441 56.8752 60.4599C57.1081 62.0791 56.9826 63.6663 56.3735 65.2067C56.4119 65.2437 56.4502 65.2808 56.4886 65.3178C57.9247 64.4438 59.3608 63.57 60.845 62.6668C58.0849 60.248 56.8548 57.338 57.3471 53.6198C60.2993 55.7194 61.5538 58.5106 61.5595 62.1131C62.7711 61.0178 63.9041 59.9937 65.1035 58.9096C63.4852 58.0818 62.2714 56.9555 61.3562 55.5095C60.4372 54.0577 59.9209 52.4877 59.9184 50.6615C61.5564 51.3042 62.7741 52.3586 63.7574 53.7059C64.7429 55.056 65.361 56.559 65.5227 58.2424C65.5691 58.2595 65.6155 58.2765 65.6619 58.2936C66.6353 57.0277 67.6087 55.762 68.6121 54.4574C65.1574 53.1849 62.9789 50.8989 62.213 47.3529C65.6315 48.1684 67.8063 50.3326 69.0696 53.7069C69.7633 52.3788 70.4162 51.1291 71.1172 49.787C69.3372 49.5331 67.8421 48.8544 66.5211 47.8041C65.1944 46.7494 64.1992 45.4528 63.6125 43.7272C67.1848 44.075 69.6757 45.8725 71.4462 48.9858C71.9028 47.5778 72.3232 46.2817 72.7559 44.9472C69.0496 44.4908 66.4084 42.6746 64.777 39.3597C66.4717 38.9858 70.6965 40.2715 72.9646 44.0635C73.1924 42.5552 73.4203 41.047 73.6553 39.4917C69.9826 39.4806 67.1306 38.0684 65.0452 34.9101C68.5978 34.561 71.3393 35.8283 73.5927 38.3783C73.5927 36.9834 73.5927 35.6136 73.5927 34.2081C69.9469 34.7222 66.9446 33.716 64.4417 30.9562C66.103 30.4352 67.6458 30.4707 69.1946 30.8665C70.7475 31.2634 72.1333 31.9852 73.429 33.018C73.1618 31.7291 72.8947 30.4403 72.6173 29.1028C70.2233 29.5867 68.0134 29.2365 65.9323 28.1033C64.9966 27.5938 64.1758 26.9435 63.46 26.0145C66.7178 25.1188 69.5447 25.8682 72.2256 27.7699C71.7268 26.4513 71.2279 25.1327 70.7267 23.8078C67.2739 24.8971 64.1655 24.4675 61.2372 22.1592C64.2806 20.7645 67.1295 21.0299 70.0355 22.3794C69.4433 21.3259 68.8512 20.2724 68.2672 19.2333C64.2346 20.4731 60.7364 19.9607 58.507 17.7712C61.6026 16.3535 64.5488 16.6327 67.522 18.1413C67.1013 17.5814 66.7008 17.004 66.2456 16.4738C66.1323 16.3419 65.8433 16.3541 65.6324 16.314C62.261 15.6722 59.878 13.791 58.5082 10.638C58.4756 10.563 58.4616 10.4799 58.4042 10.2793C58.9526 10.3549 59.4493 10.3712 59.9169 10.4962C62.7622 11.2573 64.87 12.9248 66.2448 15.5605C66.6059 16.2528 67.2464 16.7994 67.8028 17.3946C66.6968 14.1214 66.8373 10.9998 68.7289 8.01835C70.7842 10.1642 70.7879 14.809 68.792 18.6348C69.4927 19.7486 70.1876 20.8529 70.9261 22.027C70.4863 18.5667 71.2995 15.5701 73.8676 12.9537C74.0592 13.7492 74.2941 14.4094 74.3683 15.0872C74.6996 18.1117 73.9354 20.8167 71.8767 23.1035C71.6633 23.3406 71.6471 23.5163 71.7664 23.8082C72.2807 25.0668 72.7599 26.3397 73.2525 27.6072C73.2742 27.6632 73.3019 27.7168 73.3692 27.8646C73.635 24.1734 75.1383 21.322 78.309 19.3367C78.55 20.6354 78.4387 21.8224 78.1052 22.9667C77.4018 25.3801 76.0994 27.389 73.9397 28.7754C73.828 28.8471 73.7237 29.0723 73.7508 29.1966C73.9969 30.3278 74.273 31.4526 74.5545 32.6383C75.9411 29.4539 78.1773 27.2715 81.5885 26.3923C81.7793 29.0278 78.6908 32.4896 74.7687 34.0899C74.8478 35.4839 74.9269 36.8806 75.008 38.3117C77.1638 35.4173 79.9743 33.8662 83.7268 33.8772C82.8987 35.6757 81.665 36.9491 80.1087 37.931C78.5432 38.9189 76.8364 39.4671 74.9708 39.486C74.7763 41.017 74.5844 42.5265 74.3808 44.129C75.5809 42.8513 76.9762 41.965 78.5799 41.4215C80.1821 40.8784 81.8125 40.7003 83.566 41.081C82.5207 42.7096 81.1038 43.78 79.4192 44.5242C77.7238 45.2731 75.9501 45.5483 74.1061 45.297C73.7163 46.5675 73.3396 47.7947 72.9523 49.0566C76.0689 47.1122 79.2932 46.6543 82.8402 48.105C79.7039 50.7155 76.3131 51.2817 72.5499 50.0917C71.938 51.3403 71.317 52.6077 70.6794 53.9091C73.9174 52.3371 77.1217 52.178 80.3755 53.8655C78.4266 55.7406 73.8639 56.8303 70.0744 54.9539C69.1313 56.2487 68.1872 57.5448 67.1937 58.9086C68.7568 58.1623 70.3613 57.8268 72.0375 57.8836C73.7064 57.9402 75.279 58.3307 76.7858 59.3142C73.3271 61.5121 69.8584 61.6583 66.2579 59.9486C65.2236 60.9379 64.1721 61.9437 63.0771 62.9912C66.4513 62.2707 69.4988 62.8175 72.1811 65.0378C70.1445 66.7975 65.0858 66.2448 61.8714 63.9613C60.6035 64.792 59.3454 65.6163 58.0433 66.4693C61.5628 66.5823 64.4161 67.9017 66.4168 70.847C62.495 71.444 59.3147 70.1361 56.7876 67.127C55.5195 67.6727 54.2467 68.2206 52.9223 68.7906C56.2685 69.7033 58.7137 71.5916 60.0147 74.8223C56.1523 74.595 53.3612 72.713 51.4588 69.2905C49.1774 70.1777 46.8719 71.0743 44.473 72.0071C45.2482 72.4082 45.9393 72.7413 46.6055 73.1184C47.0862 73.3906 47.533 73.7226 47.9966 74.0253C48.2321 74.179 48.2831 74.3453 48.1317 74.6107C47.8675 75.0739 47.6437 75.5601 47.4216 76C46.0366 75.2738 44.6554 74.6225 43.3511 73.8426C42.2905 73.2086 41.3655 73.1891 40.2967 73.8347C38.9947 74.6211 37.6072 75.2659 36.2083 75.9973C35.9622 75.5062 35.6762 74.9781 35.4423 74.4278C35.4019 74.3327 35.5452 74.0814 35.6672 74.0078C36.6141 73.4365 37.5756 72.8895 38.5351 72.3393C38.7057 72.2415 38.8878 72.1634 39.1806 72.0188C36.7812 71.0839 34.4922 70.192 32.1745 69.289C30.3041 72.6769 27.507 74.5927 23.6233 74.9024C23.9958 72.9849 26.6739 69.7305 30.7209 68.7974C29.3986 68.2277 28.1366 67.6839 26.8167 67.1153C25.2229 69.2091 23.0553 70.4483 20.4474 70.9281C19.3688 71.1265 18.2853 71.1254 17.197 70.88C18.2132 68.5493 21.8239 66.6616 25.6081 66.4867C24.2987 65.6261 23.0392 64.7983 21.7841 63.9734C18.5812 66.2475 15.157 66.7001 11.4942 65.1147C14.1149 62.8097 17.1564 62.2862 20.5397 62.9827C19.4597 61.9468 18.4152 60.945 17.3769 59.9491C13.7928 61.6502 10.3199 61.5221 6.81659 59.2944C10.0151 57.4648 13.1566 57.4974 16.4035 58.863C15.4388 57.5397 14.5004 56.2523 13.5747 54.9826C9.96692 56.4972 6.53825 56.2442 3.30825 53.9317C6.50447 52.184 9.70522 52.3281 12.9539 53.9133C12.3246 52.6279 11.7111 51.3749 11.0832 50.0923C7.36458 51.2859 3.95276 50.732 0.791436 48.1045C4.33194 46.6668 7.54228 47.0976 10.6705 49.0529C10.2886 47.7973 9.91831 46.58 9.53157 45.3087C7.01455 45.6139 4.68581 45.0282 2.56542 43.6205C1.47507 42.8968 0.558281 41.9458 0.0830946 41.0416C3.68562 40.4753 6.67691 41.5814 9.24304 44.0879C9.05002 42.5557 8.86064 41.052 8.66732 39.5166C4.78696 39.2604 1.83338 37.494 0 33.9691C3.64135 33.8508 6.43872 35.4125 8.61618 38.2982C8.69938 36.889 8.78067 35.5108 8.86376 34.1041C5.20628 32.8236 2.84487 30.3385 1.91164 26.4022C3.66384 26.7369 5.04876 27.5298 6.27716 28.6265C7.50799 29.7255 8.43527 31.0432 9.06344 32.6874C9.36961 31.3735 9.64865 30.1756 9.92981 28.969C6.58625 26.686 5.00428 23.5355 5.24934 19.328C6.8894 20.238 8.01232 21.4583 8.8685 22.9498C9.71974 24.4326 10.1771 26.0296 10.315 27.7561C10.467 27.3261 10.6053 26.8906 10.7738 26.4672C11.1215 25.5936 11.4604 24.7148 11.8547 23.8621C12.0178 23.5091 11.9723 23.3185 11.7014 23.05C9.3573 20.7264 8.47258 16.0929 9.81152 13.0727C11.1044 14.1739 11.8592 15.5801 12.3554 17.1467C12.8528 18.7177 12.9515 20.3239 12.6736 22.0754C13.4395 20.8584 14.1335 19.7555 14.8467 18.6222C13.5071 16.5632 13.0871 14.2647 13.3985 11.8123C13.5779 10.3996 14.1949 8.80354 14.8913 8C16.7988 11.0111 16.9539 14.1453 15.8407 17.48C16.3902 16.7887 17.0437 16.1559 17.4706 15.3957C19.0563 12.572 21.3795 10.8457 24.5926 10.3469C24.725 10.3263 24.8606 10.3247 24.9948 10.3185C25.0433 10.3163 25.0924 10.3269 25.2488 10.342C25.0304 10.8235 24.8716 11.2948 24.6196 11.7095C23.0672 14.2631 20.8419 15.8434 17.8681 16.3431C17.6053 16.3873 17.3263 16.5724 17.1383 16.7711C16.8288 17.0982 16.5863 17.489 16.3184 17.8551C16.2498 17.9489 16.1922 18.0506 16.0693 18.243C19.0498 16.6325 22.0114 16.3538 25.0782 17.7412C23.4937 19.8519 19.2026 20.5081 15.3708 19.2255C14.7847 20.2639 14.1905 21.317 13.5962 22.3701C16.4901 21.0301 19.3466 20.7667 22.4004 22.155Z" fill="#202020"/>
<path d="M39.9306 25.4246C37.4478 27.7055 34.7386 29.2955 31.6128 30.3224C31.6128 29.8225 31.6127 29.3752 31.6128 28.928C31.613 27.6344 31.6296 26.3406 31.6039 25.0475C31.5957 24.6382 31.7114 24.4474 32.1091 24.2836C34.9641 23.108 37.4793 21.4278 39.4159 18.9989C40.0453 18.2094 40.4514 17.2432 40.9793 16.3696C41.0737 16.2133 41.2619 16.0085 41.4099 16.006C42.9718 15.9802 44.5343 15.9903 46.0965 15.993C46.1592 15.9931 46.222 16.0164 46.3148 16.0349C46.3148 27.2622 46.3148 38.4759 46.3148 49.726C44.1813 49.726 42.0775 49.726 39.9306 49.726C39.9306 41.6664 39.9306 33.6278 39.9306 25.4246Z" fill="#202020"/>
</svg>
