<svg width="24" height="24" viewBox="0 0 24 24" fill="none" xmlns="http://www.w3.org/2000/svg">
<g clip-path="url(#clip0_237_10267)">
<path fill-rule="evenodd" clip-rule="evenodd" d="M11.9642 0.188965C5.34833 0.188965 0 5.57672 0 12.2421C0 17.5701 3.42686 22.0801 8.18082 23.6764C8.77518 23.7964 8.9929 23.417 8.9929 23.0979C8.9929 22.8185 8.97331 21.8607 8.97331 20.8628C5.64514 21.5813 4.95208 19.4259 4.95208 19.4259C4.41722 18.029 3.62473 17.67 3.62473 17.67C2.53543 16.9317 3.70408 16.9317 3.70408 16.9317C4.91241 17.0115 5.54645 18.1689 5.54645 18.1689C6.61592 20.0046 8.33926 19.4859 9.03257 19.1666C9.13151 18.3883 9.44865 17.8495 9.78539 17.5503C7.13094 17.2708 4.33812 16.2332 4.33812 11.6034C4.33812 10.2864 4.81322 9.2088 5.56604 8.37076C5.44727 8.0715 5.03118 6.83403 5.68506 5.17778C5.68506 5.17778 6.69527 4.85843 8.97306 6.41501C9.94827 6.15117 10.954 6.01695 11.9642 6.01582C12.9744 6.01582 14.0042 6.15566 14.9552 6.41501C17.2332 4.85843 18.2434 5.17778 18.2434 5.17778C18.8973 6.83403 18.481 8.0715 18.3622 8.37076C19.1349 9.2088 19.5904 10.2864 19.5904 11.6034C19.5904 16.2332 16.7976 17.2508 14.1233 17.5503C14.5592 17.9294 14.9353 18.6477 14.9353 19.7852C14.9353 21.4015 14.9158 22.6988 14.9158 23.0977C14.9158 23.417 15.1337 23.7964 15.7278 23.6766C20.4818 22.0799 23.9087 17.5701 23.9087 12.2421C23.9282 5.57672 18.5603 0.188965 11.9642 0.188965Z" fill="white"/>
</g>
<defs>
<clipPath id="clip0_237_10267">
<rect width="24" height="23.5102" fill="white" transform="translate(0 0.188965)"/>
</clipPath>
</defs>
</svg>
