<svg width="72" height="72" viewBox="0 0 72 72" fill="none" xmlns="http://www.w3.org/2000/svg">
<path fill-rule="evenodd" clip-rule="evenodd" d="M28.2795 13.6741C16.9845 20.9281 10.7095 29.3716 9.45452 39.0046C7.50002 54.0001 20.91 61.3396 27.705 54.7456C34.5 48.1516 30.4275 39.7801 25.5075 37.4911C20.5875 35.2021 17.5785 36.0001 18.1035 32.9416C18.6285 29.8831 25.6275 21.4066 31.7775 17.4586C31.9951 17.2731 32.1339 17.0116 32.1657 16.7274C32.1975 16.4432 32.1198 16.1576 31.9485 15.9286L30.4275 13.9501C29.7675 13.0921 29.1345 13.1251 28.2795 13.6726M58.0185 13.6741C46.7235 20.9281 40.4485 29.3716 39.1935 39.0046C37.2375 54.0001 50.6475 61.3396 57.4425 54.7456C64.2375 48.1516 60.165 39.7801 55.2435 37.4911C50.322 35.2021 47.3145 36.0001 47.8395 32.9416C48.3645 29.8831 55.365 21.4066 61.515 17.4586C61.7324 17.2729 61.8709 17.0113 61.9024 16.7271C61.9339 16.4429 61.856 16.1574 61.6845 15.9286L60.165 13.9501C59.505 13.0921 58.872 13.1251 58.0185 13.6726" fill="#202020"/>
</svg>
