<svg width="24" height="24" viewBox="0 0 24 24" fill="none" xmlns="http://www.w3.org/2000/svg">
<g clip-path="url(#clip0_237_10269)">
<path d="M20.4222 20.3512H16.8707V14.8443C16.8707 13.5311 16.8471 11.8406 15.0236 11.8406C13.1739 11.8406 12.8909 13.2714 12.8909 14.7486V20.3508H9.33942V9.02633H12.7488V10.5739H12.7965C13.1377 9.9963 13.6308 9.52111 14.2232 9.19898C14.8155 8.87684 15.4851 8.71982 16.1604 8.74465C19.76 8.74465 20.4236 11.089 20.4236 14.1388L20.4222 20.3512ZM5.33222 7.47835C4.9246 7.47842 4.52611 7.35881 4.18715 7.13464C3.84819 6.91048 3.58399 6.59181 3.42794 6.21896C3.27188 5.84611 3.23098 5.43581 3.31043 5.03995C3.38988 4.64409 3.58611 4.28045 3.87429 3.995C4.16246 3.70956 4.52965 3.51514 4.92943 3.43633C5.3292 3.35752 5.74358 3.39786 6.1202 3.55225C6.49682 3.70663 6.81874 3.96813 7.04526 4.30367C7.27178 4.63921 7.39273 5.03373 7.3928 5.43734C7.39285 5.70532 7.33958 5.97068 7.23606 6.21829C7.13253 6.46589 6.98078 6.69087 6.78943 6.8804C6.59809 7.06993 6.3709 7.22028 6.12088 7.32288C5.87085 7.42547 5.60287 7.4783 5.33222 7.47835ZM7.10794 20.3512H3.5528V9.02633H7.10794V20.3512ZM22.1927 0.1315H1.76821C1.30463 0.12632 0.857916 0.303585 0.526268 0.624342C0.194621 0.9451 0.00516944 1.38311 -0.000488281 1.84211V22.1493C0.0049758 22.6086 0.194316 23.0469 0.525952 23.368C0.857589 23.6891 1.3044 23.8667 1.76821 23.8618H22.1927C22.6574 23.8676 23.1055 23.6905 23.4384 23.3694C23.7714 23.0483 23.962 22.6095 23.9684 22.1493V1.84065C23.9618 1.38073 23.7711 0.942226 23.4381 0.621476C23.1051 0.300727 22.6572 0.123968 22.1927 0.130034" fill="white"/>
</g>
<defs>
<clipPath id="clip0_237_10269">
<rect width="24" height="23.622" fill="white" transform="translate(0 0.188965)"/>
</clipPath>
</defs>
</svg>
