<svg width="32" height="32" viewBox="0 0 32 32" fill="none" xmlns="http://www.w3.org/2000/svg">
<path fill-rule="evenodd" clip-rule="evenodd" d="M15.8058 26.0411L15.9135 26.0624L16.011 26.0386C21.9317 24.6103 23.7007 20.4013 24.1018 19.1453C24.2013 18.8339 24.2516 18.509 24.2516 18.1793V9.87653C24.2516 9.73673 24.1967 9.6057 24.0968 9.50774C23.9978 9.41053 23.8568 9.36143 23.7242 9.35867C23.6751 9.35943 23.627 9.35993 23.5784 9.35993C19.4616 9.35993 16.7776 6.7516 16.2766 6.22297C16.1796 6.121 16.0431 6.06263 15.9035 6.06238C15.764 6.06238 15.6282 6.12075 15.5302 6.22347C15.0234 6.75811 12.2845 9.43183 8.08405 9.35867C7.94801 9.35993 7.80921 9.41078 7.71025 9.50774C7.61054 9.6057 7.55542 9.73673 7.55542 9.87653V18.1768C7.55542 18.509 7.60653 18.8354 7.70674 19.1473C8.11036 20.4035 9.8869 24.6133 15.8058 26.0411ZM15.3313 19.7275C15.3982 19.7808 15.4788 19.8066 15.559 19.8066C15.6591 19.8066 15.7585 19.7664 15.83 19.6873L20.2298 14.8879L20.2303 14.8873C20.389 14.7134 20.3823 14.4476 20.2155 14.2828L19.1927 13.2665C19.1093 13.1839 18.9995 13.1429 18.8765 13.1399C18.7593 13.1423 18.646 13.1926 18.566 13.2783L15.3843 16.6776L13.078 14.8485C12.9911 14.7795 12.8785 14.7486 12.7682 14.7645C12.6585 14.7799 12.5587 14.8405 12.4943 14.9299L11.5257 16.2746C11.3972 16.4532 11.4324 16.699 11.6065 16.8347L15.3313 19.7275Z" fill="white"/>
</svg>
