<svg width="51" height="52" viewBox="0 0 51 52" fill="none" xmlns="http://www.w3.org/2000/svg">
<circle cx="25.6666" cy="26.0001" r="25.3333" fill="#1C1C1C"/>
<path d="M25.2829 18.3838C25.2829 17.8037 25.7532 17.3333 26.3334 17.3333C26.9136 17.3333 27.3839 17.8037 27.3839 18.3838V33.6162C27.3839 34.1964 26.9136 34.6667 26.3334 34.6667C25.7532 34.6667 25.2829 34.1964 25.2829 33.6162V18.3838Z" fill="white"/>
<path d="M33.9496 24.9495C34.5298 24.9495 35.0001 25.4198 35.0001 26C35.0001 26.5802 34.5298 27.0505 33.9496 27.0505L18.7173 27.0505C18.1371 27.0505 17.6667 26.5802 17.6667 26C17.6667 25.4198 18.1371 24.9495 18.7173 24.9495L33.9496 24.9495Z" fill="white"/>
</svg>
