<svg width="67" height="68" viewBox="0 0 67 68" fill="none" xmlns="http://www.w3.org/2000/svg">
<path d="M0 5.88519C0 3.00299 2.33649 0.666504 5.21869 0.666504H61.448C64.3302 0.666504 66.6667 3.00299 66.6667 5.88519V62.1198C66.6667 64.9991 64.3326 67.3332 61.4533 67.3332H0V5.88519Z" fill="#847483"/>
<path d="M15.379 23.1331V14.6653H17.5199V23.1331H15.379ZM12.2156 19.9696V17.8288H20.6834V19.9696H12.2156Z" fill="white"/>
<path d="M19.7671 49.174V51.1953H14.1817V49.174H19.7671Z" fill="white"/>
<path d="M46.0372 34.0641V31.9412H54.2957V34.0641H46.0372ZM46.0372 38.0349V35.9119H54.2957V38.0349H46.0372Z" fill="white"/>
<line x1="34.6725" y1="0.666504" x2="34.6725" y2="67.3332" stroke="#1A1617" stroke-width="1.90752"/>
<line x1="34.4846" y1="35.3366" x2="0.00186157" y2="35.3366" stroke="#1A1617" stroke-width="1.90752"/>
</svg>
