<svg width="20" height="20" viewBox="0 0 20 20" fill="none" xmlns="http://www.w3.org/2000/svg">
<path d="M0.704346 2.1657C0.704346 1.35868 1.35856 0.704468 2.16558 0.704468H17.9098C18.7168 0.704468 19.371 1.35868 19.371 2.1657V17.9114C19.371 18.7176 18.7175 19.3711 17.9113 19.3711H0.704346V2.1657Z" fill="#252525"/>
<path d="M5.0107 7.23504V4.86407H5.61014V7.23504H5.0107ZM4.12494 6.34927V5.74983H6.49591V6.34927H4.12494Z" fill="white"/>
<path d="M6.23936 14.5266V15.0926H4.67546V14.5266H6.23936Z" fill="white"/>
<path d="M13.5948 10.2959V9.70146H15.9072V10.2959H13.5948ZM13.5948 11.4077V10.8133H15.9072V11.4077H13.5948Z" fill="white"/>
<line x1="10.4128" y1="0.704468" x2="10.4128" y2="19.3711" stroke="#121011" stroke-width="0.534106"/>
<line x1="10.3601" y1="10.4122" x2="0.704935" y2="10.4122" stroke="#121011" stroke-width="0.534106"/>
</svg>
