<svg width="18" height="18" viewBox="0 0 18 18" fill="none" xmlns="http://www.w3.org/2000/svg">
<path d="M15.75 7.49994C15.75 12.7499 9 17.2499 9 17.2499C9 17.2499 2.25 12.7499 2.25 7.49994C2.25 5.70973 2.96116 3.99284 4.22703 2.72697C5.4929 1.4611 7.20979 0.749939 9 0.749939C10.7902 0.749939 12.5071 1.4611 13.773 2.72697C15.0388 3.99284 15.75 5.70973 15.75 7.49994Z" stroke="white" stroke-linecap="round" stroke-linejoin="round"/>
<path d="M9 9.74994C10.2426 9.74994 11.25 8.74258 11.25 7.49994C11.25 6.2573 10.2426 5.24994 9 5.24994C7.75736 5.24994 6.75 6.2573 6.75 7.49994C6.75 8.74258 7.75736 9.74994 9 9.74994Z" stroke="white" stroke-linecap="round" stroke-linejoin="round"/>
</svg>
