<svg width="33" height="32" viewBox="0 0 33 32" fill="none" xmlns="http://www.w3.org/2000/svg">
<path d="M32.3333 25.3333C32.3333 29.0152 29.3485 32 25.6666 32H6.99992C3.31802 32 0.333252 29.0152 0.333252 25.3333V6.66667C0.333252 2.98477 3.31802 0 6.99992 0H25.6666C29.3485 0 32.3333 2.98477 32.3333 6.66667V25.3333ZM13.3751 4C12.6152 4 11.9801 4.6462 12.2737 5.34706C12.6149 6.16117 13.2482 6.84276 14.0915 7.31144C14.6029 7.59567 14.9895 8.09761 14.9895 8.68272C14.9895 9.3572 14.4896 9.91873 13.8386 10.0951C11.9647 10.6029 10.2894 11.6733 9.05884 13.1689C7.58111 14.9651 6.85442 17.2416 7.02466 19.54C7.19492 21.8384 8.24981 23.989 9.97681 25.5586C11.7037 27.1279 13.9748 27.9999 16.3333 28C18.6919 28 20.9637 27.1281 22.6907 25.5586C24.4177 23.989 25.4726 21.8384 25.6428 19.54C25.8131 17.2416 25.0854 14.9651 23.6077 13.1689C22.3771 11.6734 20.7018 10.6029 18.8279 10.0951C18.1769 9.91872 17.677 9.3572 17.677 8.68272C17.677 8.09761 18.0636 7.59567 18.575 7.31151C19.4186 6.8428 20.0523 6.16116 20.3936 5.34695C20.6874 4.64618 20.0524 4 19.2925 4H19.2555C18.5564 4 18.0013 4.62455 17.4866 5.09766C17.1746 5.38437 16.7615 5.54325 16.3333 5.54004C15.905 5.54321 15.4919 5.38432 15.1799 5.09766C14.6654 4.62465 14.1113 4 13.4124 4H13.3751ZM14.6848 12.3857C15.9434 12.0808 17.2649 12.1306 18.4954 12.5303C19.7258 12.93 20.8149 13.663 21.636 14.6436C22.4571 15.6241 22.9768 16.8127 23.134 18.0703C23.2912 19.3278 23.079 20.6033 22.5237 21.748C21.9683 22.8927 21.092 23.8598 19.9963 24.5371C18.9005 25.2145 17.63 25.5742 16.3333 25.5742C14.7465 25.5726 13.2092 25.0335 11.9836 24.0488C11.2198 23.435 10.6066 22.6717 10.1784 21.8155C9.77586 21.0104 10.4539 20.1738 11.354 20.1738C11.9626 20.1738 12.4847 20.5743 12.8044 21.0921C13.326 21.9367 14.1035 22.5623 15.01 22.8732C15.6927 23.1072 16.2961 22.5037 16.2961 21.7821C16.2961 21.0656 15.6358 20.5104 15.1233 20.0098C14.8125 19.706 14.6379 19.2938 14.6379 18.8643C14.638 18.4347 14.8124 18.0225 15.1233 17.7188C15.6358 17.2181 16.2961 16.6629 16.2961 15.9464C16.2961 15.2248 15.6927 14.6213 15.0101 14.8554C14.102 15.167 13.3234 15.7946 12.8018 16.6416C12.4842 17.1572 11.9646 17.5557 11.359 17.5557C10.4607 17.5557 9.78593 16.719 10.1912 15.9174C10.4987 15.3094 10.9004 14.7475 11.385 14.2529C12.2817 13.3379 13.4263 12.6907 14.6848 12.3857Z" fill="#393637"/>
</svg>
