<svg width="33" height="32" viewBox="0 0 33 32" fill="none" xmlns="http://www.w3.org/2000/svg">
<path d="M25.6666 0C29.3485 0 32.3333 2.98477 32.3333 6.66667V25.3333C32.3333 29.0152 29.3485 32 25.6666 32H6.99992C3.31802 32 0.333252 29.0152 0.333252 25.3333V6.66667C0.333252 2.98477 3.31802 0 6.99992 0H25.6666ZM6.10767 22.7632C6.10767 24.1291 7.21493 25.2363 8.58081 25.2363C9.94669 25.2363 11.054 24.1291 11.054 22.7632V16.1626C11.054 14.7967 9.94669 13.6895 8.58081 13.6895C7.21493 13.6895 6.10767 14.7967 6.10767 16.1626V22.7632ZM12.6917 22.7632C12.6917 24.1291 13.7989 25.2363 15.1648 25.2363C16.5307 25.2363 17.6379 24.1291 17.6379 22.7632V9.57275C17.6379 8.20687 16.5307 7.09961 15.1648 7.09961C13.7989 7.09961 12.6917 8.20687 12.6917 9.57275V22.7632ZM19.2874 16.1685C19.2874 17.5343 20.3946 18.6416 21.7605 18.6416C23.1264 18.6416 24.2336 17.5343 24.2336 16.1685C24.2336 14.8026 23.1264 13.6953 21.7605 13.6953C20.3946 13.6953 19.2874 14.8026 19.2874 16.1685ZM8.56958 6.76367C7.826 6.76375 7.11295 7.05917 6.58716 7.58496C6.06137 8.11078 5.76591 8.82379 5.76587 9.56738C5.76587 10.3111 6.06129 11.0249 6.58716 11.5508C7.11293 12.0764 7.82612 12.372 8.56958 12.3721C9.31323 12.3721 10.0271 12.0766 10.553 11.5508C11.0788 11.0249 11.3743 10.3111 11.3743 9.56738C11.3742 8.82388 11.0786 8.11076 10.553 7.58496C10.0271 7.0591 9.31327 6.76367 8.56958 6.76367ZM19.2874 9.56787C19.2874 10.9338 20.3946 12.041 21.7605 12.041C23.1264 12.041 24.2336 10.9338 24.2336 9.56787C24.2336 8.20199 23.1264 7.09473 21.7605 7.09473C20.3946 7.09473 19.2874 8.20199 19.2874 9.56787Z" fill="#393637"/>
</svg>
