<svg width="47" height="46" viewBox="0 0 47 46" fill="none" xmlns="http://www.w3.org/2000/svg">
<path d="M39.5084 7.13664C35.228 2.87101 29.5206 0.501221 23.4963 0.501221C10.9719 0.501221 0.825526 10.6123 0.825526 23.0932C0.825526 27.0429 1.93528 30.9925 3.83772 34.3102L0.666992 46.0012L12.7158 42.8415C16.045 44.5793 19.6914 45.5273 23.4963 45.5273C36.0206 45.5273 46.167 35.4162 46.167 22.9352C46.0084 17.0898 43.7889 11.4023 39.5084 7.13664ZM34.4353 31.1505C33.9597 32.4144 31.7402 33.6783 30.6304 33.8363C29.6792 33.9943 28.4109 33.9943 27.1426 33.6783C26.3499 33.3623 25.2402 33.0464 23.9719 32.4144C18.2646 30.0446 14.6182 24.3571 14.3011 23.8832C13.9841 23.5672 11.9231 20.8814 11.9231 18.0377C11.9231 15.1939 13.3499 13.93 13.8255 13.2981C14.3011 12.6661 14.9353 12.6661 15.4109 12.6661C15.728 12.6661 16.2036 12.6661 16.5206 12.6661C16.8377 12.6661 17.3133 12.5082 17.7889 13.6141C18.2645 14.72 19.3743 17.5637 19.5328 17.7217C19.6914 18.0377 19.6914 18.3537 19.5328 18.6696C19.3743 18.9856 19.2158 19.3016 18.8987 19.6175C18.5816 19.9335 18.2645 20.4075 18.106 20.5655C17.7889 20.8814 17.4719 21.1974 17.7889 21.6714C18.106 22.3033 19.2158 24.0411 20.9597 25.621C23.1792 27.5168 24.9231 28.1488 25.5572 28.4648C26.1914 28.7807 26.5084 28.6227 26.8255 28.3068C27.1426 27.9908 28.2524 26.7269 28.5694 26.095C28.8865 25.463 29.3621 25.621 29.8377 25.779C30.3133 25.937 33.167 27.3589 33.6426 27.6748C34.2767 27.9908 34.5938 28.1488 34.7523 28.3068C34.9109 28.7807 34.9109 29.8866 34.4353 31.1505Z" fill="white"/>
</svg>
