<svg width="850" height="260" viewBox="0 0 850 260" fill="none" xmlns="http://www.w3.org/2000/svg">
<path d="M596.265 139.807C589.344 141.531 580.536 138.74 576.875 134.266C578.807 129.625 581.37 126.047 584.552 123.521C585.729 122.656 591.042 119.073 597.51 119.766C598.422 119.906 608.265 121.318 612.005 123.891C613.151 130.167 606.547 137.245 596.265 139.807ZM536.562 139.807C526.281 137.245 519.672 130.167 520.818 123.891C524.557 121.318 534.401 119.906 535.312 119.766C541.781 119.073 547.094 122.656 548.271 123.521C551.453 126.047 554.021 129.625 555.953 134.266C552.286 138.74 543.479 141.531 536.562 139.807ZM408.922 161.557C407.432 165.01 403.146 169.724 399.12 171.458H399.114C399.114 171.458 398.177 172.115 396.167 172.115C394.265 172.115 393.219 171.458 393.219 171.458C392.417 171.073 386.536 167.016 383.417 161.557C382.255 159.531 383.114 157.224 385.797 156.219C394.677 152.885 401.698 154.198 406.036 155.964C408.849 157.109 409.87 159.359 408.922 161.557ZM845.375 126.307C844.677 121.693 843.068 118.406 840.557 116.448C838.036 114.771 834.953 113.932 831.323 113.932C827.687 113.932 823.281 114.214 818.109 114.771C812.932 115.333 806.781 115.891 799.651 116.448C792.521 117.01 784.338 116.865 775.109 116.026C775.385 105.688 776.37 96.875 778.047 89.599C779.729 82.3333 781.75 76.3854 784.13 71.7709C786.505 67.1563 788.953 63.8698 791.474 61.9115C793.989 59.9583 796.359 58.974 798.604 58.974C803.073 64.2917 807.76 66.8802 812.656 66.7344C817.547 66.599 821.812 64.7865 825.448 61.2813C829.083 57.7865 831.672 53.2448 833.213 47.6511C834.745 42.0573 834.474 36.3958 832.375 30.6615C830.276 24.9323 825.937 19.75 819.37 15.1354C812.792 10.5261 803.219 7.37501 790.63 5.69793C780 4.30209 769.932 4.9323 760.427 7.58335C750.917 10.25 742.943 14.7917 736.515 21.2188C728.401 29.3386 722.042 40.8698 717.427 55.8281C713.781 67.6511 711.245 82.3542 709.781 99.8438L709.828 104C696.719 118.219 650.76 119.818 637.896 111.068C636.818 110.333 635.713 108.484 635.177 107.563C624.338 88.9427 619.786 70.6302 614.708 61.4219C612.64 55.6823 605.12 54.3594 601.224 59.0521L586.198 77.1511C579.875 75.5156 573.245 74.6354 566.411 74.6354C558.505 74.6354 550.875 75.8177 543.672 77.9948L529.781 59.5C526.12 54.6198 518.542 55.5729 516.198 61.2084C510.901 69.7969 503.099 85.3646 494.594 103.922C494.469 103.958 494.354 104 494.229 104.042C483.229 107.297 469.073 107.776 455.974 105.495C452.328 101.057 448.213 97.1302 443.651 93.6979C439.765 90.6511 435.578 87.974 431.14 85.7136C434.12 76.1459 445.432 67.8646 483.104 85.0313C498.864 92.2136 494.984 55.0417 463.786 36.8073C444.609 25.6042 414.167 14.8021 409.104 34.9948C406.713 44.5261 406.213 62.099 406.344 77.9948C402.984 77.5469 399.568 77.2969 396.088 77.2969C392.484 77.2969 388.943 77.5625 385.474 78.0417C374.557 63.7084 355.443 39.6458 343.989 31.1563C327.265 18.7604 310.594 46.4323 302.885 67.2604C290.344 101.146 310.932 132.339 318.552 116.786C338.198 76.7083 352.932 78.9323 361.005 85.7292C338.437 97.2552 322.291 119.542 319.338 145.833C318.807 146.87 318.255 147.911 317.672 148.958C315.432 153.016 312.495 156.443 308.864 159.24C305.224 162.036 301.448 163.786 297.536 164.479C293.614 165.182 289.911 164.901 286.416 163.641C282.922 162.385 279.844 160.286 277.187 157.349C274.531 154.411 272.786 150.714 271.948 146.234C269.427 135.891 269.01 123.724 270.687 109.734C272.364 95.7552 274.318 81.9844 276.562 68.4167C278.797 54.8542 280.474 42.6146 281.594 31.7083C282.708 20.8021 281.594 13.3958 278.239 9.47397C276.562 7.52085 272.995 5.90626 267.541 4.65105C262.088 3.39064 256.14 2.62501 249.713 2.34376C243.276 2.06772 237.193 2.62501 231.463 4.02085C225.729 5.4271 221.88 7.79689 219.927 11.1563C216.573 16.75 214.265 24.5781 213.005 34.6458C211.745 44.7136 209.719 58.2813 206.927 75.3334C204.338 90.6615 202.25 104.292 200.661 116.281C198.088 116.99 195.37 117.74 192.453 118.547C183.359 121.063 172.661 123.094 160.359 124.63C148.052 126.167 134.349 125.677 119.25 123.161C119.25 111.411 120.015 101.49 121.552 93.375C123.088 85.2656 125.047 78.6302 127.427 73.4479C129.802 68.2761 132.318 64.5729 134.979 62.3334C137.63 60.099 140.224 58.974 142.739 58.974C147.208 64.2917 151.896 66.8802 156.791 66.7396C161.682 66.599 165.948 64.7865 169.588 61.2813C173.219 57.7865 175.807 53.2448 177.349 47.6511C178.88 42.0573 178.609 36.3958 176.51 30.6615C174.411 24.9323 170.073 19.75 163.505 15.1354C156.932 10.5261 147.359 7.37501 134.765 5.69793C124.135 4.30209 114.068 4.9323 104.568 7.58335C95.0571 10.25 87.0832 14.7917 80.6509 21.2188C72.5415 29.3386 66.1769 40.8698 61.5675 55.8281C56.9529 70.7917 54.0832 90.3021 52.9634 114.349C49.8852 108.474 45.203 104.354 38.9165 101.974C32.6196 99.6042 26.2602 99.1094 19.8227 100.505C16.4686 101.344 13.5311 103.099 11.0154 105.75C8.49982 108.411 6.68212 111.557 5.56232 115.188C4.44774 118.828 4.02586 122.74 4.30711 126.938C4.58836 131.13 5.97899 135.328 8.49982 139.521C14.6509 151.266 30.0311 159.656 54.6457 164.688C55.4842 173.922 56.7446 183.083 58.4217 192.167C60.0988 201.26 61.8436 209.651 63.6613 217.339C65.479 225.031 67.505 231.667 69.7446 237.266C71.979 242.854 74.2186 246.911 76.4582 249.432C80.0936 253.344 85.755 255.859 93.4477 256.984C101.135 258.094 108.901 257.958 116.729 256.563C124.557 255.156 131.203 252.641 136.656 249.01C142.109 245.375 144.416 240.76 143.578 235.167C142.739 229.859 141.411 224.891 139.594 220.276C137.771 215.661 135.885 210.906 133.932 206.01C131.969 201.12 129.943 195.734 127.849 189.859C125.75 183.99 124 177.141 122.604 169.302C130.713 170.708 139.031 171.125 147.568 170.563C156.094 170.005 164.198 169.026 171.896 167.63C179.583 166.229 186.37 164.625 192.239 162.802C194.656 162.057 196.797 161.349 198.687 160.672C198.875 162.87 199.094 165.052 199.375 167.208C200.765 178.677 204.333 189.094 210.068 198.458C215.797 207.833 223 215.313 231.672 220.906C240.338 226.5 249.989 229.922 260.62 231.182C271.245 232.438 282.291 230.828 293.76 226.359C304.666 221.885 314.526 215.661 323.333 207.693C326.62 204.719 329.672 201.682 332.609 198.609C332.609 198.609 332.614 198.604 332.614 198.599C332.672 198.693 332.719 198.792 332.776 198.88L332.755 198.76C346.724 218.729 369.875 231.802 396.088 231.802C438.755 231.802 473.344 197.214 473.344 154.547C473.344 154.135 473.318 153.724 473.312 153.313C478.015 153.057 482.875 152.354 487.88 151.203C487.864 151.875 487.833 152.542 487.833 153.219C487.833 171.891 494.354 189.026 505.229 202.51C507.292 205.495 509.568 208.26 512.057 210.802C518.771 217.656 526.531 222.901 535.338 226.536C544.151 230.167 553.172 232.125 562.401 232.406C573.583 232.964 584.005 231.214 593.651 227.161C595.167 226.526 596.64 225.839 598.099 225.13C624.276 213.578 642.953 188.161 644.823 158.172C644.896 157.609 644.979 157.047 645.042 156.474V155.635C645.505 145.339 695.979 135.01 710.396 154.833L710.51 164.688C711.349 173.922 712.604 183.083 714.281 192.167C715.958 201.26 717.703 209.651 719.526 217.339C721.344 225.031 723.37 231.667 725.609 237.266C727.844 242.854 730.078 246.911 732.323 249.432C735.953 253.344 741.614 255.859 749.312 256.984C757 258.094 764.76 257.958 772.594 256.563C780.422 255.156 787.068 252.641 792.521 249.01C797.974 245.375 800.281 240.76 799.443 235.167C798.318 229.859 796.854 224.823 795.036 220.063C793.213 215.313 791.328 210.417 789.375 205.38C787.417 200.349 785.39 194.755 783.292 188.604C781.193 182.453 779.443 175.323 778.047 167.208C791.187 169.724 801.396 170.844 808.672 170.563C815.943 170.286 822.099 168.885 827.13 166.37C831.88 164.135 835.729 160.641 838.667 155.88C841.599 151.13 843.625 146.167 844.75 140.99C845.864 135.818 846.073 130.922 845.375 126.307Z" fill="white"/>
</svg>
