<svg width="48" height="48" viewBox="0 0 48 48" fill="none" xmlns="http://www.w3.org/2000/svg">
<g clip-path="url(#clip0_209_24011)">
<mask id="mask0_209_24011" style="mask-type:luminance" maskUnits="userSpaceOnUse" x="4" y="4" width="40" height="40">
<path d="M4 4H44V44H4V4Z" fill="white"/>
</mask>
<g mask="url(#mask0_209_24011)">
<path d="M19.2346 42.8281H5.17215V40.4844C5.17215 36.6011 8.32012 33.4531 12.2034 33.4531C16.0867 33.4531 19.2346 36.6011 19.2346 40.4844V42.8281Z" stroke="#202020" stroke-width="1.8" stroke-miterlimit="10" stroke-linecap="round" stroke-linejoin="round"/>
<path d="M16.5 29.1563C16.5 31.5293 14.5762 33.4531 12.2031 33.4531C9.83008 33.4531 7.90625 31.5293 7.90625 29.1563C7.90625 26.7832 9.83008 24.8594 12.2031 24.8594C14.5762 24.8594 16.5 26.7832 16.5 29.1563Z" stroke="#202020" stroke-width="1.8" stroke-miterlimit="10" stroke-linecap="round" stroke-linejoin="round"/>
<path d="M39.7031 27.9844H25.6406V25.6406C25.6406 21.7573 28.7886 18.6094 32.6719 18.6094C36.5552 18.6094 39.7031 21.7573 39.7031 25.6406V27.9844Z" stroke="#202020" stroke-width="1.8" stroke-miterlimit="10" stroke-linecap="round" stroke-linejoin="round"/>
<path d="M36.9687 14.3125C36.9687 16.6855 35.045 18.6094 32.6719 18.6094C30.2988 18.6094 28.375 16.6855 28.375 14.3125C28.375 11.9395 30.2988 10.0156 32.6719 10.0156C35.045 10.0156 36.9687 11.9395 36.9687 14.3125Z" stroke="#202020" stroke-width="1.8" stroke-miterlimit="10" stroke-linecap="round" stroke-linejoin="round"/>
<path d="M41.2656 32.6719H24.0781V42.8281H41.2656V32.6719Z" stroke="#202020" stroke-width="1.8" stroke-miterlimit="10" stroke-linecap="round" stroke-linejoin="round"/>
<path d="M42.8281 27.9844H22.5156V32.6719H42.8281V27.9844Z" stroke="#202020" stroke-width="1.8" stroke-miterlimit="10" stroke-linecap="round" stroke-linejoin="round"/>
<path d="M9.85938 11.4219H19.2344" stroke="#202020" stroke-width="1.8" stroke-miterlimit="10" stroke-linecap="round" stroke-linejoin="round"/>
<path d="M21.6063 15.5256C23.0443 14.4272 23.9219 12.9944 23.9219 11.4219C23.9219 7.97016 19.7245 5.17188 14.5469 5.17188C9.36914 5.17188 5.17188 7.97016 5.17188 11.4219C5.17188 14.8737 9.36914 17.6719 14.5469 17.6719C15.3976 17.6719 16.2177 17.5896 17.0012 17.448L22.3594 20.7969L21.6063 15.5256Z" stroke="#202020" stroke-width="1.8" stroke-miterlimit="10" stroke-linecap="round" stroke-linejoin="round"/>
</g>
</g>
<defs>
<clipPath id="clip0_209_24011">
<rect width="40" height="40" fill="white" transform="translate(4 4)"/>
</clipPath>
</defs>
</svg>
