<svg width="48" height="48" viewBox="0 0 48 48" fill="none" xmlns="http://www.w3.org/2000/svg">
<g clip-path="url(#clip0_209_24085)">
<mask id="mask0_209_24085" style="mask-type:luminance" maskUnits="userSpaceOnUse" x="4" y="4" width="40" height="40">
<path d="M4.00009 4H44.0001V44H4.00009V4Z" fill="white"/>
</mask>
<g mask="url(#mask0_209_24085)">
<path d="M35.6342 21.9308L32.6592 20.9764C32.5477 20.6566 32.4168 20.3404 32.2673 20.031L33.6139 17.3314C33.7495 17.0593 33.6966 16.7305 33.4816 16.515L31.487 14.5151C31.2722 14.2997 30.9456 14.2464 30.673 14.3825L27.9807 15.7326C27.6721 15.5827 27.3567 15.4515 27.0377 15.3396L26.0859 12.43C25.9902 12.1413 25.7209 11.9465 25.4172 11.9465H22.5962C22.2924 11.9465 22.023 12.1413 21.9273 12.43L20.9755 15.3396C20.6566 15.4515 20.3413 15.5828 20.0327 15.7327L17.3403 14.3825C17.0683 14.2464 16.7419 14.2982 16.5263 14.5151L14.5317 16.515C14.3168 16.7305 14.2638 17.0593 14.3995 17.3314L15.7459 20.031C15.5965 20.3404 15.4656 20.6566 15.3541 20.9764L12.3791 21.9308C12.0913 22.0268 11.897 22.2236 11.897 22.5281V25.4301C11.897 25.7346 12.0913 26.0047 12.3791 26.1007L15.3541 27.0551C15.4656 27.3749 15.5966 27.6911 15.746 28.0006L14.3995 30.7002C14.2638 30.9722 14.3168 31.301 14.5317 31.5164L16.5263 33.5164C16.7427 33.7326 17.0704 33.7858 17.3404 33.6491L20.0327 32.2989C20.3413 32.4488 20.6566 32.58 20.9756 32.6919L21.9274 35.6016C22.023 35.8902 22.2924 36.085 22.5962 36.085H25.4172C25.7209 36.085 25.9902 35.8902 26.086 35.6015L27.0378 32.6918C27.3567 32.58 27.6721 32.4487 27.9807 32.2989L30.673 33.649C30.9437 33.7844 31.2715 33.7312 31.4871 33.5164L33.4816 31.5164C33.6965 31.301 33.7495 30.9722 33.6139 30.7001L32.2674 28.0005C32.4169 27.6911 32.5477 27.3749 32.6593 27.0551L35.6342 26.1007C35.9221 26.0047 36.1163 25.7346 36.1163 25.4301V22.6746C36.1163 22.3702 35.9221 22.0268 35.6342 21.9308Z" stroke="#202020" stroke-width="1.8" stroke-miterlimit="10" stroke-linejoin="round"/>
<path d="M27.7979 24.0158C27.7979 26.1154 26.1005 27.8174 24.0067 27.8174C21.9128 27.8174 20.2154 26.1154 20.2154 24.0158C20.2154 21.9162 21.9128 20.2143 24.0067 20.2143C26.1005 20.2143 27.7979 21.9162 27.7979 24.0158Z" stroke="#202020" stroke-width="1.8" stroke-miterlimit="10" stroke-linejoin="round"/>
<path d="M12.7546 8.97334C12.7546 11.0729 11.0572 12.7749 8.9634 12.7749C6.86949 12.7749 5.17215 11.0729 5.17215 8.97334C5.17215 6.87381 6.86949 5.17178 8.9634 5.17178C11.0572 5.17178 12.7546 6.87381 12.7546 8.97334Z" stroke="#202020" stroke-width="1.8" stroke-miterlimit="10" stroke-linejoin="round"/>
<path d="M42.8156 8.97334C42.8156 11.0729 41.1181 12.7749 39.0243 12.7749C36.9304 12.7749 35.2331 11.0729 35.2331 8.97334C35.2331 6.87381 36.9304 5.17178 39.0243 5.17178C41.1181 5.17178 42.8156 6.87381 42.8156 8.97334Z" stroke="#202020" stroke-width="1.8" stroke-miterlimit="10" stroke-linejoin="round"/>
<path d="M12.7675 39.0266C12.7675 41.1261 11.07 42.8281 8.97622 42.8281C6.88231 42.8281 5.18497 41.1261 5.18497 39.0266C5.18497 36.927 6.88231 35.225 8.97622 35.225C11.07 35.225 12.7675 36.927 12.7675 39.0266Z" stroke="#202020" stroke-width="1.8" stroke-miterlimit="10" stroke-linejoin="round"/>
<path d="M42.8284 39.0266C42.8284 41.1261 41.131 42.8281 39.0372 42.8281C36.9433 42.8281 35.2459 41.1261 35.2459 39.0266C35.2459 36.927 36.9433 35.225 39.0372 35.225C41.131 35.225 42.8284 36.927 42.8284 39.0266Z" stroke="#202020" stroke-width="1.8" stroke-miterlimit="10" stroke-linejoin="round"/>
<path d="M32.5034 32.4974L36.3519 36.3433" stroke="#202020" stroke-width="1.8" stroke-miterlimit="10" stroke-linejoin="round"/>
<path d="M11.6487 11.6569L15.5193 15.5249" stroke="#202020" stroke-width="1.8" stroke-miterlimit="10" stroke-linejoin="round"/>
<path d="M15.5402 32.5277L11.7038 36.3877" stroke="#202020" stroke-width="1.8" stroke-miterlimit="10" stroke-linejoin="round"/>
<path d="M36.312 11.6285L32.4667 15.4973" stroke="#202020" stroke-width="1.8" stroke-miterlimit="10" stroke-linejoin="round"/>
</g>
</g>
<defs>
<clipPath id="clip0_209_24085">
<rect width="40" height="40" fill="white" transform="translate(4 4)"/>
</clipPath>
</defs>
</svg>
