<svg width="48" height="48" viewBox="0 0 48 48" fill="none" xmlns="http://www.w3.org/2000/svg">
<g clip-path="url(#clip0_209_24113)">
<mask id="mask0_209_24113" style="mask-type:luminance" maskUnits="userSpaceOnUse" x="0" y="0" width="48" height="48">
<path d="M9.15527e-05 3.8147e-06H48.0001V48H9.15527e-05V3.8147e-06Z" fill="white"/>
</mask>
<g mask="url(#mask0_209_24113)">
<path d="M19.4815 11.1968C19.4815 9.59884 18.8488 8.0664 17.7192 6.93653C16.5895 5.80656 15.0531 5.17178 13.4564 5.17178H1.40646V35.2968H13.4564C16.7853 35.2968 19.4815 37.9937 19.4815 41.3203V41.3218V11.1968Z" stroke="#202020" stroke-width="1.8" stroke-miterlimit="10" stroke-linecap="round" stroke-linejoin="round"/>
<path d="M7.43149 11.1968H13.4565" stroke="#202020" stroke-width="1.8" stroke-miterlimit="10" stroke-linecap="round" stroke-linejoin="round"/>
<path d="M25.5065 11.1968H31.5316" stroke="#202020" stroke-width="1.8" stroke-miterlimit="10" stroke-linecap="round" stroke-linejoin="round"/>
<path d="M7.43149 17.2219H11.9502" stroke="#202020" stroke-width="1.8" stroke-miterlimit="10" stroke-linecap="round" stroke-linejoin="round"/>
<path d="M25.5065 17.2219H30.0253" stroke="#202020" stroke-width="1.8" stroke-miterlimit="10" stroke-linecap="round" stroke-linejoin="round"/>
<path d="M7.43149 23.2468H13.4565" stroke="#202020" stroke-width="1.8" stroke-miterlimit="10" stroke-linecap="round" stroke-linejoin="round"/>
<path d="M7.43149 29.2717H11.9502" stroke="#202020" stroke-width="1.8" stroke-miterlimit="10" stroke-linecap="round" stroke-linejoin="round"/>
<path d="M39.6502 35.8817L46.594 42.8281" stroke="#202020" stroke-width="1.8" stroke-miterlimit="10" stroke-linecap="round" stroke-linejoin="round"/>
<path d="M19.4815 41.3218V11.1968C19.4815 9.59884 20.1141 8.06631 21.2438 6.93644C22.3735 5.80647 23.9099 5.17178 25.5065 5.17178H37.5565V22.6451C36.4268 22.0668 35.1465 21.7405 33.7908 21.7405C29.2195 21.7405 25.5065 25.4526 25.5065 30.0249C25.5065 32.027 26.2219 33.8643 27.4044 35.2967H25.5065C22.1776 35.2967 19.4815 37.9936 19.4815 41.3203V41.3218Z" stroke="#202020" stroke-width="1.8" stroke-miterlimit="10" stroke-linecap="round" stroke-linejoin="round"/>
<path d="M33.7908 21.7406C38.3623 21.7406 42.0752 25.4527 42.0752 30.025C42.0752 34.5972 38.3623 38.3093 33.7908 38.3093C29.2194 38.3093 25.5065 34.5972 25.5065 30.025C25.5065 25.4527 29.2194 21.7406 33.7908 21.7406Z" stroke="#202020" stroke-width="1.8" stroke-miterlimit="10" stroke-linecap="round" stroke-linejoin="round"/>
</g>
</g>
<defs>
<clipPath id="clip0_209_24113">
<rect width="48" height="48" fill="white"/>
</clipPath>
</defs>
</svg>
