<svg width="48" height="48" viewBox="0 0 48 48" fill="none" xmlns="http://www.w3.org/2000/svg">
<g clip-path="url(#clip0_209_24140)">
<path d="M26.109 36.3356L30.5157 33.7913L29.839 31.7298C29.301 30.0908 30.307 28.348 31.9954 27.9941L34.1197 27.5488V22.4603L31.9957 22.0151C30.3076 21.6612 29.3017 19.9187 29.8392 18.2799L30.5156 16.2179L26.1089 13.6736L24.6613 15.2904C23.5108 16.5754 21.4987 16.5754 20.3482 15.2904L18.9006 13.6736L14.4939 16.2179L15.1704 18.2804C15.7081 19.9195 14.7018 21.6621 13.0133 22.0157L10.8897 22.4605V27.549L13.0137 27.9938C14.7023 28.3474 15.7086 30.0904 15.1706 31.7296L14.4938 33.7915L18.9006 36.3358L20.3478 34.7188C21.4984 33.4332 23.511 33.4332 24.6616 34.7188L26.109 36.3356Z" stroke="#202020" stroke-width="1.8" stroke-miterlimit="10" stroke-linecap="round" stroke-linejoin="round"/>
<path d="M22.5048 29.2234C24.8348 29.2234 26.7236 27.3346 26.7236 25.0046C26.7236 22.6747 24.8348 20.7859 22.5048 20.7859C20.1749 20.7859 18.2861 22.6747 18.2861 25.0046C18.2861 27.3346 20.1749 29.2234 22.5048 29.2234Z" stroke="#202020" stroke-width="1.8" stroke-miterlimit="10" stroke-linecap="round" stroke-linejoin="round"/>
<path d="M27.5467 3.94751C36.0587 6.00457 42.7829 13.1651 43.831 22.3453C44.2717 26.2056 43.654 29.9429 42.2077 33.2689" stroke="#202020" stroke-width="1.8" stroke-miterlimit="10" stroke-linecap="round" stroke-linejoin="round"/>
<path d="M1.85649 30.7617C1.52209 29.6126 1.28012 28.4199 1.13978 27.1912C-0.201974 15.4387 8.26703 4.82662 20.0559 3.48853" stroke="#202020" stroke-width="1.8" stroke-miterlimit="10" stroke-linecap="round" stroke-linejoin="round"/>
<path d="M38.0688 39.5111C34.7132 43.0399 30.1401 45.455 24.9148 46.0481C16.997 46.9468 9.59533 43.4334 5.18167 37.4685" stroke="#202020" stroke-width="1.8" stroke-miterlimit="10" stroke-linecap="round" stroke-linejoin="round"/>
<path d="M16.4165 1L20.0559 3.48841L17.6395 6.99644" stroke="#202020" stroke-width="1.8" stroke-miterlimit="10" stroke-linecap="round" stroke-linejoin="round"/>
<path d="M4.84036 41.8545L5.18246 37.468L9.43796 37.8002" stroke="#202020" stroke-width="1.8" stroke-miterlimit="10" stroke-linecap="round" stroke-linejoin="round"/>
<path d="M46.1875 31.3703L42.2059 33.2683L40.3669 29.4282" stroke="#202020" stroke-width="1.8" stroke-miterlimit="10" stroke-linecap="round" stroke-linejoin="round"/>
</g>
<defs>
<clipPath id="clip0_209_24140">
<rect width="48" height="48" fill="white"/>
</clipPath>
</defs>
</svg>
