<svg width="48" height="48" viewBox="0 0 48 48" fill="none" xmlns="http://www.w3.org/2000/svg">
<g clip-path="url(#clip0_209_24248)">
<path d="M30.8099 41.4041H4.21875C2.66541 41.4041 1.40625 40.1449 1.40625 38.5916V11.6748H44.5267V29.3932" stroke="#202020" stroke-width="1.8" stroke-miterlimit="10" stroke-linecap="round" stroke-linejoin="round"/>
<path d="M44.5267 11.7446V6.65625C44.5267 5.10291 43.2675 3.84375 41.7142 3.84375H4.21875C2.66541 3.84375 1.40625 5.10291 1.40625 6.65625V11.7447" stroke="#202020" stroke-width="1.8" stroke-miterlimit="10" stroke-linecap="round" stroke-linejoin="round"/>
<path d="M35.4067 26.5767C33.0109 22.1665 28.3383 19.1726 22.9666 19.1726C15.153 19.1726 8.81885 25.5067 8.81885 33.3203H28.6426" stroke="#202020" stroke-width="1.8" stroke-miterlimit="10" stroke-linecap="round" stroke-linejoin="round"/>
<path d="M43.9778 41.6106C47.4651 38.1233 47.4651 32.4694 43.9778 28.9822C40.4906 25.495 34.8367 25.495 31.3495 28.9822C27.8622 32.4694 27.8622 38.1233 31.3495 41.6106C34.8367 45.0978 40.4906 45.0978 43.9778 41.6106Z" stroke="#202020" stroke-width="1.8" stroke-miterlimit="10" stroke-linecap="round" stroke-linejoin="round"/>
<path d="M34.7162 35.329L36.6599 37.2726L40.6118 33.3206" stroke="#202020" stroke-width="1.8" stroke-miterlimit="10" stroke-linecap="round" stroke-linejoin="round"/>
<path d="M25.7465 28.3424L29.7778 21.1235" stroke="#202020" stroke-width="1.8" stroke-miterlimit="10" stroke-linecap="round" stroke-linejoin="round"/>
<path d="M16.155 21.1235L20.1792 28.3294" stroke="#202020" stroke-width="1.8" stroke-miterlimit="10" stroke-linecap="round" stroke-linejoin="round"/>
<path d="M22.9664 27.7849C19.9093 27.7849 17.4308 30.2633 17.4308 33.3205H28.502C28.502 30.2633 26.0236 27.7849 22.9664 27.7849Z" stroke="#202020" stroke-width="1.8" stroke-miterlimit="10" stroke-linecap="round" stroke-linejoin="round"/>
</g>
<defs>
<clipPath id="clip0_209_24248">
<rect width="48" height="48" fill="white"/>
</clipPath>
</defs>
</svg>
