<svg width="48" height="48" viewBox="0 0 48 48" fill="none" xmlns="http://www.w3.org/2000/svg">
<g clip-path="url(#clip0_209_24258)">
<path d="M24 1.40625L26.2047 5.00513L30.3088 5.98987L27.5673 9.19875L27.899 13.4062L24 11.7906L20.1009 13.4062L20.4327 9.19875L17.6912 5.98987L21.7953 5.00513L24 1.40625Z" stroke="#202020" stroke-width="1.8" stroke-miterlimit="10" stroke-linecap="round" stroke-linejoin="round"/>
<path d="M40.2849 6.9375L38.0802 10.5364L33.9762 11.5211L36.7176 14.73L36.3859 18.9375L40.2849 17.3218L44.184 18.9375L43.8523 14.73L46.5937 11.5211L42.4896 10.5364L40.2849 6.9375Z" stroke="#202020" stroke-width="1.8" stroke-miterlimit="10" stroke-linecap="round" stroke-linejoin="round"/>
<path d="M7.71506 6.9375L9.91978 10.5364L14.0238 11.5211L11.2823 14.73L11.614 18.9375L7.71506 17.3218L3.816 18.9375L4.14769 14.73L1.40625 11.5211L5.51034 10.5364L7.71506 6.9375Z" stroke="#202020" stroke-width="1.8" stroke-miterlimit="10" stroke-linecap="round" stroke-linejoin="round"/>
<path d="M17.0625 43.8553H18.2081C19.3959 43.8553 20.5341 44.3269 21.3741 45.1669C21.7931 45.5869 22.2881 45.9141 22.8262 46.1372C23.3644 46.3594 23.9456 46.4775 24.5391 46.4775H33.885C36.0291 46.4775 37.8628 44.9363 38.2322 42.8241L39.705 34.3875C40.0716 32.2931 38.4591 30.375 36.3328 30.375H29.1675L30.6759 25.6791C30.8081 25.276 30.8709 24.8663 30.8709 24.4632C30.8709 22.8178 29.8228 21.286 28.1737 20.7478C27.2737 20.4535 26.3062 20.9438 26.0119 21.8438L23.8762 28.4578C23.4816 29.6672 22.5488 30.6263 21.3516 31.0557L17.0625 32.5922" stroke="#202020" stroke-width="1.8" stroke-miterlimit="10" stroke-linecap="round" stroke-linejoin="round"/>
<path d="M17.0625 29.7188H9.9375V46.5938H17.0625V29.7188Z" stroke="#202020" stroke-width="1.8" stroke-miterlimit="10" stroke-linecap="round" stroke-linejoin="round"/>
</g>
<defs>
<clipPath id="clip0_209_24258">
<rect width="48" height="48" fill="white"/>
</clipPath>
</defs>
</svg>
