<svg width="48" height="48" viewBox="0 0 48 48" fill="none" xmlns="http://www.w3.org/2000/svg">
<mask id="mask0_209_24322" style="mask-type:luminance" maskUnits="userSpaceOnUse" x="2" y="2" width="44" height="44">
<path d="M2 2H46V46H2V2Z" fill="white"/>
</mask>
<g mask="url(#mask0_209_24322)">
<path d="M44.7109 29.1562H3.28906V6.8125C3.28906 5.38869 4.44337 4.23438 5.86719 4.23438H42.1328C43.5566 4.23438 44.7109 5.38869 44.7109 6.8125V29.1562Z" stroke="#202020" stroke-width="1.8" stroke-miterlimit="10" stroke-linecap="round" stroke-linejoin="round"/>
<path d="M13.6875 43.7656H34.3125" stroke="#202020" stroke-width="1.8" stroke-miterlimit="10" stroke-linecap="round" stroke-linejoin="round"/>
<path d="M31.7344 43.7656H24H16.2656C17.9164 42.1149 18.8438 39.876 18.8438 37.5414V36.8906H24H29.1563V37.5414C29.1563 39.876 30.0836 42.1149 31.7344 43.7656Z" stroke="#202020" stroke-width="1.8" stroke-miterlimit="10" stroke-linecap="round" stroke-linejoin="round"/>
<path d="M42.1328 36.8906H5.86719C4.44337 36.8906 3.28906 35.7363 3.28906 34.3125V29.1562H44.7109V34.3125C44.7109 35.7363 43.5566 36.8906 42.1328 36.8906Z" stroke="#202020" stroke-width="1.8" stroke-miterlimit="10" stroke-linecap="round" stroke-linejoin="round"/>
<path d="M24 9.39062L18.8438 16.2656H21.4219C21.4219 21.5698 18.5462 26.457 13.9096 29.0328L13.6875 29.1562H34.3125L34.0904 29.0328C29.4538 26.457 26.5781 21.5698 26.5781 16.2656H29.1563L24 9.39062Z" stroke="#202020" stroke-width="1.8" stroke-miterlimit="10" stroke-linecap="round" stroke-linejoin="round"/>
</g>
</svg>
