<svg width="150" height="80" viewBox="0 0 150 80" fill="none" xmlns="http://www.w3.org/2000/svg">
<path fill-rule="evenodd" clip-rule="evenodd" d="M74.8227 29.9505C74.8398 25.7356 76.2392 22.9196 77.9009 21.1884C80.6989 18.2678 84.5986 18.6171 87.3275 21.2755C89.1113 23.4445 90.4236 26.1199 90.5628 29.0584C90.5628 31.1223 90.2656 33.9729 88.5694 36.334C86.7856 38.8348 83.777 40.7066 80.0519 38.8873C78.81 40.6365 78.2331 41.2134 77.324 42.0351C79.9643 43.3645 82.9029 42.3502 83.6895 42.1231C82.273 43.5046 77.7262 44.4667 75.9945 44.5188C72.6887 44.6059 69.7857 43.6087 67.3895 42.0346C72.339 43.6967 74.2453 42.1922 74.9974 41.9475C80.5413 38.7297 81.2938 32.4508 81.2938 29.3727C81.1712 26.6618 79.8773 22.4293 78.9672 22.0971C77.8304 22.0971 76.0116 26.8019 76.1692 29.88C76.0821 34.095 74.438 36.5437 72.7763 38.2399C70.0829 40.9683 66.4103 40.0587 64.0842 37.9077C62.1428 35.9838 60.6913 33.0808 60.6038 29.7574C60.6038 26.7318 61.4258 23.5841 63.6644 21.4501C66.3228 19.0369 68.7014 18.7742 71.0276 20.1912C71.8671 18.7222 72.7768 18.0402 73.756 17.043C72.6892 16.1509 69.2963 16.2209 67.5471 16.9734C66.9702 16.8859 71.692 14.3151 75.6628 14.6473C80.1224 14.7344 81.7836 15.8016 83.6024 16.9734C80.1219 16.0463 78.6704 15.9592 76.659 16.7983C72.0768 18.7047 69.6986 24.2486 69.8732 29.5482C69.8732 32.8536 71.2897 36.9114 72.1118 37.0685C72.6012 37.3137 75.0153 33.3434 74.8227 29.9505ZM38.2719 50.2613V53.3708H38.424C38.9087 53.3708 39.2585 53.2196 39.4778 52.9155C39.6953 52.6114 39.8336 52.1621 39.8953 51.569H40.1087V55.5697H39.8953C39.8492 55.1334 39.7548 54.7767 39.6105 54.4988C39.4645 54.22 39.2972 54.0325 39.105 53.9371C38.9143 53.8426 38.6355 53.7938 38.2724 53.7938V55.9457C38.2724 56.3669 38.2894 56.6236 38.3263 56.7171C38.3643 56.815 38.4349 56.8967 38.5263 56.9485C38.6226 57.0097 38.7802 57.0383 38.9995 57.0383H39.4552C40.169 57.0383 40.74 56.8729 41.1708 56.5425C41.6017 56.213 41.9095 55.7098 42.0979 55.0324H42.3058L41.9634 57.4613H35.3587V57.2535H35.6121C35.8333 57.2535 36.0121 57.213 36.1467 57.1346C36.2448 57.0825 36.3199 56.9922 36.372 56.8637C36.4144 56.7747 36.4356 56.5379 36.4356 56.1536V51.129C36.4356 50.7825 36.4259 50.571 36.407 50.4926C36.3753 50.3702 36.3018 50.2626 36.1992 50.1885C36.055 50.083 35.8605 50.0309 35.6126 50.0309H35.3592V49.8212H41.7528V52.081H41.5394C41.4298 51.5294 41.2782 51.1322 41.0796 50.8921C40.8837 50.6521 40.6049 50.4756 40.2432 50.3641C40.0335 50.2949 39.6396 50.2613 39.0603 50.2613H38.2719ZM48.3003 52.1944V56.3172C48.3003 56.7185 48.3367 56.9706 48.4118 57.0687C48.487 57.1687 48.6386 57.2323 48.8694 57.2595V57.4613H46.7212V56.7577C46.4691 57.0572 46.2194 57.277 45.9673 57.4139C45.707 57.5522 45.416 57.6227 45.1213 57.6189C44.8341 57.6226 44.5547 57.5262 44.331 57.3461C44.1001 57.1637 43.9444 56.9503 43.8656 56.7051C43.7868 56.4614 43.7462 56.0365 43.7462 55.4264V53.3367C43.7462 52.939 43.7094 52.6925 43.6366 52.5943C43.5633 52.4962 43.4117 52.4331 43.179 52.4026V52.1948H45.3249V55.7946C45.3249 56.1688 45.3424 56.4112 45.3788 56.5208C45.4134 56.6287 45.4692 56.7116 45.548 56.7692C45.6257 56.8257 45.7196 56.8555 45.8157 56.854C45.9502 56.854 46.0714 56.8171 46.1806 56.7462C46.3309 56.648 46.5115 56.4517 46.7212 56.154V53.3372C46.7212 52.9395 46.6848 52.693 46.6115 52.5948C46.5382 52.4966 46.3866 52.4335 46.1516 52.4031V52.1953H48.3003V52.1944ZM51.8153 52.1944V53.3888C52.1655 52.8441 52.4711 52.4824 52.7328 52.304C52.9964 52.1248 53.2503 52.0368 53.4945 52.0368C53.7042 52.0368 53.8733 52.0999 53.9982 52.2303C54.1249 52.3598 54.1866 52.5427 54.1866 52.7782C54.1866 53.0303 54.1272 53.2266 54.0041 53.3648C53.8829 53.5035 53.735 53.5745 53.5618 53.5745C53.3636 53.5745 53.1908 53.5086 53.0448 53.3818C52.8964 53.2533 52.8102 53.1819 52.7853 53.1685C52.7458 53.1449 52.7004 53.1331 52.6545 53.1344C52.5471 53.1344 52.4434 53.174 52.3453 53.257C52.1913 53.3855 52.0761 53.5694 51.9973 53.8049C51.8762 54.1684 51.8163 54.5707 51.8163 55.0108V56.2204L51.8222 56.5374C51.8222 56.7517 51.8356 56.8876 51.8605 56.948C51.9066 57.0498 51.972 57.1245 52.0605 57.1701C52.149 57.2185 52.2987 57.2475 52.5084 57.259V57.4609H49.6643V57.259C49.8933 57.2392 50.0472 57.1761 50.1279 57.0683C50.209 56.9627 50.2491 56.6803 50.2491 56.2204V53.309C50.2491 53.0095 50.2357 52.8169 50.2048 52.734C50.1666 52.6284 50.1127 52.5515 50.0417 52.5036C49.9707 52.4533 49.8436 52.4206 49.6648 52.4017V52.1939L51.8153 52.1944ZM57.0265 52.0372C57.4841 52.0372 57.9108 52.1543 58.3053 52.3911C58.6997 52.628 58.9992 52.9634 59.2034 53.3998C59.4093 53.8344 59.5112 54.3117 59.5112 54.8306C59.5112 55.5785 59.3227 56.2038 58.9421 56.7051C58.4845 57.3153 57.8518 57.6185 57.0441 57.6185C56.2519 57.6185 55.6404 57.3397 55.2133 56.7839C54.7843 56.2278 54.5709 55.584 54.5709 54.8536C54.5709 54.0975 54.7903 53.4399 55.2267 52.8782C55.6649 52.3179 56.2653 52.0372 57.0265 52.0372ZM57.0496 52.4367C56.8574 52.4367 56.6938 52.5077 56.5574 52.6538C56.4192 52.7985 56.3289 53.0832 56.2865 53.5095C56.2418 53.9371 56.2206 54.5292 56.2206 55.2859C56.2206 55.6882 56.2478 56.0637 56.2994 56.4135C56.3418 56.6807 56.4303 56.8826 56.5648 57.0208C56.6994 57.1613 56.8533 57.2305 57.0265 57.2305C57.1957 57.2305 57.3362 57.1821 57.4496 57.0899C57.5956 56.9614 57.6938 56.7821 57.7417 56.5535C57.8168 56.1973 57.8555 55.4762 57.8555 54.3901C57.8555 53.7509 57.8187 53.3127 57.7477 53.0745C57.6767 52.8358 57.5708 52.663 57.4325 52.5533C57.3344 52.4754 57.2076 52.4367 57.0496 52.4367ZM62.3516 56.9268V58.8861C62.3516 59.158 62.3728 59.3423 62.4147 59.4386C62.4545 59.5313 62.5252 59.6074 62.6147 59.6538C62.705 59.6981 62.882 59.7211 63.1455 59.7211V59.928H60.1416V59.7211C60.3743 59.7128 60.5475 59.6474 60.6604 59.523C60.7355 59.4359 60.7719 59.2124 60.7719 58.8534V53.2925C60.7719 52.9206 60.7295 52.6824 60.6434 52.5787C60.5567 52.4768 60.3895 52.4174 60.1416 52.4022V52.1944H62.3511V52.8865C62.5336 52.6155 62.7221 52.4211 62.9142 52.2999C63.1805 52.1273 63.4913 52.036 63.8086 52.0372C64.1971 52.0372 64.5487 52.158 64.8662 52.4026C65.1832 52.6464 65.4237 52.9833 65.5892 53.4132C65.7541 53.8445 65.8371 54.3062 65.8371 54.802C65.8371 55.3366 65.7523 55.8236 65.5813 56.2637C65.4104 56.7056 65.162 57.042 64.8371 57.2733C64.5123 57.5037 64.1505 57.6189 63.7524 57.6189C63.4705 57.6209 63.1922 57.5552 62.9409 57.4272C62.7552 57.3309 62.5571 57.1636 62.3516 56.9268ZM62.3516 56.3577C62.6746 56.8148 63.0184 57.0434 63.3879 57.0434C63.5897 57.0434 63.757 56.9379 63.8897 56.7231C64.0842 56.407 64.1823 55.808 64.1823 54.9214C64.1823 54.0113 64.0745 53.3906 63.8612 53.0556C63.7188 52.8344 63.5266 52.7224 63.2861 52.7224C62.9073 52.7224 62.5953 52.998 62.3516 53.5459V56.3577ZM71.1898 54.6389H68.301C68.3337 55.3366 68.5203 55.89 68.8586 56.296C69.1161 56.6075 69.4277 56.7632 69.7931 56.7632C70.0184 56.7632 70.2239 56.7001 70.4069 56.5752C70.5912 56.4485 70.7875 56.2213 70.999 55.8964L71.1898 56.0199C70.905 56.6024 70.5893 57.0134 70.2433 57.2558C69.899 57.4987 69.4991 57.6194 69.0433 57.6194C68.2627 57.6194 67.6706 57.3199 67.2683 56.7176C66.9453 56.2333 66.7836 55.6329 66.7836 54.9159C66.7836 54.0376 67.0218 53.3372 67.4969 52.816C67.972 52.2967 68.5295 52.0377 69.1678 52.0377C69.7004 52.0377 70.164 52.2547 70.5562 52.6929C70.9492 53.1307 71.1607 53.7786 71.1898 54.6389ZM69.805 54.262C69.805 53.6565 69.7723 53.2422 69.7051 53.0155C69.6392 52.7906 69.5378 52.6197 69.3991 52.5045C69.3203 52.4372 69.2148 52.4026 69.0834 52.4026C68.8876 52.4026 68.7281 52.498 68.6047 52.6906C68.3839 53.0238 68.272 53.4828 68.272 54.0638V54.262H69.805ZM74.7573 56.6844C74.1145 57.2512 73.538 57.5341 73.0261 57.5341C72.7261 57.5341 72.4763 57.436 72.2777 57.2378C72.0777 57.0415 71.98 56.7941 71.98 56.4983C71.98 56.096 72.151 55.7342 72.4975 55.4135C72.8436 55.0923 73.5956 54.6647 74.7573 54.133V53.6021C74.7573 53.2035 74.7356 52.9542 74.6914 52.8496C74.649 52.7459 74.5665 52.6561 74.4472 52.5787C74.3258 52.5019 74.1848 52.4619 74.0412 52.4635C73.797 52.4635 73.5951 52.5192 73.4371 52.6271C73.3412 52.6939 73.291 52.7727 73.291 52.863C73.291 52.9422 73.3449 53.0404 73.4486 53.1574C73.591 53.3196 73.6638 53.4749 73.6638 53.6247C73.6638 53.8099 73.5947 53.9657 73.4583 54.0961C73.32 54.2247 73.1413 54.2906 72.9201 54.2906C72.6837 54.2906 72.4855 54.2168 72.3256 54.0744C72.1662 53.932 72.0856 53.7648 72.0856 53.5749C72.0856 53.304 72.1929 53.0459 72.4067 52.7999C72.6219 52.5533 72.9201 52.3653 73.303 52.2321C73.6876 52.1015 74.0912 52.0354 74.4974 52.0368C74.9974 52.0368 75.3918 52.1423 75.6835 52.3538C75.9743 52.5672 76.1623 52.7966 76.2498 53.0441C76.3028 53.2017 76.3282 53.5652 76.3282 54.133V56.1771C76.3282 56.4171 76.3378 56.5697 76.3567 56.6305C76.3765 56.6918 76.4028 56.7383 76.4415 56.7692C76.4784 56.7978 76.5226 56.8134 76.5701 56.8134C76.6682 56.8134 76.7691 56.7443 76.8705 56.6056L77.0378 56.7406C76.8507 57.0194 76.6572 57.2212 76.4544 57.3461C76.2544 57.471 76.0259 57.5341 75.7706 57.5341C75.4701 57.5341 75.2361 57.4632 75.0669 57.3226C74.8964 57.1825 74.7932 56.9692 74.7573 56.6844ZM74.7573 56.2734V54.5094C74.3029 54.7767 73.9647 55.0619 73.7435 55.3651C73.5956 55.5693 73.5223 55.7729 73.5223 55.9789C73.5223 56.1517 73.5841 56.3038 73.709 56.436C73.8034 56.5379 73.9338 56.5881 74.1029 56.5881C74.2914 56.5881 74.5084 56.483 74.7573 56.2734ZM79.7699 52.1944V52.875C80.0408 52.5824 80.3007 52.369 80.5482 52.2368C80.7935 52.1032 81.0688 52.0344 81.3481 52.0368C81.6882 52.0368 81.9725 52.1303 82.1979 52.3211C82.4227 52.5091 82.5729 52.7459 82.6481 53.0266C82.7103 53.2418 82.7388 53.6537 82.7388 54.2615V56.3107C82.7388 56.7167 82.7748 56.9706 82.8476 57.0687C82.9213 57.1687 83.0752 57.2323 83.3075 57.2595V57.4613H80.6426V57.2595C80.8426 57.2323 80.9846 57.1498 81.0712 57.0111C81.1316 56.9167 81.162 56.6844 81.162 56.3107V53.9689C81.162 53.5362 81.144 53.2634 81.1117 53.1519C81.0839 53.0483 81.0233 52.9565 80.9389 52.8902C80.8633 52.8291 80.7689 52.7961 80.6717 52.7966C80.3487 52.7966 80.0487 53.027 79.7699 53.4906V56.3112C79.7699 56.7052 79.8058 56.9554 79.8796 57.0618C79.9542 57.1673 80.0883 57.2328 80.2892 57.26V57.4618H77.6235V57.26C77.8447 57.2365 78.0023 57.1655 78.0967 57.0438C78.1598 56.9618 78.193 56.7171 78.193 56.3112V53.3367C78.193 52.939 78.1562 52.6925 78.0834 52.5943C78.0105 52.4962 77.8566 52.4331 77.6235 52.4026V52.1948L79.7699 52.1944ZM91.6637 53.4113C92.388 53.5786 92.8986 53.785 93.1898 54.0251C93.611 54.367 93.8207 54.8099 93.8207 55.3536C93.8207 55.9287 93.5903 56.4038 93.1285 56.7793C92.5618 57.2346 91.7365 57.4613 90.6554 57.4613H86.7727V57.2535C87.1275 57.2535 87.3648 57.2212 87.4925 57.1535C87.6169 57.0885 87.7058 57.0042 87.7551 56.8978C87.8072 56.7918 87.8325 56.5342 87.8325 56.1209V51.1626C87.8325 50.7497 87.8072 50.4903 87.7551 50.3825C87.7058 50.2747 87.6146 50.1899 87.4879 50.1267C87.3611 50.0608 87.1224 50.0304 86.7722 50.0304V49.8208H90.4342C91.3088 49.8208 91.93 49.9 92.2936 50.0558C92.659 50.2115 92.9451 50.4438 93.1548 50.7534C93.3663 51.0631 93.47 51.3944 93.47 51.7423C93.47 52.1114 93.3377 52.4381 93.0705 52.727C92.806 53.0137 92.3369 53.2422 91.6637 53.4113ZM89.6135 53.2574C90.1462 53.2574 90.5388 53.198 90.7927 53.0791C91.0466 52.9574 91.2411 52.7883 91.377 52.5713C91.5121 52.3533 91.5793 52.0746 91.5793 51.7363C91.5793 51.3999 91.512 51.1235 91.3793 50.9055C91.2462 50.6903 91.0563 50.5267 90.8079 50.4134C90.5596 50.3 90.1619 50.2461 89.6135 50.2502V53.2574ZM89.6135 53.6984V56.148L89.608 56.4305C89.608 56.6323 89.6573 56.7858 89.7619 56.8895C89.8656 56.9922 90.0177 57.0434 90.2209 57.0434C90.5213 57.0434 90.7978 56.9784 91.0517 56.8434C91.3017 56.715 91.5055 56.5121 91.6351 56.2628C91.7719 56.0107 91.8383 55.7283 91.8383 55.4168C91.8383 55.0587 91.7563 54.738 91.5908 54.4546C91.4254 54.1721 91.1982 53.974 90.9079 53.8606C90.6195 53.7477 90.1868 53.6938 89.6135 53.6984ZM97.5227 56.6844C96.8809 57.2512 96.3039 57.5341 95.792 57.5341C95.4925 57.5341 95.2422 57.436 95.0441 57.2378C94.8441 57.0415 94.7464 56.7941 94.7464 56.4983C94.7464 56.096 94.9174 55.7342 95.2639 55.4135C95.6095 55.0923 96.362 54.6647 97.5227 54.133V53.6021C97.5227 53.2035 97.502 52.9542 97.4578 52.8496C97.4154 52.7459 97.3329 52.6561 97.2131 52.5787C97.0918 52.5018 96.9507 52.4618 96.8071 52.4635C96.5634 52.4635 96.3615 52.5192 96.2039 52.6271C96.1076 52.6939 96.0574 52.7727 96.0574 52.863C96.0574 52.9422 96.1113 53.0404 96.215 53.1574C96.3574 53.3196 96.4311 53.4749 96.4311 53.6247C96.4311 53.8099 96.362 53.9657 96.2251 54.0961C96.0864 54.2247 95.9076 54.2906 95.6869 54.2906C95.4501 54.2906 95.2524 54.2168 95.0929 54.0744C94.9326 53.932 94.8529 53.7648 94.8529 53.5749C94.8529 53.304 94.9598 53.0459 95.1731 52.7999C95.3892 52.5533 95.6869 52.3653 96.0694 52.2321C96.454 52.1014 96.8576 52.0354 97.2638 52.0368C97.7633 52.0368 98.1573 52.1423 98.4499 52.3538C98.7407 52.5672 98.9286 52.7966 99.0153 53.0441C99.0692 53.2017 99.0946 53.5652 99.0946 54.133V56.1771C99.0946 56.4171 99.1042 56.5697 99.1231 56.6305C99.142 56.6913 99.1692 56.7383 99.2079 56.7692C99.2448 56.7978 99.289 56.8134 99.3365 56.8134C99.4346 56.8134 99.5346 56.7443 99.636 56.6056L99.8033 56.7406C99.6171 57.0194 99.4226 57.2212 99.2208 57.3461C99.0151 57.4727 98.7775 57.5379 98.5361 57.5341C98.2365 57.5341 98.0015 57.4632 97.8324 57.3226C97.6633 57.1821 97.5596 56.9692 97.5227 56.6844ZM97.5227 56.2734V54.5094C97.0693 54.7767 96.7306 55.0619 96.5094 55.3651C96.362 55.5693 96.2887 55.7729 96.2887 55.9789C96.2887 56.1517 96.35 56.3038 96.4749 56.436C96.5684 56.5379 96.6998 56.5881 96.8689 56.5881C97.0573 56.5881 97.2753 56.483 97.5227 56.2734ZM102.536 52.1944V52.875C102.808 52.5824 103.067 52.369 103.315 52.2368C103.56 52.103 103.836 52.0341 104.115 52.0368C104.455 52.0368 104.739 52.1303 104.965 52.3211C105.19 52.5091 105.34 52.7459 105.415 53.0266C105.476 53.2418 105.505 53.6537 105.505 54.2615V56.3107C105.505 56.7167 105.542 56.9706 105.614 57.0687C105.687 57.1687 105.841 57.2323 106.074 57.2595V57.4613H103.409V57.2595C103.609 57.2323 103.751 57.1498 103.838 57.0111C103.897 56.9167 103.928 56.6844 103.928 56.3107V53.9689C103.928 53.5362 103.911 53.2634 103.879 53.1519C103.85 53.0486 103.79 52.957 103.706 52.8902C103.63 52.8291 103.536 52.7961 103.439 52.7966C103.116 52.7966 102.815 53.027 102.536 53.4906V56.3112C102.536 56.7052 102.573 56.9554 102.645 57.0618C102.721 57.1673 102.855 57.2328 103.055 57.26V57.4618H100.39V57.26C100.612 57.2365 100.769 57.1655 100.864 57.0438C100.927 56.9618 100.959 56.7171 100.959 56.3112V53.3367C100.959 52.939 100.923 52.6925 100.85 52.5943C100.776 52.4962 100.623 52.4331 100.39 52.4026V52.1948L102.536 52.1944ZM108.942 49.8212V54.8477L110.165 53.6477C110.417 53.404 110.575 53.2266 110.635 53.1169C110.697 53.01 110.728 52.9035 110.728 52.8017C110.728 52.6999 110.687 52.6155 110.604 52.5478C110.522 52.4801 110.361 52.4326 110.119 52.4022V52.1944H112.479V52.4022C112.272 52.4081 112.07 52.4634 111.889 52.5635C111.72 52.6579 111.389 52.9459 110.897 53.4265L110.322 53.9901L111.562 55.8052C112.062 56.5406 112.359 56.9535 112.452 57.0438C112.579 57.1724 112.741 57.2448 112.938 57.26V57.4618H110.216V57.26C110.336 57.26 110.422 57.2365 110.478 57.1908C110.532 57.1466 110.559 57.0982 110.559 57.0443C110.559 56.9577 110.48 56.7987 110.322 56.5655L109.28 55.0394L108.941 55.3725V56.3185C108.941 56.7199 108.979 56.972 109.055 57.0701C109.129 57.1701 109.283 57.2337 109.517 57.2609V57.4627H106.795V57.2609C107.016 57.2374 107.174 57.1664 107.268 57.0448C107.333 56.9627 107.365 56.7199 107.365 56.3185V50.9663C107.365 50.5686 107.328 50.3212 107.255 50.223C107.182 50.1267 107.028 50.0608 106.795 50.0323V49.8226H108.942V49.8212ZM32.3068 62.6776V64.3895C32.3068 64.6323 32.334 64.7862 32.3861 64.8512C32.4203 64.8922 32.4635 64.9248 32.5123 64.9464C32.5611 64.9681 32.6143 64.9782 32.6676 64.9761H32.9045V65.0779H31.3488V64.9761H31.4654C31.5414 64.9761 31.611 64.9563 31.6732 64.9185C31.7354 64.8807 31.7787 64.8296 31.8022 64.7655C31.8267 64.7005 31.8382 64.5747 31.8382 64.3895V62.6776H31.3313V62.4725H31.8382V62.3034C31.8382 62.0435 31.8797 61.8228 31.9635 61.6426C32.0469 61.4625 32.1741 61.3169 32.346 61.2063C32.5179 61.0957 32.71 61.0399 32.9243 61.0399C33.1234 61.0399 33.3068 61.1049 33.4736 61.2335C33.5832 61.3192 33.6376 61.4155 33.6376 61.5205C33.6376 61.5781 33.6132 61.6311 33.5639 61.6809C33.5439 61.7038 33.5195 61.7223 33.492 61.7353C33.4646 61.7483 33.4348 61.7555 33.4044 61.7565C33.355 61.7547 33.3072 61.7387 33.2667 61.7104C33.2183 61.679 33.1588 61.6113 33.0888 61.5081C33.0188 61.4044 32.9538 61.3353 32.8957 61.2984C32.8365 61.2628 32.7685 61.2444 32.6994 61.2454C32.6196 61.2431 32.5414 61.2678 32.4773 61.3155C32.4169 61.3606 32.3732 61.4334 32.3464 61.5307C32.3202 61.6288 32.3068 61.88 32.3068 62.2859V62.473H32.9787V62.6781L32.3068 62.6776ZM34.5025 62.3961C34.8965 62.3961 35.2131 62.5463 35.4527 62.8463C35.6555 63.102 35.7564 63.396 35.7564 63.7273C35.7564 63.9614 35.7002 64.1973 35.5886 64.4356C35.4771 64.6738 35.3228 64.8549 35.1269 64.9766C34.9306 65.0982 34.7122 65.1586 34.4717 65.1586C34.0786 65.1586 33.7671 65.0019 33.5358 64.6895C33.3436 64.4337 33.2406 64.1219 33.2427 63.802C33.2427 63.5619 33.3017 63.325 33.4201 63.0891C33.5385 62.8532 33.6948 62.6785 33.8878 62.5661C34.0736 62.4549 34.286 62.3962 34.5025 62.3961ZM34.4145 62.5813C34.3145 62.5813 34.2136 62.6099 34.1118 62.6702C34.0109 62.7306 33.9284 62.8347 33.8662 62.9854C33.803 63.1347 33.7717 63.3264 33.7717 63.5614C33.7717 63.9411 33.8473 64.2688 33.998 64.5434C34.1486 64.818 34.3472 64.9558 34.5938 64.9558C34.7772 64.9558 34.9288 64.8802 35.049 64.7291C35.1684 64.577 35.2278 64.3162 35.2278 63.9471C35.2278 63.4835 35.1288 63.12 34.9288 62.8545C34.7947 62.6716 34.6228 62.5813 34.4145 62.5813ZM36.9033 62.3961V62.9827C37.1208 62.591 37.3448 62.3961 37.5742 62.3961C37.6784 62.3961 37.7646 62.4283 37.8332 62.4914C37.8648 62.5189 37.8903 62.5528 37.9078 62.5909C37.9254 62.6289 37.9347 62.6703 37.9351 62.7122C37.9351 62.7868 37.9106 62.849 37.8613 62.9002C37.812 62.9513 37.7535 62.9767 37.6848 62.9767C37.6189 62.9767 37.5443 62.9435 37.4618 62.8785C37.3793 62.8135 37.318 62.7804 37.2784 62.7804C37.2443 62.7804 37.2074 62.7993 37.1678 62.837C37.0821 62.9145 36.9941 63.0421 36.9038 63.2214V64.4697C36.9038 64.6134 36.9213 64.7226 36.9572 64.7964C36.9862 64.852 37.032 64.897 37.0881 64.9249C37.1512 64.9581 37.2406 64.9761 37.3581 64.9761V65.0779H36.0241V64.9761C36.1573 64.9761 36.2559 64.9544 36.3204 64.913C36.3704 64.8786 36.4059 64.8271 36.4204 64.7683C36.4292 64.7351 36.4338 64.6438 36.4338 64.4918V63.4822C36.4338 63.179 36.4278 62.9988 36.4153 62.9403C36.4082 62.8917 36.3842 62.8471 36.3476 62.8145C36.312 62.7872 36.268 62.7732 36.2232 62.7748C36.1651 62.7748 36.0988 62.7891 36.0241 62.8172L35.9955 62.7145L36.784 62.3961H36.9033ZM43.29 65.0779H42.2601L40.9547 63.2753C40.8761 63.2786 40.7974 63.2804 40.7188 63.2808C40.6943 63.2808 40.6681 63.2808 40.639 63.2799C40.6109 63.279 40.5819 63.2771 40.551 63.2753V64.3959C40.551 64.6388 40.5782 64.7895 40.6303 64.8484C40.7031 64.9314 40.8109 64.9733 40.9547 64.9733H41.1058V65.0779H39.4539V64.9733H39.5981C39.7612 64.9733 39.8778 64.9194 39.9478 64.8139C39.9875 64.7544 40.0077 64.6148 40.0077 64.3955V61.9035C40.0077 61.6615 39.9806 61.5109 39.928 61.4523C39.8543 61.3685 39.7437 61.3275 39.5981 61.3275H39.4539V61.2215H40.8584C41.268 61.2215 41.5699 61.2519 41.7643 61.3113C41.9583 61.3708 42.1233 61.4804 42.2592 61.6408C42.3938 61.8021 42.462 61.9919 42.462 62.214C42.462 62.4518 42.385 62.6569 42.2297 62.8315C42.0754 63.0052 41.8367 63.1287 41.5123 63.2006L42.3085 64.3075C42.4901 64.5614 42.6472 64.7305 42.7772 64.8143C42.9085 64.8964 43.079 64.9503 43.2896 64.9738L43.29 65.0779ZM40.551 63.0965C40.5879 63.0965 40.6188 63.0965 40.645 63.0974C40.6713 63.0983 40.6934 63.0992 40.71 63.0992C41.0777 63.0992 41.3556 63.02 41.5422 62.8605C41.6321 62.7869 41.7041 62.6938 41.7526 62.5883C41.8011 62.4827 41.825 62.3675 41.8224 62.2514C41.8224 62.0113 41.7468 61.815 41.5961 61.6648C41.4454 61.5145 41.2459 61.439 40.9971 61.439C40.8874 61.439 40.739 61.4569 40.5506 61.4929L40.551 63.0965ZM43.8591 63.4545C43.8573 63.8416 43.9504 64.1448 44.1407 64.3646C44.3301 64.5844 44.5536 64.6941 44.8084 64.6941C44.9793 64.6941 45.1277 64.6471 45.254 64.5535C45.3802 64.46 45.4848 64.2987 45.5705 64.072L45.659 64.1277C45.6194 64.3876 45.5037 64.6245 45.3125 64.8378C45.2233 64.9407 45.1126 65.0227 44.9882 65.0781C44.8639 65.1334 44.7288 65.1607 44.5927 65.1581C44.2794 65.1581 44.0112 65.0365 43.7891 64.7927C43.5661 64.5489 43.4555 64.2213 43.4555 63.8089C43.4555 63.3633 43.5688 63.0158 43.7983 62.7675C44.0264 62.5182 44.3126 62.3933 44.6582 62.3933C44.9503 62.3933 45.1899 62.4896 45.3775 62.6822C45.5646 62.8748 45.659 63.1324 45.659 63.4545H43.8591ZM43.8591 63.2886H45.0646C45.0549 63.1223 45.0356 63.0043 45.0047 62.9366C44.9606 62.834 44.887 62.7469 44.7932 62.6864C44.706 62.6278 44.6037 62.5959 44.4987 62.5947C44.3416 62.5947 44.201 62.6559 44.0766 62.7781C43.9522 62.9011 43.8794 63.0721 43.8591 63.2886ZM48.2183 64.0881C48.1483 64.4319 48.0105 64.6955 47.8054 64.8802C47.6008 65.0655 47.3746 65.1586 47.1258 65.1586C46.8299 65.1586 46.5714 65.0341 46.3521 64.7849C46.1318 64.5365 46.0221 64.2015 46.0221 63.7785C46.0221 63.3688 46.1442 63.0361 46.388 62.7804C46.6318 62.5246 46.9239 62.3961 47.2645 62.3961C47.5207 62.3961 47.7312 62.4643 47.8962 62.6002C48.0612 62.7352 48.1437 62.8757 48.1437 63.0223C48.1437 63.0942 48.1206 63.1518 48.0741 63.1969C48.0271 63.2421 47.9626 63.2637 47.8787 63.2637C47.7672 63.2637 47.6829 63.2278 47.6253 63.1568C47.5935 63.1163 47.5718 63.0398 47.5621 62.9283C47.5515 62.8168 47.5128 62.7311 47.4465 62.6716C47.3797 62.6159 47.2884 62.5877 47.1709 62.5877C46.9806 62.5877 46.8281 62.6569 46.7124 62.7974C46.559 62.9836 46.482 63.2287 46.482 63.5338C46.482 63.8444 46.558 64.1195 46.7115 64.3572C46.864 64.595 47.0695 64.7144 47.3299 64.7144C47.5151 64.7144 47.6824 64.6512 47.8299 64.5236C47.9345 64.4365 48.0354 64.278 48.1344 64.0485L48.2183 64.0881ZM49.8648 62.3961C50.2587 62.3961 50.5753 62.5463 50.8149 62.8463C51.0177 63.102 51.1186 63.396 51.1186 63.7273C51.1186 63.9614 51.0624 64.1973 50.9509 64.4356C50.8394 64.6738 50.685 64.8549 50.4891 64.9766C50.2928 65.0982 50.0744 65.1586 49.8339 65.1586C49.4408 65.1586 49.1293 65.0019 48.8985 64.6895C48.7061 64.4338 48.6031 64.1219 48.6054 63.802C48.6054 63.5619 48.6644 63.325 48.7828 63.0891C48.9012 62.8532 49.0574 62.6785 49.251 62.5661C49.4363 62.4547 49.6485 62.3959 49.8648 62.3961ZM49.7763 62.5813C49.6763 62.5813 49.5754 62.6099 49.4735 62.6702C49.3726 62.7306 49.2901 62.8347 49.2279 62.9854C49.1648 63.1347 49.1339 63.3264 49.1339 63.5614C49.1339 63.9411 49.2095 64.2688 49.3602 64.5434C49.5109 64.818 49.7095 64.9558 49.956 64.9558C50.1394 64.9558 50.291 64.8802 50.4113 64.7291C50.5306 64.577 50.5896 64.3162 50.5896 63.9471C50.5896 63.4835 50.4905 63.12 50.2905 62.8545C50.1569 62.6716 49.985 62.5813 49.7763 62.5813ZM52.2623 62.9486C52.5674 62.5804 52.8586 62.3961 53.1351 62.3961C53.2779 62.3961 53.4 62.432 53.5019 62.503C53.6046 62.5739 53.6862 62.691 53.7466 62.8541C53.788 62.9675 53.8088 63.143 53.8088 63.378V64.4904C53.8088 64.654 53.8226 64.7669 53.8493 64.8254C53.87 64.8725 53.9054 64.9116 53.9502 64.9369C53.9958 64.9632 54.0825 64.9766 54.2074 64.9766V65.0784H52.9185V64.9766H52.9729C53.0945 64.9766 53.1798 64.9567 53.2272 64.9199C53.2787 64.8787 53.3143 64.8211 53.3281 64.7567C53.336 64.7286 53.3397 64.6397 53.3397 64.4904V63.4232C53.3397 63.1863 53.3088 63.0145 53.2475 62.9066C53.1853 62.8006 53.0816 62.7463 52.9355 62.7463C52.7107 62.7463 52.4853 62.8698 52.2619 63.1163V64.4904C52.2619 64.666 52.2715 64.7747 52.2927 64.8162C52.319 64.871 52.3559 64.9125 52.4024 64.9378C52.4489 64.9632 52.5434 64.9766 52.6849 64.9766V65.0784H51.3969V64.9766H51.4541C51.5863 64.9766 51.6762 64.9424 51.7227 64.8756C51.7683 64.8074 51.7914 64.6793 51.7914 64.4904V63.5218C51.7914 63.2094 51.7845 63.0195 51.7702 62.9513C51.7563 62.8831 51.7342 62.8361 51.7052 62.8117C51.6714 62.7857 51.6294 62.7727 51.5868 62.7748C51.5342 62.7748 51.4702 62.7891 51.3965 62.8172L51.3536 62.7145L52.1388 62.3961H52.2609V62.9486H52.2623ZM56.0985 62.3961V63.2836H56.0045C55.9326 63.0048 55.8404 62.8154 55.7275 62.7149C55.6137 62.6149 55.4704 62.5647 55.2962 62.5647C55.1635 62.5647 55.0566 62.5997 54.9751 62.6702C54.8935 62.7403 54.8529 62.8177 54.8529 62.9034C54.8529 63.0094 54.8829 63.1006 54.9433 63.1762C55.0027 63.2545 55.122 63.3366 55.3022 63.4236L55.7165 63.6259C56.1022 63.813 56.2943 64.0605 56.2943 64.3683C56.2943 64.6051 56.2049 64.795 56.0252 64.9406C55.8569 65.0818 55.6441 65.159 55.4243 65.1586C55.264 65.1586 55.0829 65.13 54.8778 65.0729C54.8283 65.0562 54.7766 65.0466 54.7244 65.0443C54.6806 65.0443 54.6465 65.0687 54.6212 65.118H54.5281V64.1881H54.6212C54.6746 64.4535 54.7764 64.6535 54.9262 64.7885C55.0755 64.9236 55.2437 64.9904 55.4289 64.9904C55.5598 64.9904 55.6667 64.9526 55.7492 64.8761C55.7883 64.8411 55.8196 64.7982 55.8408 64.7502C55.862 64.7022 55.8727 64.6502 55.8722 64.5978C55.8735 64.5363 55.862 64.4752 55.8382 64.4184C55.8145 64.3617 55.7791 64.3106 55.7345 64.2683C55.6432 64.1784 55.4598 64.066 55.1843 63.9291C54.9096 63.7932 54.7304 63.6702 54.6447 63.56C54.5589 63.4513 54.5166 63.3163 54.5166 63.1504C54.5166 62.9361 54.5903 62.7564 54.7373 62.6131C54.8838 62.4693 55.0737 62.3961 55.3068 62.3961C55.41 62.3961 55.534 62.4186 55.6796 62.4629C55.7764 62.491 55.8409 62.5053 55.8727 62.5053C55.8983 62.5065 55.9236 62.4992 55.9446 62.4845C55.9699 62.4593 55.9901 62.4294 56.004 62.3965H56.0985V62.3961ZM57.438 61.6178V62.4725H58.0463V62.6716H57.438V64.3618C57.438 64.531 57.462 64.6443 57.5108 64.7028C57.5327 64.7309 57.5609 64.7535 57.593 64.7688C57.6252 64.7841 57.6605 64.7917 57.6961 64.7908C57.7614 64.7899 57.8249 64.7696 57.8786 64.7323C57.94 64.6896 57.9876 64.6299 58.0154 64.5604H58.126C58.0587 64.7457 57.9657 64.8862 57.8445 64.9798C57.7233 65.0742 57.5979 65.1212 57.4689 65.1212C57.3814 65.1212 57.2961 65.0968 57.2122 65.0484C57.13 65.0008 57.0653 64.928 57.0279 64.8406C56.9883 64.7517 56.968 64.6121 56.968 64.424V62.6716H56.5561V62.579C56.6743 62.5281 56.7824 62.4565 56.8754 62.3675C56.9837 62.2675 57.0818 62.1486 57.1666 62.0127C57.2104 61.9408 57.2717 61.8095 57.3491 61.6178H57.438ZM59.0619 62.3961V62.9827C59.2794 62.591 59.5034 62.3961 59.7328 62.3961C59.837 62.3961 59.9231 62.4283 59.9918 62.4914C60.0234 62.5189 60.0488 62.5528 60.0664 62.5909C60.084 62.6289 60.0932 62.6703 60.0936 62.7122C60.0936 62.7868 60.0692 62.849 60.0199 62.9002C59.9706 62.9513 59.9121 62.9767 59.8434 62.9767C59.7771 62.9767 59.7024 62.9435 59.6204 62.8785C59.5379 62.8135 59.4766 62.7804 59.437 62.7804C59.4029 62.7804 59.3665 62.7993 59.3264 62.837C59.2412 62.9145 59.1527 63.0421 59.0624 63.2214V64.4697C59.0624 64.6134 59.0799 64.7226 59.1158 64.7964C59.1412 64.8484 59.1849 64.8908 59.2471 64.9249C59.3103 64.9581 59.3997 64.9761 59.5167 64.9761V65.0779H58.1827V64.9761C58.3159 64.9761 58.4149 64.9544 58.479 64.913C58.5291 64.8788 58.5647 64.8272 58.579 64.7683C58.5882 64.7351 58.5928 64.6438 58.5928 64.4918V63.4822C58.5928 63.179 58.5868 62.9988 58.5744 62.9403C58.5629 62.8836 58.5394 62.8403 58.5066 62.8145C58.4739 62.7887 58.432 62.7748 58.3822 62.7748C58.3242 62.7748 58.2578 62.7891 58.1832 62.8172L58.155 62.7145L58.943 62.3961H59.0619Z" fill="#202020"/>
<path fill-rule="evenodd" clip-rule="evenodd" d="M62.5225 62.4724V64.0512C62.5225 64.3525 62.5294 64.5373 62.5437 64.6046C62.558 64.6719 62.5806 64.7189 62.6114 64.7451C62.6418 64.7716 62.6809 64.7857 62.7211 64.7848C62.7801 64.7848 62.846 64.7695 62.9202 64.7364L62.9598 64.8373L62.1801 65.1585H62.0534V64.6069C61.829 64.8497 61.6585 65.0018 61.541 65.064C61.4269 65.1261 61.299 65.1586 61.1691 65.1585C61.0315 65.1612 60.897 65.1165 60.7885 65.0317C60.6822 64.9489 60.6042 64.8351 60.5655 64.706C60.5235 64.5728 60.5033 64.3857 60.5033 64.1424V62.9798C60.5033 62.8563 60.4894 62.771 60.4636 62.724C60.4367 62.6759 60.3953 62.6375 60.3452 62.6144C60.2941 62.589 60.1987 62.5775 60.0627 62.5793V62.4734H60.9751V64.2166C60.9751 64.4594 61.018 64.6189 61.1023 64.6944C61.1859 64.7704 61.2954 64.8113 61.4083 64.8087C61.4899 64.8087 61.582 64.7824 61.6852 64.7322C61.7894 64.6811 61.9115 64.5829 62.0543 64.4387V62.9627C62.0543 62.8153 62.0267 62.7153 61.9728 62.6632C61.9189 62.6111 61.8069 62.583 61.6359 62.5793V62.4734H62.5225V62.4724ZM65.3634 64.088C65.2938 64.4318 65.156 64.6954 64.9509 64.8801C64.7463 65.0654 64.5201 65.1585 64.2713 65.1585C63.9754 65.1585 63.7169 65.034 63.4976 64.7848C63.2773 64.5364 63.1676 64.2014 63.1676 63.7784C63.1676 63.3687 63.2902 63.036 63.5335 62.7803C63.7773 62.5245 64.0694 62.396 64.41 62.396C64.6662 62.396 64.8767 62.4641 65.0417 62.6001C65.2067 62.7351 65.2896 62.8756 65.2896 63.0222C65.2896 63.0941 65.2661 63.1517 65.2196 63.1968C65.173 63.242 65.1081 63.2636 65.0247 63.2636C64.9131 63.2636 64.8288 63.2277 64.7712 63.1567C64.739 63.1162 64.7178 63.0397 64.7081 62.9282C64.6975 62.8167 64.6588 62.731 64.5929 62.6715C64.5261 62.6158 64.4348 62.5876 64.3173 62.5876C64.127 62.5876 63.9745 62.6568 63.8593 62.7973C63.7058 62.9835 63.6289 63.2286 63.6289 63.5337C63.6289 63.8443 63.7049 64.1194 63.8584 64.3571C64.0104 64.5949 64.2164 64.7143 64.4768 64.7143C64.6612 64.715 64.8393 64.6469 64.9763 64.5235C65.0813 64.4364 65.1823 64.2779 65.2813 64.0484L65.3634 64.088ZM66.4923 61.6177V62.4724H67.101V62.6715H66.4923V64.3617C66.4923 64.5309 66.5167 64.6442 66.5651 64.7027C66.587 64.7308 66.6151 64.7534 66.6473 64.7687C66.6795 64.784 66.7148 64.7916 66.7504 64.7907C66.8156 64.7898 66.8792 64.7694 66.9328 64.7322C66.9944 64.6896 67.042 64.6299 67.0697 64.5603H67.1803C67.113 64.7456 67.0199 64.8861 66.8987 64.9797C66.7776 65.0741 66.6522 65.1211 66.5232 65.1211C66.4361 65.1211 66.3504 65.0967 66.267 65.0483C66.1836 64.9999 66.1223 64.9304 66.0827 64.8405C66.043 64.7516 66.0228 64.6119 66.0228 64.4239V62.6715H65.6108V62.5789C65.7149 62.5374 65.8218 62.4665 65.9301 62.3674C66.0389 62.2674 66.137 62.1485 66.2214 62.0126C66.2651 61.9407 66.3264 61.8094 66.4038 61.6177H66.4923ZM68.0166 61.0343C68.0964 61.0343 68.1641 61.0624 68.2203 61.1182C68.2756 61.1739 68.3037 61.2426 68.3037 61.3214C68.3037 61.4015 68.2756 61.4688 68.2203 61.5264C68.1641 61.5822 68.0959 61.6121 68.0166 61.6121C67.9374 61.6121 67.8692 61.5826 67.8121 61.5264C67.7846 61.4999 67.7628 61.468 67.7481 61.4327C67.7333 61.3975 67.7259 61.3596 67.7263 61.3214C67.7257 61.2835 67.7329 61.246 67.7474 61.211C67.7619 61.1761 67.7835 61.1444 67.8107 61.1182C67.8373 61.0907 67.8694 61.069 67.9049 61.0546C67.9403 61.0402 67.9784 61.0332 68.0166 61.0343ZM68.2526 62.396V64.4903C68.2526 64.6534 68.2641 64.7603 68.2885 64.8152C68.3116 64.8691 68.3466 64.9087 68.3936 64.9368C68.4401 64.9631 68.5258 64.9764 68.6489 64.9764V65.0783H67.383V64.9764C67.5102 64.9764 67.5955 64.964 67.6383 64.9387C67.6855 64.9104 67.722 64.8673 67.742 64.8161C67.7683 64.7594 67.7807 64.6516 67.7807 64.4903V63.4848C67.7807 63.2024 67.772 63.0203 67.7554 62.9369C67.742 62.8756 67.7208 62.8342 67.6922 62.8111C67.6591 62.7853 67.6176 62.7726 67.5757 62.7752C67.5093 62.778 67.444 62.7923 67.3826 62.8176L67.343 62.7148L68.1272 62.3964H68.2526V62.396ZM70.246 62.396C70.64 62.396 70.9566 62.5462 71.1962 62.8462C71.3989 63.1019 71.5003 63.3959 71.5003 63.7272C71.5003 63.9613 71.4436 64.1972 71.3321 64.4355C71.2206 64.6737 71.0662 64.8548 70.8704 64.9764C70.6741 65.0981 70.4557 65.1585 70.2151 65.1585C69.8221 65.1585 69.5106 65.0018 69.2797 64.6894C69.0873 64.4337 68.9843 64.1218 68.9866 63.8019C68.9866 63.5618 69.0456 63.3249 69.164 63.089C69.2825 62.8531 69.4391 62.6784 69.6322 62.566C69.8176 62.4547 70.0298 62.3959 70.246 62.396ZM70.158 62.5812C70.058 62.5812 69.9571 62.6098 69.8552 62.6701C69.7543 62.7305 69.6719 62.8346 69.6096 62.9853C69.5465 63.1346 69.5152 63.3263 69.5152 63.5613C69.5152 63.941 69.5912 64.2687 69.7414 64.5433C69.8917 64.8179 70.0907 64.9557 70.3372 64.9557C70.5206 64.9557 70.6723 64.8801 70.7925 64.729C70.9119 64.5769 70.9713 64.3161 70.9713 63.947C70.9713 63.4834 70.8722 63.1199 70.6723 62.8544C70.5386 62.6715 70.3667 62.5812 70.158 62.5812ZM72.644 62.9485C72.9491 62.5803 73.2398 62.396 73.5168 62.396C73.6596 62.396 73.7817 62.4319 73.8836 62.5029C73.9863 62.5738 74.0679 62.6909 74.1283 62.854C74.1702 62.9673 74.1905 63.1429 74.1905 63.3779V64.4903C74.1905 64.6539 74.2043 64.7668 74.231 64.8253C74.2517 64.8724 74.2871 64.9115 74.3319 64.9368C74.3776 64.9631 74.4642 64.9764 74.5891 64.9764V65.0783H73.3002V64.9764H73.3546C73.4762 64.9764 73.5615 64.9566 73.6089 64.9198C73.6604 64.8786 73.696 64.821 73.7099 64.7566C73.7177 64.7285 73.7214 64.6396 73.7214 64.4903V63.4231C73.7214 63.1862 73.6905 63.0143 73.6292 62.9065C73.567 62.8005 73.4633 62.7462 73.3173 62.7462C73.0924 62.7462 72.8671 62.8697 72.644 63.1162V64.4903C72.644 64.6659 72.6537 64.7746 72.6749 64.8161C72.6976 64.8673 72.736 64.9099 72.7846 64.9377C72.8316 64.9631 72.9256 64.9764 73.067 64.9764V65.0783H71.7791V64.9764H71.8362C71.9685 64.9764 72.0588 64.9423 72.1049 64.8755C72.1505 64.8073 72.1735 64.6792 72.1735 64.4903V63.5217C72.1735 63.2093 72.1666 63.0194 72.1523 62.9512C72.139 62.883 72.1164 62.836 72.0874 62.8116C72.0583 62.7872 72.0183 62.7747 71.969 62.7747C71.9164 62.7747 71.8528 62.789 71.7786 62.8171L71.7358 62.7144L72.521 62.396H72.6436L72.644 62.9485ZM77.7281 64.7027C77.4617 64.9087 77.2935 65.0285 77.2249 65.0608C77.1225 65.1083 77.011 65.1325 76.8981 65.1317C76.718 65.1317 76.5696 65.0695 76.4526 64.9474C76.3364 64.8239 76.2779 64.6613 76.2779 64.4603C76.2779 64.3336 76.306 64.2235 76.3636 64.13C76.441 64.0023 76.576 63.8807 76.7687 63.7664C76.9604 63.653 77.2806 63.5152 77.7281 63.3526V63.2489C77.7281 62.9899 77.6875 62.8116 77.6046 62.7144C77.5225 62.6181 77.4023 62.5697 77.2447 62.5697C77.1249 62.5697 77.0304 62.6019 76.9604 62.6669C76.9272 62.6936 76.9004 62.7272 76.8818 62.7655C76.8631 62.8037 76.8531 62.8456 76.8525 62.8881L76.859 63.0526C76.859 63.1397 76.8364 63.2074 76.7922 63.2549C76.7696 63.2784 76.7422 63.2968 76.7119 63.3089C76.6817 63.3209 76.6492 63.3264 76.6166 63.3249C76.5842 63.3259 76.5519 63.3198 76.5221 63.3071C76.4923 63.2943 76.4655 63.2753 76.4438 63.2512C76.3996 63.2019 76.377 63.1351 76.377 63.0494C76.377 62.8862 76.4608 62.7369 76.6272 62.6001C76.7945 62.4641 77.0286 62.395 77.3299 62.395C77.5612 62.395 77.7502 62.4337 77.8985 62.5121C78.0101 62.5706 78.093 62.6632 78.146 62.7886C78.1801 62.8706 78.1962 63.036 78.1962 63.2881V64.1728C78.1962 64.4212 78.2018 64.5732 78.2105 64.6299C78.2202 64.6848 78.2359 64.7225 78.2575 64.7414C78.2784 64.7598 78.3053 64.7699 78.3331 64.77C78.3611 64.7707 78.3888 64.7639 78.4133 64.7502C78.4529 64.7258 78.5294 64.6557 78.6427 64.5424V64.7018C78.4312 64.9861 78.2289 65.1285 78.0345 65.1285C77.9926 65.1303 77.9509 65.1224 77.9126 65.1056C77.8743 65.0887 77.8403 65.0633 77.8133 65.0313C77.7585 64.9681 77.7299 64.8576 77.7281 64.7027ZM77.7281 64.5179V63.5245C77.4419 63.6397 77.2576 63.7198 77.1737 63.7664C77.0235 63.8502 76.917 63.9373 76.8525 64.0281C76.7895 64.1149 76.7557 64.2195 76.7562 64.3267C76.7562 64.4627 76.7968 64.5769 76.8788 64.6668C76.9599 64.7557 77.0544 64.8018 77.1594 64.8018C77.3041 64.8027 77.493 64.7073 77.7281 64.5179ZM79.5961 62.9485C79.9012 62.5803 80.1929 62.396 80.4694 62.396C80.6127 62.396 80.7348 62.4319 80.8366 62.5029C80.9394 62.5738 81.0209 62.6909 81.0813 62.854C81.1228 62.9673 81.1435 63.1429 81.1435 63.3779V64.4903C81.1435 64.6539 81.1569 64.7668 81.1841 64.8253C81.2048 64.8724 81.2402 64.9115 81.285 64.9368C81.3311 64.9631 81.4172 64.9764 81.5426 64.9764V65.0783H80.2537V64.9764H80.3076C80.4293 64.9764 80.5145 64.9566 80.5624 64.9198C80.6104 64.8829 80.6445 64.829 80.6634 64.7566C80.6707 64.7285 80.6749 64.6396 80.6749 64.4903V63.4231C80.6749 63.1862 80.6435 63.0143 80.5823 62.9065C80.5201 62.8005 80.4168 62.7462 80.2708 62.7462C80.0459 62.7462 79.8196 62.8697 79.5966 63.1162V64.4903C79.5966 64.6659 79.6063 64.7746 79.6279 64.8161C79.6542 64.8709 79.6911 64.9124 79.7376 64.9377C79.7842 64.9631 79.8782 64.9764 80.0201 64.9764V65.0783H78.7321V64.9764H78.7888C78.9211 64.9764 79.0109 64.9423 79.0579 64.8755C79.104 64.8073 79.1261 64.6792 79.1261 64.4903V63.5217C79.1261 63.2093 79.1197 63.0194 79.1054 62.9512C79.092 62.883 79.0694 62.836 79.0395 62.8116C79.0059 62.7855 78.964 62.7724 78.9215 62.7747C78.8695 62.7747 78.8045 62.789 78.7317 62.8171L78.6884 62.7144L79.474 62.396H79.5957L79.5961 62.9485ZM83.589 64.7848C83.4623 64.9179 83.3379 65.0133 83.2162 65.0718C83.0937 65.1294 82.9599 65.1589 82.8245 65.1585C82.5402 65.1585 82.2909 65.0387 82.0785 64.8013C81.867 64.5626 81.7601 64.2576 81.7601 63.8853C81.7601 63.5111 81.878 63.1696 82.114 62.8591C82.349 62.5485 82.6513 62.3936 83.0204 62.3936C83.2498 62.3936 83.4397 62.4674 83.589 62.6135V62.1328C83.589 61.8352 83.5825 61.6522 83.5683 61.5831C83.554 61.5158 83.5314 61.4688 83.501 61.4444C83.469 61.4186 83.4287 61.4055 83.3876 61.4075C83.3383 61.4075 83.2733 61.4218 83.1913 61.4536L83.1545 61.3536L83.9314 61.0352H84.0581V64.0475C84.0581 64.3516 84.0664 64.5378 84.0797 64.6055C84.094 64.6728 84.1166 64.7198 84.1489 64.746C84.1788 64.7726 84.2177 64.7867 84.2576 64.7857C84.3088 64.7857 84.3774 64.7705 84.4618 64.7373L84.494 64.8382L83.7199 65.1594H83.5885L83.589 64.7848ZM83.589 64.5857V63.2438C83.5796 63.1204 83.545 63.0003 83.4872 62.8909C83.4359 62.7913 83.3577 62.7083 83.2614 62.6512C83.1788 62.5998 83.084 62.5715 82.9867 62.5692C82.8195 62.5692 82.6706 62.6439 82.5402 62.7932C82.3674 62.9913 82.2812 63.2793 82.2812 63.6581C82.2812 64.0415 82.3642 64.335 82.5315 64.5391C82.6978 64.7424 82.8835 64.8442 83.0886 64.8442C83.2614 64.8447 83.4277 64.7585 83.589 64.5857ZM86.0349 65.0778V64.9732H86.1796C86.3427 64.9732 86.4584 64.9202 86.5261 64.8156C86.5676 64.7534 86.5893 64.6133 86.5893 64.3954V61.9034C86.5893 61.6633 86.5621 61.5126 86.51 61.4522C86.4363 61.3684 86.3257 61.3274 86.1796 61.3274H86.0349V61.2214H87.6044C88.1804 61.2214 88.6187 61.2873 88.92 61.4177C89.2195 61.549 89.4619 61.767 89.6444 62.072C89.8269 62.378 89.92 62.73 89.92 63.1295C89.92 63.6668 89.7564 64.1152 89.4306 64.4751C89.0642 64.8774 88.5062 65.0783 87.7583 65.0783L86.0349 65.0778ZM87.1349 64.8C87.3759 64.8529 87.5777 64.8792 87.7404 64.8792C88.1804 64.8792 88.5449 64.7253 88.8357 64.4156C89.1255 64.1069 89.2711 63.6876 89.2711 63.1581C89.2711 62.6264 89.1255 62.2061 88.8357 61.8992C88.5449 61.5914 88.1731 61.4384 87.7187 61.4384C87.5213 61.4419 87.3251 61.4695 87.1344 61.5204L87.1349 64.8ZM90.7618 63.4544C90.76 63.8415 90.8526 64.1447 91.0425 64.3645C91.2323 64.5843 91.4553 64.694 91.7111 64.694C91.8811 64.694 92.0295 64.647 92.1567 64.5534C92.2825 64.4599 92.3871 64.2986 92.4728 64.0719L92.5608 64.1276C92.5212 64.3875 92.406 64.6244 92.2143 64.8377C92.0226 65.0511 91.7821 65.158 91.495 65.158C91.1816 65.158 90.9134 65.0363 90.6913 64.7926C90.4683 64.5488 90.3573 64.2212 90.3573 63.8088C90.3573 63.3632 90.4706 63.0157 90.7001 62.7674C90.9277 62.5181 91.2139 62.3932 91.5595 62.3932C91.8521 62.3932 92.0913 62.4895 92.2793 62.6821C92.4663 62.8747 92.5599 63.1323 92.5599 63.4544H90.7618ZM90.7618 63.2885H91.9668C91.9572 63.1222 91.9383 63.0042 91.9065 62.9365C91.8604 62.8305 91.7894 62.7475 91.695 62.6863C91.6079 62.6275 91.5055 62.5956 91.4005 62.5946C91.2438 62.5946 91.1028 62.6558 90.9784 62.778C90.854 62.9001 90.7817 63.0719 90.7618 63.2885ZM92.7751 62.4724H94.0008V62.5784H93.9197C93.846 62.5784 93.7902 62.5955 93.7515 62.6314C93.7319 62.65 93.7164 62.6727 93.7063 62.6978C93.6962 62.723 93.6917 62.75 93.693 62.777C93.693 62.8429 93.7137 62.9217 93.7534 63.013L94.3589 64.4511L94.9671 62.9591C95.0104 62.8531 95.0321 62.7729 95.0321 62.7171C95.033 62.6934 95.025 62.6702 95.0095 62.6522C94.99 62.6247 94.9622 62.6042 94.9303 62.5936C94.8971 62.583 94.8321 62.5784 94.733 62.5784V62.4724H95.5837V62.5784C95.4855 62.5867 95.4164 62.6056 95.3786 62.6379C95.3127 62.6945 95.2537 62.7899 95.2003 62.9222L94.2759 65.158H94.1598L93.229 62.9595C93.1875 62.8568 93.1479 62.783 93.1101 62.7388C93.0696 62.6922 93.02 62.6542 92.9645 62.6273C92.9322 62.6093 92.8682 62.5932 92.7746 62.5789V62.4724H92.7751ZM96.2583 63.4544C96.2564 63.8415 96.35 64.1447 96.5398 64.3645C96.7297 64.5843 96.9527 64.694 97.2075 64.694C97.3785 64.694 97.5269 64.647 97.6531 64.5534C97.7794 64.4599 97.8845 64.2986 97.9702 64.0719L98.0582 64.1276C98.0185 64.3875 97.9024 64.6244 97.7117 64.8377C97.6225 64.9405 97.5119 65.0225 97.3876 65.0778C97.2633 65.1331 97.1284 65.1605 96.9923 65.158C96.6781 65.158 96.4108 65.0363 96.1887 64.7926C95.9657 64.5488 95.8546 64.2212 95.8546 63.8088C95.8546 63.3632 95.968 63.0157 96.1965 62.7674C96.4251 62.5181 96.7113 62.3932 97.0569 62.3932C97.3495 62.3932 97.5886 62.4895 97.7762 62.6821C97.9637 62.8747 98.0577 63.1323 98.0577 63.4544H96.2583ZM96.2583 63.2885H97.4642C97.4545 63.1222 97.4356 63.0042 97.4038 62.9365C97.3597 62.8339 97.2861 62.7468 97.1923 62.6863C97.1052 62.6278 97.0028 62.5959 96.8979 62.5946C96.7403 62.5946 96.6002 62.6558 96.4758 62.778C96.3514 62.9001 96.279 63.0719 96.2583 63.2885ZM99.301 61.0343V64.4903C99.301 64.6534 99.3134 64.7603 99.336 64.8142C99.3585 64.8653 99.397 64.9076 99.4457 64.935C99.495 64.9622 99.5871 64.9764 99.7221 64.9764V65.0783H98.4453V64.9764C98.5651 64.9764 98.6471 64.964 98.689 64.9387C98.7363 64.9108 98.7726 64.8675 98.7918 64.8161C98.8162 64.7594 98.8286 64.6516 98.8286 64.4903V62.1232C98.8286 61.8287 98.8222 61.649 98.8097 61.5813C98.7964 61.5144 98.7747 61.4679 98.7457 61.4435C98.7139 61.4179 98.674 61.4048 98.6333 61.4066C98.583 61.4066 98.5208 61.4209 98.4453 61.4527L98.3969 61.3527L99.1738 61.0343H99.301ZM101.297 62.396C101.691 62.396 102.008 62.5462 102.247 62.8462C102.45 63.1019 102.551 63.3959 102.551 63.7272C102.551 63.9613 102.495 64.1972 102.383 64.4355C102.272 64.6737 102.117 64.8548 101.922 64.9764C101.725 65.0981 101.507 65.1585 101.266 65.1585C100.873 65.1585 100.562 65.0018 100.33 64.6894C100.138 64.4337 100.035 64.1219 100.037 63.8019C100.037 63.5618 100.096 63.3249 100.215 63.089C100.333 62.8531 100.49 62.6784 100.682 62.566C100.876 62.4526 101.082 62.396 101.297 62.396ZM101.209 62.5812C101.109 62.5812 101.008 62.6098 100.906 62.6701C100.805 62.7305 100.723 62.8346 100.661 62.9853C100.598 63.1346 100.567 63.3263 100.567 63.5613C100.567 63.941 100.642 64.2687 100.793 64.5433C100.943 64.8179 101.143 64.9557 101.389 64.9557C101.572 64.9557 101.724 64.8801 101.844 64.729C101.963 64.5769 102.023 64.3161 102.023 63.947C102.023 63.4834 101.924 63.1199 101.724 62.8544C101.59 62.6715 101.418 62.5812 101.209 62.5812ZM102.747 62.7319L103.549 62.4079H103.658V63.0162C103.792 62.7876 103.927 62.6264 104.063 62.5337C104.189 62.4456 104.338 62.3976 104.491 62.396C104.753 62.396 104.97 62.4987 105.145 62.7038C105.36 62.954 105.466 63.2798 105.466 63.6821C105.466 64.1304 105.337 64.5027 105.079 64.7963C104.981 64.9124 104.858 65.0052 104.719 65.0678C104.58 65.1303 104.429 65.1612 104.277 65.158C104.138 65.158 104.016 65.1382 103.914 65.0976C103.838 65.0691 103.752 65.0128 103.658 64.9276V65.7206C103.658 65.8999 103.668 66.0123 103.69 66.0607C103.714 66.1109 103.754 66.1515 103.804 66.1759C103.857 66.204 103.956 66.2183 104.099 66.2183V66.3238H102.733V66.2183H102.804C102.909 66.2211 102.998 66.2003 103.072 66.1589C103.11 66.1352 103.14 66.0993 103.156 66.057C103.175 66.0109 103.185 65.8934 103.185 65.7041V63.2397C103.185 63.0724 103.178 62.9641 103.162 62.9185C103.15 62.8774 103.125 62.8416 103.09 62.8167C103.049 62.7915 103.002 62.7796 102.955 62.7826C102.895 62.7853 102.836 62.7991 102.781 62.8231L102.747 62.7319ZM103.658 63.1844V64.1571C103.658 64.3677 103.666 64.5055 103.683 64.5719C103.709 64.6815 103.775 64.7778 103.879 64.8617C103.981 64.9446 104.112 64.9866 104.27 64.9866C104.459 64.9866 104.612 64.9129 104.73 64.7654C104.883 64.5719 104.96 64.2991 104.96 63.9493C104.96 63.5516 104.873 63.2447 104.699 63.0305C104.577 62.883 104.433 62.8084 104.267 62.8084C104.176 62.8084 104.085 62.8319 103.996 62.8766C103.928 62.9116 103.815 63.0134 103.658 63.1844ZM106.621 62.9512C106.811 62.7614 106.922 62.6526 106.957 62.6245C107.039 62.554 107.132 62.4972 107.232 62.4563C107.331 62.4167 107.429 62.396 107.526 62.396C107.689 62.396 107.83 62.4439 107.947 62.5393C108.065 62.6328 108.143 62.7706 108.183 62.9517C108.378 62.724 108.543 62.5747 108.678 62.5033C108.812 62.4324 108.951 62.3964 109.093 62.3964C109.231 62.3964 109.353 62.4324 109.462 62.5033C109.568 62.5743 109.652 62.6904 109.716 62.8517C109.758 62.9614 109.778 63.1342 109.778 63.3692V64.4908C109.778 64.6539 109.79 64.7654 109.815 64.8258C109.838 64.8713 109.875 64.9084 109.921 64.9317C109.972 64.9612 110.055 64.9769 110.171 64.9769V65.0787H108.885V64.9769H108.939C109.05 64.9769 109.138 64.9543 109.201 64.911C109.248 64.8752 109.281 64.8239 109.294 64.7663C109.302 64.7341 109.305 64.6419 109.305 64.4908V63.3692C109.305 63.1567 109.28 63.0074 109.229 62.919C109.155 62.7982 109.036 62.7379 108.874 62.7379C108.768 62.7391 108.665 62.7647 108.571 62.8125C108.469 62.8627 108.347 62.9558 108.202 63.0931L108.196 63.1236L108.202 63.2461V64.4898C108.202 64.6672 108.213 64.7778 108.232 64.8212C108.256 64.8693 108.296 64.9079 108.344 64.9308C108.399 64.9603 108.493 64.976 108.626 64.976V65.0778H107.308V64.976C107.453 64.976 107.552 64.958 107.607 64.9248C107.662 64.8888 107.701 64.8341 107.718 64.7709C107.728 64.7387 107.733 64.6451 107.733 64.4903V63.3687C107.733 63.1563 107.701 63.0033 107.638 62.9116C107.601 62.8537 107.549 62.8064 107.488 62.7745C107.426 62.7425 107.358 62.7269 107.289 62.7291C107.186 62.7291 107.085 62.7563 106.984 62.8121C106.827 62.8959 106.706 62.9895 106.62 63.0936V64.4903C106.62 64.6594 106.633 64.7709 106.656 64.8216C106.677 64.8709 106.714 64.9117 106.761 64.9377C106.808 64.9631 106.902 64.9764 107.044 64.9764V65.0783H105.756V64.9764C105.876 64.9764 105.959 64.9631 106.007 64.9377C106.055 64.9105 106.094 64.8672 106.114 64.8152C106.139 64.7585 106.151 64.6516 106.151 64.4903V63.494C106.151 63.2079 106.142 63.0236 106.126 62.9397C106.113 62.8766 106.091 62.8342 106.063 62.8111C106.029 62.7853 105.988 62.7726 105.946 62.7752C105.893 62.7752 105.83 62.7895 105.756 62.8176L105.713 62.7148L106.497 62.3964H106.62V62.9512H106.621ZM110.815 63.4544C110.814 63.8415 110.907 64.1447 111.097 64.3645C111.286 64.5843 111.509 64.694 111.765 64.694C111.936 64.694 112.084 64.647 112.21 64.5534C112.337 64.4599 112.442 64.2986 112.527 64.0719L112.615 64.1276C112.576 64.3875 112.46 64.6244 112.269 64.8377C112.18 64.9405 112.069 65.0225 111.945 65.0778C111.82 65.1331 111.686 65.1605 111.55 65.158C111.235 65.158 110.968 65.0363 110.746 64.7926C110.523 64.5488 110.412 64.2212 110.412 63.8088C110.412 63.3632 110.525 63.0157 110.754 62.7674C110.982 62.5181 111.268 62.3932 111.614 62.3932C111.907 62.3932 112.146 62.4895 112.333 62.6821C112.521 62.8747 112.615 63.1323 112.615 63.4544H110.815ZM110.815 63.2885H112.021C112.012 63.1222 111.992 63.0042 111.961 62.9365C111.917 62.8341 111.843 62.7471 111.75 62.6863C111.662 62.6278 111.56 62.5959 111.455 62.5946C111.297 62.5946 111.157 62.6558 111.033 62.778C110.909 62.9001 110.836 63.0719 110.815 63.2885ZM113.722 62.9485C114.027 62.5803 114.319 62.396 114.595 62.396C114.738 62.396 114.859 62.4319 114.962 62.5029C115.065 62.5738 115.147 62.6909 115.206 62.854C115.248 62.9673 115.269 63.1429 115.269 63.3779V64.4903C115.269 64.6539 115.282 64.7668 115.31 64.8253C115.33 64.8726 115.366 64.9118 115.411 64.9368C115.457 64.9631 115.543 64.9764 115.668 64.9764V65.0783H114.378V64.9764H114.433C114.555 64.9764 114.64 64.9566 114.687 64.9198C114.739 64.8786 114.775 64.821 114.789 64.7566C114.796 64.7285 114.801 64.6396 114.801 64.4903V63.4231C114.801 63.1862 114.769 63.0143 114.708 62.9065C114.646 62.8005 114.542 62.7462 114.396 62.7462C114.172 62.7462 113.945 62.8697 113.722 63.1162V64.4903C113.722 64.6659 113.732 64.7746 113.754 64.8161C113.78 64.8709 113.817 64.9124 113.863 64.9377C113.91 64.9631 114.004 64.9764 114.146 64.9764V65.0783H112.857V64.9764H112.914C113.047 64.9764 113.137 64.9423 113.184 64.8755C113.229 64.8073 113.252 64.6792 113.252 64.4903V63.5217C113.252 63.2093 113.245 63.0194 113.231 62.9512C113.218 62.883 113.195 62.836 113.165 62.8116C113.132 62.7855 113.09 62.7724 113.047 62.7747C112.995 62.7747 112.93 62.789 112.856 62.8171L112.814 62.7144L113.599 62.396H113.721V62.9485H113.722ZM116.632 61.6177V62.4724H117.24V62.6715H116.632V64.3617C116.632 64.5309 116.656 64.6442 116.705 64.7027C116.726 64.7309 116.754 64.7536 116.787 64.7689C116.819 64.7842 116.854 64.7917 116.89 64.7907C116.953 64.7907 117.013 64.7709 117.072 64.7322C117.13 64.6935 117.176 64.6359 117.209 64.5603H117.319C117.252 64.7456 117.159 64.8861 117.039 64.9797C116.917 65.0741 116.792 65.1211 116.663 65.1211C116.576 65.1211 116.49 65.0967 116.406 65.0483C116.324 65.0007 116.26 64.9278 116.223 64.8405C116.182 64.7516 116.162 64.6119 116.162 64.4239V62.6715H115.75V62.5789C115.854 62.5374 115.96 62.4665 116.069 62.3674C116.178 62.2674 116.276 62.1485 116.361 62.0126C116.404 61.9407 116.465 61.8094 116.543 61.6177H116.632Z" fill="#202020"/>
</svg>
