<svg width="165" height="80" viewBox="0 0 165 80" fill="none" xmlns="http://www.w3.org/2000/svg">
<g clip-path="url(#clip0_237_10298)">
<path d="M66.6669 50.3557V36.1544C66.6669 31.4606 62.8873 29.2088 57.3581 29.2088C54.4149 29.1122 51.494 29.7495 48.8584 31.0633L50.7477 34.151C52.7753 33.2256 54.9887 32.7797 57.2164 32.8479C60.2382 32.8479 61.8821 34.1079 61.8821 36.3474V37.9031C60.0985 37.325 58.2278 37.0619 56.3539 37.1258C50.7354 37.1258 46.4814 39.2175 46.4814 43.8342C46.4814 48.9202 51.066 50.8343 55.0786 50.8343C57.566 50.8184 59.9708 49.9401 61.8831 48.3493V50.403L66.6669 50.3557ZM61.8954 44.476C61.1267 45.3003 60.1985 45.9597 59.1672 46.4142C58.1359 46.8688 57.0229 47.1089 55.896 47.1201C52.6842 47.1201 51.1245 45.74 51.1245 43.6863C51.1245 41.7928 53.1072 40.6058 56.2266 40.6058C58.1579 40.5229 60.0861 40.8309 61.8954 41.5115V44.4709V44.476ZM77.3833 50.3557V29.6441H72.5154V50.3557H77.3833ZM103.024 50.3557L95.1846 39.6272L102.507 29.6452H96.9301L95.0398 32.4875C94.0952 33.9456 92.9164 35.9172 92.3959 36.7068C91.9718 35.9295 90.79 34.0627 89.7981 32.5655L87.8534 29.6452H82.239L89.5147 39.6272L81.7379 50.3557H87.2168L89.6277 46.8049C90.5723 45.3817 91.8948 43.3711 92.3219 42.5815C92.7922 43.3588 93.9278 45.2646 94.9197 46.7659L97.2813 50.3599L103.024 50.3557ZM112.228 50.3557V29.6441H107.363V50.3557H112.228ZM164.746 39.8983C164.746 33.4291 160.023 29.2046 153.69 29.2046C147.469 29.2046 142.635 33.2299 142.635 40.0153C142.635 46.4845 147.301 50.7829 153.55 50.7829C159.927 50.7829 164.742 46.7618 164.742 39.8983H164.746ZM159.835 40.0153C159.835 43.8034 157.424 46.9178 153.738 46.9178C150.051 46.9178 147.551 44.4329 147.551 39.8983C147.551 35.7909 149.818 33.0738 153.507 33.0738C157.423 33.0779 159.834 35.8001 159.834 40.0195L159.835 40.0153Z" fill="#202020"/>
<path d="M137.099 32.6971C136.019 31.5539 134.708 30.6527 133.255 30.0528C131.801 29.453 130.237 29.1681 128.665 29.2171C122.443 29.2171 117.609 33.2423 117.609 40.0236C117.609 46.4928 122.275 50.7953 128.52 50.7953C134.897 50.7953 139.719 46.7701 139.719 39.9107C139.721 39.1129 139.642 38.3169 139.486 37.5346H127.692V40.9601H134.749C134.388 44.3118 132.086 46.9333 128.711 46.9333C125.025 46.9333 122.52 44.4483 122.52 39.9107C122.52 35.8033 124.788 33.0862 128.476 33.0862C129.356 33.0499 130.233 33.2078 131.045 33.5487C131.858 33.8896 132.585 34.4052 133.175 35.0588L137.099 32.6971Z" fill="#202020"/>
<path d="M18.6209 39.2772L9.31934 48.5753L20.7433 60.0001L40.7418 40.0001L33.5718 32.8254L22.8666 43.5252L21.4702 42.1287L18.6158 39.2741L18.6209 39.2772Z" fill="#202020"/>
<path d="M22.8706 40.7352L32.1753 31.4299L20.7442 20L0.745605 40L7.92381 47.1787L17.2254 37.8806L18.6218 36.4841L20.0141 37.8806L22.8686 40.7352H22.8706Z" fill="#4A4A4A"/>
</g>
<defs>
<clipPath id="clip0_237_10298">
<rect width="164" height="80" fill="white" transform="translate(0.845215)"/>
</clipPath>
</defs>
</svg>
