<svg width="152" height="80" viewBox="0 0 152 80" fill="none" xmlns="http://www.w3.org/2000/svg">
<path d="M128.014 19.7122C128.271 19.7122 128.478 19.7638 128.736 19.9186C128.942 20.0218 129.148 20.2282 129.251 20.4345C129.406 20.6925 129.458 20.8989 129.458 21.1569C129.458 21.4149 129.406 21.6729 129.251 21.8793C129.148 22.0857 128.942 22.2921 128.736 22.3953C128.529 22.4985 128.271 22.6017 128.014 22.6017C127.756 22.6017 127.498 22.5501 127.291 22.3953C127.085 22.2921 126.879 22.0857 126.776 21.8793C126.672 21.6729 126.569 21.4149 126.569 21.1569C126.569 20.8989 126.621 20.6409 126.776 20.4345C126.93 20.2282 127.085 20.0218 127.343 19.9186C127.549 19.7638 127.807 19.7122 128.014 19.7122ZM128.014 19.8154C127.807 19.8154 127.601 19.867 127.343 19.9702C127.085 20.0734 126.982 20.2282 126.827 20.4345C126.724 20.6409 126.672 20.8473 126.672 21.1053C126.672 21.3117 126.724 21.5697 126.827 21.7761C126.93 21.9825 127.085 22.1373 127.291 22.2405C127.498 22.3437 127.704 22.3953 127.962 22.3953C128.168 22.3953 128.426 22.3437 128.632 22.2405C128.839 22.1373 128.994 21.9825 129.097 21.7761C129.2 21.5697 129.251 21.3633 129.251 21.1053C129.251 20.8989 129.2 20.6409 129.097 20.4345C128.994 20.2282 128.839 20.0734 128.581 19.9702C128.323 19.867 128.271 19.8154 128.014 19.8154ZM127.24 20.2282H128.014C128.22 20.2282 128.375 20.2798 128.478 20.3829C128.581 20.4861 128.632 20.5893 128.632 20.6925C128.632 20.7957 128.581 20.8989 128.529 20.9505C128.478 21.0537 128.323 21.1053 128.168 21.1053L128.581 21.7245C128.632 21.7761 128.684 21.8277 128.736 21.8793C128.787 21.8793 128.787 21.9309 128.839 21.9309V21.9825H128.478L127.859 21.1569H127.704V21.8277C127.704 21.8793 127.756 21.9309 127.756 21.9309C127.807 21.9309 127.859 21.9825 127.962 21.9825V22.0341H127.188V21.9825C127.24 21.9825 127.291 21.9825 127.343 21.9825C127.395 21.9825 127.395 21.9309 127.395 21.9309C127.395 21.9309 127.395 21.8277 127.395 21.7245V20.6409C127.395 20.5377 127.395 20.4861 127.395 20.4861C127.395 20.4345 127.343 20.4345 127.343 20.4345C127.343 20.4345 127.291 20.4345 127.188 20.4345V20.2282H127.24ZM127.704 21.1053C127.859 21.1053 127.962 21.1053 128.065 21.0537C128.117 21.0021 128.22 21.0021 128.22 20.8989C128.271 20.8473 128.271 20.7957 128.271 20.6925C128.271 20.5893 128.22 20.4861 128.168 20.4345C128.117 20.3829 128.014 20.3314 127.859 20.3314C127.807 20.3314 127.756 20.3314 127.704 20.3829V21.1053Z" fill="#202020"/>
<path d="M130.438 33.128C132.449 49.3302 108.62 65.5839 77.2081 69.4539C45.7966 73.3238 18.9756 63.3136 16.964 47.1114C14.9524 30.9092 38.6271 14.6554 70.0386 10.7855C101.45 6.91553 128.478 16.9258 130.438 33.128ZM75.9186 12.4883C47.2924 15.0166 25.1134 28.6904 26.4029 43.035C27.6924 57.3796 51.8829 66.9771 80.5092 64.4487C109.135 61.9204 131.314 48.2466 130.025 33.902C128.735 19.5058 104.545 9.95989 75.9186 12.4883Z" fill="#202020"/>
<path d="M129.767 47.2147C133.072 47.2147 135.75 44.5349 135.75 41.2292C135.75 37.9235 133.072 35.2437 129.767 35.2437C126.463 35.2437 123.784 37.9235 123.784 41.2292C123.784 44.5349 126.463 47.2147 129.767 47.2147Z" fill="#202020"/>
<path d="M47.447 36.1722H47.6533C48.3238 36.2238 48.6333 36.4302 48.7364 36.5334C48.8396 36.6366 48.9943 36.9978 48.9943 38.0814V42.4157C48.9943 43.4477 48.8912 44.2217 48.6333 44.6861C48.2207 45.5117 47.3954 45.9245 46.1059 45.9245C44.9712 45.9245 44.1975 45.5117 43.7849 44.7377C43.5786 44.2733 43.4754 43.6541 43.4754 42.7769V37.4106C43.4754 36.6882 43.6301 36.4818 43.6817 36.4302C43.7849 36.3786 44.0428 36.2238 44.7649 36.1722H44.9712V35.3982H39.7617V36.1722H39.968C40.7417 36.2238 40.948 36.3786 41.0512 36.4302C41.1028 36.4818 41.2575 36.6882 41.2575 37.4106V42.6221C41.2575 43.7057 41.4638 44.5829 41.8249 45.2537C42.547 46.492 43.8364 47.1628 45.7449 47.1628C47.6533 47.1628 48.9943 46.5436 49.6649 45.2537C50.0259 44.5829 50.2322 43.6025 50.2322 42.4157V38.0814C50.2322 36.9978 50.387 36.6882 50.4901 36.585C50.5933 36.4302 50.8512 36.2754 51.5733 36.2238H51.7796V35.4498H47.3954V36.1722H47.447Z" fill="#202020"/>
<path d="M36.6155 38.9586L34.8102 37.8234C34.1397 37.4106 33.6755 37.0494 33.366 36.6882C33.0565 36.3787 32.9534 35.9659 32.9534 35.5015C32.9534 34.9855 33.1081 34.5727 33.4691 34.3147C33.8302 34.0051 34.2944 33.8503 34.8102 33.8503C35.4807 33.8503 36.1512 34.1083 36.8734 34.5727C37.5439 35.0371 38.0597 35.9659 38.3691 37.2042L38.4207 37.4106H39.4007L38.8849 32.5603H38.0081V32.7151C37.9565 32.9215 37.9049 33.0247 37.8018 33.1279C37.7502 33.1795 37.647 33.2311 37.4923 33.2311C37.4923 33.2311 37.286 33.1795 36.4091 32.9215C35.7386 32.6635 35.1197 32.5603 34.6555 32.5603C33.4691 32.5603 32.4891 32.9215 31.7155 33.6439C30.9934 34.3663 30.6323 35.2951 30.6323 36.4303C30.6323 37.2558 30.9418 38.0298 31.5607 38.7522C31.8702 39.1134 32.3344 39.4746 32.8502 39.8358L34.6039 40.9194C35.5839 41.5386 36.2544 42.003 36.5639 42.3126C37.0281 42.777 37.2344 43.293 37.2344 43.9122C37.2344 44.5829 37.0281 45.0989 36.6155 45.4601C36.2028 45.8213 35.687 46.0277 35.0681 46.0277C33.9334 46.0277 33.0049 45.5633 32.2313 44.6861C31.767 44.1701 31.406 43.4478 31.0449 42.5706L30.9934 42.4158H30.0649L30.7355 47.3177H31.6123L31.6639 47.1113C31.6639 46.9565 31.7155 46.8533 31.8186 46.6985C31.8702 46.6469 31.9734 46.5953 32.0765 46.5953C32.0765 46.5953 32.2828 46.5953 33.2113 46.9565C33.9334 47.2145 34.6555 47.3177 35.2744 47.3177C36.6155 47.3177 37.6986 46.9049 38.5755 46.1825C39.4523 45.4085 39.8649 44.4281 39.8649 43.293C39.8649 42.4158 39.607 41.6934 39.1428 41.0742C38.5755 40.3002 37.8018 39.6294 36.6155 38.9586Z" fill="#202020"/>
<path d="M56.267 42.1062C56.5249 42.1062 56.7828 42.1062 56.9891 42.1062C58.2786 42.1062 59.3617 41.8482 60.2386 41.2806C61.167 40.713 61.5796 39.8358 61.5796 38.5974C61.5796 37.617 61.167 36.8431 60.3417 36.2239C59.568 35.6563 58.4333 35.3467 56.9375 35.3467H52.2954V36.1207H52.5017C53.2238 36.1723 53.4301 36.3271 53.4817 36.3787C53.5333 36.4303 53.688 36.6883 53.688 37.3591V44.583C53.688 45.4085 53.5849 45.6665 53.5333 45.7697C53.4817 45.8213 53.2754 45.9761 52.5017 46.0793H52.2954V46.8533H57.4533V46.0793H57.247C56.4217 46.0277 56.1638 45.8729 56.1122 45.8213C56.0607 45.7697 55.9059 45.5633 55.9059 44.841V42.0546C56.0091 42.0546 56.1122 42.1062 56.267 42.1062ZM55.9059 36.7915C55.9059 36.5851 55.9575 36.5335 55.9575 36.5335C55.9575 36.5335 56.0607 36.4819 56.4217 36.4819C57.0922 36.4819 57.6596 36.5851 58.1238 36.7915C58.8975 37.1527 59.3101 37.7718 59.3101 38.649C59.3101 39.6294 58.9491 40.3002 58.227 40.6614C57.8144 40.8678 57.247 40.971 56.5249 40.971C56.4217 40.971 56.3701 40.971 56.267 40.971C56.2154 40.971 56.0607 40.971 55.9059 40.9194V36.7915Z" fill="#202020"/>
<path d="M70.0898 43.6026L70.0382 43.7574C69.6256 44.6346 69.213 45.2021 68.6972 45.4085C68.1814 45.6149 67.4077 45.7697 66.273 45.7697C64.9319 45.7697 64.5709 45.7181 64.4677 45.6665C64.4161 45.6665 64.313 45.6149 64.313 45.3053V41.4354H66.634C67.4593 41.4354 67.7172 41.5902 67.8203 41.6934C67.9235 41.7966 68.0782 42.1062 68.233 42.8802L68.2846 43.0866H69.1098V38.7522H68.2846L68.233 38.9586C68.0782 39.681 67.9235 39.9906 67.8203 40.0938C67.7172 40.197 67.4593 40.3518 66.634 40.3518H64.313V36.7915C64.313 36.5851 64.3646 36.5335 64.313 36.5335C64.313 36.5335 64.4161 36.4819 64.5709 36.4819H66.8403C68.0267 36.4819 68.4393 36.6367 68.594 36.7399C68.7488 36.8431 68.9551 37.2043 69.1614 38.0298L69.213 38.2362H70.0898L70.0382 35.3467H60.7025V36.1207H60.9088C61.6309 36.1723 61.8888 36.3271 61.9404 36.3787C61.9919 36.4303 62.1467 36.6883 62.1467 37.3591V44.7894C62.1467 45.5633 61.9919 45.7181 61.9404 45.7697C61.8372 45.8213 61.6309 45.9761 60.8572 46.0277H60.6509V46.8017H70.1414L71.0182 43.4994H70.0898V43.6026Z" fill="#202020"/>
<path d="M80.9217 45.9245C80.7154 45.8213 80.5607 45.6665 80.3544 45.4085L77.1565 41.487C77.9302 41.3322 78.6007 41.0226 79.0649 40.6098C79.6838 40.0938 79.9933 39.423 79.9933 38.4942C79.9933 37.1527 79.3228 36.2239 77.9817 35.7079C77.3112 35.4499 76.4859 35.3467 75.506 35.3467H70.606V36.1207H70.8123C71.5344 36.1723 71.7407 36.3271 71.8439 36.3787C71.8954 36.4303 72.0502 36.6883 72.0502 37.3591V44.583C72.0502 45.4601 71.947 45.6665 71.8954 45.7697C71.8439 45.8213 71.6375 45.9761 70.8639 46.0793H70.6575V46.8533H75.8154V46.0793H75.6091C74.8354 46.0277 74.6291 45.8729 74.526 45.8213C74.4744 45.7697 74.3196 45.5633 74.3196 44.841V41.7966H74.6807L78.8586 46.9565H81.9017V46.1825H81.6954C81.3859 46.0793 81.128 46.0277 80.9217 45.9245ZM74.2681 40.6614V36.7915C74.2681 36.5851 74.3196 36.5335 74.3196 36.5335C74.3196 36.5335 74.4744 36.4819 75.0417 36.4819C75.7123 36.4819 76.2281 36.5851 76.6407 36.7399C77.3628 37.0495 77.6723 37.617 77.6723 38.4942C77.6723 39.3714 77.3112 39.9906 76.486 40.3002C76.0733 40.5066 75.2996 40.6614 74.2681 40.6614Z" fill="#202020"/>
<path d="M89.7931 43.3446L86.131 35.3467H82.4173V36.1207H82.6752C83.5005 36.1723 83.7584 36.3271 83.8099 36.3787C83.9131 36.4303 84.0162 36.6883 84.0162 37.3591V44.1702C84.0162 45.2537 83.8615 45.5633 83.7584 45.7181C83.6552 45.8213 83.3973 46.0277 82.572 46.0793H82.3657V46.8533H86.8015V46.0793H86.5952C85.8731 46.0277 85.6668 45.8729 85.5636 45.7697C85.4089 45.6149 85.2541 45.2021 85.2541 44.1702V38.7006L89.071 46.9565H89.6383L93.5068 38.3394V44.6862C93.5068 45.5633 93.352 45.8213 93.3004 45.8729C93.2489 45.9245 93.0426 46.0793 92.2173 46.1309H92.011V46.9049H97.1689V46.1309H96.9625C96.2404 46.0793 95.9825 45.9245 95.931 45.8729C95.8794 45.8213 95.7246 45.6149 95.7246 44.8925V37.4107C95.7246 36.7399 95.8278 36.4819 95.931 36.4303C95.9825 36.3787 96.2404 36.2239 96.9625 36.1723H97.1689V35.3983H93.4552L89.7931 43.3446Z" fill="#202020"/>
<path d="M101.656 45.8729C101.605 45.8213 101.45 45.6665 101.45 44.8925V37.4106C101.45 36.6882 101.605 36.4818 101.656 36.4302C101.759 36.327 102.017 36.2238 102.842 36.1722H103.1V35.3982H97.6846V36.1722H97.9425C98.7677 36.2238 99.0256 36.327 99.1288 36.4302C99.1804 36.4818 99.3351 36.6882 99.3351 37.4106V44.8409C99.3351 45.6149 99.1804 45.8213 99.1288 45.8213C99.0256 45.8729 98.7677 46.0277 97.9425 46.0793H97.7362V46.8532H103.152V46.0793H102.946C102.017 46.0793 101.708 45.9245 101.656 45.8729Z" fill="#202020"/>
<path d="M111.92 44.3248C111.456 44.7892 110.992 45.1504 110.579 45.3568C109.909 45.7696 109.135 45.9244 108.31 45.9244C107.175 45.9244 106.247 45.5116 105.524 44.686C104.802 43.8604 104.39 42.7252 104.39 41.2805C104.39 39.7325 104.751 38.4941 105.473 37.6169C106.195 36.7397 107.072 36.3269 108.155 36.3269C109.238 36.3269 110.063 36.7397 110.734 37.5137C111.095 37.9265 111.353 38.5457 111.559 39.2165L111.611 39.3713H112.436L112.281 35.1401H111.508L111.456 35.2949C111.404 35.3981 111.353 35.5013 111.25 35.5529C111.147 35.6045 111.043 35.6561 110.94 35.6561C110.889 35.6561 110.734 35.6045 109.909 35.3981C109.238 35.1917 108.619 35.1401 108 35.1401C106.195 35.1401 104.699 35.7593 103.616 36.9461C102.533 38.0813 102.017 39.5261 102.017 41.2289C102.017 42.88 102.533 44.2732 103.564 45.3568C104.648 46.5436 106.143 47.1628 108 47.1628C109.135 47.1628 110.218 46.8532 111.198 46.234C111.765 45.8728 112.23 45.4084 112.642 44.944L112.797 44.7892L112.178 44.17L111.92 44.3248Z" fill="#202020"/>
<path d="M123.784 46.1309C123.474 46.0793 123.268 46.0277 123.062 45.9245C122.855 45.8213 122.701 45.6665 122.494 45.4085L119.296 41.487C120.07 41.3322 120.741 41.0226 121.205 40.6098C121.824 40.0938 122.133 39.423 122.133 38.4942C122.133 37.1527 121.463 36.2239 120.122 35.7079C119.451 35.4499 118.626 35.3467 117.646 35.3467H112.797V36.1207H113.004C113.726 36.1723 113.932 36.3271 114.035 36.3787C114.087 36.4303 114.242 36.6883 114.242 37.3591V44.583C114.242 45.4601 114.138 45.6665 114.087 45.7697C114.035 45.8213 113.829 45.9761 113.055 46.0793H112.849V46.8533H118.007V46.0793H117.801C117.027 46.0277 116.821 45.8729 116.717 45.8213C116.666 45.7697 116.511 45.5633 116.511 44.841V41.7966H116.872L121.05 46.9565H124.093V46.1825L123.784 46.1309ZM116.408 40.6614V36.7915C116.408 36.5851 116.459 36.5335 116.459 36.5335C116.459 36.5335 116.614 36.4819 117.182 36.4819C117.852 36.4819 118.368 36.5851 118.781 36.7399C119.503 37.0495 119.812 37.617 119.812 38.4942C119.812 39.3714 119.451 39.9906 118.626 40.3002C118.213 40.5066 117.439 40.6614 116.408 40.6614Z" fill="#202020"/>
</svg>
