<svg width="162" height="80" viewBox="0 0 162 80" fill="none" xmlns="http://www.w3.org/2000/svg">
<path fill-rule="evenodd" clip-rule="evenodd" d="M10.1362 29.5921V52.9572H14.1841V37.3195L26.6024 52.9572H29.9137V29.5921H26.1423V42.4706L15.8393 29.5921H10.1362ZM66.4338 44.8615L63.4899 52.9564H67.2622L68.4581 49.9207L66.4338 44.8615ZM77.3806 29.5921H72.506L70.9418 33.6399L73.149 39.2512L73.8848 37.2276L79.6797 52.9572H86.3031L77.3806 29.5921ZM77.105 52.9572L68.1817 29.5921H63.4899L54.7512 52.9572H58.9828L64.8696 37.2276L70.7572 52.9572H77.105ZM44.1726 28.6726C36.4452 28.6726 32.5819 34.5603 32.5819 41.2755C32.5819 48.0818 36.4452 53.8776 44.1726 53.8776C51.8992 53.8776 55.6715 48.0826 55.6715 41.2755C55.6715 34.5594 51.8992 28.6726 44.1726 28.6726ZM44.1726 50.6573C41.2288 50.6573 38.4687 47.8062 38.4687 41.2755C38.4687 34.744 41.2288 31.892 44.1726 31.892C47.0238 31.892 49.8757 34.744 49.8757 41.2755C49.8757 47.8062 47.0238 50.6573 44.1726 50.6573ZM116.201 32.9034H118.776C121.627 32.9034 122.916 34.6513 122.916 37.1349C122.916 40.0779 121.261 41.1828 117.212 41.4584L123.376 52.9564H129.723L124.112 42.6543C127.147 41.643 128.896 39.8942 128.896 36.3065C128.896 32.5351 125.861 29.5913 121.628 29.5913H110.222V52.9564H116.201L116.201 32.9034ZM101.941 44.9551C101.941 48.4509 100.745 50.1972 97.4345 50.1972C94.0305 50.1972 92.9265 48.4501 92.9265 44.9551V29.5921H86.8551V44.9551C86.8551 51.2102 90.6282 53.8776 96.606 53.8776C102.586 53.8776 106.265 51.211 106.265 44.9551V29.5921H101.941V44.9551ZM139.749 29.5921L130.367 52.9572H134.414L136.989 46.5193H145.544L148.122 52.9572H154.744L145.178 29.5921H139.749ZM138.277 43.2063L141.221 35.8472L144.163 43.2063H138.277Z" fill="black"/>
</svg>
