<svg width="177" height="80" viewBox="0 0 177 80" fill="none" xmlns="http://www.w3.org/2000/svg">
<path d="M48.0062 23H41.915V56.0723H48.0062V23Z" fill="#202020"/>
<path d="M69.8329 44.7579C69.8329 45.6283 69.7314 46.4986 69.4268 47.2722C69.1222 48.0458 68.7162 48.7227 68.2086 49.3997C67.701 49.9799 67.0919 50.4634 66.3812 50.7535C65.6706 51.0436 64.8584 51.237 64.0463 51.237C62.7265 51.237 61.6098 50.8502 60.7977 49.9799C59.9855 49.1095 59.5794 47.8524 59.5794 46.3052V30.8328H53.4883V46.3052C53.4883 49.3997 54.3004 51.9139 55.8232 53.7513C57.346 55.5886 59.681 56.5556 62.7265 56.5556C63.6402 56.5556 64.5539 56.4589 65.2645 56.2655C65.9752 56.0721 66.6858 55.782 67.2949 55.4919C67.904 55.2018 68.4116 54.815 68.8177 54.4282C69.2238 54.0414 69.6298 53.6546 69.9344 53.3645L70.1374 56.1688H75.924V30.8328H69.8329V44.7579Z" fill="#202020"/>
<path d="M95.5169 51.2371C94.9078 51.5272 94.1971 51.6239 93.2834 51.6239C92.2683 51.6239 91.5576 51.2371 91.05 50.4635C90.5424 49.6899 90.3394 48.6262 90.3394 47.1756V36.2482H96.7351V30.8329H90.2379V23H84.1467V30.8329H80.0859V36.1515H84.1467V47.5624C84.1467 48.9163 84.2482 50.1734 84.5528 51.3338C84.8573 52.4943 85.2634 53.4613 85.8725 54.2349C86.4817 55.0085 87.2938 55.6855 88.4105 56.0723C89.4257 56.5558 90.6439 56.7492 92.1667 56.7492C93.588 56.7492 94.9078 56.5558 96.0245 56.0723C97.1412 55.5887 98.3594 54.9118 99.5776 53.8481L97.0397 49.98C96.6336 50.5602 96.0245 50.947 95.5169 51.2371Z" fill="#202020"/>
<path d="M116.227 51.2371C115.618 51.5272 114.907 51.6239 113.993 51.6239C112.978 51.6239 112.268 51.2371 111.76 50.4635C111.252 49.6899 111.049 48.6262 111.049 47.1756V36.2482H117.547V30.8329H111.049V23H104.958V30.8329H100.897V36.1515H104.958V47.5624C104.958 48.9163 105.06 50.1734 105.364 51.3338C105.669 52.4943 106.075 53.4613 106.684 54.2349C107.293 55.0085 108.105 55.6855 109.222 56.0723C110.237 56.5558 111.455 56.7492 112.978 56.7492C114.4 56.7492 115.719 56.5558 116.836 56.0723C117.953 55.5887 119.171 54.9118 120.389 53.8481L117.851 49.98C117.344 50.5602 116.836 50.947 116.227 51.2371Z" fill="#202020"/>
<path d="M142.825 34.9911C141.911 33.6372 140.693 32.5735 139.17 31.7032C137.647 30.8329 135.82 30.446 133.587 30.446C131.759 30.446 130.135 30.7362 128.612 31.4131C127.089 32.09 125.871 32.9603 124.754 34.1207C123.638 35.2812 122.826 36.635 122.216 38.1822C121.607 39.7295 121.303 41.4701 121.303 43.3075C121.303 45.3382 121.607 47.1756 122.216 48.8195C122.826 50.4635 123.638 51.914 124.754 53.0744C125.871 54.2349 127.191 55.2019 128.815 55.8788C130.338 56.5557 132.165 56.8458 134.094 56.8458C136.023 56.8458 137.546 56.6524 138.967 56.1689C140.287 55.7821 141.404 55.2986 142.317 54.7184C143.231 54.2349 143.84 53.6547 144.348 53.1711C144.855 52.6876 145.058 52.3975 145.16 52.3008L141.911 48.5294C141.708 48.7228 141.404 49.0129 140.997 49.303C140.591 49.5931 140.084 49.98 139.475 50.2701C138.866 50.5602 138.155 50.8503 137.241 51.0437C136.328 51.2371 135.312 51.4305 134.196 51.4305C133.384 51.4305 132.571 51.3338 131.861 51.0437C131.049 50.7536 130.338 50.3668 129.729 49.7866C129.12 49.303 128.612 48.6261 128.206 47.8525C127.8 47.0789 127.597 46.3053 127.597 45.3382H145.464V44.4679C145.464 42.7273 145.261 40.9866 144.855 39.246C144.449 37.7954 143.738 36.3449 142.825 34.9911ZM127.394 41.0833C127.394 40.4064 127.495 39.8262 127.8 39.1493C128.105 38.4724 128.511 37.9888 129.018 37.4086C129.526 36.9251 130.135 36.4416 130.947 36.1515C131.759 35.8614 132.571 35.668 133.587 35.668C134.5 35.668 135.312 35.8614 136.023 36.1515C136.734 36.4416 137.343 36.9251 137.749 37.4086C138.256 37.8921 138.561 38.4724 138.764 39.1493C138.967 39.8262 139.17 40.4064 139.17 41.0833H127.394Z" fill="#202020"/>
<path d="M164.754 30.6394C164.246 30.5427 163.738 30.5427 163.231 30.5427C162.216 30.5427 161.403 30.6394 160.591 30.9295C159.779 31.2196 159.17 31.5098 158.561 31.7999C157.952 32.1867 157.444 32.5735 157.038 32.9603C156.632 33.3471 156.226 33.7339 156.023 34.1207L155.82 30.8328H150.033V56.0722H156.124V42.4371C156.124 41.5668 156.327 40.6965 156.632 39.9229C156.937 39.1493 157.343 38.569 157.952 37.9888C158.459 37.5053 159.17 37.0218 159.881 36.7317C160.591 36.4416 161.403 36.3449 162.216 36.3449C162.825 36.3449 163.332 36.3449 163.738 36.4416C164.144 36.5383 164.55 36.635 164.957 36.8284L166.175 30.9295C165.667 30.8328 165.16 30.7361 164.754 30.6394Z" fill="#202020"/>
<path d="M37.5496 23H11.8652V29.6725H37.5496V23Z" fill="#202020"/>
<path d="M31.1539 36.2483H11.8652V42.9208H31.1539V36.2483Z" fill="#202020"/>
<path d="M18.2609 49.4966H11.8652V56.0724H18.2609V49.4966Z" fill="#202020"/>
<path d="M160.693 23.6769H159.678V23H162.52V23.6769H161.505V26.2879H160.693V23.6769Z" fill="#202020"/>
<path d="M162.927 23H163.637L164.449 24.5472L165.262 23H165.972L166.074 26.2879H165.363L165.262 24.1604L164.551 25.4176H164.145L163.434 24.1604L163.333 26.2879H162.622L162.927 23Z" fill="#202020"/>
</svg>
