<svg width="214" height="80" viewBox="0 0 214 80" fill="none" xmlns="http://www.w3.org/2000/svg">
<path fill-rule="evenodd" clip-rule="evenodd" d="M71.5285 12.2595L29.7148 26.0703L43.5264 68.1692L80.2912 56.0727L77.148 46.0719L65.5284 45.9765L64.1948 50.6431H58.1938L68.1946 20.8314H74.3855L71.5285 12.2595Z" fill="#494A4E"/>
<path fill-rule="evenodd" clip-rule="evenodd" d="M67.0518 41.0238L71.147 27.8799L75.5283 41.1192L67.0518 41.0238Z" fill="#494A4E"/>
<path fill-rule="evenodd" clip-rule="evenodd" d="M99.7213 21.0221H79.1475V34.7375L84.3863 50.454H100.673V45.4051H84.3863V37.1193H96.0068V32.2611H84.3863V25.9749H99.7213V21.0221ZM161.727 50.3578V21.0221H167.156L179.537 40.5469V21.0221H184.871V50.3578H179.632L167.156 30.6415V50.3578H161.727ZM114.865 20.26L116.865 20.4507L118.77 20.9268L120.579 21.6897L122.295 22.641L123.819 23.88L125.056 25.2135L126.105 26.737L126.866 28.4512L122.103 30.8322L122.009 30.5469L121.722 29.9755L121.246 29.1188L120.485 28.0706L119.533 27.1177L118.294 26.1656L116.77 25.5942L114.96 25.4034L113.151 25.4988L111.531 26.0702L110.103 27.0223L108.865 28.2605L107.913 29.7848L107.246 31.5944L106.864 33.6901L106.674 36.071L106.864 38.3567L107.341 40.4515L108.198 42.1666L109.245 43.5001L110.483 44.6438L111.818 45.4051L113.34 45.8811L114.96 45.9765L116.58 45.8811L117.913 45.4051L119.151 44.8345L120.198 43.9762L120.961 43.0241L121.627 41.8821L122.009 40.6431L122.199 39.4049H115.056V34.3568H126.961V50.454H122.39V47.7861L122.295 47.9768L122.103 48.3575L121.532 48.8335L120.866 49.5011L119.818 50.0733L118.485 50.6431L116.77 51.0254L114.771 51.1191L112.484 50.93L110.103 50.3578L107.817 49.3104L105.721 47.7861L103.817 45.6912L102.388 43.1195L101.436 39.881L101.054 35.9757L101.436 32.1658L102.292 28.8327L103.721 26.1656L105.531 23.9745L107.626 22.3557L110.007 21.2129L112.389 20.5461L114.865 20.26ZM138.773 43.6909L139.342 44.1677L139.915 44.5484L140.486 44.9282L141.154 45.3089L141.819 45.5005L142.486 45.6912L143.248 45.7857L144.107 45.8811L146.105 45.5958L147.916 45.0244L149.345 43.9762L150.582 42.7388L151.439 41.2145L152.106 39.5003L152.487 37.6899L152.679 35.7858L152.487 33.7846L152.106 31.7851L151.439 30.0701L150.487 28.4512L149.249 27.1177L147.82 26.0702L146.105 25.4034L144.107 25.1173L142.106 25.4034L140.391 26.0702L138.962 27.1177L137.82 28.5466L136.961 30.1654L136.392 31.975L136.105 33.8808L135.916 35.8803L136.009 37.0239L136.105 38.1667L136.392 39.2142L136.677 40.2624L137.057 41.2145L137.534 42.0712L138.105 42.9279L138.773 43.6909L136.581 48.7381L135.248 47.7861L134.104 46.6441L132.962 45.2152L132.104 43.6909L131.343 41.9758L130.771 40.0709L130.486 38.0705L130.391 35.7858L130.675 32.0712L131.438 28.8327L132.772 26.1656L134.487 23.9745L136.581 22.2603L138.962 21.0221L141.534 20.3554L144.2 20.0701L146.581 20.3554L149.058 20.9268L151.439 22.0704L153.535 23.7846L155.44 25.8795L156.868 28.642L157.821 31.8805L158.202 35.7858L157.917 39.0234L157.249 41.9758L156.012 44.5484L154.392 46.7395L152.392 48.549L150.011 49.8818L147.249 50.6431L144.2 50.93H143.152L142.202 50.8347L141.154 50.6431L140.201 50.454L139.249 50.0733L138.296 49.691L137.438 49.3104L136.581 48.7381L138.773 43.6909ZM87.6248 60.7393L86.482 57.6923H166.965V60.7393H87.6248Z" fill="black"/>
</svg>
