<svg width="163" height="80" viewBox="0 0 163 80" fill="none" xmlns="http://www.w3.org/2000/svg">
<path fill-rule="evenodd" clip-rule="evenodd" d="M57.0572 37.5506H33.7422L33.7449 41.4697C33.8613 42.3626 34.5551 43.13 35.8217 43.7638C36.831 44.2821 37.8294 44.5403 38.816 44.5403H49.0637C50.0493 44.5403 50.9541 44.3539 51.7752 43.9775C52.9718 43.4374 53.7238 42.6281 54.0293 41.5479H57.0227C56.7399 43.4501 55.7315 44.9504 53.9929 46.0534C52.5372 46.9927 50.8932 47.4619 49.0628 47.4619H38.8151C36.989 47.47 35.1965 46.9708 33.6376 46.0197C31.7326 44.8686 30.7797 43.3682 30.7797 41.5142V32.6814C30.7797 30.8519 31.649 29.3852 33.3903 28.2831C34.9397 27.2975 36.7483 26.8046 38.8151 26.8046H49.0628C51.105 26.8046 52.8891 27.2729 54.4158 28.2095C56.1752 29.3106 57.0563 30.7864 57.0563 32.6359L57.0572 37.5506ZM127.443 32.7168C127.443 30.8401 126.501 29.3388 124.619 28.2122C123.046 27.2738 121.321 26.8046 119.443 26.8046H109.159C107.285 26.8046 105.631 27.2738 104.199 28.2122C102.489 29.2916 101.494 30.7937 101.212 32.7187H104.199C104.529 31.6157 105.28 30.8055 106.45 30.289C107.225 29.9135 108.138 29.7253 109.194 29.7253H119.443C120.43 29.7253 121.427 29.9826 122.439 30.4964C123.682 31.1047 124.362 31.8648 124.477 32.7759V36.8477C124.056 36.4267 123.634 36.0039 122.732 35.6093C121.79 35.1974 120.81 35.0164 119.443 35.0364H109.194C107.225 35.0364 105.303 35.3892 103.731 36.3995C101.927 37.5279 101.177 39.5347 101.177 41.3451C101.177 43.2237 101.995 44.9659 103.698 46.1316C105.15 47.1227 106.432 47.3855 108.042 47.3855H119.786C121.163 47.3855 123.153 46.9963 124.478 46.1725V47.441H127.439L127.443 32.7168ZM20.1556 26.7201H9.90244C9.19865 26.7201 8.47667 26.8028 7.7356 26.9665C6.99635 27.1302 6.02614 27.4593 4.82952 27.9522V18H1.86705L1.86523 47.1282H4.82861V46.0943C6.34985 46.9963 8.03658 47.4619 9.90062 47.4619H20.1547C22.1524 47.4619 23.9137 46.9554 25.4404 45.9488C27.2489 44.7731 28.1537 43.2955 28.1537 41.5106V32.6368C28.1537 28.6169 23.499 26.7201 20.1556 26.7201ZM132.179 19.9759H135.141V22.8547H132.179V19.9759ZM54.0993 32.7059C54.0993 31.8648 53.5947 31.1629 52.5863 30.6018C51.5751 30.0181 50.3894 29.7262 49.0273 29.7262H38.816C37.7339 29.7262 36.7019 29.9353 35.7153 30.3563C34.4005 30.8946 33.7449 31.6657 33.7449 32.6705C33.7449 33.6298 33.7422 34.7864 33.7422 34.7864H54.1284C54.1284 34.7873 54.0993 33.5479 54.0993 32.7059ZM122.941 43.9902C121.996 44.5003 120.498 44.6185 119.442 44.6185H109.159C107.798 44.6185 106.431 44.5831 105.376 43.812C104.438 43.1282 104.129 42.118 104.129 41.2705C104.129 40.4231 104.485 39.3337 105.5 38.5727C106.371 37.9216 107.834 37.7279 109.193 37.7279H119.442C120.429 37.7279 121.629 38.0362 122.695 38.6263C123.929 39.3083 124.476 40.6086 124.476 41.5751C124.477 42.5635 124.04 43.3983 122.941 43.9902ZM77.6299 37.9407V41.4396C77.4335 42.4835 77.5471 42.96 76.2423 43.7929C75.1803 44.4712 73.4581 44.3967 72.4233 44.3967H71.0048C69.8773 44.3967 68.407 44.4712 67.194 43.5674C66.3574 42.9436 66.2647 42.0825 66.2647 41.0968V29.7262H80.2368V26.8056H66.2647V22.6974H63.2586V26.8056H58.9249V29.7262H63.2586L63.2577 41.246C63.2377 43.271 64.1661 44.9631 65.6027 45.8242C67.0158 46.6699 68.7962 46.9963 70.201 47.009H72.8088C74.6156 47.009 76.2532 46.9536 78.0027 45.7679C79.7076 44.6131 80.3387 43.1346 80.3841 41.4806L80.3978 37.9434L77.6299 37.9407ZM25.1903 41.5124C25.1903 42.5226 24.5329 43.3101 23.2181 43.8729C22.2576 44.3175 21.2112 44.5453 20.1528 44.5403H9.86698C8.85767 44.5403 7.82289 44.3057 6.76721 43.8356C5.47511 43.2746 4.82952 42.5108 4.82952 41.5479V32.6414C4.82952 31.6557 5.48693 30.8801 6.80176 30.3172C7.78116 29.8963 8.83643 29.6806 9.90244 29.6835H20.1528C21.2331 29.6835 22.2651 29.9062 23.2526 30.3518C24.5429 30.9155 25.1903 31.6784 25.1903 32.6414V41.5124ZM161.66 32.7196L161.671 36.2867L158.936 36.2585L158.906 32.7596C158.71 31.7157 158.052 31.0156 156.931 30.3891C155.971 29.8526 154.732 29.7262 153.7 29.7262H148.438C147.311 29.7262 146.266 29.949 145.306 30.3945C144.013 30.9583 143.366 31.7312 143.366 32.7168V47.4619H140.404V26.8046H143.366V28.144C144.283 27.6512 145.138 27.3048 145.937 27.1047C146.735 26.9047 147.559 26.8046 148.403 26.8046H153.7C155.506 26.8046 157.153 27.262 158.628 28.1768C160.367 29.2797 161.615 31.0665 161.66 32.7196ZM132.179 47.4619V26.7883H135.141V47.4619H132.179ZM90.059 29.7262V47.4619H87.0947V29.7262H83.1947L83.1929 26.8056L87.0947 26.8046V24.3941C87.0947 22.5392 87.8121 21.0725 89.2451 19.9923C90.5363 19.0066 92.2503 18.5138 94.3826 18.5138L99.7474 18.5128V21.4417H94.3826C93.5179 21.4344 92.3122 21.538 91.5129 22.0554C90.6427 22.5737 90.0581 23.6294 90.0581 24.405V26.8074H99.7865V29.728H90.059V29.7262ZM83.0192 61.9996H74.6229C73.0107 61.6731 71.203 60.5665 71.203 58.7198V53.6687C71.203 52.6494 71.7295 51.8037 72.7716 51.1327C73.6845 50.5553 74.7138 50.2679 75.8513 50.2679H81.7835C82.8373 50.2598 83.8734 50.5379 84.7814 51.0727C85.8662 51.7437 86.4118 52.6021 86.4118 53.6478V58.7198C86.4127 60.5238 84.596 61.6786 83.0192 61.9996ZM51.827 61.9996V60.1346H53.7902V61.9996H51.827ZM110.085 61.9996V53.6841C110.053 53.0149 109.668 52.6739 108.771 52.3093C107.806 51.9147 106.438 51.8419 105.255 51.8419C104.097 51.8419 103.122 52.021 102.343 52.3038C101.461 52.6112 100.811 53.1477 100.811 53.6841V61.9996H99.1864V53.6841C99.1864 53.1622 98.1916 52.7039 97.2633 52.3093C96.4622 51.9701 95.2283 51.8792 93.9634 51.8792C92.8232 51.8792 91.8612 52.021 91.0774 52.3038C90.2181 52.5966 89.7844 53.1367 89.7844 53.6859V61.9996H88.1595V50.3116H89.7844V51.0608C91.1483 50.5916 92.0858 50.3061 94.1408 50.3561C95.1228 50.3807 96.0803 50.3452 97.0087 50.5553C97.9389 50.7617 98.8554 51.2018 99.7574 51.6455C101.438 50.7553 102.882 50.2779 105.161 50.3116C105.923 50.3243 106.691 50.2579 107.459 50.377C108.23 50.498 108.955 50.5171 109.878 50.9772C111.37 51.7228 111.709 52.4902 111.709 53.6841V61.9996H110.085ZM84.706 53.6459C84.706 53.094 84.3295 52.6566 83.5821 52.3357C83.0179 52.0815 82.406 51.9506 81.7872 51.9519H75.8486C75.2248 51.9519 74.6265 52.0729 74.0555 52.3156C73.2935 52.6375 72.9125 53.0795 72.9125 53.6459V58.7443C72.9125 59.2963 73.288 59.7336 74.0346 60.0564C74.6456 60.3247 75.2467 60.4574 75.8313 60.4574H81.7881C82.4012 60.4597 83.0076 60.3294 83.5657 60.0755C84.3259 59.7527 84.7078 59.3026 84.7078 58.7243V53.6459H84.706ZM68.1615 61.3212C67.6453 61.6419 67.0778 61.8714 66.4838 61.9996H58.2639C57.6239 61.8692 57.0129 61.6236 56.4607 61.2749C55.4196 60.6156 54.8986 59.7654 54.8986 58.7189V53.6678C54.8986 52.6484 55.4132 51.8028 56.4407 51.1318C57.3373 50.5544 58.3502 50.267 59.475 50.267H65.3245C66.3565 50.267 67.2949 50.5262 68.1387 51.0499C69.1308 51.6764 69.7054 52.5402 69.8664 53.6396H68.1387C67.9642 53.0358 67.5404 52.5812 66.8721 52.272C66.3857 52.0536 65.8576 51.9438 65.3245 51.9501H59.475C58.8585 51.9501 58.2684 52.071 57.7065 52.3138C56.9545 52.6357 56.5808 53.0776 56.5808 53.6441V58.7425C56.5808 59.2944 56.9481 59.7318 57.6865 60.0546C58.2902 60.3228 58.8785 60.4556 59.455 60.4556H65.3245C65.901 60.4556 66.4111 60.3492 66.8539 60.1355C67.5368 59.8246 67.9651 59.3626 68.1396 58.7471H69.8673C69.7054 59.8491 69.1371 60.7066 68.1615 61.3212Z" fill="#202020"/>
</svg>
