<svg width="176" height="80" viewBox="0 0 176 80" fill="none" xmlns="http://www.w3.org/2000/svg">
<path d="M95.5205 39.7072L102.667 33.518H93.1912L87.3846 38.91V27.8706H79.9511L79.9737 35.8536C77.9631 33.5918 74.3366 32.9116 70.635 32.9116C68.783 32.9116 63.0555 32.9552 60.9044 35.7968V33.5176H54.8504C54.7311 32.9176 54.5446 32.3368 54.2946 31.795H60.9044V27.8706H53.4067V30.3482C53.0935 29.955 52.7411 29.6029 52.3535 29.3064C50.4713 27.9344 48.0465 27.9025 46.0682 27.8706H29.5098V50.3952H37.5816V42.1958H41.8886L46.5147 50.3952H60.904V48.7055C61.1926 48.9428 61.5283 49.1662 61.9249 49.3743C63.7114 50.2995 66.9975 50.9378 70.6347 50.9378C75.9948 50.9378 78.3876 49.5658 79.7912 48.2577C79.863 48.1859 79.9354 48.1104 80.0076 48.0333L80.0142 50.3952H87.4162V46.7581L90.447 44.1418L94.5944 50.3952H102.921L95.5205 39.7072ZM43.6438 37.091H37.5816V32.9754H44.2814C44.8878 32.9754 45.7172 33.0393 46.3551 33.6134C46.7697 33.9963 46.9296 34.5385 46.9296 35.0492C46.9296 37.059 44.8878 37.091 43.6438 37.091ZM49.8011 41.3979C50.7269 41.1513 52.189 40.8411 53.4386 39.4359V47.1929L49.8011 41.3979ZM70.7623 46.8857C69.4864 46.8857 68.0187 46.5666 67.3486 45.8648C66.9975 45.4822 66.9337 45.1631 66.8699 44.9078L60.9037 45.1584V41.0153C61.8375 42.1486 63.5003 42.6648 65.5936 43.1529C66.9018 43.4397 68.2099 43.6635 69.5496 43.8546C71.9105 44.2053 73.091 44.3652 73.5059 44.8436C73.6016 44.9393 73.7293 45.1308 73.7293 45.4181C73.7296 46.4709 72.2619 46.8857 70.7623 46.8857ZM75.676 40.409C74.5913 40.2494 69.8375 39.7069 68.9123 39.4519C67.923 39.1966 67.4765 38.9094 67.4765 38.3672C67.4765 37.442 68.7205 37.0271 70.1563 37.0271C70.858 37.0271 73.57 37.1548 73.8892 38.8455L79.9813 38.5852L79.9903 41.7989C78.8368 40.9372 77.1563 40.6496 75.676 40.409Z" fill="#202020"/>
<path d="M101.693 45.4622H106.973V50.2036L104.857 50.1824L101.693 45.4622Z" fill="#202020"/>
<path d="M108.974 34.2858H113.13V36.5028H113.223C114.331 34.6864 116.24 33.855 118.088 33.855C122.737 33.855 123.907 36.4722 123.907 40.4132V50.2043H119.535V41.2134C119.535 38.5961 118.796 37.303 116.733 37.303C114.362 37.303 113.346 38.627 113.346 41.8596V50.2037H108.974V34.2858H108.974Z" fill="#202020"/>
<path d="M129.295 43.307C129.418 46.1088 130.742 47.3404 133.205 47.3404C134.96 47.3404 136.377 46.2627 136.654 45.2777H140.502C139.271 49.0648 136.654 50.6352 133.051 50.6352C128.032 50.6352 124.923 47.1869 124.923 42.2605C124.923 37.4881 128.218 33.855 133.051 33.855C138.47 33.855 141.118 38.4116 140.78 43.3074L129.295 43.307ZM136.407 40.5359C136.007 38.3189 135.053 37.1491 132.928 37.1491C130.096 37.1491 129.388 39.3042 129.295 40.5359H136.407Z" fill="#202020"/>
<path d="M147.369 34.2858H150.571V37.2109H147.369V45.0929C147.369 46.5709 147.738 46.9402 149.216 46.9402C149.709 46.9402 150.17 46.9096 150.571 46.8172V50.2346C149.832 50.3579 148.878 50.3885 148.015 50.3885C145.306 50.3885 142.996 49.8034 142.996 46.6015V37.2109H140.349V34.2858H142.996V29.5134H147.369V34.2858Z" fill="#202020"/>
</svg>
