<svg width="110" height="80" viewBox="0 0 110 80" fill="none" xmlns="http://www.w3.org/2000/svg">
<path d="M95.3615 68.0979C95.3615 68.9721 94.7194 69.5589 93.9593 69.5589V69.5535C93.1775 69.5589 92.5472 68.9721 92.5472 68.0981C92.5472 67.2244 93.1775 66.6393 93.9593 66.6393C94.7197 66.639 95.3615 67.2242 95.3615 68.0979ZM95.9304 68.0979C95.9304 66.898 94.9982 66.2016 93.9593 66.2016C92.9132 66.2016 91.981 66.898 91.981 68.0979C91.981 69.2969 92.9134 69.9961 93.9593 69.9961C94.9982 69.9961 95.9304 69.2969 95.9304 68.0979ZM93.6323 68.2583H93.8433L94.3324 69.1168H94.8692L94.3275 68.2222C94.6074 68.2022 94.8377 68.0692 94.8377 67.6924C94.8377 67.2242 94.5147 67.0739 93.9681 67.0739H93.1771V69.1168H93.6318L93.6323 68.2583ZM93.6323 67.9124V67.4207H93.9486C94.1207 67.4207 94.3551 67.4347 94.3551 67.6445C94.3551 67.8726 94.2338 67.9124 94.0309 67.9124H93.6323ZM82.6562 57.6467L85.1138 64.3678H80.1225L82.6562 57.6467ZM80.0242 55.0297L74.3606 69.375H78.3596L79.2554 66.84H85.9579L86.8057 69.375H91.1473L85.4415 55.0278L80.0242 55.0297ZM68.6536 69.3804H72.7111V55.0253L68.6529 55.0243L68.6536 69.3804ZM40.4859 55.0243L37.1007 66.4019L33.8579 55.0253L29.4799 55.0243L34.1113 69.3804H39.9567L44.6255 55.0243H40.4859ZM56.8867 58.1503H58.6308C61.1606 58.1503 62.7971 59.2858 62.7971 62.2325C62.7971 65.1797 61.1606 66.3154 58.6308 66.3154H56.8867V58.1503ZM52.8634 55.0243V69.3804H59.4411C62.9457 69.3804 64.0904 68.798 65.3278 67.4917C66.2018 66.5743 66.7671 64.5609 66.7671 62.3605C66.7671 60.3419 66.2887 58.5425 65.4546 57.4214C63.9519 55.4166 61.7869 55.0243 58.5557 55.0243H52.8634ZM14.4282 55.0044V69.3804H18.52V58.4646L21.6905 58.4656C22.7403 58.4656 23.4886 58.7273 23.9942 59.267C24.6354 59.9497 24.8972 61.0518 24.8972 63.068V69.3804H28.8621V61.4376C28.8621 55.7687 25.2478 55.0044 21.7114 55.0044H14.4282ZM46.3332 55.0243L46.3348 69.3804H50.3904V55.0243H46.3332Z" fill="black"/>
<path d="M25.5753 26.4364C25.5753 26.4364 30.7939 18.7391 41.2137 17.9428V15.1502C29.6725 16.0768 19.6782 25.8487 19.6782 25.8487C19.6782 25.8487 25.3388 42.2073 41.2137 43.7053V40.737C29.5639 39.2719 25.5753 26.4364 25.5753 26.4364ZM41.2137 34.8338V37.5525C32.4091 35.983 29.9651 26.8335 29.9651 26.8335C29.9651 26.8335 34.1926 22.1518 41.2137 21.3926V24.3755C41.2084 24.3755 41.2047 24.3739 41.2003 24.3739C37.5152 23.9318 34.6364 27.3732 34.6364 27.3732C34.6364 27.3732 36.25 33.1665 41.2137 34.8338ZM41.2137 9.99951V15.1502C41.5525 15.1243 41.8913 15.1022 42.232 15.0906C55.3531 14.6485 63.9024 25.8487 63.9024 25.8487C63.9024 25.8487 54.0832 37.785 43.8534 37.785C42.9158 37.785 42.0381 37.698 41.2137 37.552V40.737C41.9428 40.8307 42.6772 40.8781 43.4123 40.8789C52.9319 40.8789 59.8162 36.0187 66.4822 30.2664C67.5875 31.1513 72.1122 33.304 73.0423 34.2462C66.7042 39.5513 51.9326 43.8275 43.5582 43.8275C42.7509 43.8275 41.9757 43.7788 41.2137 43.7053V48.1807H77.3969V9.99951H41.2137ZM41.2137 21.3926V17.9428C41.549 17.9194 41.8869 17.9015 42.232 17.8906C51.6673 17.5944 57.8576 25.9964 57.8576 25.9964C57.8576 25.9964 51.1715 35.2792 44.0027 35.2792C42.971 35.2792 42.046 35.1134 41.2135 34.8336V24.3753C44.8867 24.819 45.626 26.4411 47.8343 30.1213L52.7461 25.9811C52.7461 25.9811 49.1608 21.2804 43.1169 21.2804C42.4597 21.2801 41.831 21.3265 41.2137 21.3926Z" fill="#202020"/>
</svg>
