<svg width="339" height="80" viewBox="0 0 339 80" fill="none" xmlns="http://www.w3.org/2000/svg">
<g clip-path="url(#clip0_237_10304)">
<path d="M100.889 44.0066C105.721 44.0066 112.712 43.0102 112.712 37.2632C112.727 36.8197 112.687 36.376 112.593 35.9423L109.715 23.4442C109.051 20.6943 108.467 19.4468 103.639 17.0329C99.8923 15.1173 91.7306 11.9541 89.3165 11.9541C87.0685 11.9541 86.4157 14.8508 83.735 14.8508C81.1548 14.8508 79.2389 12.6879 76.8248 12.6879C74.5072 12.6879 72.9969 14.2676 71.8304 17.5157C71.8304 17.5157 68.5819 26.6769 68.1648 28.0055C68.0985 28.2494 68.0698 28.5021 68.0798 28.7547C68.0798 32.3157 82.1011 43.9912 100.889 43.9912M113.454 39.596C114.122 42.7591 114.122 43.0913 114.122 43.5084C114.122 48.9155 108.042 51.9164 100.051 51.9164C81.9891 51.928 66.1678 41.3456 66.1678 34.3511C66.1668 33.3775 66.3653 32.414 66.7511 31.5201C60.2541 31.8445 51.8452 33.0032 51.8452 40.4263C51.8452 52.5846 80.6565 67.57 103.469 67.57C120.959 67.57 125.37 59.6602 125.37 53.415C125.37 48.5022 121.121 42.9252 113.462 39.596" fill="#494A4E"/>
<path d="M113.454 39.596C114.122 42.7591 114.122 43.0913 114.122 43.5084C114.122 48.9155 108.043 51.9165 100.051 51.9165C81.9893 51.928 66.168 41.3456 66.168 34.3511C66.1669 33.3775 66.3654 32.414 66.7512 31.5201L68.1649 28.0209C68.1002 28.2599 68.0715 28.5073 68.08 28.7548C68.08 32.3157 82.1013 43.9912 100.889 43.9912C105.721 43.9912 112.713 42.9947 112.713 37.2478C112.727 36.8042 112.687 36.3606 112.593 35.9269L113.454 39.596ZM275.584 47.6024C275.584 52.1945 278.346 54.4269 283.382 54.4269C284.933 54.3883 286.474 54.1706 287.975 53.778V48.4521C287.016 48.756 286.015 48.9072 285.009 48.9001C282.934 48.9001 282.166 48.2512 282.166 46.3008V38.1399H288.176V32.6556H282.166V25.7036L275.599 27.1249V32.6556H271.238V38.1399H275.584V47.6024ZM255.112 47.726C255.112 46.3047 256.537 45.6133 258.689 45.6133C260.004 45.621 261.313 45.7843 262.59 46.1V48.8614C261.332 49.5485 259.917 49.8985 258.484 49.8772C256.375 49.8772 255.112 49.0661 255.112 47.726ZM257.12 54.508C259.438 54.508 261.308 54.0214 263.053 52.8434V54.145H269.55V40.3723C269.55 35.1351 266.02 32.2617 260.129 32.2617C256.839 32.2617 253.586 33.0341 250.087 34.6176L252.443 39.4531C254.961 38.3948 257.078 37.746 258.944 37.746C261.647 37.746 263.046 38.8004 263.046 40.9555V42.0099C261.454 41.5978 259.815 41.3927 258.171 41.3997C252.644 41.3997 249.314 43.717 249.314 47.8611C249.314 51.6384 252.319 54.5196 257.113 54.5196L257.12 54.508ZM221.407 54.1565H228.394V43.0141H240.094V54.145H247.101V25.7113H240.121V36.6375H228.421V25.7113H221.434L221.407 54.1565ZM194.809 43.381C194.809 40.2912 197.246 37.9352 200.456 37.9352C202.126 37.9014 203.747 38.497 204.998 39.6037V47.1157C204.392 47.6883 203.679 48.1353 202.899 48.4309C202.12 48.7265 201.289 48.865 200.456 48.8383C197.288 48.8383 194.809 46.4823 194.809 43.3964V43.381ZM205.087 54.1604H211.588V24.29L205.021 25.7113V33.7949C203.35 32.8474 201.458 32.3572 199.537 32.3737C193.283 32.3737 188.366 37.2053 188.366 43.381C188.348 44.83 188.619 46.2681 189.163 47.6113C189.707 48.9545 190.513 50.176 191.534 51.2043C192.555 52.2325 193.771 53.0471 195.111 53.6004C196.45 54.1538 197.886 54.4347 199.336 54.4269C201.408 54.4368 203.429 53.7831 205.103 52.5614L205.087 54.1604ZM175.256 37.6379C177.326 37.6379 179.072 38.978 179.764 41.0482H170.803C171.451 38.9124 173.078 37.6379 175.256 37.6379ZM164.182 43.4312C164.182 49.688 169.3 54.5621 175.878 54.5621C179.493 54.5621 182.135 53.5849 184.859 51.3101L180.509 47.4479C179.493 48.5061 177.991 49.0739 176.206 49.0739C175.084 49.1055 173.979 48.7966 173.035 48.1878C172.092 47.5791 171.356 46.699 170.922 45.6635H186.238V44.0298C186.238 37.2053 181.649 32.2925 175.391 32.2925C173.92 32.2704 172.46 32.5425 171.096 33.0929C169.731 33.6433 168.491 34.4609 167.447 35.4976C166.404 36.5343 165.578 37.7692 165.018 39.1296C164.459 40.4901 164.177 41.9487 164.19 43.4196L164.182 43.4312ZM152.853 31.6823C155.17 31.6823 156.468 33.1422 156.468 34.8918C156.468 36.6414 155.17 38.1013 152.853 38.1013H145.943V31.6823H152.853ZM138.947 54.145H145.935V43.7865H151.254L156.619 54.145H164.441L158.183 42.7707C159.774 42.1241 161.134 41.0164 162.089 39.5903C163.045 38.1641 163.552 36.4848 163.545 34.7682C163.545 29.6508 159.524 25.7113 153.502 25.7113H138.947V54.145Z" fill="#202020"/>
</g>
<defs>
<clipPath id="clip0_237_10304">
<rect width="236.331" height="55.6159" fill="white" transform="translate(51.8452 11.9541)"/>
</clipPath>
</defs>
</svg>
