<svg width="193" height="80" viewBox="0 0 193 80" fill="none" xmlns="http://www.w3.org/2000/svg">
<path d="M69.5103 19.7359H23.794V11.2668H69.5103V19.7359ZM72.7718 8H20.5264V23.0027H72.7718V8Z" fill="#202020"/>
<path d="M23.794 47.7934H20.5264V32.7908H23.794V38.7198H29.6269V32.7908H32.8945V47.7934H29.6269V41.5774H23.794V47.7934ZM37.8418 41.2172H41.7324C41.6591 40.112 41.2071 39.3426 39.9306 39.3426C38.9656 39.3426 38.1288 39.7517 37.8418 41.2172ZM40.3093 48.0316C36.9928 48.0316 34.739 45.9433 34.739 42.5117C34.739 39.1716 36.95 36.8696 39.8756 36.8696C43.07 36.8696 44.6519 39.0068 44.6519 42.2003V43.4032H37.8418C38.2266 45.0579 39.5214 45.4914 40.8223 45.4914C41.9523 45.4914 42.7646 45.2533 43.7724 44.6244H43.8945V47.0973C43.0272 47.7202 41.7996 48.0316 40.3093 48.0316ZM53.1844 41.5042L51.5047 47.7934H48.6463L45.3787 37.2299V37.1078H48.4997L50.2771 43.4215L51.9567 37.1078H54.5036L56.2077 43.4215L58.0095 37.1078H61.0084V37.2299L57.7407 47.7934H54.8823L53.1844 41.5042ZM66.316 48.0316C63.7202 48.0316 62.6636 46.9996 62.6636 44.5755V32.7908H65.8335V44.3557C65.8335 45.1007 66.1205 45.3632 66.7435 45.3632C66.9573 45.3632 67.2749 45.2899 67.4642 45.2167H67.5131V47.8301C67.2505 47.9339 66.7985 48.0316 66.316 48.0316ZM71.5014 41.2172H75.3921C75.3188 40.112 74.8668 39.3426 73.5903 39.3426C72.6314 39.3426 71.7885 39.7517 71.5014 41.2172ZM73.9751 48.0316C70.6586 48.0316 68.4048 45.9433 68.4048 42.5117C68.4048 39.1716 70.6158 36.8696 73.5414 36.8696C76.7358 36.8696 78.3177 39.0068 78.3177 42.2003V43.4032H71.5014C71.8862 45.0579 73.1811 45.4914 74.4759 45.4914C75.6058 45.4914 76.4182 45.2533 77.432 44.6244H77.5542V47.0973C76.693 47.7202 75.4654 48.0316 73.9751 48.0316ZM91.3332 37.1139H93.6847V39.6601H91.3332V44.0016C91.3332 44.9358 91.6936 45.3693 92.6525 45.3693C92.9151 45.3693 93.251 45.3449 93.6114 45.2228H93.6847V47.7202C93.2755 47.8667 92.6525 48.0316 91.7424 48.0316C89.1711 48.0316 88.1633 46.8531 88.1633 44.142V39.654H84.1078V43.9954C84.1078 44.9297 84.4681 45.3632 85.427 45.3632C85.6897 45.3632 86.0256 45.3388 86.386 45.2167H86.4593V47.7141C86.05 47.8606 85.427 48.0255 84.517 48.0255C81.9456 48.0255 80.9379 46.847 80.9379 44.1359V39.6479H79.3071V37.1017H80.9379V34.1769H84.1078V37.1017H88.1633V34.1769H91.3332V37.1139ZM104.367 40.1608C106.022 40.1608 106.816 39.2266 106.816 37.8833C106.816 36.4911 106.028 35.5568 104.367 35.5568H102.303V40.1669L104.367 40.1608ZM110.133 37.8833C110.133 41.15 107.946 42.9208 104.636 42.9208H102.309V47.7934H99.0473V32.7908H104.642C107.946 32.7908 110.133 34.5676 110.133 37.8833ZM117.096 44.4351V43.5253C116.613 43.2627 115.99 43.165 115.343 43.165C114.31 43.165 113.688 43.5497 113.688 44.4107C113.688 45.3022 114.31 45.6807 115.245 45.6807C116.137 45.6807 116.809 45.2228 117.096 44.4351ZM117.193 46.7371C116.497 47.5797 115.465 47.9827 114.359 47.9827C112.271 47.9827 110.566 46.7127 110.566 44.4534C110.566 42.3651 112.271 40.9729 114.72 40.9729C115.489 40.9729 116.283 41.0951 117.096 41.3332V41.1439C117.096 39.9899 116.448 39.4892 114.744 39.4892C113.663 39.4892 112.631 39.8006 111.739 40.3074H111.623V37.7611C112.442 37.2849 113.883 36.8757 115.294 36.8757C118.513 36.8757 120.266 38.4145 120.266 41.1012V47.7995H117.193V46.7371ZM121.872 42.4628C121.872 39.0312 124.297 36.8696 127.467 36.8696C128.596 36.8696 129.653 37.1078 130.441 37.6879V40.399H130.319C129.623 39.8738 128.804 39.5563 127.87 39.5563C126.288 39.5563 125.085 40.6371 125.085 42.4628C125.085 44.2885 126.288 45.3449 127.87 45.3449C128.804 45.3449 129.623 45.0335 130.319 44.5023H130.441V47.2134C129.647 47.7873 128.59 48.0316 127.467 48.0316C124.297 48.0316 121.872 45.9006 121.872 42.4628ZM135.608 42.9452V47.7934H132.438V32.7908H135.608V41.3332L138.802 37.1078H142.406V37.2299L138.564 42.0781L142.406 47.6713V47.7934H138.778L135.608 42.9452ZM149.509 44.4351V43.5253C149.033 43.2627 148.404 43.165 147.756 43.165C146.724 43.165 146.101 43.5497 146.101 44.4107C146.101 45.3022 146.724 45.6807 147.659 45.6807C148.55 45.6807 149.222 45.2228 149.509 44.4351ZM149.607 46.7371C148.911 47.5797 147.879 47.9827 146.773 47.9827C144.684 47.9827 142.98 46.7127 142.98 44.4534C142.98 42.3651 144.684 40.9729 147.133 40.9729C147.903 40.9729 148.691 41.0951 149.509 41.3332V41.1439C149.509 39.9899 148.862 39.4892 147.158 39.4892C146.077 39.4892 145.045 39.8006 144.153 40.3074H144.031V37.7611C144.849 37.2849 146.291 36.8757 147.701 36.8757C150.92 36.8757 152.673 38.4145 152.673 41.1012V47.7995H149.601L149.607 46.7371ZM158.011 38.8419C158.585 37.6634 159.428 36.9918 160.607 36.9918C161.041 36.9918 161.468 37.0895 161.639 37.1872V40.2097H161.523C161.163 40.0631 160.729 39.9715 160.131 39.9715C159.147 39.9715 158.378 40.5455 158.115 41.6507V47.7934H154.945V37.1139H158.017L158.011 38.8419ZM170.037 44.1664V40.7348C169.512 39.9654 168.816 39.6296 168.022 39.6296C166.629 39.6296 165.695 40.6371 165.695 42.4628C165.695 44.2885 166.629 45.2716 168.022 45.2716C168.816 45.2716 169.512 44.9358 170.037 44.1664ZM170.135 46.6882C169.463 47.5553 168.407 48.0316 166.965 48.0316C164.229 48.0316 162.476 45.5342 162.476 42.4628C162.476 39.3915 164.229 36.8696 166.965 36.8696C168.358 36.8696 169.366 37.3032 170.037 38.0909V32.7908H173.207V47.7873H170.135V46.6882ZM20.5264 52.6905H29.7979V54.5162H22.6152V59.1019H29.1199V60.8788H22.6152V65.8736H29.7918V67.6993H20.5264V52.6905ZM37.457 56.9159C39.8329 56.9159 41.1522 58.4791 41.1522 61.0437V67.6932H39.161V61.0925C39.161 59.7247 38.4648 58.7417 36.95 58.7417C35.7041 58.7417 34.6474 59.5355 34.2871 60.659V67.6932H32.296V57.1297H34.2871V58.6684C34.9101 57.6853 35.9667 56.9159 37.457 56.9159ZM46.5086 57.1297H49.2205V58.8333H46.5086V64.518C46.5086 65.7148 47.1316 66.1239 48.2615 66.1239C48.573 66.1239 48.909 66.0751 49.1472 65.9774H49.2205V67.681C48.9334 67.8031 48.5242 67.8947 47.9745 67.8947C45.5009 67.8947 44.5175 66.7651 44.5175 64.7012V58.821H42.6913V57.1174H44.5175V54.3086H46.5086V57.1297ZM52.5553 61.3795H57.814C57.7407 59.8224 56.9712 58.6195 55.3404 58.6195C53.8318 58.6195 52.8484 59.7492 52.5553 61.3795ZM55.7008 67.9069C52.6041 67.9069 50.4909 65.843 50.4909 62.5335C50.4909 59.2179 52.4576 56.9159 55.316 56.9159C58.2232 56.9159 59.7319 59.0042 59.7319 62.1V63.0098H52.4881C52.7019 65.1469 54.0761 66.1789 55.9695 66.1789C57.1483 66.1789 57.985 65.9163 58.9256 65.2202H58.9989V66.9727C58.1316 67.6443 57.0017 67.9069 55.7008 67.9069ZM64.0806 58.7661C64.5386 57.6365 65.5464 56.9648 66.6947 56.9648C67.1527 56.9648 67.562 57.0381 67.7269 57.1297V59.0958H67.6536C67.3665 58.9554 66.884 58.8821 66.4015 58.8821C65.3204 58.8821 64.4104 59.6026 64.0744 60.7994V67.6871H62.0833V57.1297H64.0744L64.0806 58.7661ZM74.1644 66.1056C76.1311 66.1056 77.2855 64.5486 77.2855 62.4114C77.2855 60.2987 76.1311 58.7172 74.1644 58.7172C73.0833 58.7172 72.0756 59.3645 71.5503 60.3964V64.457C72.0756 65.4828 73.0894 66.1056 74.1644 66.1056ZM74.5064 56.9159C77.6519 56.9159 79.3315 59.4866 79.3315 62.4114C79.3315 65.3423 77.6519 67.9069 74.5064 67.9069C73.2116 67.9069 72.1061 67.2352 71.5503 66.5147V71.7476H69.5592V57.1297H71.5503V58.3264C72.1 57.5876 73.2055 56.9159 74.5064 56.9159ZM83.6741 58.7661C84.1322 57.6365 85.14 56.9648 86.2882 56.9648C86.7463 56.9648 87.1555 57.0381 87.3204 57.1297V59.0958H87.2472C86.9601 58.9554 86.4776 58.8821 86.0012 58.8821C84.9201 58.8821 84.0101 59.6026 83.6741 60.7994V67.6871H81.683V57.1297H83.6741V58.7661ZM90.2094 52.8615C90.9057 52.8615 91.4798 53.411 91.4798 54.1071C91.4798 54.8032 90.9057 55.3528 90.2094 55.3528C89.5376 55.3528 88.939 54.8032 88.939 54.1071C88.9329 53.411 89.5376 52.8615 90.2094 52.8615ZM89.2199 67.6932H91.2111V57.1297H89.2199V67.6932ZM98.3205 61.526C99.8352 62.0023 101.515 62.6312 101.515 64.6462C101.515 66.8078 99.7374 67.913 97.4593 67.913C96.0667 67.913 94.6741 67.5772 93.8801 66.9544V65.0615H93.9779C94.8696 65.8797 96.1889 66.2399 97.4348 66.2399C98.5648 66.2399 99.5725 65.8064 99.5725 64.8966C99.5725 63.9624 98.7358 63.7425 97.0745 63.193C95.5842 62.7106 93.929 62.1611 93.929 60.1705C93.929 58.1311 95.6086 56.9282 97.7463 56.9282C98.9923 56.9282 100.098 57.1907 100.99 57.7952V59.7186H100.916C100.055 59.0225 99.0412 58.6134 97.7952 58.6134C96.5492 58.6134 95.8529 59.163 95.8529 59.9079C95.8468 60.7322 96.6164 60.9704 98.3205 61.526ZM105.308 61.3795H110.566C110.493 59.8224 109.73 58.6195 108.093 58.6195C106.584 58.6195 105.601 59.7492 105.308 61.3795ZM108.453 67.9069C105.357 67.9069 103.243 65.843 103.243 62.5335C103.243 59.2179 105.21 56.9159 108.068 56.9159C110.976 56.9159 112.484 59.0042 112.484 62.1V63.0098H105.241C105.454 65.1469 106.822 66.1789 108.722 66.1789C109.901 66.1789 110.737 65.9163 111.678 65.2202H111.751V66.9727C110.884 67.6443 109.754 67.9069 108.453 67.9069Z" fill="#231F20"/>
</svg>
