<svg width="81" height="80" viewBox="0 0 81 80" fill="none" xmlns="http://www.w3.org/2000/svg">
<g clip-path="url(#clip0_237_10297)">
<rect width="80" height="80" transform="translate(0.845215)" fill="white"/>
<path fill-rule="evenodd" clip-rule="evenodd" d="M0.845215 0H80.8452V80H0.845215V0Z" fill="white"/>
<path fill-rule="evenodd" clip-rule="evenodd" d="M79.4928 40.416V1H1.84521V40.416H79.4928Z" fill="#494A4E"/>
<path fill-rule="evenodd" clip-rule="evenodd" d="M79.6691 78.8238V40H2.02148V78.8238H79.6691Z" fill="black"/>
<path fill-rule="evenodd" clip-rule="evenodd" d="M64.9286 41.1189V40H16.7612V41.1189H64.9286ZM20.7754 47.5673V47.8308L20.9069 48.028L21.1041 48.0935H24.0653L24.3944 48.028L24.5916 47.962L24.7236 47.8964L24.8551 47.7644H24.9207L24.6576 48.7518H18.8011V48.6202H18.9986L19.1957 48.4882L19.2617 48.3571L19.3277 48.0935V44.1458L19.2617 43.9482L19.1957 43.7511L18.9986 43.6855L18.8011 43.6191V43.5531H24.6576V44.4085H24.5916V44.3429L24.46 44.2773L24.3289 44.1458H20.7754V45.6594H24.1309V46.3168H20.7754V47.5673ZM37.2916 47.5673V47.8308L37.4231 48.028L37.5551 48.0935H40.516L40.8447 48.028L41.0422 47.962L41.1738 47.8964L41.2402 47.7644H41.3714L41.1082 48.7518H35.3177V48.6202H35.5152L35.7124 48.4882L35.7784 48.3571L35.8439 48.0935V44.1458L35.7784 43.9482L35.7124 43.7511L35.5152 43.6855L35.3177 43.6191V43.4875H41.1082V44.4085H41.0422L40.9767 44.3429L40.9111 44.2773L40.7795 44.1458H37.2916V45.6594H40.6475V46.2508H37.2916V47.5673ZM68.021 47.5673V47.8308L68.1534 48.028L68.3501 48.0935H71.3114L71.6405 48.028L71.8385 47.962L71.9696 47.8964L72.1012 47.7644H72.1668L71.904 48.7518H66.0475V48.6202H66.3106L66.5086 48.4882L66.5734 48.3571L66.6398 48.0935V44.1458L66.5734 43.9482L66.5086 43.7511L66.3106 43.6855L66.0475 43.6191V43.4875H71.904V44.4085H71.8385V44.3429L71.7061 44.2773L71.5749 44.1458H68.021V45.6594H71.4438V46.2508H68.021V47.5673ZM64.9942 48.6862L65.2577 47.7644H65.1921L65.0602 47.8964L64.9286 47.962L64.665 48.028L64.3363 48.0935H61.9018L61.705 47.962L61.5726 47.8308V44.1458L61.6386 43.8822L61.705 43.7511L61.9018 43.6191H62.0989V43.4875H59.5987V43.6191H59.7959L59.9939 43.7511L60.0594 43.8822L60.125 44.1458V48.0935L60.0594 48.2911L59.9939 48.4882L59.7959 48.5546L59.5987 48.6202V48.7518L64.9942 48.6862ZM16.564 43.3564H16.6296V44.672H16.564L16.3665 44.5405L16.1689 44.3429L15.9062 44.2773L15.5771 44.1458L15.3135 44.0794H14.9848L14.6557 44.0138H14.3266L13.6028 44.0794L13.0105 44.2113L12.4838 44.4085L12.0891 44.672L11.76 45.0011L11.5629 45.3303L11.4313 45.725L11.3657 46.1852V46.3832L11.4313 46.7123L11.5629 47.0406L11.76 47.3697L12.1551 47.6989L12.6818 48.028L13.4052 48.2255L14.3926 48.2911H14.7873L15.116 48.2255L15.5111 48.16L15.8402 48.0935V46.8435L15.7742 46.6459L15.7086 46.4488L15.5111 46.3832L15.3135 46.3168V46.2508H17.5506V46.3168L17.485 46.3832L17.3534 46.4488L17.2878 46.5799V48.4882L16.9587 48.5546L16.6956 48.6202L16.3665 48.7518L16.0374 48.8174L15.6427 48.8829H15.3135L14.9188 48.9493H14.4582L13.2081 48.8829L12.1551 48.6862L11.3657 48.4227L10.7731 48.028L10.3128 47.6333L9.98369 47.1726L9.85212 46.7123L9.78613 46.1852L9.85212 45.5934L10.1153 45.0011L10.444 44.5405L10.9706 44.1458L11.5629 43.8166L12.2867 43.5531L13.1421 43.4219L13.9975 43.3564H14.5237L14.7873 43.4219H15.0504L15.3135 43.4875H15.5111L15.7742 43.5531H16.4325L16.498 43.4219L16.564 43.3564ZM32.62 48.7518H33.3434V44.0138L33.4094 43.8166L33.5409 43.6855L33.8701 43.6191V43.4875H32.0273V43.6191H32.2249L32.4224 43.7511L32.4884 43.8822L32.554 44.1458V46.909L32.3564 46.7123L28.3422 43.4875H26.3688V43.6191H26.6315L26.7635 43.7511L26.895 43.8822V48.3571L26.7635 48.4882L26.6315 48.6202H26.3688V48.7518H28.2111V48.6202H28.0135L27.816 48.4882L27.7504 48.3571L27.6844 48.0935V44.7376L27.882 44.9356L32.62 48.7518ZM47.3594 46.4488L47.8201 46.3832L48.2804 46.3168L48.6751 46.1852L49.0042 45.9885L49.2678 45.7905L49.4653 45.5934L49.5313 45.3303L49.5969 45.0667L49.5313 44.672L49.3997 44.3429L49.1362 44.0794L48.7415 43.8822L48.2804 43.6855L47.8201 43.5531L47.2283 43.4875H42.885V43.6191H43.0821L43.2797 43.7511L43.3452 43.8822L43.4112 44.1458V48.0935L43.3452 48.2911L43.2797 48.4882L43.0821 48.5546L42.885 48.6202V48.7518H45.3191V48.6202L45.1224 48.5546L44.9244 48.4882L44.8589 48.2911L44.7933 48.0935V44.2113L44.9908 44.1458H45.3191L45.5827 44.0794H46.1754L46.5045 44.1458H46.8992L47.2283 44.2773L47.491 44.4085L47.7541 44.5405L47.8857 44.804L47.9521 45.0667V45.2643L47.8201 45.4614L47.6886 45.6594L47.491 45.7905L47.2283 45.8561L46.8336 45.9885H46.3721L45.8462 46.0541H45.188V46.1197L48.0177 48.6862H50.2551V48.6202H50.1227L49.9916 48.5546L49.6625 48.4227L49.2678 48.0935L47.3594 46.4488ZM54.4005 44.804L53.1496 46.7123H55.5846L54.4005 44.804ZM59.0065 48.6862V48.7518H56.3744V48.6862L56.5723 48.6206L56.6379 48.4887L56.7035 48.3575L56.6379 48.1604L56.0452 47.3046H52.7549L52.0974 48.2919L52.031 48.4891L52.0974 48.5555L52.163 48.6866H52.2942V48.7522H50.715V48.6866L50.8461 48.6211L51.0441 48.5555L51.1752 48.4235L51.3072 48.2264L53.6758 44.6729L53.873 44.0802L53.7418 43.7519L53.5447 43.6199H53.4127V43.5543H55.1894L58.3474 48.1612L58.4794 48.3583L58.6765 48.5563L58.8085 48.6219L59.0065 48.6862Z" fill="white"/>
<path fill-rule="evenodd" clip-rule="evenodd" d="M47.623 36.644V36.9072L47.7542 37.0392L47.8858 37.1707H50.7155L51.0446 37.1047L51.2417 37.0392L51.3737 36.9732L51.5048 36.8416H51.5708L51.3737 37.763H45.7139V37.697L45.9119 37.631L46.1094 37.5654L46.1754 37.3683L46.241 37.1707V33.3541L46.1754 33.1565L46.1094 32.9594L45.9119 32.8934L45.7139 32.8274V32.7618H51.3081V33.6172H51.2417V33.5512L51.1761 33.4857L51.0446 33.4197H47.623V34.8017H50.847V35.4595H47.623V36.644ZM42.0297 37.697L42.2268 37.631L42.4248 37.5654L42.4903 37.3683L42.5559 37.1707V33.3541L42.4903 33.1565L42.4248 32.9594L42.2268 32.8934L42.0297 32.8274V32.7618H44.4642V32.8274L44.2671 32.8934L44.0691 32.9594L44.0035 33.1565L43.938 33.3541V37.1707L44.0035 37.3683L44.0691 37.5654L44.2671 37.631L44.4642 37.697V37.763H42.0297V37.697ZM54.4661 33.3541V37.3683L54.3349 37.5654L54.2026 37.631L54.0058 37.697V37.763H56.3744V37.697L56.1773 37.631L55.9797 37.5654L55.9142 37.3683L55.8482 37.1707V33.3541H57.7565L57.8876 33.4857L57.9536 33.5512L58.02 33.6172H58.0856L57.9536 32.7618H52.3602L52.2291 33.6172H52.2947L52.3602 33.5512L52.4922 33.4857L52.6238 33.3541H54.4661ZM40.7796 37.4339L41.1083 36.2494H41.0423L40.7796 36.5125L40.516 36.7756L40.1869 36.9072L39.7922 37.0392L39.4631 37.1707L39.0684 37.2363L38.6737 37.3019H38.279L37.4892 37.2363L36.8314 37.0392L36.3703 36.7756L36.0416 36.4469L35.844 36.1178L35.7124 35.7887L35.6469 35.5255V35.262L35.7124 34.6702L35.91 34.275L36.2391 33.8803L36.6338 33.6172L37.0285 33.4197L37.4892 33.2881L37.8839 33.2225H38.6077L38.9368 33.2881L39.266 33.3541L39.6606 33.4197L39.9898 33.5512L40.3185 33.7488L40.582 33.9463L40.7796 34.2095H40.8447V32.6963H40.7796L40.7136 32.8274L40.6476 32.8934H40.4505L40.1213 32.8274H39.8582L39.5951 32.7618L39.3315 32.6963H39.0684L38.8053 32.6303H38.147L37.0285 32.6963L36.1071 32.9594L35.3837 33.2225L34.8571 33.6172L34.4624 34.0779L34.2648 34.5386L34.1332 34.9333L34.0673 35.262L34.1332 35.8547L34.3964 36.3809L34.7255 36.8416L35.2522 37.1707L35.844 37.4998L36.5678 37.763L37.3576 37.8945L38.279 37.9601H38.8713L39.2004 37.8945L39.5291 37.8286L39.8582 37.763L40.1869 37.697L40.516 37.5654L40.7796 37.4339ZM24.4601 35.1964L24.5261 34.6697L24.7892 34.1435L25.1183 33.6828L25.645 33.2877L26.2373 32.959L26.9611 32.6958L27.7505 32.5643L28.6718 32.4983L29.5928 32.5643L30.3826 32.6958L31.1064 32.959L31.6987 33.2877L32.1593 33.6828L32.554 34.1435L32.7516 34.6697L32.8176 35.1964L32.7516 35.7887L32.554 36.3153L32.1593 36.776L31.6987 37.1711L31.1064 37.4998L30.3826 37.763L29.5928 37.8945L28.6718 37.9605L27.7505 37.8945L26.9611 37.763L26.2373 37.4998L25.5794 37.1711L25.1187 36.776L24.7896 36.3153L24.5265 35.7887L24.4601 35.1964ZM28.6718 37.3683L29.2637 37.3023L29.7903 37.2367L30.251 37.0392L30.5797 36.776L30.9089 36.4473L31.106 36.1182L31.2376 35.6575L31.3031 35.1968L31.2376 34.7361L31.106 34.341L30.9089 34.0123L30.5797 33.6836L30.185 33.4205L29.7244 33.2229L29.2637 33.1569L28.6718 33.0914L28.0796 33.1569L27.5529 33.2229L27.0926 33.4205L26.7635 33.6836L26.4344 34.0123L26.2368 34.341L26.1053 34.7361L26.0393 35.1968L26.1053 35.6575L26.2368 36.1182L26.4344 36.4473L26.7635 36.776L27.0926 37.0392L27.5529 37.2367L28.0796 37.3023L28.6718 37.3683ZM22.4862 36.4469L22.3546 36.7756L22.0255 36.9732L21.4992 37.1707L20.973 37.2363H19.8541L19.2618 37.1707L18.6695 37.1047L18.0777 36.9072L17.617 36.71L17.1559 36.3809L16.8272 36.0518H16.7612V37.8286H16.8272L16.8932 37.697L17.0244 37.631L17.1559 37.4998H17.3535L17.5506 37.5654H17.8142L18.2089 37.631L18.604 37.697L19.0642 37.763L19.5249 37.8286L20.1172 37.8945H20.7094L21.3677 37.8286L21.8939 37.763L22.4206 37.631L22.8809 37.4339L23.21 37.1707L23.4731 36.9072L23.6047 36.5785L23.6707 36.1838L23.6047 35.7231L23.4076 35.394L23.0129 35.1308L22.6178 34.9333L22.0255 34.7357L21.3677 34.6702L20.7094 34.5386L19.9196 34.4726L19.1302 34.341L18.604 34.275L18.2749 34.1439L18.1433 33.8803V33.7488L18.2749 33.5512L18.8011 33.2881L19.7881 33.1565H20.3807L20.841 33.2225L21.3017 33.2881L21.8284 33.3541L22.2886 33.5512L22.6837 33.7488L22.9469 34.0779H23.0129V32.6303H22.9469L22.8809 32.6963L22.8153 32.8274H22.2231L22.0255 32.7618L21.7624 32.6963H21.4333L20.973 32.6303L20.5123 32.5643H19.5249L18.7355 32.6303L18.0777 32.8274L17.5506 33.025L17.2219 33.2225L17.0244 33.4857L16.8272 33.7488L16.7612 33.9463V34.1439L16.8272 34.5386L17.0244 34.8673L17.2879 35.1308L17.617 35.262L18.0117 35.394L18.4724 35.4595L18.9331 35.5255L19.4594 35.5911L20.3147 35.7231L20.973 35.7887L21.4992 35.9202L21.8939 35.9862L22.1571 36.0518L22.3546 36.1178L22.4862 36.2494V36.4469ZM61.178 36.644V36.9072L61.3096 37.0392L61.5071 37.1707H64.3364L64.6651 37.1047L64.8631 37.0392L64.9942 36.9732L65.0602 36.8416H65.1922L64.9287 37.763H59.3357V37.697L59.5332 37.631L59.7304 37.5654L59.7959 37.3683L59.8615 37.1707V33.3541L59.7959 33.1565L59.7304 32.9594L59.5332 32.8934L59.3357 32.8274V32.7618H64.9287V33.6172H64.8631V33.5512L64.7319 33.4857L64.5995 33.4197H61.178V34.8017H64.4684V35.4595H61.178V36.644Z" fill="white"/>
</g>
<defs>
<clipPath id="clip0_237_10297">
<rect width="80" height="80" fill="white" transform="translate(0.845215)"/>
</clipPath>
</defs>
</svg>
