<svg width="346" height="80" viewBox="0 0 346 80" fill="none" xmlns="http://www.w3.org/2000/svg">
<g clip-path="url(#clip0_237_10294)">
<path d="M255.565 32.7411C256.246 32.7411 257.532 28.8847 260.18 28.8847C260.937 28.8847 261.088 29.1872 261.088 29.4896C261.088 30.0189 260.18 30.4726 260.18 31.1532C260.18 31.3044 260.256 31.4556 260.483 31.4556C261.088 31.4556 261.618 30.0189 264.19 30.0189C264.871 30.0189 265.476 30.0946 266.082 30.2458C266.384 30.3214 266.989 30.6239 266.687 29.7921C266.082 27.9774 264.039 26.3138 261.24 26.3138C258.44 26.3138 255.49 28.8091 255.187 31.8337C255.263 32.363 255.263 32.7411 255.565 32.7411ZM303.985 8.69569C303.229 8.39323 303.078 8.01516 303.38 7.03217C303.532 6.04919 303.607 5.5955 303.153 5.51989C302.775 5.36866 302.245 5.67111 301.716 6.20042C301.262 6.80533 300.505 7.63709 300.278 8.242C300.051 9.07376 301.035 8.92253 300.354 10.2836C299.143 12.4764 298.841 13.0057 298.236 14.518C297.706 16.1815 297.328 16.4084 297.025 16.9377C296.647 17.3913 297.479 17.467 298.387 17.1645C299.37 16.7864 299.446 17.9963 299.068 18.828C298.765 19.4329 298.992 19.6598 299.824 18.9792C300.581 18.3743 299.446 17.9206 299.673 16.0303C299.976 14.3668 300.278 13.3838 301.337 11.7203C302.245 10.2836 303.002 9.22499 304.515 9.75429C305.12 10.0567 304.818 9.07376 303.985 8.69569ZM336.442 58.2231C336.745 58.2231 336.82 57.845 336.82 57.467C336.82 56.6352 336.366 55.4254 335.686 54.8961C335.534 56.1059 334.929 56.9377 334.929 57.467C334.929 57.845 336.064 58.2231 336.442 58.2231ZM343.705 46.5029C344.159 46.5029 344.84 46.3516 344.84 45.9736C344.84 45.293 343.781 44.0832 342.873 43.7808C343.478 44.9906 342.873 46.5029 343.705 46.5029ZM311.627 30.5482C318.209 33.5728 317.831 39.0927 318.36 37.7316C318.587 37.1267 319.495 34.4046 317.15 31.7581C315.334 29.6409 314.653 30.1702 315.334 28.431C318.209 21.4745 320.025 10.9641 311.4 7.33463C310.416 6.95656 309.584 6.95656 309.584 7.10779C309.584 7.25902 310.492 7.56147 311.627 8.31762C317.377 12.0983 315.561 22.4575 310.341 27.4481C308.676 29.1872 309.508 29.5653 311.627 30.5482ZM289.081 78.9414C289.535 78.9414 289.308 78.2609 289.157 77.9585C288.779 77.2779 288.022 76.8242 287.341 76.5218C287.492 77.2023 287.568 78.9414 288.249 78.9414H289.081ZM269.183 78.9414C269.637 78.9414 269.335 78.2609 269.108 77.9585C268.73 77.2779 267.897 76.8242 267.216 76.5218C267.368 77.2023 267.519 78.9414 268.2 78.9414H269.183ZM293.318 39.3951C296.949 39.0171 297.555 38.1853 298.16 35.4632C298.463 34.1777 299.37 32.8167 300.203 31.9849C300.732 31.38 301.262 30.9263 301.791 30.0946C301.943 29.7165 302.094 29.4896 301.791 29.5653C301.413 29.8677 300.127 30.6995 299.597 31.0775C297.025 32.8923 293.091 33.724 291.578 33.724C288.249 33.724 285.374 32.7411 282.348 32.7411C273.269 32.7411 269.864 39.8488 270.318 44.0076C270.394 44.6881 270.47 44.6881 270.697 44.6881C271.302 44.6881 271.907 42.2685 274.177 40.0757C277.506 36.8998 281.137 35.0851 286.282 35.0851C289.989 35.0851 291.578 36.2949 291.578 36.7486C291.578 37.656 289.989 37.7316 290.14 38.639C290.065 39.0171 290.897 39.6976 293.318 39.3951Z" fill="#6D6E70"/>
<path d="M74.2168 56.6353C77.0917 52.4765 79.1344 49.0738 80.8745 44.0833H86.2461C83.7495 50.4349 80.7989 55.4254 76.6378 61.0965V69.5653H71.8714V61.1721C67.7103 55.4254 64.7597 50.5105 62.263 44.1589H67.6346C69.2991 49.1495 71.3418 52.5521 74.2168 56.6353ZM123.469 54.5181C121.124 53.7619 119.762 53.3839 118.93 52.7789C118.022 52.2496 117.795 51.5691 117.795 50.8886C117.795 49.83 118.4 49.1495 119.308 48.6958C120.216 48.2421 121.426 48.0908 122.486 48.0908C124.15 48.0908 126.041 48.4689 128.009 49.1495L129.597 45.4443C127.63 44.4614 124.982 43.8564 122.486 43.8564C119.913 43.8564 117.644 44.4614 116.055 45.5956C114.088 46.881 113.104 48.7714 113.104 51.0398C113.104 55.4254 116.811 57.089 120.443 58.2988C121.956 58.8281 123.545 59.2062 124.604 59.8111C125.663 60.416 126.268 61.2478 126.268 62.3064C126.268 63.5162 125.512 64.3479 124.755 64.726C123.847 65.2553 122.41 65.4822 120.972 65.4822C117.568 65.4822 115.147 64.1967 113.407 62.9869L111.742 66.8432C113.936 68.5067 117.568 69.7166 121.199 69.7166C126.798 69.7166 131.035 66.7676 131.035 62.0039C131.035 57.8451 127.63 55.8035 123.469 54.5181ZM97.292 65.1041H93.8118V48.5445H96.8381C102.134 48.5445 105.539 51.4179 105.539 56.6353C105.539 61.6258 102.437 65.1041 97.292 65.1041ZM96.7624 44.0833H89.1211V69.5653H97.2163C104.706 69.5653 110.305 64.2723 110.305 56.6353C110.305 49.1495 105.009 44.0833 96.7624 44.0833ZM154.564 65.709H150.479V58.2988H154.715C158.347 58.2988 160.238 59.2818 160.238 61.8527C160.238 65.2553 156.985 65.709 154.564 65.709ZM150.479 47.9396H154.11C157.515 47.9396 159.103 48.7714 159.103 50.9642C159.103 53.157 157.515 54.4425 154.488 54.4425H150.479V47.9396ZM159.255 56.1816C161.978 55.2742 163.643 53.3839 163.643 50.4349C163.643 45.9736 159.709 44.1589 155.85 44.1589H145.939V69.5653H155.169C159.936 69.5653 164.778 67.5994 164.778 62.3064C164.778 58.7525 162.584 56.6353 159.255 56.1816ZM214.787 44.0833H210.323V62.4576H210.247L199.504 44.0833H193.678V69.5653H198.066V50.5861H198.142L209.112 69.5653H214.787V44.0833ZM229.54 56.3328L241.342 44.0833H235.365L224.773 55.5011H224.622V44.0833H220.158V69.5653H224.622V57.2402H224.773L236.046 69.5653H242.326L229.54 56.3328ZM20.0467 69.5653H34.3458L35.8589 65.0285H24.6617V44.0833H20.0467V69.5653ZM0.375977 69.5653H14.6751L16.2638 65.0285H5.06668V44.0833H0.375977L0.375977 69.5653ZM49.5527 65.4822C44.4081 65.4822 41.4575 61.7014 41.4575 56.8621C41.4575 52.0228 44.4081 48.2421 49.5527 48.2421C54.773 48.2421 57.7236 52.174 57.7236 56.9377C57.648 61.6258 54.6974 65.4822 49.5527 65.4822ZM49.6284 43.8564C41.8358 43.8564 36.6911 49.6031 36.6911 56.8621C36.6911 64.0455 41.6844 69.7922 49.5527 69.7922C57.3453 69.7922 62.49 63.9699 62.49 56.7865C62.4143 49.6031 57.3453 43.8564 49.6284 43.8564ZM178.396 64.1211C180.287 64.1211 182.103 63.9699 183.692 63.5162L186.037 69.5653H191.333L180.363 44.1589H176.504L165.459 69.5653H170.754L173.1 63.5162C174.689 63.9699 176.504 64.1211 178.396 64.1211ZM178.396 60.2648C177.034 60.2648 175.823 60.1891 174.462 59.8867L178.396 49.83L182.33 59.8867C180.968 60.1891 179.758 60.2648 178.396 60.2648Z" fill="#202020"/>
<path d="M342.192 42.0416C343.932 43.327 345.748 44.2344 345.748 46.276C345.748 46.8809 344.991 47.4858 343.327 47.4858C342.041 47.4858 340.679 47.1077 339.998 46.2004C339.468 45.5198 340.225 44.5369 339.771 43.8563C339.393 43.2514 338.636 43.5539 338.106 43.2514C337.501 42.8733 337.426 42.6465 336.972 41.7391C336.518 40.6805 334.929 38.9414 333.037 37.051C331.449 35.4631 329.784 34.6314 329.028 34.707C328.498 34.7826 328.347 34.7826 327.817 34.7826C326.455 34.7826 325.321 36.0681 323.353 36.8998C321.992 37.5047 321.235 37.8072 320.403 37.9584L320.1 38.3365L321.84 38.2609C323.505 38.2609 325.623 38.034 327.288 38.034C328.952 38.034 329.784 39.5463 330.465 41.1342C331.751 44.31 333.643 48.9225 335.988 52.7788C337.123 54.5936 338.031 55.7278 338.031 57.9962C338.031 58.6767 337.955 59.6597 337.047 59.6597C335.761 59.6597 332.508 58.2987 332.508 56.862C332.508 55.7278 333.416 55.2741 333.416 54.1399C333.416 53.4594 332.357 53.535 332.13 52.9301C331.297 49.5274 330.314 46.1248 328.422 44.0832C327.439 43.0246 327.288 42.5709 326.304 42.5709C325.774 42.5709 325.245 42.7221 324.791 42.8733C322.143 43.8563 318.587 46.8809 314.123 48.1664C312.459 48.6957 312.156 47.7127 310.416 48.0151H310.567C309.13 48.3176 308.071 49.1493 306.104 49.6786C303.456 50.4348 298.841 50.8129 295.134 50.2836C292.486 49.9055 289.081 49.3762 287.644 49.4518C286.509 52.6276 284.163 56.862 280.607 58.5255C278.716 59.3573 278.186 60.4915 278.716 62.6087C279.397 65.2552 281.742 67.1456 282.953 69.414C284.088 71.3044 285.903 74.4045 287.795 75.3875C289.686 76.3705 290.897 77.8072 290.897 79.0926C290.897 79.6975 290.67 80 290.065 80H286.206C285.601 80 285.298 79.6219 285.223 79.3951C284.693 78.4121 285.071 77.5047 284.315 76.5974C283.785 75.9924 283.407 76.1437 282.726 75.6144C281.591 74.4802 282.423 73.8752 281.591 72.4386C279.17 68.5822 278.111 67.6749 276.068 64.8771C274.933 63.4405 273.496 62.6843 273.496 60.794C273.496 58.4499 275.841 58.0718 275.765 55.7278C274.252 56.862 272.512 57.6938 269.789 58.0718C269.41 58.1475 268.502 58.828 268.124 59.2817C267.216 60.189 266.838 61.172 266.687 62.5331C266.384 65.7089 265.779 68.8847 266.157 72.0605C266.687 74.1021 267.065 74.7826 268.729 75.9168C269.789 76.5974 270.999 77.5803 271.15 79.0926C271.15 79.4707 270.999 80 270.47 80H266.308C265.93 80 265.552 79.6975 265.401 79.4707C264.947 78.6389 265.249 78.1096 265.022 77.1267C264.644 75.2363 262.45 75.3119 262.45 73.3459C262.45 72.741 262.828 71.9849 262.828 70.775C262.98 68.1285 263.736 63.7429 262.98 58.5255C262.601 55.5009 265.779 55.3497 267.443 52.7032C268.427 51.1909 268.124 51.7958 268.729 50.7372C269.335 49.603 269.183 48.7713 269.108 48.0907C269.108 47.1834 268.2 45.3686 268.805 41.5879C269.032 39.9244 269.864 38.1853 270.999 36.7486C270.999 36.673 270.999 36.4461 270.621 36.4461C268.956 36.5974 268.956 36.1437 267.897 36.1437C266.838 36.1437 266.006 37.051 265.854 37.5047C265.325 37.2779 265.098 36.673 265.098 36.3705C265.098 35.7656 265.249 35.2363 265.779 34.707C266.006 34.4802 265.779 34.3289 265.476 34.3289C264.19 34.3289 262.98 35.9168 262.677 36.9754C261.92 36.8242 261.845 35.8412 261.542 35.8412C261.164 35.8412 260.937 36.3705 260.937 36.8998C260.937 40.6049 266.989 41.4367 266.989 46.3516C266.989 52.0227 260.18 50.8129 260.18 52.8544C260.18 53.2325 260.483 53.6106 261.012 53.8374C260.785 54.3667 260.18 54.5936 259.575 54.5936C258.062 54.5936 256.927 53.4594 256.927 51.9471C256.927 48.8469 261.088 48.7713 261.088 46.4272C261.088 45.293 260.407 44.9905 259.726 44.4612C255.792 41.6635 253.522 38.8658 253.522 34.2533C253.522 29.2628 257.003 25.482 261.466 25.482C267.973 25.482 268.2 33.0435 274.101 33.6484C276.295 32.1361 278.943 31.2287 281.515 31.2287C285.374 31.2287 287.038 32.2117 291.124 32.2117C292.788 32.2117 295.512 31.758 298.765 29.4896C299.976 28.6578 300.505 28.5066 301.64 27.5236C304.212 25.3308 306.633 21.0208 306.633 17.9206V18.0718C306.633 17.0888 306.406 16.4839 305.952 16.4839C304.591 16.4839 303.304 17.7694 301.943 19.1304C301.035 20.0378 302.397 20.4915 300.43 21.5501C299.749 21.9282 298.916 21.2476 298.16 21.2476C296.571 21.2476 295.89 19.3573 295.89 17.7694C295.89 16.9376 296.495 16.7108 296.874 15.9546C297.706 14.3667 297.63 13.7618 298.387 12.2495C298.841 11.1909 299.673 10.5104 299.597 9.75425C299.597 9.4518 299.37 9.30057 299.37 8.99811C299.37 7.41021 301.489 6.35161 301.489 4.76371C301.489 3.85633 300.505 3.47826 300.278 2.79773C300.051 2.1172 300.203 1.89036 300.203 1.89036C300.278 1.73913 300.354 1.73913 300.505 1.73913C301.337 1.73913 301.64 2.6465 302.397 3.10019C302.472 2.04159 302.094 1.81474 302.094 1.0586C302.094 0.680529 302.018 0 302.472 0C303.002 0 302.926 0.680529 303.38 1.0586C303.985 1.51229 304.515 1.43667 305.12 1.89036C305.952 2.41966 306.406 3.32703 306.709 3.32703C307.541 3.47826 307.768 2.41966 307.314 1.89036C308.222 1.81474 309.206 2.57089 310.416 2.57089C312.308 2.57089 312.989 3.10019 313.367 3.40265C314.577 4.46125 314.804 5.29301 316.166 5.29301C316.847 5.29301 317.225 4.68809 317.377 4.46125C318.284 5.14178 318.36 6.88091 317.377 8.3932C317.755 9.60303 319.495 9.75425 320.327 10.3592C321.159 10.9641 321.008 11.2665 321.613 11.569C322.067 11.8715 322.521 11.7958 322.824 11.569C323.202 13.2325 321.84 14.6692 320.1 14.896C320.176 17.0132 322.37 18.2987 323.353 18.828C322.748 20.1134 321.689 20.4915 320.781 20.7183C321.084 22.0038 322.446 23.8941 321.765 25.5577C321.159 25.2552 320.176 25.5577 320.176 26.465C320.176 27.5236 321.538 28.0529 320.1 28.8091C319.495 29.1871 319.344 30.0945 320.478 31.0019C321.992 30.6238 323.429 30.6238 325.169 30.6238C326.228 30.6238 327.59 30.3214 328.574 30.3214C330.314 30.3214 331.373 31.0019 332.659 32.4386C335.912 35.8412 338.863 39.5463 342.192 42.0416Z" fill="#231F20"/>
</g>
<defs>
<clipPath id="clip0_237_10294">
<rect width="345.616" height="80" fill="white" transform="translate(0.253906)"/>
</clipPath>
</defs>
</svg>
