<svg width="418" height="80" viewBox="0 0 418 80" fill="none" xmlns="http://www.w3.org/2000/svg">
<g clip-path="url(#clip0_237_10295)">
<path d="M100.322 57.3659C98.388 57.0868 96.0781 56.3786 95.8386 55.9912C95.7814 55.8986 95.6644 56.0053 95.5305 56.2723C95.1256 57.0792 95.3059 57.0625 88.2639 56.9442C84.7451 56.8851 79.7509 56.8367 77.1656 56.8367C74.5804 56.8367 72.3917 56.7892 72.302 56.7312C72.04 56.5617 72.1136 56.2595 72.4325 56.195C72.5941 56.1623 73.0874 56.104 73.5287 56.0654C74.9761 55.9388 75.2893 55.6483 75.6256 54.1208C75.8038 53.3113 75.8399 51.4527 75.888 40.6138C75.9481 27.0476 75.9152 26.1263 75.344 25.3777C75.0162 24.948 74.103 24.5326 73.4865 24.5326H73.1833L73.1815 26.9799C73.1795 29.7802 73.1442 30.0145 72.725 30.0145C72.3829 30.0145 72.2693 29.7944 72.2693 29.1314C72.2693 28.3295 71.8052 27.5731 71.0478 27.1407C69.877 26.4722 68.8548 26.3195 64.5203 26.1656L62.5816 26.0968L62.6455 39.2479C62.7099 52.505 62.7622 53.9773 63.1981 54.82C63.6153 55.6265 64.0342 55.7829 66.2617 55.9637C67.2025 56.04 67.3771 56.0907 67.417 56.299C67.4428 56.434 67.3999 56.584 67.3216 56.6324C67.1214 56.7561 52.6547 56.7219 52.4556 56.5972C52.2183 56.4486 52.2558 56.1467 52.5209 56.0725C52.6466 56.0373 53.374 55.9694 54.1374 55.9217C55.7942 55.818 56.233 55.6108 56.6126 54.7529C57.1067 53.6364 57.1463 52.6127 57.2155 39.1856L57.2829 26.1028L55.6037 26.1735C52.5635 26.3015 50.4063 26.4767 49.9422 26.6333C49.1447 26.9024 48.6736 27.3597 48.24 28.2857C48.0133 28.7699 47.783 29.2542 47.7283 29.3619C47.6736 29.4696 47.5177 29.5577 47.3819 29.5577C47.0512 29.5577 46.9612 28.9158 46.9488 26.4702L46.9391 24.5574L46.3842 24.6283C45.3514 24.7601 44.7277 25.2721 44.4553 26.2118C44.2562 26.8989 44.2125 28.5022 43.9909 43.2404C43.8809 50.5505 43.737 56.6737 43.6709 56.8473C43.5212 57.2408 43.1706 57.2522 42.6959 56.8789C42.3666 56.62 32.8758 46.3187 24.8295 37.4869C23.0473 35.5307 21.5693 33.9302 21.5451 33.9302C21.5209 33.9302 21.5273 35.1783 21.5593 36.7038C21.5912 38.2292 21.6738 42.3847 21.7427 45.9382C21.8117 49.4916 21.9294 52.7808 22.0044 53.2474C22.0793 53.714 22.2868 54.3981 22.4654 54.7676C22.8852 55.6362 23.3637 55.8715 24.8855 55.9583C26.1946 56.0329 26.4451 56.129 26.2298 56.4741C26.0924 56.6943 25.4412 56.7049 13.5951 56.6799C6.72566 56.6654 1.04423 56.6159 0.969686 56.5698C0.895144 56.5238 0.852586 56.3904 0.875118 56.2735C0.906416 56.111 1.18488 56.0253 2.05637 55.9098C2.68353 55.8267 3.34895 55.659 3.53507 55.5371C4.4633 54.9291 4.52738 53.7903 4.47896 38.7595C4.43929 26.4432 4.43882 26.4243 4.15767 25.8162C3.7752 24.989 3.40281 24.7816 1.9852 24.6064C1.05937 24.492 0.775812 24.4098 0.744358 24.2465C0.721933 24.1301 0.775586 23.9904 0.863583 23.936C1.10757 23.7853 13.3732 23.8179 13.5251 23.9696C13.8362 24.2807 13.4945 24.5007 12.5593 24.5916C11.2597 24.7178 10.6174 25.0229 10.3165 25.6569C10.122 26.0666 10.0527 26.6894 9.955 28.9049C9.80446 32.3193 9.93351 52.7836 10.1117 53.7598C10.2644 54.5959 10.7531 55.2634 11.4969 55.6516C11.9041 55.8642 12.3161 55.9306 13.4609 55.968C15.7518 56.0427 16.7334 55.7363 17.5763 54.6831C18.3791 53.68 18.354 54.06 19.1217 31.287C19.2735 26.7836 19.4359 23.5148 19.5151 23.3667C19.6804 23.0581 20.0863 22.9164 20.5046 23.0213C20.816 23.0994 24.2477 26.8186 34.7253 38.4332C37.4452 41.4482 40.0204 44.2969 40.4478 44.7635L41.225 45.6119L41.1542 36.2796C41.1071 30.079 41.0345 26.7545 40.9378 26.3729C40.6252 25.1389 39.9896 24.703 38.3149 24.5739C37.5799 24.5173 37.2316 24.4354 37.1826 24.3078C37.0082 23.8535 37.3304 23.8219 42.1838 23.8183L46.954 23.8147L47.1964 23.4934C47.4301 23.1838 47.4619 23.1781 48.0766 23.3356C49.4302 23.6824 51.371 23.7449 60.8628 23.7471C69.2088 23.7491 70.8338 23.719 71.7465 23.546C72.7368 23.3582 72.8378 23.3592 73.0588 23.5592C73.2776 23.757 74.1182 23.7746 82.7806 23.7626C90.665 23.7516 92.4211 23.7164 93.2012 23.5537C93.7173 23.4461 94.2066 23.358 94.2887 23.358C94.5303 23.358 94.5792 23.6623 94.4475 24.347C94.3796 24.7003 94.244 26.0389 94.1463 27.3216C93.9646 29.7065 93.8469 30.1194 93.3975 29.947C93.2576 29.8934 93.1723 29.6092 93.1164 29.0114C93.0259 28.042 92.6394 27.129 92.1971 26.8392C91.3791 26.3035 90.6057 26.2082 86.1095 26.0891C82.0909 25.9826 81.7222 25.9909 81.5723 26.1914C81.3251 26.5221 81.3372 37.5671 81.5851 37.906C81.7537 38.1365 81.9742 38.1414 86.7752 38.0223C92.2001 37.8878 92.3336 37.8686 93.0366 37.1206C93.2014 36.9451 93.4497 36.8016 93.5884 36.8016C93.8084 36.8016 93.832 36.8722 93.7737 37.3563C93.7369 37.6614 93.6043 39.2326 93.4789 40.8478C93.2428 43.8883 93.1329 44.3368 92.7098 43.9857C92.5984 43.8934 92.5074 43.6223 92.5074 43.3834C92.5074 42.6158 92.2318 41.6338 91.9087 41.2499C91.265 40.4852 90.9054 40.4268 86.1095 40.3083C82.0408 40.2078 81.7236 40.2161 81.5655 40.4262C81.4306 40.6053 81.4036 41.7854 81.4349 46.1339C81.4705 51.0809 81.4973 51.6668 81.7095 52.1379C82.0462 52.8857 82.6309 53.4351 83.5089 53.829C84.8469 54.4293 86.0199 54.5914 89.1126 54.6036C92.4097 54.6167 93.1647 54.4694 94.123 53.6262C94.9866 52.8662 95.2906 51.9599 95.702 48.9182C95.8431 47.8744 96.5363 47.6687 96.7229 48.6152C97.2298 51.1862 97.6668 52.1641 98.8278 53.3247C100.159 54.655 101.715 55.2783 104.065 55.4221C108.685 55.7048 111.86 53.0201 111.192 49.397C110.786 47.1929 109.196 45.415 105.303 42.8099C102.093 40.6618 101.034 39.8541 99.5774 38.4422C97.0107 35.954 95.9925 33.881 95.9827 31.1239C95.9753 29.0031 96.5625 27.6194 98.1255 26.0748C98.9639 25.2463 99.3754 24.958 100.492 24.4169C102.907 23.2463 104.903 22.894 108.502 23.0037C110.837 23.0749 113.733 23.4606 114.443 23.7949L114.769 23.9486L114.804 27.1163C114.827 29.1521 114.79 30.3757 114.702 30.5408C114.622 30.6887 114.429 30.7976 114.245 30.7976C113.915 30.7976 113.891 30.7484 113.732 29.7534C113.6 28.9221 112.904 27.6702 112.186 26.9689C110.816 25.6328 109.151 25.0191 106.87 25.0099C104.726 25.0013 103.201 25.4967 102.111 26.5559C101.251 27.3917 100.93 28.181 100.946 29.4271C100.974 31.7123 102.109 33.0032 106.805 36.088C110.919 38.7908 113.372 40.8332 114.647 42.6153C115.21 43.403 116.14 45.2016 116.14 45.5026C116.14 45.5901 116.194 45.6948 116.259 45.7353C116.368 45.8026 122.637 37.4252 129.391 28.1872C132.609 23.7858 132.753 23.6189 133.332 23.6189C134.134 23.6189 134.098 23.3834 134.811 33.3525C136.116 51.6239 136.212 52.6502 136.783 54.5003C137.225 55.9292 137.877 56.3746 139.535 56.3784C139.922 56.3794 140.223 56.4572 140.357 56.5912C140.552 56.7859 140.552 56.8213 140.352 57.0423C140.232 57.1741 139.892 57.3159 139.595 57.3572C139.298 57.3985 136.675 57.3864 133.767 57.3303L128.479 57.2283L128.437 56.934C128.395 56.6367 128.452 56.5953 129.097 56.454C129.863 56.2863 129.866 56.2586 129.658 51.0507C129.555 48.4509 129.434 46.2664 129.391 46.1962C129.342 46.1172 127.608 46.0687 124.83 46.0687C120.746 46.0687 120.324 46.089 120.089 46.2971C119.552 46.7713 113.398 55.8473 113.398 56.1647C113.398 56.5508 113.606 56.6409 114.494 56.6409C115.256 56.6409 115.786 56.9102 115.533 57.1677C115.427 57.2744 114.403 57.3308 112.138 57.3545C110.353 57.3732 107.248 57.4243 105.238 57.4681C102.45 57.5287 101.283 57.5045 100.322 57.3659ZM129.261 43.8516C129.339 43.7263 129 35.9916 128.856 34.608C128.817 34.227 128.733 33.9333 128.671 33.9554C128.475 34.0241 121.764 43.7594 121.834 43.8729C121.931 44.03 129.164 44.0093 129.261 43.8516ZM220.921 57.4122C218.727 57.1135 216.534 56.4194 216.207 55.9207C216.035 55.6591 216.012 55.0871 216.048 52.0358C216.092 48.2774 216.132 48.0265 216.689 48.0265C216.984 48.0265 217.2 48.4026 217.2 48.9168C217.2 49.5724 217.784 51.3597 218.254 52.1404C219.51 54.2278 222.055 55.4703 225.061 55.464C227.963 55.4579 230.353 54.2345 231.303 52.2685C231.897 51.0393 231.79 49.2454 231.034 47.7655C230.218 46.1692 228.976 45.0236 225.621 42.7714C222.523 40.6915 221.43 39.8547 219.959 38.4372C217.417 35.9875 216.376 33.8396 216.385 31.0587C216.397 27.2379 219.151 24.4403 223.981 23.3429C226.635 22.7398 231.645 22.9281 234.68 23.7451L235.218 23.89V27.1374C235.218 28.9234 235.183 30.4776 235.139 30.5912C235.032 30.8691 234.473 30.854 234.327 30.5692C234.262 30.4436 234.177 30.0875 234.137 29.7779C233.962 28.4025 232.613 26.6671 231.105 25.8782C229.93 25.2631 228.863 25.034 227.196 25.0388C224.993 25.0453 223.74 25.4587 222.549 26.5725C221.713 27.3542 221.349 28.2215 221.349 29.4335C221.349 31.6677 222.58 33.0631 227.254 36.1281C230.482 38.2456 231.938 39.3709 233.595 41.0313C235.949 43.3888 236.77 45.1042 236.881 47.896C236.954 49.7329 236.742 50.7645 235.998 52.1958C235.062 53.9931 233.075 55.6677 230.869 56.5183C228.882 57.284 227.874 57.4434 224.707 57.4923C223.128 57.5167 221.424 57.4807 220.921 57.4122ZM347.734 57.4108C345.328 57.1451 343.063 56.3827 341.099 55.1776C339.645 54.2856 337.597 52.2547 336.597 50.7136C332.01 43.6453 332.77 33.5464 338.331 27.653C341.263 24.5465 345.258 22.9669 350.183 22.9676C353.859 22.9686 356.648 23.6691 359.453 25.297C360.94 26.1599 363.135 28.3743 364.055 29.9391C365.784 32.8792 366.55 36.2462 366.403 40.2605C366.184 46.2404 363.78 51.274 359.671 54.3567C356.497 56.738 352.018 57.884 347.734 57.4108ZM353.751 54.7336C357.612 53.4569 359.728 49.6072 360.168 43.0649C360.663 35.6977 358.428 29.5713 354.247 26.8348C352.929 25.9724 352.186 25.6596 350.775 25.374C347.845 24.7805 344.905 25.672 342.922 27.7557C341.537 29.2111 340.491 31.5361 339.998 34.2564C339.707 35.8573 339.596 39.8976 339.795 41.6318C340.575 48.4368 343.678 53.182 348.33 54.6844C350.132 55.2664 352.087 55.2842 353.751 54.7336ZM399.864 57.4764C397.249 57.1733 395.727 56.7865 394.039 55.9961C392.571 55.3082 391.497 54.5561 390.236 53.333C389.644 52.7587 389.14 52.3136 389.115 52.3439C389.091 52.3742 389.001 52.9478 388.915 53.6186C388.681 55.4422 388.512 56.0956 388.178 56.4848L387.875 56.8367L383.457 56.8251C369.116 56.7872 365.789 56.736 365.635 56.5512C365.373 56.2351 365.722 56.0687 366.852 55.9716C368.163 55.859 368.507 55.6353 368.826 54.6891C369.257 53.4112 369.327 50.9545 369.286 38.5637L369.246 26.5557L368.955 25.9655C368.795 25.6408 368.501 25.2806 368.302 25.1649C367.854 24.9044 366.743 24.6631 365.992 24.6631C365.383 24.6631 365.076 24.445 365.261 24.1451C365.356 23.9921 366.54 23.9609 372.52 23.9537C379.794 23.9451 380.162 23.9685 379.986 24.428C379.931 24.571 379.598 24.6446 378.723 24.7066C376.955 24.8321 376.447 25.1128 376.085 26.1641C375.826 26.9169 375.819 50.3782 376.078 51.7464C376.314 52.9955 376.551 53.4359 377.229 53.8848C377.988 54.3875 378.646 54.4726 381.65 54.4565C384.366 54.442 385.65 54.2558 386.587 53.7405C387.185 53.4117 387.892 52.4704 388.125 51.6933C388.263 51.2329 388.237 51.15 387.608 50.0527C385.861 47.0084 385.061 43.931 385.061 40.2604C385.061 35.2962 386.719 30.8485 389.752 27.6746C392.791 24.4951 396.635 22.9663 401.591 22.9663C410.285 22.9663 416.07 27.5737 417.563 35.6868C417.738 36.6371 417.767 37.4442 417.718 39.9941C417.653 43.3816 417.503 44.3099 416.636 46.7213C414.626 52.304 410.196 56.1299 404.49 57.2095C403.423 57.4114 400.673 57.57 399.864 57.4764ZM404.819 54.8605C406.137 54.4905 407.054 53.9257 408.178 52.7902C409.075 51.8846 409.352 51.495 409.911 50.3497C410.691 48.7529 411.253 46.6857 411.487 44.5515C411.728 42.3476 411.597 38.0227 411.235 36.2329C410.247 31.3515 407.875 27.8037 404.5 26.1573C401.172 24.5342 397.295 24.9949 394.822 27.3074C393.038 28.9756 392.082 30.9193 391.435 34.1912C391.101 35.8798 391.029 40.3519 391.304 42.3228C392.199 48.7389 395.223 53.1831 399.71 54.6781C401.308 55.2106 403.316 55.2823 404.819 54.8605ZM284.922 56.6083C284.334 56.0565 277.291 48.4299 268.586 38.9204C266.077 36.1792 264.006 33.9544 263.984 33.9763C263.962 33.9983 264.008 37.5321 264.087 41.8292L264.23 49.6422L265.55 51.2674C267.226 53.3302 268.655 54.8497 269.402 55.3631C269.872 55.6864 270.158 55.7771 270.871 55.828C271.634 55.8827 271.766 55.9293 271.83 56.1682C271.873 56.33 271.828 56.5019 271.721 56.5818C271.599 56.6735 269.275 56.7109 264.64 56.6956C260.846 56.6832 257.672 56.6657 257.587 56.6569C257.354 56.6328 257.241 56.1323 257.42 55.9168C257.531 55.7837 257.854 55.7271 258.508 55.7268C259.698 55.7258 260.326 55.4038 260.263 54.8262C260.234 54.5641 259.143 53.1288 256.594 49.9999L252.966 45.5466H248.023H243.08L242.984 47.856C242.861 50.8078 242.965 53.7992 243.215 54.4869C243.606 55.5625 244.307 55.9556 245.947 56.0196C246.896 56.0566 247.015 56.1098 246.947 56.4644C246.904 56.6869 246.597 56.7001 241.391 56.7031C236.323 56.7059 235.862 56.6879 235.653 56.4787C235.319 56.1452 235.538 56.0328 236.701 55.9403C238.064 55.832 238.639 55.5107 239.079 54.6106C239.404 53.9479 239.426 53.6916 240.461 38.8163C241.039 30.4999 241.563 23.5625 241.625 23.3999C241.751 23.0679 242.25 22.8933 242.693 23.0261C242.922 23.0947 252.966 35.4938 260.651 45.1932L261.043 45.6881L261.129 43.6922C261.176 42.5944 261.348 37.591 261.511 32.5736L261.806 23.451L262.118 23.1986C262.296 23.0546 262.556 22.9702 262.723 23.0021C263.332 23.1184 262.863 22.6256 273.349 34.1785C276.906 38.0979 280.696 42.27 281.77 43.4499L283.724 45.5952L283.732 41.6226C283.737 39.4377 283.707 35.1538 283.667 32.1028L283.594 26.5557L283.267 25.9098C282.792 24.9701 282.463 24.7848 280.961 24.6112C279.817 24.479 279.677 24.4344 279.677 24.204C279.677 23.8028 280.268 23.7746 286.858 23.8624C290.161 23.9064 295.743 23.9531 299.262 23.9662C305.099 23.9879 305.789 24.0136 307.129 24.259C308.795 24.564 310.61 25.1997 311.456 25.7749C312.858 26.7282 314.015 28.4884 314.378 30.2197C314.715 31.8263 314.414 34.3121 313.652 36.2091C312.782 38.3741 311.315 39.9419 309.185 40.9821C307.282 41.9115 306.393 42.0878 303.61 42.0878C301.249 42.0878 300.898 42.0179 301.066 41.5816C301.145 41.3747 301.48 41.2982 302.805 41.1846C305.357 40.9658 307.667 38.7621 308.437 35.8116C308.721 34.7258 308.704 32.1423 308.407 30.9934C308.086 29.7554 307.434 28.5911 306.574 27.7213C305.654 26.7917 304.67 26.2828 303.252 26.0046C302.054 25.7695 299.56 25.8127 299.301 26.073C299.164 26.2103 299.136 28.7764 299.154 39.4514C299.169 47.879 299.226 52.9829 299.314 53.552C299.584 55.3194 300.241 55.9532 301.668 55.8239C303.283 55.6775 304.121 54.9281 306.835 51.2064C307.697 50.0244 311.339 45.0909 314.93 40.2429C318.521 35.395 322.78 29.6326 324.396 27.4375C326.012 25.2425 327.491 23.3307 327.682 23.1891C328.045 22.9208 328.591 22.9311 328.872 23.2116C329.04 23.3793 329.04 23.3816 329.924 35.6269C331.091 51.7971 331.151 52.4059 331.742 54.0958C332.001 54.8385 332.715 55.5573 333.275 55.6412C333.526 55.6787 334.084 55.7575 334.515 55.8162C335.174 55.9061 335.299 55.9643 335.299 56.1824C335.299 56.7339 334.946 56.7639 329.041 56.7151C324.513 56.6777 323.428 56.6352 323.337 56.4917C323.157 56.2063 323.273 56.0668 323.865 55.8583C324.209 55.737 324.483 55.5373 324.581 55.3357C324.81 54.8659 324.46 45.8258 324.203 45.5625C324.056 45.4122 323.283 45.4015 319.49 45.4973L314.954 45.6118L311.574 50.4957C309.716 53.1818 308.212 55.4662 308.233 55.5721C308.296 55.8919 308.665 56.0372 309.559 56.0941C310.417 56.1487 310.64 56.2943 310.417 56.6528C310.326 56.7994 310.004 56.8246 308.83 56.777C306.86 56.6971 296.367 56.6207 293.909 56.6683C289.174 56.76 288.724 56.7188 288.918 56.213C288.966 56.0875 289.31 56.0015 289.994 55.9437C291.223 55.8398 291.618 55.6626 291.931 55.0732C292.434 54.1248 292.472 53.0193 292.472 39.4773C292.472 26.6834 292.467 26.415 292.211 25.9115C292.068 25.629 291.799 25.2878 291.615 25.1534C290.894 24.6276 288.366 24.5027 287.67 24.9585C287.489 25.0772 287.232 25.4558 287.099 25.7997C286.824 26.5126 286.752 28.9934 286.495 46.5255C286.417 51.8377 286.319 56.3547 286.277 56.5632C286.201 56.9371 285.957 57.177 285.663 57.1678C285.58 57.1651 285.246 56.9134 284.922 56.6083ZM250.994 43.1939C250.894 42.8947 243.509 33.9441 243.434 34.0315C243.328 34.155 243.028 43.0516 243.124 43.208C243.231 43.3801 251.051 43.3661 250.994 43.1939ZM324.178 43.2298C324.209 43.176 324.127 41.0762 323.995 38.5637C323.863 36.0511 323.752 33.8339 323.749 33.6365C323.746 33.4391 323.693 33.2775 323.631 33.2775C323.514 33.2775 316.89 42.742 316.747 43.1135C316.672 43.309 316.99 43.3277 320.392 43.3277C322.442 43.3277 324.146 43.2837 324.178 43.2298Z" fill="#202020"/>
<g clip-path="url(#clip1_237_10295)">
<path d="M200.161 19.8217V60.6624H159.306V19.8217H200.161Z" stroke="#202020" stroke-width="0.584901"/>
<path fill-rule="evenodd" clip-rule="evenodd" d="M156.33 16.845H203.139V63.6371H156.33V16.845ZM159.013 60.9548H200.453V19.5292H159.013V60.9548Z" fill="#202020"/>
<path fill-rule="evenodd" clip-rule="evenodd" d="M198.19 30.0564L198.176 30.0448H198.175C197.892 29.8755 197.46 29.7774 197.172 29.9044C195.324 29.7273 193.559 29.7466 191.69 29.7697H191.559C190.623 29.7812 189.653 29.7928 188.685 29.7754L180.85 29.6157C178.91 29.5681 176.97 29.5816 175.031 29.6562C173.57 29.6677 172.149 29.7062 170.704 29.7485C169.198 29.789 165.603 29.7985 163.454 29.8063C162.847 29.8048 162.24 29.808 161.633 29.8158C161.379 29.8293 161.071 30.1834 161.065 30.4662C161.064 30.6278 161.156 30.8087 161.427 30.8357C161.629 30.8549 162.929 30.8626 165.291 30.8549L167.703 30.8453C168.344 30.8436 168.642 30.8529 168.781 30.8376H168.798C170.571 30.6586 172.351 30.6682 174.072 30.6798H174.205C175.32 30.6856 176.473 30.6913 177.631 30.6451C177.872 30.7009 178.126 30.6491 178.371 30.5989L178.407 30.5931C178.517 30.572 178.63 30.5508 178.738 30.5412C179.002 30.6182 179.304 30.6143 179.622 30.6066C179.93 30.599 180.242 30.5951 180.527 30.6605L180.528 30.6682L180.576 30.6665L180.578 30.6608C180.828 30.5761 181.055 30.6203 181.298 30.6665C181.421 30.6937 181.546 30.7123 181.671 30.7223C183.91 30.6608 186.386 30.7397 189.475 30.9763L190.936 31.1341V31.1358H190.951C192.251 31.0088 193.592 31.1069 194.89 31.2031C194.901 31.2035 194.912 31.2041 194.923 31.2048C195.899 31.276 196.821 31.3433 197.737 31.3241L197.743 31.3338L197.797 31.3145L197.795 31.303L198.28 30.9162L198.282 30.9179L198.303 30.8929L198.301 30.8912C198.38 30.76 198.412 30.6058 198.392 30.4541C198.371 30.3024 198.3 30.1623 198.19 30.0564Z" fill="#202020"/>
<path fill-rule="evenodd" clip-rule="evenodd" d="M185.229 46.6929L185.27 46.6679V46.5717L185.235 43.5238V43.5161L185.233 43.5084C185.184 43.0089 185.159 42.5075 185.156 42.0056C185.143 41.4034 185.129 40.778 185.049 40.2238C185.033 39.4349 184.875 38.5864 184.723 37.7686L184.623 37.2125L184.613 37.1586L184.575 37.1202C184.454 36.9989 184.411 36.8431 184.365 36.666C184.325 36.516 184.284 36.364 184.192 36.2177C183.988 35.8444 183.664 35.4827 183.378 35.1633L183.362 35.1479C183.291 35.0498 183.208 34.9997 183.135 34.9516C183.093 34.9247 183.052 34.8997 183.008 34.8612L182.943 34.8054L182.902 34.8151L182.85 34.7727C182.592 34.5668 182.352 34.488 182.073 34.3956L182.067 34.3939C181.986 34.2785 181.832 34.2611 181.728 34.2592V34.1842L181.584 34.1611L180.904 34.0591L180.804 34.0437L180.742 34.1264C180.717 34.1591 180.712 34.1668 180.569 34.1149C180.5 34.0875 180.427 34.0687 180.354 34.0591L180.275 34.0514L180.234 34.0898C180.21 34.0719 180.184 34.0564 180.157 34.0436L179.876 33.959L179.853 34.0898C179.741 34.0856 179.63 34.1101 179.53 34.161H179.083L178.667 34.1627L178.715 34.3205L178.708 34.3282C178.525 34.282 178.386 34.3936 178.307 34.4571L178.269 34.4898C178.121 34.5148 178.038 34.5764 177.978 34.6206C177.934 34.6533 177.921 34.6649 177.88 34.6668L177.811 34.6745L177.767 34.7284C177.658 34.8172 177.535 34.8874 177.403 34.9362L177.174 35.0382L177.224 35.0863C177.184 35.1036 177.147 35.1277 177.116 35.1575H176.895V35.3307L176.87 35.3267L176.746 35.2748C176.737 35.2709 176.656 35.3806 176.656 35.3806C176.521 35.5692 176.346 35.7539 176.161 35.9502C175.946 36.1792 175.72 36.4178 175.551 36.6756L175.499 36.7526L175.532 36.8295C175.491 36.8546 175.387 36.92 175.368 37.0451C175.301 37.1291 175.261 37.2307 175.251 37.3375C175.247 37.3625 175.243 37.3972 175.235 37.4126C175.165 37.4989 175.121 37.6039 175.11 37.7147C175.099 37.7782 175.093 37.8147 175.066 37.8474L174.956 37.986L175.004 38.0225C174.972 38.1053 174.972 38.1919 174.97 38.2438C174.97 38.2669 174.97 38.2938 174.966 38.3131L174.894 38.3573L174.91 38.467C174.941 38.6825 174.911 38.8807 174.885 39.0904C174.848 39.3013 174.837 39.5158 174.852 39.7293C174.769 39.8563 174.789 40.0083 174.802 40.1006C174.808 40.1333 174.814 40.1776 174.812 40.1988L174.702 40.2834L174.781 40.4123C174.841 40.5105 174.792 40.6683 174.748 40.8164C174.706 40.9607 174.656 41.1378 174.708 41.2917C174.683 41.3114 174.664 41.3367 174.652 41.3656C174.639 41.3944 174.634 41.4259 174.637 41.4572C174.637 41.5745 174.627 41.6111 174.621 41.6188L174.54 41.7862L174.529 41.8516L174.675 41.9536C174.662 42.0431 174.664 42.1341 174.681 42.223C174.698 42.3346 174.702 42.3808 174.669 42.425L174.577 42.5886L174.667 42.6963V42.7271C174.663 42.8002 174.654 42.933 174.748 43.0311C174.75 43.0504 174.754 43.0677 174.76 43.085L174.594 43.1274L174.702 43.3563L174.69 43.4141C174.675 43.4814 174.644 43.6161 174.714 43.7335C174.662 43.8682 174.694 43.999 174.715 44.0856C174.721 44.1106 174.731 44.1433 174.733 44.1664C174.575 44.3319 174.652 44.5493 174.694 44.6667C174.621 44.7783 174.638 44.9111 174.654 44.9919L174.442 45.0631L174.657 45.2824C174.651 45.3103 174.649 45.3393 174.653 45.3677C174.658 45.3961 174.668 45.4234 174.683 45.4479C174.708 45.4883 174.74 45.5114 174.773 45.5268L174.708 45.548L174.715 45.5691V45.5708L174.792 45.7671L174.788 45.7902C174.771 45.9007 174.795 46.0136 174.856 46.1077C174.833 46.1341 174.821 46.1675 174.821 46.202L174.736 46.2866L174.817 46.404C174.881 46.4964 174.858 46.6157 174.811 46.8042C174.769 46.9697 174.717 47.1794 174.813 47.3603L174.694 47.4777L174.844 47.5874C174.841 47.5954 174.837 47.6032 174.832 47.6105C174.794 47.6817 174.725 47.8125 174.811 47.9568L174.803 47.9395C174.834 48.0068 174.821 48.1204 174.805 48.2377C174.786 48.409 174.761 48.6168 174.851 48.8227L174.822 49.0286L174.828 49.0036C174.809 49.0705 174.816 49.1423 174.849 49.2037L174.784 49.2345L174.83 49.3769C174.872 49.5499 174.888 49.7282 174.878 49.906C174.878 50.2716 174.88 50.6891 175.211 51.0066L175.283 51.074L175.377 51.0451C175.625 50.972 175.637 50.7257 175.644 50.5929C175.644 50.564 175.646 50.5371 175.65 50.5159L175.654 50.4794L175.644 50.4428C175.544 50.1061 175.587 49.6655 175.625 49.2768L175.652 48.9805L175.656 48.9343L175.635 48.8919C175.568 48.7572 175.585 48.6225 175.602 48.4667C175.63 48.3141 175.625 48.1572 175.587 48.0068C175.643 47.2949 175.61 46.4482 175.579 45.7055C175.57 45.3899 175.556 45.0917 175.55 44.8146V44.7992C175.516 44.4353 175.509 44.0693 175.529 43.7044C175.539 43.3753 175.548 43.0367 175.52 42.725C175.598 42.369 175.595 42.0438 175.587 41.6994C175.585 41.5435 175.581 41.3819 175.587 41.2145L175.589 41.1722L175.577 41.151C175.654 41.0567 175.671 40.9605 175.633 40.8682C175.662 40.7484 175.676 40.6257 175.677 40.5026C175.676 40.418 175.683 40.3335 175.7 40.2505L175.71 40.2101L175.698 40.1697C175.677 40.0946 175.698 40.008 175.719 39.9157C175.758 39.7938 175.76 39.6634 175.725 39.5404C175.86 39.273 175.887 38.9459 175.916 38.6265L175.925 38.5168C175.937 38.4475 175.912 38.3821 175.856 38.3244V38.3147C175.856 38.1743 175.929 38.0607 176.02 37.9164C176.145 37.7449 176.228 37.5465 176.262 37.3372L176.266 37.2968L176.265 37.2872L176.303 37.2525C176.365 37.2025 176.459 37.1217 176.457 36.9947C176.457 36.9717 176.453 36.949 176.446 36.9273C176.548 36.829 176.634 36.7154 176.702 36.5906C176.798 36.4309 176.867 36.3135 177.056 36.2596L177.148 36.2327L177.173 36.1385C177.2 36.0345 177.291 35.9749 177.437 35.8845C177.559 35.8173 177.668 35.7286 177.758 35.6228C177.88 35.6324 177.955 35.5997 177.997 35.5516C178.129 35.5133 178.251 35.4455 178.353 35.3534C178.509 35.2283 178.559 35.2014 178.667 35.2475L178.775 35.2976L178.842 35.2302L178.856 35.2263C178.904 35.2128 178.99 35.1897 179.04 35.1108C179.081 35.1012 179.122 35.0889 179.162 35.0743C179.25 35.0416 179.271 35.0396 179.3 35.055C179.324 35.0697 179.35 35.0793 179.378 35.0832C179.405 35.0872 179.433 35.0855 179.46 35.0782L179.466 35.0916L179.589 35.0762L179.753 35.055C180.241 34.9915 180.665 34.9377 181.046 35.1416L181.183 35.2167L181.264 35.0935L181.316 35.1493C181.414 35.259 181.585 35.4476 181.833 35.4052C181.887 35.4514 181.949 35.4899 182.003 35.5207L182.074 35.5649V35.5726L182.107 35.6169C182.184 35.7208 182.347 35.7689 182.48 35.7746C182.767 36.0767 183.058 36.4885 183.058 36.6694V36.8387H183.183L183.187 36.8483C183.233 37.0716 183.298 37.3486 183.472 37.5295C183.422 37.643 183.466 37.7816 183.483 37.8393L183.5 37.9009L183.458 38.0279L183.57 38.1414L183.595 38.1549C183.589 38.2722 183.641 38.38 183.678 38.457C183.688 38.4782 183.698 38.5001 183.706 38.5224L183.679 38.5839C183.527 38.8745 183.731 39.0361 183.83 39.1131C183.843 39.1225 183.855 39.1328 183.866 39.1439C183.789 39.2016 183.793 39.2632 183.78 39.3671L183.791 39.4941L183.843 39.5787H183.847L183.853 39.5961C183.859 39.6211 183.872 39.6557 183.893 39.6942L183.836 39.75L183.795 39.902L183.88 40.0252L183.945 40.0578C183.946 40.1176 183.962 40.1762 183.989 40.2291L183.999 40.2541L183.984 40.3291C183.928 40.6082 183.857 40.968 184.03 41.2566L184.015 41.272C183.934 41.3778 183.955 41.5009 183.968 41.5914C183.972 41.6203 183.982 41.6664 183.976 41.6818L183.934 41.8569C183.934 41.8646 183.99 41.88 184.04 41.8896C184.034 41.9088 184.026 41.9243 184.022 41.9435L183.986 42.1436H184.053C184.042 42.2129 184.04 42.2764 184.038 42.336C184.036 42.438 184.032 42.5034 183.995 42.5573L183.982 42.5804L183.974 42.6073C183.924 42.792 183.991 42.9652 184.045 43.1037L184.076 43.1788C184.057 43.1981 184.043 43.221 184.034 43.2462C184.024 43.2714 184.021 43.2982 184.022 43.325C184.022 43.3405 184.03 43.3519 184.034 43.3655L183.995 43.4039L184.028 43.5021C184.047 43.5598 184.08 43.5944 184.122 43.6156L184.093 43.6233C184.088 43.6249 184.088 43.756 184.088 43.756V43.8022L183.982 43.833L184.036 43.9446C184.017 43.9754 184.005 44.0098 184 44.0456C183.995 44.0815 183.998 44.1179 184.009 44.1524L183.936 44.2833C183.94 44.2794 183.947 44.3602 184.013 44.391C183.945 44.6239 184.115 44.7932 184.213 44.8952C184.245 44.9249 184.274 44.9571 184.301 44.9914H184.217L184.28 45.2107L184.282 45.2165L184.238 45.2627L184.099 45.332L184.143 45.5205L184.13 45.5648C184.097 45.6648 184.122 45.7303 184.151 45.7707C184.157 45.7803 184.165 45.7841 184.172 45.7899C184.105 45.8517 184.063 45.9358 184.053 46.0266L184.037 46.1863L184.166 46.2055C184.155 46.2384 184.146 46.2718 184.138 46.3056C184.12 46.3652 184.107 46.4172 184.078 46.4576L184.08 46.4593L184.068 46.4785L184.295 46.6055C184.267 46.6581 184.245 46.7136 184.23 46.771L184.207 46.8403H184.189L183.999 46.8419L184.01 47.0613C184.021 47.0997 184.027 47.139 184.029 47.1787C184.034 47.224 184.042 47.269 184.053 47.3134V47.5327C184.053 47.5616 184.053 47.6078 184.062 47.6559L184.037 47.6693L184.055 47.7905C184.064 47.8521 184.058 47.9118 184.055 47.9733C184.053 48.0099 184.049 48.0484 184.049 48.0888L183.895 48.1696L184.083 48.3755L184.082 48.3832C184.052 48.4453 184.036 48.5127 184.034 48.5814H183.899L184.128 48.8604C184.147 48.8854 184.164 48.947 184.178 48.9931L184.182 49.0105C184.088 49.099 184.072 49.2337 184.066 49.3068C184.062 49.3395 184.059 49.3876 184.051 49.3991L184.055 49.3952L184.113 49.4722C184.076 49.4995 184.046 49.5351 184.026 49.5761C184.005 49.6265 183.998 49.6818 184.007 49.7358H183.785L183.968 49.9186L183.797 49.9744L183.939 50.0937V50.5478C183.939 50.6305 183.98 50.6998 184.047 50.7344C184.051 50.7366 184.056 50.7379 184.061 50.7384C184.101 50.7628 184.145 50.7789 184.191 50.7855C184.238 50.7921 184.285 50.7892 184.33 50.7768V50.9654L184.55 50.9C184.68 50.8552 184.82 50.8452 184.956 50.8711L185.137 50.9096L185.16 50.7268C185.248 50.0475 185.231 49.3914 185.214 48.7564C185.198 48.1387 185.183 47.5499 185.262 46.9765C185.279 46.9298 185.285 46.8797 185.279 46.8303C185.274 46.7808 185.256 46.7334 185.229 46.6918L185.229 46.6929Z" fill="#202020"/>
<path fill-rule="evenodd" clip-rule="evenodd" d="M172.229 46.6929L172.269 46.6679L172.234 43.5238V43.5161L172.233 43.5084C172.184 43.0089 172.158 42.5075 172.156 42.0056C172.142 41.4034 172.129 40.778 172.046 40.2238C172.032 39.4349 171.875 38.5864 171.723 37.7686L171.622 37.2125L171.613 37.1586L171.574 37.1202C171.451 36.9989 171.411 36.8431 171.364 36.666C171.324 36.516 171.284 36.364 171.189 36.2177C170.987 35.8444 170.662 35.4827 170.375 35.1633L170.362 35.1479C170.29 35.0498 170.206 34.9997 170.133 34.9516C170.09 34.9247 170.05 34.8997 170.005 34.8612L169.94 34.8054L169.9 34.8151L169.848 34.7727C169.59 34.5668 169.349 34.488 169.07 34.3956L169.064 34.3939C168.983 34.2785 168.831 34.2611 168.725 34.2592V34.1842L168.581 34.1611L167.902 34.0591L167.801 34.0437L167.74 34.1264C167.715 34.1591 167.709 34.1668 167.567 34.1149C167.501 34.0918 167.432 34.0667 167.353 34.0591L167.272 34.0514L167.234 34.0898C167.209 34.0719 167.182 34.0565 167.155 34.0436L166.874 33.959L166.851 34.0898C166.738 34.0855 166.627 34.11 166.527 34.161H166.081L165.663 34.1627L165.713 34.3205L165.705 34.3282C165.522 34.282 165.384 34.3936 165.307 34.4571C165.293 34.4686 165.278 34.484 165.266 34.4898C165.16 34.5077 165.06 34.5528 164.976 34.6206C164.931 34.6533 164.918 34.6649 164.877 34.6668L164.808 34.6745L164.764 34.7284C164.655 34.8172 164.532 34.8874 164.4 34.9362L164.171 35.0382L164.221 35.0863C164.181 35.104 164.144 35.128 164.111 35.1575H163.892V35.3307C163.883 35.3307 163.875 35.3294 163.867 35.3267L163.742 35.2748C163.709 35.3068 163.679 35.3423 163.653 35.3806C163.518 35.5692 163.343 35.7539 163.158 35.9502C162.943 36.1792 162.718 36.4178 162.548 36.6756L162.496 36.7526L162.531 36.8295C162.491 36.8546 162.385 36.92 162.367 37.0451C162.285 37.1355 162.265 37.2567 162.252 37.3375C162.249 37.3629 162.244 37.388 162.237 37.4126C162.168 37.4999 162.125 37.6044 162.111 37.7147C162.1 37.7782 162.094 37.8147 162.067 37.8474L161.957 37.986L162.007 38.0225C161.973 38.1053 161.973 38.1919 161.973 38.2438C161.973 38.267 161.971 38.2901 161.969 38.3131L161.896 38.3573L161.911 38.467C161.942 38.6825 161.915 38.8807 161.886 39.0904C161.851 39.3014 161.84 39.5158 161.853 39.7293C161.771 39.8563 161.79 40.0083 161.805 40.1006C161.811 40.1333 161.817 40.1776 161.815 40.1988L161.705 40.2834L161.782 40.4123C161.842 40.5105 161.794 40.6683 161.749 40.8164C161.709 40.9607 161.659 41.1378 161.711 41.2917C161.686 41.3109 161.666 41.3362 161.654 41.3652C161.642 41.3943 161.638 41.4259 161.642 41.4572C161.642 41.5745 161.63 41.6111 161.624 41.6188L161.543 41.7862L161.53 41.8516L161.676 41.9536C161.665 42.0433 161.668 42.1341 161.684 42.223C161.701 42.3346 161.705 42.3808 161.672 42.425L161.58 42.5886L161.672 42.6963L161.671 42.7271C161.667 42.8002 161.661 42.933 161.752 43.0311C161.753 43.0504 161.757 43.0677 161.763 43.085L161.598 43.1274L161.705 43.3563L161.694 43.4141C161.677 43.4814 161.646 43.6161 161.715 43.7335C161.679 43.8483 161.68 43.9712 161.717 44.0856C161.722 44.1106 161.732 44.1433 161.734 44.1664C161.578 44.3319 161.653 44.5493 161.696 44.6667C161.622 44.7783 161.64 44.9111 161.655 44.9919L161.443 45.0631L161.661 45.2824C161.654 45.3103 161.653 45.3393 161.657 45.3677C161.661 45.3961 161.671 45.4234 161.686 45.4479C161.707 45.4831 161.739 45.5107 161.776 45.5268L161.709 45.548L161.719 45.5691V45.5708L161.796 45.7671L161.794 45.7902C161.777 45.9004 161.801 46.013 161.859 46.1077C161.838 46.1346 161.826 46.1676 161.825 46.202L161.74 46.2866L161.823 46.404C161.886 46.4964 161.861 46.6157 161.815 46.8042C161.773 46.9697 161.721 47.1794 161.819 47.3603L161.7 47.4777L161.85 47.5874L161.838 47.6105C161.8 47.6817 161.731 47.8125 161.819 47.9568L161.809 47.9395C161.84 48.0068 161.829 48.1204 161.813 48.2377C161.773 48.4332 161.789 48.636 161.86 48.8227L161.829 49.0286L161.835 49.0036C161.816 49.0704 161.823 49.1415 161.854 49.2037L161.788 49.2345L161.835 49.3769C161.877 49.5498 161.894 49.7281 161.885 49.906C161.886 50.2716 161.886 50.6891 162.22 51.0066L162.291 51.074L162.385 51.0451C162.633 50.972 162.645 50.7257 162.653 50.5929C162.653 50.564 162.653 50.5371 162.657 50.5159L162.661 50.4794L162.651 50.4428C162.551 50.1061 162.593 49.6655 162.63 49.2768C162.639 49.1709 162.649 49.0747 162.655 48.9805L162.659 48.9343L162.638 48.8919C162.57 48.7572 162.587 48.6225 162.605 48.4667C162.634 48.3141 162.629 48.157 162.589 48.0068C162.645 47.2949 162.612 46.4482 162.582 45.7055C162.57 45.3899 162.557 45.0917 162.553 44.8146V44.7992C162.51 44.4452 162.522 44.07 162.532 43.7044C162.541 43.3753 162.551 43.0367 162.522 42.725C162.599 42.369 162.595 42.0438 162.589 41.6994C162.588 41.5435 162.584 41.3819 162.589 41.2145L162.591 41.1722L162.579 41.151C162.655 41.0567 162.674 40.9605 162.633 40.8682C162.67 40.7392 162.674 40.6123 162.678 40.5026C162.682 40.4141 162.683 40.3294 162.703 40.2505L162.712 40.2101L162.701 40.1697C162.687 40.0847 162.693 39.9975 162.72 39.9157C162.76 39.7942 162.763 39.6634 162.728 39.5404C162.86 39.273 162.889 38.9459 162.916 38.6265L162.926 38.5168C162.931 38.4817 162.927 38.4459 162.916 38.4124C162.904 38.379 162.884 38.3488 162.859 38.3244V38.3147C162.859 38.1743 162.93 38.0607 163.022 37.9164C163.147 37.7452 163.23 37.5466 163.263 37.3372L163.269 37.2968L163.265 37.2872L163.303 37.2525C163.365 37.2025 163.459 37.1217 163.457 36.9947C163.456 36.9718 163.452 36.9492 163.446 36.9273C163.565 36.8215 163.636 36.7003 163.702 36.5906C163.796 36.4309 163.865 36.3135 164.056 36.2596L164.148 36.2327L164.173 36.1385C164.2 36.0345 164.293 35.9749 164.439 35.8845C164.561 35.8177 164.669 35.7289 164.758 35.6228C164.88 35.6324 164.955 35.5997 164.999 35.5516C165.131 35.5133 165.253 35.4455 165.355 35.3534C165.511 35.2283 165.561 35.2014 165.669 35.2475L165.777 35.2976L165.844 35.2302C165.849 35.2296 165.855 35.2283 165.859 35.2263C165.908 35.2128 165.99 35.1897 166.042 35.1108C166.089 35.1012 166.131 35.0858 166.166 35.0743C166.252 35.0416 166.273 35.0396 166.302 35.055C166.326 35.0697 166.352 35.0793 166.38 35.0832C166.407 35.0872 166.435 35.0855 166.462 35.0782L166.466 35.0916L166.591 35.0762L166.757 35.055C167.244 34.9915 167.667 34.9377 168.048 35.1416L168.185 35.2167L168.266 35.0935C168.283 35.1112 168.3 35.1298 168.316 35.1493C168.414 35.259 168.585 35.4476 168.835 35.4052C168.889 35.4514 168.951 35.4899 169.005 35.5207L169.076 35.5649V35.5726L169.111 35.6169C169.188 35.7208 169.351 35.7689 169.482 35.7746C169.769 36.0767 170.06 36.4885 170.06 36.6694V36.8387H170.187L170.188 36.8483C170.237 37.0716 170.302 37.3486 170.473 37.5295C170.425 37.643 170.468 37.7816 170.485 37.8393L170.502 37.9009L170.46 38.0279L170.572 38.1414L170.597 38.1549C170.591 38.2722 170.643 38.38 170.679 38.457L170.71 38.5224L170.681 38.5839C170.529 38.8745 170.733 39.0361 170.831 39.1131L170.868 39.1439C170.791 39.2016 170.795 39.2632 170.779 39.3671L170.793 39.4941L170.845 39.5787H170.849L170.855 39.5961C170.862 39.6211 170.874 39.6557 170.895 39.6942L170.837 39.75L170.797 39.902L170.881 40.0252L170.953 40.0521C170.951 40.1213 170.98 40.181 170.997 40.2233L171.007 40.2483L170.991 40.3234C170.935 40.6024 170.864 40.9622 171.037 41.2508L171.024 41.2662C170.943 41.372 170.964 41.4952 170.98 41.5856C170.984 41.6145 170.991 41.6606 170.987 41.676L170.943 41.8511C170.943 41.8588 170.999 41.8742 171.049 41.8838C171.043 41.9031 171.036 41.9185 171.032 41.9377L170.995 42.1378H171.064C171.053 42.2071 171.051 42.2706 171.049 42.3302C171.047 42.4322 171.043 42.4976 171.007 42.5515L170.993 42.5746L170.986 42.6016C170.935 42.7863 171.003 42.9595 171.059 43.098L171.088 43.1731C171.069 43.1925 171.055 43.2155 171.046 43.2407C171.036 43.2658 171.032 43.2926 171.034 43.3193C171.034 43.3347 171.041 43.3462 171.043 43.3597L171.007 43.3982L171.039 43.4963C171.057 43.5541 171.091 43.5887 171.134 43.6099L171.105 43.6176C171.099 43.6192 171.099 43.7503 171.099 43.7503V43.7965L170.991 43.8234L171.045 43.935C171.026 43.9658 171.014 44.0003 171.009 44.0361C171.005 44.0719 171.008 44.1083 171.018 44.1429L170.945 44.2737C170.947 44.2698 170.959 44.3507 171.024 44.3814C170.957 44.6143 171.124 44.7836 171.224 44.8856C171.257 44.9148 171.286 44.947 171.313 44.9818H171.228L171.292 45.2012L171.293 45.2069C171.277 45.2209 171.262 45.2364 171.249 45.2531L171.109 45.3224L171.153 45.511L171.139 45.5552C171.107 45.6553 171.134 45.7207 171.16 45.7611C171.166 45.7707 171.174 45.7746 171.182 45.7803C171.114 45.8415 171.071 45.926 171.062 46.017L171.047 46.1767L171.178 46.196C171.166 46.2306 171.155 46.2633 171.147 46.296C171.13 46.3557 171.116 46.4076 171.089 46.448L171.091 46.4497L171.079 46.4689L171.307 46.5959C171.276 46.6556 171.256 46.7152 171.241 46.7614C171.236 46.7853 171.228 46.8085 171.218 46.8307H171.201L171.01 46.8324L171.022 47.0517C171.032 47.0901 171.038 47.1294 171.041 47.1691C171.045 47.2144 171.052 47.2594 171.062 47.3038V47.5231C171.062 47.552 171.062 47.5982 171.072 47.6463L171.045 47.6597L171.062 47.781C171.07 47.8425 171.066 47.9022 171.062 47.9638C171.06 48.0003 171.056 48.0388 171.056 48.0792L170.902 48.16L171.091 48.3659C171.059 48.4301 171.041 48.5003 171.039 48.5718H170.904L171.133 48.8508C171.152 48.8758 171.17 48.9374 171.183 48.9836L171.187 49.0009C171.095 49.0894 171.079 49.2241 171.072 49.2972C171.068 49.3299 171.064 49.378 171.054 49.3896L171.058 49.3857L171.116 49.4626C171.079 49.4899 171.05 49.5255 171.029 49.5665C171.007 49.6167 171.001 49.6723 171.01 49.7262H170.789L170.972 49.909L170.8 49.9648L170.943 50.0841V50.5382C170.943 50.621 170.983 50.6902 171.049 50.7249L171.062 50.7288C171.102 50.7533 171.147 50.7693 171.193 50.7759C171.239 50.7825 171.286 50.7796 171.332 50.7673V50.9558L171.549 50.8904C171.68 50.8455 171.821 50.8356 171.957 50.8615L172.138 50.9L172.161 50.7172C172.25 50.038 172.232 49.3818 172.215 48.7468C172.198 48.1292 172.182 47.5404 172.261 46.967C172.313 46.8515 172.261 46.7476 172.229 46.6918L172.229 46.6929Z" fill="#202020"/>
<path fill-rule="evenodd" clip-rule="evenodd" d="M198.003 46.9256L198.044 46.8986V46.8044L198.009 43.7565V43.7353C197.958 43.2366 197.932 42.7357 197.93 42.2345C197.917 41.6322 197.903 41.0068 197.822 40.4565C197.807 39.6638 197.649 38.8171 197.499 37.9974L197.397 37.4394L197.389 37.3894L197.351 37.349C197.241 37.2195 197.168 37.0625 197.141 36.8949C197.1 36.7448 197.06 36.5909 196.968 36.4446C196.764 36.0733 196.44 35.7096 196.153 35.3902L196.138 35.3729C196.075 35.2942 195.998 35.2282 195.911 35.1785C195.869 35.1496 195.828 35.1265 195.784 35.0881L195.718 35.0323L195.678 35.0419L195.628 34.9995C195.396 34.8245 195.132 34.6964 194.85 34.6224L194.844 34.6207C194.764 34.5053 194.61 34.4879 194.506 34.4841V34.411L194.361 34.3879L193.682 34.2878L193.582 34.2724L193.522 34.3533C193.497 34.3879 193.491 34.3937 193.347 34.3436C193.281 34.3205 193.21 34.2936 193.133 34.2878L193.052 34.2801L193.014 34.3186C192.99 34.3 192.963 34.2845 192.935 34.2724L192.654 34.1877L192.631 34.3186C192.519 34.3153 192.408 34.3398 192.307 34.3898H191.861L191.445 34.3915L191.495 34.5512L191.487 34.5589C191.305 34.5127 191.164 34.6243 191.087 34.6878L191.049 34.7186C190.942 34.7367 190.841 34.7824 190.758 34.8513C190.715 34.884 190.702 34.8937 190.66 34.8975L190.59 34.9033L190.544 34.9591C190.483 35.0341 190.286 35.1188 190.182 35.1669L189.953 35.267L190.003 35.317C189.964 35.3335 189.927 35.357 189.895 35.3862H189.674V35.5613C189.664 35.5613 189.655 35.5597 189.651 35.5556L189.526 35.5056C189.492 35.5369 189.462 35.5717 189.435 35.6095C189.284 35.8107 189.119 36.001 188.941 36.179C188.725 36.4099 188.502 36.6466 188.331 36.9025L188.279 36.9795L188.313 37.0584C188.273 37.0834 188.169 37.1488 188.15 37.2739C188.083 37.3584 188.043 37.4609 188.034 37.5683C188.031 37.5938 188.025 37.619 188.017 37.6433C187.947 37.7292 187.903 37.8335 187.892 37.9435C187.882 38.0089 187.874 38.0435 187.847 38.0782L187.738 38.2148L187.786 38.2514C187.753 38.3341 187.753 38.4207 187.751 38.4726C187.751 38.4957 187.751 38.5246 187.747 38.5419L187.676 38.5861L187.691 38.6977C187.724 38.9094 187.695 39.1095 187.666 39.3193C187.63 39.5301 187.619 39.7446 187.634 39.9581C187.551 40.0851 187.57 40.2352 187.584 40.3295C187.587 40.3621 187.595 40.4064 187.593 40.4257L187.483 40.5123L187.562 40.6392C187.622 40.7393 187.574 40.8952 187.53 41.0472C187.489 41.1896 187.437 41.3666 187.489 41.5186C187.478 41.5301 187.462 41.5436 187.451 41.559C187.426 41.5957 187.414 41.6399 187.418 41.6841C187.418 41.8034 187.407 41.838 187.401 41.8477L187.322 42.015L187.308 42.0805L187.455 42.1824C187.443 42.2721 187.446 42.363 187.462 42.4518C187.48 42.5634 187.483 42.6096 187.451 42.6539L187.36 42.8174L187.451 42.9252V42.9541C187.447 43.0272 187.439 43.1619 187.532 43.26C187.533 43.2792 187.537 43.2985 187.543 43.3119L187.378 43.3543L187.485 43.5852L187.474 43.641C187.457 43.7102 187.428 43.843 187.495 43.9623C187.445 44.0951 187.478 44.2278 187.499 44.3144C187.507 44.3394 187.514 44.3721 187.516 44.3952C187.36 44.5588 187.435 44.7781 187.478 44.8936C187.405 45.0052 187.422 45.138 187.437 45.2188L187.228 45.2919L187.443 45.5112C187.43 45.567 187.439 45.6255 187.468 45.6748C187.489 45.7101 187.521 45.7377 187.559 45.7537L187.493 45.7748L187.501 45.7979L187.578 45.9961L187.576 46.0173C187.56 46.1276 187.583 46.2401 187.642 46.3348C187.62 46.3622 187.608 46.396 187.607 46.431L187.522 46.5138L187.603 46.6331C187.669 46.7254 187.644 46.8447 187.595 47.0333C187.555 47.1968 187.505 47.4085 187.601 47.5894L187.482 47.7087L187.63 47.8164L187.619 47.8395C187.58 47.9088 187.511 48.0416 187.599 48.1859L187.592 48.1685C187.622 48.2359 187.609 48.3475 187.593 48.4649C187.574 48.638 187.549 48.8459 187.64 49.0517L187.611 49.2596L187.616 49.2307C187.607 49.2638 187.603 49.2985 187.607 49.3329C187.611 49.3672 187.621 49.4005 187.638 49.4308L187.57 49.4597L187.616 49.604C187.659 49.7763 187.676 49.954 187.666 50.1312C187.668 50.4987 187.668 50.9163 187.999 51.2318L188.071 51.2992L188.167 51.2723C188.413 51.1972 188.427 50.9509 188.434 50.8182C188.435 50.7931 188.436 50.7681 188.438 50.7431L188.442 50.7047L188.433 50.67C188.333 50.3333 188.375 49.8926 188.412 49.502L188.438 49.2057L188.442 49.1595L188.421 49.1191C188.354 48.9825 188.371 48.8478 188.388 48.6938C188.417 48.5412 188.411 48.384 188.371 48.234C188.427 47.5201 188.394 46.6754 188.365 45.9307C188.352 45.6345 188.342 45.3382 188.335 45.0418V45.0244C188.3 44.6605 188.293 44.2945 188.313 43.9296C188.323 43.6005 188.333 43.2638 188.304 42.9521C188.383 42.5961 188.377 42.2709 188.371 41.9246C188.368 41.763 188.368 41.6013 188.371 41.4397L188.373 41.3974L188.361 41.3762C188.438 41.2839 188.457 41.1876 188.417 41.0953C188.447 40.975 188.462 40.8516 188.461 40.7278C188.461 40.6438 188.469 40.5601 188.484 40.4776L188.494 40.4353L188.483 40.3949C188.47 40.3097 188.477 40.2228 188.504 40.1409C188.542 40.019 188.544 39.8886 188.509 39.7657C188.642 39.5001 188.671 39.1711 188.7 38.8517L188.708 38.742C188.713 38.7069 188.709 38.671 188.698 38.6375C188.686 38.604 188.666 38.5738 188.64 38.5496V38.5399C188.64 38.3975 188.713 38.284 188.804 38.1397C188.93 37.969 189.014 37.7703 189.046 37.5605L189.052 37.5201L189.048 37.5124C189.061 37.5004 189.073 37.4888 189.087 37.4778C189.15 37.4239 189.243 37.345 189.241 37.2161C189.241 37.1938 189.237 37.1716 189.229 37.1507C189.349 37.0429 189.42 36.9236 189.487 36.8139C189.583 36.6523 189.653 36.5369 189.841 36.483L189.934 36.4541L189.959 36.3617C189.986 36.2578 190.078 36.1962 190.224 36.1058C190.346 36.0391 190.454 35.9511 190.544 35.8461C190.667 35.8556 190.742 35.823 190.785 35.7749C190.917 35.7361 191.039 35.6684 191.143 35.5767C191.297 35.4497 191.349 35.4227 191.456 35.4708L191.562 35.5209L191.63 35.4516C191.635 35.4512 191.64 35.4499 191.645 35.4477C191.682 35.4417 191.717 35.4283 191.748 35.4085C191.78 35.3887 191.807 35.3627 191.828 35.3322C191.87 35.3234 191.911 35.3112 191.951 35.2957C192.038 35.263 192.059 35.261 192.09 35.2783C192.12 35.2976 192.178 35.3188 192.248 35.3014L192.253 35.313L192.377 35.2976L192.542 35.2764C193.031 35.2148 193.454 35.159 193.836 35.3649L193.972 35.438L194.053 35.3168L194.105 35.3707C194.203 35.4804 194.375 35.669 194.623 35.6285C194.677 35.6748 194.738 35.7132 194.792 35.7459L194.864 35.7883V35.7959L194.898 35.8421C194.975 35.9441 195.139 35.9941 195.27 35.998C195.557 36.2982 195.847 36.7119 195.847 36.8927V37.0621H195.974L195.976 37.0717C196.022 37.2949 196.088 37.5701 196.259 37.7529C196.213 37.8664 196.253 38.003 196.272 38.0607L196.29 38.1223L196.247 38.2493L196.359 38.3628L196.384 38.3783C196.386 38.4839 196.415 38.5872 196.469 38.6784L196.498 38.7419L196.471 38.8054C196.317 39.096 196.523 39.2576 196.619 39.3346L196.657 39.3654C196.582 39.425 196.584 39.4847 196.571 39.5886L196.582 39.7175L196.634 39.8002H196.638L196.644 39.8194C196.654 39.8536 196.667 39.8865 196.684 39.9176L196.625 39.9734L196.586 40.1254L196.671 40.2466L196.738 40.2793C196.737 40.3486 196.763 40.4082 196.781 40.4506C196.785 40.4582 196.788 40.4659 196.79 40.4775L196.775 40.5525C196.717 40.8315 196.648 41.1913 196.821 41.4819L196.806 41.4953C196.727 41.6012 196.746 41.7224 196.762 41.8128C196.765 41.8417 196.773 41.8898 196.769 41.9052L196.727 42.0784C196.725 42.0861 196.783 42.1015 196.831 42.113C196.825 42.1304 196.817 42.1457 196.815 42.165L196.777 42.3651H196.846C196.835 42.4325 196.833 42.4979 196.831 42.5575C196.829 42.6595 196.825 42.7269 196.79 42.7788L196.765 42.8038L196.758 42.8327C196.708 43.0155 196.775 43.1887 196.831 43.3272L196.86 43.4042C196.841 43.4232 196.827 43.4459 196.818 43.4707C196.808 43.4955 196.804 43.522 196.806 43.5485C196.807 43.5639 196.813 43.5774 196.817 43.5889L196.781 43.6255L196.813 43.7255C196.829 43.7743 196.863 43.8151 196.908 43.8391L196.879 43.8467C196.873 43.8467 196.873 43.9776 196.873 43.9776V44.0257L196.765 44.0546L196.819 44.1643C196.792 44.2162 196.763 44.2913 196.792 44.374L196.719 44.5029C196.721 44.499 196.731 44.5799 196.796 44.6126C196.729 44.8435 196.896 45.0128 196.996 45.1148C197.029 45.1448 197.059 45.1784 197.085 45.2149H197L197.064 45.4304L197.065 45.4361C197.05 45.4496 197.037 45.4669 197.023 45.4823L196.884 45.5535L196.929 45.7421L196.915 45.7863C196.883 45.8845 196.909 45.9518 196.936 45.9903C196.942 46 196.95 46.0038 196.958 46.0095C196.89 46.0713 196.848 46.1554 196.838 46.2462L196.823 46.4059L196.954 46.4252C196.943 46.4584 196.933 46.4918 196.923 46.5252C196.907 46.5849 196.894 46.6387 196.865 46.6791H196.867L196.853 46.7004L197.08 46.8273C197.054 46.8803 197.033 46.9357 197.017 46.9928L196.992 47.0602H196.977L196.784 47.0618L196.796 47.2812C196.807 47.3159 196.811 47.3543 196.817 47.3986C196.821 47.4438 196.827 47.4887 196.836 47.5333V47.7546C196.836 47.7952 196.839 47.8357 196.846 47.8758L196.821 47.8892L196.838 48.0105C196.844 48.0719 196.844 48.1337 196.838 48.1952C196.834 48.2329 196.832 48.2708 196.832 48.3087L196.676 48.3895L196.865 48.5954C196.834 48.6604 196.817 48.7312 196.815 48.8032H196.68L196.909 49.0822C196.928 49.1053 196.946 49.1688 196.957 49.2131L196.963 49.2304C196.869 49.3208 196.853 49.4555 196.846 49.5267C196.842 49.5594 196.838 49.6075 196.83 49.621L196.832 49.6171L196.892 49.6921C196.855 49.72 196.825 49.7563 196.805 49.798C196.783 49.8481 196.776 49.9037 196.786 49.9577H196.564L196.747 50.1405L196.576 50.1962L196.718 50.3155V50.7696C196.718 50.8524 196.759 50.9197 196.824 50.9544L196.838 50.9601C196.926 51.0179 197.026 51.0159 197.107 50.9986V51.1853L197.325 51.1218C197.456 51.0774 197.596 51.0668 197.733 51.091L197.914 51.1294L197.937 50.9466C198.007 50.2923 198.025 49.6335 197.991 48.9763C197.958 48.3821 197.973 47.7862 198.037 47.1945C198.087 47.0829 198.035 46.979 198.002 46.9251L198.003 46.9256Z" fill="#202020"/>
</g>
</g>
<defs>
<clipPath id="clip0_237_10295">
<rect width="417" height="80" fill="white" transform="translate(0.869629)"/>
</clipPath>
<clipPath id="clip1_237_10295">
<rect width="46.8086" height="46.7921" fill="white" transform="translate(156.33 16.845)"/>
</clipPath>
</defs>
</svg>
