<svg width="361" height="80" viewBox="0 0 361 80" fill="none" xmlns="http://www.w3.org/2000/svg">
<g clip-path="url(#clip0_237_10306)">
<path d="M164.943 54.8197L155.043 27.2553C154.909 26.8887 154.743 26.3554 154.743 25.9221C154.743 24.7222 155.743 23.5889 157.209 23.5889C158.476 23.5889 159.309 24.4222 159.676 25.5888L167.876 49.3202L176.143 25.5221C176.51 24.3889 177.276 23.5889 178.543 23.5889H178.81C180.143 23.5889 180.943 24.4222 181.343 25.5221L189.543 49.2868L197.877 25.4221C198.21 24.4222 198.877 23.5223 200.21 23.5223C201.61 23.5223 202.61 24.5888 202.61 25.7887C202.61 26.222 202.41 26.722 202.31 27.122L192.343 54.7197C191.843 56.153 190.843 56.9196 189.676 56.9196H189.476C188.21 56.9196 187.276 56.153 186.81 54.7197L178.676 31.3216L170.476 54.7197C170.043 56.153 169.076 56.9196 167.843 56.9196H167.709C166.443 57.0195 165.443 56.2529 164.943 54.8197ZM237.077 25.9554C237.077 24.6222 238.144 23.4889 239.477 23.4889C240.877 23.4889 241.944 24.5555 241.944 25.9554V31.5549C244.344 26.1221 249.644 23.5556 253.177 23.5556C254.644 23.5556 255.577 24.6222 255.577 26.0221C255.577 27.3553 254.677 28.2885 253.411 28.4885C247.111 29.2551 241.911 33.9881 241.911 43.3873V54.4531C241.911 55.7863 240.911 56.9196 239.511 56.9196C238.111 56.9196 237.044 55.853 237.044 54.4531L237.077 25.9554ZM271.178 57.2195C262.378 57.2195 255.211 50.4201 255.211 40.4209V40.2876C255.211 30.9883 261.711 23.4889 270.544 23.4889C280.011 23.4889 285.411 31.2883 285.411 39.8543C285.411 41.1542 284.345 42.1208 283.178 42.1208H260.044C260.711 49.1202 265.611 53.0532 271.311 53.0532C275.278 53.0532 278.178 51.4867 280.545 49.2868C280.911 48.9869 281.345 48.7202 281.911 48.7202C283.078 48.7202 284.011 49.6535 284.011 50.7867C284.011 51.3533 283.778 51.92 283.278 52.3533C280.211 55.253 276.611 57.2195 271.178 57.2195ZM280.645 38.521C280.145 32.6549 276.811 27.5219 270.444 27.5219C264.878 27.5219 260.678 32.1882 260.044 38.521H280.645ZM202.577 47.1203V46.987C202.577 40.1209 208.243 36.4879 216.477 36.4879C220.644 36.4879 223.577 37.0545 226.51 37.8878V36.7545C226.51 30.8883 222.91 27.8886 216.81 27.8886C213.543 27.8886 211.643 28.3219 209.243 29.3885C208.943 29.5218 208.61 29.5884 208.377 29.5884C207.243 29.5884 206.243 28.6552 206.243 27.5219C206.243 26.522 206.677 25.8887 207.577 25.4888C210.777 24.0889 213.21 23.6223 217.344 23.6223C221.944 23.6223 225.477 24.8222 227.844 27.222C230.044 29.4218 231.177 32.5882 231.177 36.7212V54.6864C231.177 56.053 230.177 57.0862 228.844 57.0862C227.477 57.0862 226.544 56.0863 226.544 54.8197V51.72C224.277 54.6864 220.477 57.3195 214.777 57.3195C208.71 57.2529 202.577 53.7865 202.577 47.1203ZM226.577 44.5872V41.4541C224.177 40.7542 220.977 40.0543 217.01 40.0543C210.91 40.0543 207.51 42.6874 207.51 46.787V46.9204C207.51 51.02 211.277 53.4198 215.71 53.4198C221.677 53.4198 226.577 49.7535 226.577 44.5872ZM76.7414 25.6888C75.6747 23.3556 73.0413 22.289 70.5746 23.3889C68.1079 24.4888 67.2079 27.222 68.3079 29.5551L78.6414 52.0199C80.2748 55.553 81.9748 57.3862 85.2082 57.3862C88.6416 57.3862 90.1416 55.3863 91.775 52.0199C91.775 52.0199 100.775 32.3882 100.875 32.1882C100.975 31.9882 101.242 31.355 102.175 31.355C102.942 31.355 103.608 31.9882 103.608 32.8215V52.0199C103.608 54.9864 105.242 57.4195 108.409 57.4195C111.575 57.4195 113.275 54.9864 113.275 52.0199V36.3212C113.275 33.2881 115.442 31.3216 118.409 31.3216C121.375 31.3216 123.342 33.3548 123.342 36.3212V52.0199C123.342 54.9864 124.975 57.4195 128.142 57.4195C131.309 57.4195 133.009 54.9864 133.009 52.0199V36.3212C133.009 33.2881 135.176 31.3216 138.142 31.3216C141.109 31.3216 143.076 33.3548 143.076 36.3212V52.0199C143.076 54.9864 144.709 57.4195 147.876 57.4195C151.043 57.4195 152.743 54.9864 152.743 52.0199V34.1547C152.743 27.5886 147.476 22.989 141.109 22.989C134.776 22.989 130.776 27.3886 130.776 27.3886C128.676 24.6222 125.742 22.9556 120.809 22.9556C115.609 22.9556 111.042 27.3553 111.042 27.3553C108.942 24.6222 105.342 22.9556 102.342 22.9556C97.7417 22.989 94.075 25.0221 91.8416 30.1217L85.2415 45.6871L76.7414 25.6888ZM285.778 27.5219C285.778 25.2888 287.545 23.4556 289.811 23.4556C292.078 23.4556 293.845 25.2555 293.845 27.4553V27.4886C293.845 29.6884 292.078 31.5549 289.811 31.5549C287.545 31.5549 285.778 29.7218 285.778 27.5219ZM293.078 27.4886C293.078 25.6554 291.678 24.1889 289.811 24.1889C287.978 24.1889 286.545 25.6888 286.545 27.4886V27.5219C286.545 29.3218 287.945 30.8217 289.811 30.8217C291.645 30.8217 293.078 29.2885 293.078 27.4886Z" fill="#202020"/>
<path d="M288.278 25.9221C288.278 25.6888 288.478 25.4888 288.711 25.4888H290.045C290.545 25.4888 290.945 25.6221 291.178 25.8887C291.411 26.0887 291.511 26.422 291.511 26.7887C291.511 27.3886 291.211 27.7886 290.745 27.9886L291.345 28.7218C291.411 28.8218 291.478 28.9218 291.478 29.0551C291.478 29.2885 291.278 29.4551 291.078 29.4551C290.878 29.4551 290.745 29.3551 290.645 29.2218L289.811 28.1552H289.111V28.9885C289.111 29.2218 288.911 29.4218 288.678 29.4218C288.445 29.4218 288.245 29.2218 288.245 28.9885L288.278 25.9221ZM290.011 27.3886C290.445 27.3886 290.645 27.1553 290.645 26.822C290.645 26.4554 290.411 26.2554 289.978 26.2554H289.111V27.3886H290.011Z" fill="#717073"/>
</g>
<defs>
<clipPath id="clip0_237_10306">
<rect width="226" height="34.4654" fill="white" transform="translate(67.8447 22.9541)"/>
</clipPath>
</defs>
</svg>
