<svg width="449" height="80" viewBox="0 0 449 80" fill="none" xmlns="http://www.w3.org/2000/svg">
<path d="M331.561 10H392.094V70H331.561V10ZM56.1597 69.0606H64.035C72.8592 69.0606 77.3757 64.8405 77.3757 56.8428C77.3757 52.1804 75.7311 48.6712 72.6506 46.5985C70.0271 44.8289 67.3292 44.5605 64.035 44.5605H56.1597V69.0606ZM96.813 63.7172H92.1177C91.7152 65.3475 90.6966 66.1329 88.9527 66.1329C86.7317 66.1329 85.6038 64.6367 85.569 61.5749H97.3546C97.3894 61.2021 97.3894 60.8293 97.3894 60.4515C97.3894 54.7353 94.4082 51.5691 89.2408 51.5691C83.7107 51.5691 80.4712 54.8347 80.4712 60.6901C80.4712 66.2373 83.6362 69.4334 88.9825 69.4334C93.648 69.4334 96.5199 67.291 96.813 63.7172ZM117.368 65.7601C117.368 66.8139 117.408 67.9372 117.512 69.0606H112.494L112.35 66.5057C110.969 68.5784 109.15 69.4682 106.457 69.4682C102.383 69.4682 100.495 67.3258 100.495 62.9666V51.9766H105.767V62.2558C105.767 64.6715 106.532 65.8297 108.753 65.8297C110.755 65.8297 112.097 64.5721 112.097 62.4944V51.9766H117.373L117.368 65.7601ZM119.882 55.3467V51.9766H123.336V48.6762L128.612 46.842V51.9766H132.831V55.3467H128.578V63.6824C128.578 64.9399 129.303 65.6209 130.58 65.6209C131.201 65.6209 131.926 65.5563 132.801 65.3823V68.8866C131.201 69.2296 129.671 69.3986 128.14 69.3986C124.722 69.3986 123.341 67.8676 123.341 64.6019V55.3467H119.882ZM139.777 63.921C139.851 65.4519 140.761 66.1677 142.723 66.1677C144.472 66.1677 145.451 65.4171 145.451 64.2291C145.451 62.564 143.667 62.4596 140.761 61.7091C136.94 60.7597 135.196 59.4325 135.196 56.7782C135.196 53.8853 138.068 51.5691 142.942 51.5691C147.165 51.5691 149.709 53.443 149.709 56.3309V56.4701H145.049C144.865 55.1379 144.03 54.4967 142.5 54.4967C140.9 54.4967 139.956 55.2423 139.956 56.2315C139.956 57.6282 141.665 57.7624 144.721 58.4782C148.686 59.3977 150.504 60.7945 150.504 63.5184C150.504 66.784 147.339 69.4731 142.539 69.4731C137.63 69.4731 134.898 67.465 134.828 63.9259H139.777V63.921ZM161.798 69.4682C156.581 69.4682 153.167 66.0633 153.167 60.2825C153.167 54.8347 156.581 51.5691 162.18 51.5691C166.667 51.5691 169.584 53.9201 169.663 57.7972H164.367C164.133 55.6549 163.368 54.7353 161.758 54.7353C159.84 54.7353 158.956 56.5396 158.956 60.1831C158.956 64.0949 159.686 65.9689 161.872 65.9689C163.408 65.9689 164.252 64.8455 164.401 62.5988H169.658C169.663 66.953 166.747 69.4682 161.798 69.4682ZM172.297 44.5605H177.573V54.1886C178.92 52.3842 180.664 51.5691 183.213 51.5691C187.287 51.5691 189.18 53.7163 189.18 58.0706V69.0606H183.903V58.7466C183.903 56.3309 183.138 55.1727 180.922 55.1727C178.92 55.1727 177.573 56.4701 177.573 58.5428V69.0606H172.297V44.5605ZM209.397 63.7172H204.707C204.304 65.3475 203.286 66.1329 201.542 66.1329C199.326 66.1329 198.198 64.6367 198.158 61.5749H209.944C209.979 61.2021 209.979 60.8293 209.979 60.4515C209.979 54.7353 206.997 51.5691 201.83 51.5691C196.3 51.5691 193.06 54.8347 193.06 60.6901C193.06 66.2373 196.225 69.4334 201.572 69.4334C206.237 69.4334 209.109 67.291 209.397 63.7172ZM224.02 69.0606H233.043C237.227 69.0606 240.133 68.8866 242.21 66.953C243.447 65.7949 244.068 64.1944 244.068 62.2558C244.068 59.0896 242.25 57.0168 238.687 56.1321C241.594 55.2821 242.98 53.5473 242.98 50.8235C242.98 46.3648 239.781 44.5605 233.013 44.5605H224.025L224.02 69.0606ZM258.184 69.0606H262.765C262.617 67.329 262.52 65.5936 262.472 63.8564V58.6472C262.472 56.3706 262.403 54.7701 260.838 53.3436C259.6 52.2152 257.563 51.5392 254.91 51.5392C249.743 51.5392 247.159 53.2441 247.124 56.7832H252.401C252.545 55.0783 253.345 54.3675 254.91 54.3675C256.694 54.3675 257.454 55.3169 257.454 57.3946C257.454 57.6332 257.419 57.8718 257.419 58.1104C257.017 58.1104 256.619 58.0756 256.217 58.0756C249.708 58.0756 246.359 60.2527 246.359 64.1993C246.359 67.4004 248.759 69.6073 252.177 69.6073C254.542 69.6073 256.401 68.6878 257.961 66.7492C258.005 67.6986 258.115 68.479 258.184 69.0606ZM266.81 55.2423C266.81 54.1886 266.735 53.1 266.626 51.9766H271.684L271.793 54.5315C273.175 52.4588 274.993 51.5691 277.686 51.5691C281.76 51.5691 283.654 53.7163 283.654 58.0706V69.0606H278.417V58.7466C278.417 56.3309 277.651 55.1727 275.43 55.1727C273.428 55.1727 272.047 56.4701 272.047 58.5428V69.0606H266.81V55.2423ZM287.832 44.5605H293.069V58.677L298.49 51.9766H304.562L298.306 59.2238L304.999 69.0606H298.634L293.069 59.9743V69.0606H287.832V44.5605Z" fill="black"/>
<path d="M384.02 18.0771V61.9227H339.635V18.0771H384.02Z" fill="white"/>
<path d="M378.619 24.0369H368.354L345.036 55.1329H355.306L378.619 24.0369Z" fill="black"/>
<path d="M61.5159 65.0096V48.5719H64.2486C69.4657 48.5719 71.7761 51.1616 71.7761 56.8777C71.7761 62.4597 69.4657 65.0096 64.2486 65.0096H61.5159ZM85.7181 58.4087C85.8622 56.0278 87.0994 54.7006 88.8831 54.7006C90.9202 54.7006 91.9388 55.9582 91.9736 58.4087H85.7181ZM198.302 58.4087C198.446 56.0278 199.684 54.7006 201.467 54.7006C203.505 54.7006 204.523 55.9582 204.558 58.4087H198.302ZM229.366 65.1438V58.2347H233.043C236.864 58.2347 238.573 58.7765 238.573 61.6694C238.573 64.7313 236.933 65.1389 233.043 65.1389L229.366 65.1438ZM229.366 54.4968V48.3035H233.043C236.243 48.3035 237.624 48.9496 237.624 51.5045C237.624 53.8556 236.208 54.5018 233.043 54.5018H229.366V54.4968ZM257.384 60.8592C257.424 61.1972 257.424 61.5054 257.424 61.7787C257.424 64.6368 256.187 66.133 254.075 66.133C252.585 66.133 251.526 65.1786 251.526 63.8863C251.526 61.9776 253.31 60.8592 256.803 60.8592H257.384Z" fill="white"/>
</svg>
