<svg width="201" height="80" viewBox="0 0 201 80" fill="none" xmlns="http://www.w3.org/2000/svg">
<path d="M38.4697 15.2002V18.5937H62.6171V15.2002H38.4697ZM66.0383 15.2002V18.5937H100.449C100.449 18.5937 96.9346 15.2002 92.2792 15.2002H66.0383ZM107.2 15.2002V18.5937H128.018L126.782 15.2002H107.2ZM142.944 15.2002L141.708 18.5937H162.337V15.2002H142.944ZM38.4697 21.7997V25.1932H62.6171V21.7997H38.4697ZM66.0383 21.8045V25.1933H104.442C104.442 25.1933 103.994 22.5815 103.212 21.8045H66.0383ZM107.2 21.8045V25.1933H130.301L129.157 21.8045H107.2ZM140.472 21.8045L139.329 25.1933H162.337V21.8045H140.472ZM45.4091 28.3992V31.7975H55.8667V28.3992H45.4091ZM72.9778 28.3992V31.7975H83.4354V28.3992H72.9778ZM93.607 28.3992V31.7975H104.065C104.065 31.7975 104.729 30.0029 104.729 28.3992H93.607ZM114.139 28.3992V31.7975H132.68L131.444 28.3992H114.139ZM138.195 28.3992L136.954 31.7975H155.587V28.3992H138.195ZM45.4091 35.0037V38.3972H55.8667V35.0037H45.4091ZM72.9778 35.0037V38.3972H99.6886C99.6886 38.3972 101.923 36.6559 102.635 35.0037H72.9778ZM114.139 35.0037V38.3972H124.597V36.5081L125.261 38.3972H144.417L145.129 36.5081V38.3972H155.587V35.0037H135.956L134.914 37.878L133.867 35.0037H114.139ZM45.4091 41.6032V44.9967H55.8667V41.6032H45.4091ZM72.9778 41.6032V44.9967H102.635C101.923 43.3498 99.6886 41.6032 99.6886 41.6032H72.9778ZM114.139 41.6032V44.9967H124.597V41.6032H114.139ZM126.496 41.6032L127.761 44.9967H142.125L143.326 41.6032H126.496ZM145.129 41.6032V44.9967H155.587V41.6032H145.129ZM45.4091 48.2027V51.596H55.8667V48.2027H45.4091ZM72.9778 48.2027V51.596H83.4354V48.2027H72.9778ZM93.607 48.2027V51.596H104.728C104.728 49.9946 104.064 48.2027 104.064 48.2027H93.607ZM114.139 48.2027V51.596H124.597V48.2027H114.139ZM128.871 48.2027L130.097 51.596H139.726L140.962 48.2027H128.871ZM145.129 48.2027V51.596H155.587V48.2027H145.129ZM38.6587 54.8022V58.2005H62.806V54.8022H38.6587ZM66.0383 54.8022V58.2005H103.212C103.994 57.4224 104.442 54.8022 104.442 54.8022H66.0383ZM107.389 54.8022V58.2005H124.597V54.8022H107.389ZM131.25 54.8022L132.51 58.2005H137.409L138.592 54.8022H131.25ZM145.129 54.8022V58.2005H162.526V54.8022H145.129ZM38.6587 61.4065V64.8H62.806V61.4065H38.6587ZM66.0383 61.4065V64.7952H92.2792C96.9346 64.7952 100.449 61.4065 100.449 61.4065H66.0383ZM107.389 61.4065V64.8H124.597V61.4065H107.389ZM133.639 61.4065L134.851 64.7904L135.059 64.7952L136.29 61.4065H133.639ZM145.129 61.4065V64.8H162.526V61.4065H145.129Z" fill="#202020"/>
</svg>
