<svg width="122" height="80" viewBox="0 0 122 80" fill="none" xmlns="http://www.w3.org/2000/svg">
<path d="M58.9212 63.4809C40.9441 65.1391 22.2068 62.5273 19.5824 48.4798C18.2986 41.5549 21.4579 34.2117 25.6433 29.6475V27.2102C18.1037 33.8218 14.0176 42.1876 16.3712 52.07C19.3775 64.7452 35.4545 71.9231 60.0007 69.5396C69.7165 68.5981 82.4229 65.4746 91.2625 60.6197V53.7282C83.2399 58.5077 69.9734 62.4557 58.9212 63.4809ZM106.279 27.0456C102.015 6.22957 61.5928 4.90993 35.536 20.7692V22.5208C61.5629 9.14178 98.4808 9.22307 101.842 28.3984C102.97 34.7416 99.3963 41.35 93.0121 45.1551V50.1305C100.692 47.314 108.569 38.2041 106.279 27.0456Z" fill="#202020"/>
<path d="M89.8089 24.0144H85.0954V45.0047C85.0954 47.4646 86.2847 49.6038 89.8089 49.9456V24.0144ZM33.6851 31.6783H28.963L28.9604 45.3919C28.9604 47.8605 30.1536 49.9975 33.6851 50.3329V31.6783ZM28.963 24.6529H33.6704V29.1203H28.963V24.6529ZM61.9132 50.1157C58.098 50.1157 56.4835 47.4643 56.4835 44.8526V26.6441H61.1559V31.6783H64.6748V35.4518H61.1559V44.564C61.1559 45.6289 61.6616 46.2222 62.7722 46.2222H64.6748V50.1158L61.9132 50.1157ZM70.511 42.3582C70.511 44.7491 72.0061 46.5062 74.6518 46.5062C76.7249 46.5062 77.7466 45.9309 78.9433 44.7491L81.8305 47.4991C79.9794 49.3275 78.0401 50.4392 74.6173 50.4392C70.1458 50.4392 65.8615 47.9991 65.8615 40.8853C65.8615 34.8036 69.6052 31.3658 74.5137 31.3658C79.5034 31.3658 82.371 35.3903 82.371 40.6732V42.3587H70.511M74.3089 35.2296C72.7096 35.2296 71.4808 36.0532 70.96 37.1641C70.6566 37.8319 70.5455 38.3522 70.5108 39.1727H77.7118C77.6208 37.1641 76.71 35.2296 74.3089 35.2296ZM46.3755 35.4518C47.7456 35.4518 48.3152 36.1291 48.3152 37.2283V50.143H52.9887V37.2012C52.9887 34.5788 51.5913 31.6832 47.4873 31.6832L37.8335 31.6783V50.143H42.5087V35.4518H46.3755ZM94.8803 27.7651C93.8413 27.7651 93.012 26.9273 93.012 25.8897C93.012 24.857 93.8413 24.0144 94.8803 24.0144C95.9142 24.0144 96.7631 24.857 96.7631 25.8897C96.7631 26.9273 95.914 27.7651 94.8803 27.7651ZM94.8803 24.3271C94.024 24.3271 93.3353 25.0348 93.3353 25.8897C93.3353 26.7495 94.024 27.4447 94.8803 27.4447C95.7364 27.4447 96.4473 26.7495 96.4473 25.8897C96.4472 25.0348 95.7365 24.3271 94.8803 24.3271ZM95.7118 27.0137H95.3614C95.3462 27.0135 95.3315 27.009 95.3189 27.0007C95.3063 26.9924 95.2963 26.9806 95.2901 26.9669L94.816 26.1611C94.8012 26.1439 94.7617 26.1243 94.7496 26.1243H94.5325V26.9274C94.5325 26.967 94.5052 27.0138 94.4536 27.0138H94.1375C94.0904 27.0138 94.0586 26.967 94.0586 26.9274V24.9016C94.0586 24.7831 94.0981 24.7344 94.2018 24.7195C94.3153 24.7072 94.6115 24.6923 94.7771 24.6923C95.3618 24.6923 95.7051 24.8645 95.7051 25.4067V25.4463C95.7051 25.7812 95.5398 25.9638 95.2831 26.0452L95.7766 26.8854C95.7847 26.9042 95.7889 26.9244 95.7889 26.9448C95.7883 26.9766 95.7712 27.0137 95.7118 27.0137ZM95.2579 25.4067C95.2579 25.1804 95.1171 25.1089 94.8159 25.1089H94.5174V25.7515C94.5643 25.7515 94.7766 25.7614 94.8159 25.7614C95.1171 25.7614 95.2579 25.661 95.2579 25.4463V25.4067Z" fill="#202020"/>
</svg>
