<svg width="33" height="33" viewBox="0 0 33 33" fill="none" xmlns="http://www.w3.org/2000/svg">
<path d="M20.0242 32.7279C19.6353 32.7279 19.2523 32.6131 18.925 32.3929L16.1703 30.5291L13.4168 32.3929C13.183 32.5494 12.9183 32.6542 12.6406 32.7003C12.3629 32.7464 12.0785 32.7329 11.8065 32.6604C11.5347 32.5884 11.2817 32.4588 11.0648 32.2803C10.8478 32.1018 10.6721 31.8786 10.5495 31.6261L9.09693 28.6357L5.78018 28.8771C5.73275 28.8795 5.68649 28.8818 5.63906 28.8818C5.3697 28.8817 5.10323 28.8262 4.85625 28.7189C4.60927 28.6116 4.38706 28.4547 4.20343 28.258C4.0198 28.0613 3.87869 27.8291 3.78886 27.5756C3.69903 27.3222 3.66241 27.053 3.68129 26.7848L3.91963 23.4713L0.927816 22.0217C0.674837 21.8986 0.451265 21.7229 0.272219 21.5062C0.0931723 21.2895 -0.0371794 21.037 -0.110026 20.7658C-0.182872 20.4945 -0.196515 20.2108 -0.150034 19.9338C-0.103552 19.6568 0.00197153 19.393 0.159405 19.1602L2.0247 16.4112L0.159405 13.6633C0.00119308 13.4308 -0.104867 13.167 -0.151527 12.8899C-0.198188 12.6128 -0.184352 12.3288 -0.110962 12.0575C-0.0376757 11.7865 0.0929615 11.5343 0.272149 11.3179C0.451336 11.1015 0.674909 10.926 0.927816 10.8031L3.91963 9.35343L3.68129 6.04345C3.66101 5.76313 3.70139 5.48175 3.79968 5.21838C3.89797 4.95501 4.05188 4.71581 4.25095 4.51707C4.45003 4.31827 4.68963 4.16451 4.95348 4.06632C5.21734 3.96807 5.49928 3.92761 5.78018 3.9477L9.09693 4.18555L10.5495 1.19982C10.6731 0.947644 10.8494 0.724842 11.0666 0.546353C11.2837 0.367921 11.5366 0.238 11.8083 0.165318C12.08 0.0926357 12.3642 0.0789271 12.6417 0.125088C12.9191 0.171305 13.1835 0.276272 13.4168 0.432994L16.1703 2.29447L18.925 0.432994C19.1574 0.274873 19.4213 0.168843 19.6987 0.122291C19.9761 0.0757383 20.2603 0.0896705 20.5317 0.163192C21.0831 0.31113 21.5445 0.688585 21.7911 1.19982L23.2437 4.18555L26.564 3.9477C26.6079 3.94412 26.6565 3.94412 26.7016 3.94412C26.9713 3.94389 27.2382 3.99918 27.4855 4.10655C27.733 4.21386 27.9555 4.37092 28.1393 4.56793C28.3231 4.76494 28.4643 4.99765 28.554 5.2515C28.6437 5.50536 28.6799 5.77499 28.6605 6.04345L28.4186 9.35343L31.4152 10.8031C31.9287 11.0504 32.3057 11.5107 32.4516 12.0575C32.5986 12.6078 32.5026 13.1936 32.1824 13.6633L30.3147 16.4112L32.1824 19.1602C32.5014 19.6312 32.5986 20.2158 32.4516 20.7649C32.3797 21.0365 32.2498 21.2894 32.071 21.5063C31.8921 21.7232 31.6684 21.899 31.4152 22.0217L28.4186 23.4713L28.6605 26.7848C28.7009 27.3505 28.491 27.9043 28.0913 28.309C27.8921 28.507 27.6527 28.66 27.3893 28.758C27.1259 28.856 26.8445 28.8966 26.564 28.8771L23.2437 28.6357L21.7911 31.6261C21.6683 31.879 21.4923 32.1023 21.2748 32.2808C21.0575 32.4594 20.804 32.5888 20.5317 32.6604C20.3666 32.7064 20.1957 32.7291 20.0242 32.7279Z" fill="#FFB5B5"/>
<path d="M16.5 23C20.0899 23 23 20.0899 23 16.5C23 12.9101 20.0899 10 16.5 10C12.9101 10 10 12.9101 10 16.5C10 20.0899 12.9101 23 16.5 23Z" fill="#232323"/>
</svg>
