<svg width="80" height="80" viewBox="0 0 80 80" fill="none" xmlns="http://www.w3.org/2000/svg">
<rect width="80" height="80" rx="40" fill="url(#paint0_radial_1_369)"/>
<path d="M26.6482 44.4341L24.1148 41.9008C23.0815 40.8674 23.0815 39.1674 24.1148 38.1341L26.6482 35.6007C27.0815 35.1674 27.4315 34.3174 27.4315 33.7174V30.134C27.4315 28.6673 28.6315 27.4674 30.0982 27.4674H33.6815C34.2815 27.4674 35.1315 27.1174 35.5648 26.6841L38.0982 24.1507C39.1315 23.1174 40.8315 23.1174 41.8648 24.1507L44.3982 26.6841C44.8315 27.1174 45.6815 27.4674 46.2815 27.4674H49.8649C51.3315 27.4674 52.5315 28.6673 52.5315 30.134V33.7174C52.5315 34.3174 52.8815 35.1674 53.3148 35.6007L55.8482 38.1341C56.8815 39.1674 56.8815 40.8674 55.8482 41.9008L53.3148 44.4341C52.8815 44.8675 52.5315 45.7175 52.5315 46.3175V49.9007C52.5315 51.3673 51.3315 52.5675 49.8649 52.5675H46.2815C45.6815 52.5675 44.8315 52.9174 44.3982 53.3508L41.8648 55.8841C40.8315 56.9175 39.1315 56.9175 38.0982 55.8841L35.5648 53.3508C35.1315 52.9174 34.2815 52.5675 33.6815 52.5675H30.0982C28.6315 52.5675 27.4315 51.3673 27.4315 49.9007V46.3175C27.4315 45.7008 27.0815 44.8508 26.6482 44.4341Z" stroke="white" stroke-width="1.5" stroke-linecap="round" stroke-linejoin="round"/>
<path d="M35 45L45 35" stroke="white" stroke-width="1.5" stroke-linecap="round" stroke-linejoin="round"/>
<path d="M44.1576 44.1666H44.1725" stroke="white" stroke-width="2" stroke-linecap="round" stroke-linejoin="round"/>
<path d="M35.8242 35.8333H35.8391" stroke="white" stroke-width="2" stroke-linecap="round" stroke-linejoin="round"/>
<defs>
<radialGradient id="paint0_radial_1_369" cx="0" cy="0" r="1" gradientUnits="userSpaceOnUse" gradientTransform="translate(93.6842 98.5778) rotate(-133.85) scale(101.195 119.311)">
<stop stop-color="#9EC5EC"/>
<stop offset="1" stop-color="#366CD1"/>
</radialGradient>
</defs>
</svg>
