<svg width="26" height="26" viewBox="0 0 26 26" fill="none" xmlns="http://www.w3.org/2000/svg">
<path d="M7.24103 9.54451C7.5463 9.54382 7.83886 9.42225 8.05472 9.2064C8.27058 8.99054 8.39215 8.69798 8.39283 8.39271V7.24091C8.39283 6.93543 8.27148 6.64247 8.05548 6.42647C7.83947 6.21046 7.54651 6.08911 7.24103 6.08911C6.93556 6.08911 6.64259 6.21046 6.42659 6.42647C6.21058 6.64247 6.08923 6.93543 6.08923 7.24091V8.39271C6.08923 8.69819 6.21058 8.99115 6.42659 9.20716C6.64259 9.42316 6.93556 9.54451 7.24103 9.54451Z" fill="url(#paint0_linear_5_316)"/>
<path d="M18.7616 9.54459C19.0668 9.5439 19.3594 9.42233 19.5753 9.20647C19.7911 8.99062 19.9127 8.69805 19.9134 8.39279V7.24099C19.8993 6.94464 19.7717 6.66508 19.557 6.46033C19.3423 6.25558 19.057 6.14136 18.7603 6.14136C18.4636 6.14136 18.1783 6.25558 17.9636 6.46033C17.7489 6.66508 17.6213 6.94464 17.6072 7.24099V8.39279C17.6079 8.6985 17.7298 8.99146 17.9462 9.20739C18.1626 9.42332 18.4559 9.54459 18.7616 9.54459Z" fill="url(#paint1_linear_5_316)"/>
<path d="M6.08918 25.6724H19.9134C20.2189 25.6724 20.5118 25.551 20.7278 25.335C20.9438 25.119 21.0652 24.8261 21.0652 24.5206C21.0652 24.2151 20.9438 23.9221 20.7278 23.7061C20.5118 23.4901 20.2189 23.3688 19.9134 23.3688H6.08918C5.7837 23.3688 5.49074 23.4901 5.27473 23.7061C5.05873 23.9221 4.93738 24.2151 4.93738 24.5206C4.93738 24.8261 5.05873 25.119 5.27473 25.335C5.49074 25.551 5.7837 25.6724 6.08918 25.6724Z" fill="url(#paint2_linear_5_316)"/>
<path d="M3.78303 9.54457H22.217C22.5225 9.54457 22.8155 9.42322 23.0315 9.20721C23.2475 8.99121 23.3688 8.69824 23.3688 8.39277C23.3688 8.08729 23.2475 7.79433 23.0315 7.57832C22.8155 7.36232 22.5225 7.24097 22.217 7.24097H3.78303C3.47755 7.24097 3.18458 7.36232 2.96858 7.57832C2.75258 7.79433 2.63123 8.08729 2.63123 8.39277C2.63123 8.69824 2.75258 8.99121 2.96858 9.20721C3.18458 9.42322 3.47755 9.54457 3.78303 9.54457Z" fill="url(#paint3_linear_5_316)"/>
<path d="M6.08919 25.6724C6.39467 25.6724 6.68763 25.551 6.90364 25.335C7.11964 25.119 7.24099 24.8261 7.24099 24.5206C7.24099 24.2151 7.11964 23.9221 6.90364 23.7061C6.68763 23.4901 6.39467 23.3688 6.08919 23.3688C5.77017 23.3637 5.45557 23.2934 5.16472 23.1622C4.87387 23.031 4.61291 22.8418 4.39789 22.6061C4.18287 22.3704 4.01832 22.0931 3.91437 21.7915C3.81041 21.4899 3.76924 21.1701 3.79339 20.852C3.81322 20.5523 3.71517 20.2566 3.52015 20.0282C3.32513 19.7997 3.04857 19.6564 2.74944 19.629C2.45031 19.6015 2.15228 19.692 1.91891 19.8811C1.68554 20.0702 1.53529 20.3431 1.50019 20.6414C1.44645 21.2785 1.52492 21.9198 1.73068 22.5251C1.93644 23.1305 2.26506 23.6868 2.69592 24.1591C3.12678 24.6315 3.6506 25.0097 4.23452 25.2701C4.81843 25.5305 5.44986 25.6675 6.08919 25.6724Z" fill="url(#paint4_linear_5_316)"/>
<path d="M22.2066 20.8546C22.2304 21.1723 22.189 21.4915 22.085 21.7927C21.9811 22.0939 21.8167 22.3706 21.602 22.606C21.3873 22.8414 21.1268 23.0305 20.8364 23.1617C20.546 23.2928 20.232 23.3633 19.9134 23.3688C19.6079 23.3688 19.315 23.4902 19.099 23.7062C18.8829 23.9222 18.7616 24.2151 18.7616 24.5206C18.7616 24.8261 18.8829 25.119 19.099 25.335C19.315 25.551 19.6079 25.6724 19.9134 25.6724C20.5527 25.6672 21.1841 25.5299 21.7679 25.2692C22.3517 25.0085 22.8754 24.6299 23.306 24.1573C23.7366 23.6847 24.0649 23.1282 24.2704 22.5227C24.4758 21.9173 24.5539 21.2759 24.4998 20.6388C24.4878 20.4865 24.4457 20.3382 24.3758 20.2024C24.3059 20.0665 24.2098 19.946 24.0929 19.8477C23.976 19.7494 23.8407 19.6753 23.6949 19.6298C23.5491 19.5842 23.3957 19.5681 23.2436 19.5825C23.0916 19.5968 22.9439 19.6412 22.8091 19.7131C22.6744 19.785 22.5553 19.883 22.4588 20.0014C22.3623 20.1198 22.2903 20.2562 22.247 20.4027C22.2037 20.5492 22.19 20.7028 22.2066 20.8546Z" fill="url(#paint5_linear_5_316)"/>
<path d="M7.24103 8.3932C7.5463 8.39252 7.83886 8.27095 8.05472 8.05509C8.27058 7.83923 8.39215 7.54667 8.39283 7.2414C8.42311 6.02879 8.91815 4.87417 9.77563 4.01621C10.6331 3.15826 11.7874 2.66257 13 2.6316C14.2126 2.66257 15.367 3.15826 16.2244 4.01621C17.0819 4.87417 17.577 6.02879 17.6072 7.2414C17.6213 7.53775 17.7489 7.81731 17.9636 8.02206C18.1784 8.22681 18.4636 8.34103 18.7603 8.34103C19.057 8.34103 19.3423 8.22681 19.557 8.02206C19.7717 7.81731 19.8994 7.53775 19.9134 7.2414C19.8899 5.41518 19.1539 3.6704 17.8625 2.37896C16.571 1.08752 14.8263 0.351579 13 0.328003C11.1743 0.352251 9.43014 1.08849 8.13926 2.37986C6.84838 3.67123 6.11279 5.41563 6.08923 7.2414C6.08923 7.54688 6.21058 7.83984 6.42659 8.05585C6.64259 8.27185 6.93556 8.3932 7.24103 8.3932Z" fill="url(#paint6_linear_5_316)"/>
<path d="M2.54015 21.8946H2.64935C2.93506 21.894 3.21036 21.7873 3.42177 21.5951C3.63318 21.4029 3.76562 21.139 3.79335 20.8546L4.93995 8.49679C4.95378 8.34605 4.93778 8.19406 4.89287 8.04949C4.84795 7.90493 4.77501 7.77063 4.6782 7.65426C4.58138 7.53789 4.46259 7.44173 4.32862 7.37127C4.19464 7.3008 4.04809 7.25742 3.89735 7.24359C3.59291 7.21567 3.28984 7.30982 3.05482 7.50535C2.93845 7.60216 2.84229 7.72095 2.77182 7.85493C2.70136 7.9889 2.65798 8.13545 2.64415 8.28619L1.50015 20.6414C1.48583 20.792 1.50141 20.944 1.54597 21.0886C1.59054 21.2332 1.66322 21.3676 1.75985 21.484C1.85648 21.6004 1.97515 21.6967 2.10906 21.7671C2.24296 21.8376 2.38946 21.8809 2.54015 21.8946Z" fill="url(#paint7_linear_5_316)"/>
<path d="M23.3532 21.8998H23.4598C23.7636 21.8708 24.0436 21.7227 24.2385 21.4878C24.4333 21.253 24.5273 20.9505 24.4998 20.6466L23.3636 8.28619C23.3357 7.98175 23.188 7.70087 22.9529 7.50535C22.7179 7.30982 22.4149 7.21567 22.1104 7.24359C21.806 7.27152 21.5251 7.41924 21.3296 7.65426C21.134 7.88928 21.0399 8.19235 21.0678 8.49679L22.2066 20.852C22.2344 21.1368 22.3672 21.4011 22.5792 21.5933C22.7911 21.7856 23.067 21.8921 23.3532 21.892V21.8998Z" fill="url(#paint8_linear_5_316)"/>
<defs>
<linearGradient id="paint0_linear_5_316" x1="7.24085" y1="18.1791" x2="7.24085" y2="-37.1073" gradientUnits="userSpaceOnUse">
<stop stop-color="#F0F0F0"/>
<stop offset="1" stop-color="#646464"/>
</linearGradient>
<linearGradient id="paint1_linear_5_316" x1="18.7601" y1="18.0488" x2="18.7601" y2="-36.4029" gradientUnits="userSpaceOnUse">
<stop stop-color="#F0F0F0"/>
<stop offset="1" stop-color="#646464"/>
</linearGradient>
<linearGradient id="paint2_linear_5_316" x1="13" y1="31.4288" x2="13" y2="-5.42883" gradientUnits="userSpaceOnUse">
<stop stop-color="#F0F0F0"/>
<stop offset="1" stop-color="#646464"/>
</linearGradient>
<linearGradient id="paint3_linear_5_316" x1="12.9984" y1="15.301" x2="12.9984" y2="-21.5566" gradientUnits="userSpaceOnUse">
<stop stop-color="#F0F0F0"/>
<stop offset="1" stop-color="#646464"/>
</linearGradient>
<linearGradient id="paint4_linear_5_316" x1="4.36191" y1="40.7862" x2="4.36191" y2="-55.9857" gradientUnits="userSpaceOnUse">
<stop stop-color="#F0F0F0"/>
<stop offset="1" stop-color="#646464"/>
</linearGradient>
<linearGradient id="paint5_linear_5_316" x1="21.6386" y1="40.903" x2="21.6386" y2="-56.6171" gradientUnits="userSpaceOnUse">
<stop stop-color="#F0F0F0"/>
<stop offset="1" stop-color="#646464"/>
</linearGradient>
<linearGradient id="paint6_linear_5_316" x1="13.0002" y1="28.5471" x2="13.0002" y2="-100.496" gradientUnits="userSpaceOnUse">
<stop stop-color="#F0F0F0"/>
<stop offset="1" stop-color="#646464"/>
</linearGradient>
<linearGradient id="paint7_linear_5_316" x1="3.2196" y1="58.5176" x2="3.2196" y2="-175.976" gradientUnits="userSpaceOnUse">
<stop stop-color="#F0F0F0"/>
<stop offset="1" stop-color="#646464"/>
</linearGradient>
<linearGradient id="paint8_linear_5_316" x1="22.7835" y1="58.5358" x2="22.7835" y2="-176.041" gradientUnits="userSpaceOnUse">
<stop stop-color="#F0F0F0"/>
<stop offset="1" stop-color="#646464"/>
</linearGradient>
</defs>
</svg>
