<svg width="28" height="28" viewBox="0 0 28 28" fill="none" xmlns="http://www.w3.org/2000/svg">
<g clip-path="url(#clip0_1_115)">
<path d="M7.79802 10.1933C8.12676 10.1925 8.44184 10.0654 8.6743 9.83979C8.90676 9.61413 9.03768 9.30828 9.03842 8.98915V7.78504C9.03842 7.46569 8.90773 7.15942 8.67511 6.93361C8.44249 6.70779 8.12699 6.58093 7.79802 6.58093C7.46904 6.58093 7.15354 6.70779 6.92092 6.93361C6.6883 7.15942 6.55762 7.46569 6.55762 7.78504V8.98915C6.55762 9.3085 6.6883 9.61477 6.92092 9.84058C7.15354 10.0664 7.46904 10.1933 7.79802 10.1933Z" fill="url(#paint0_linear_1_115)"/>
<path d="M20.2048 10.1933C20.5336 10.1926 20.8486 10.0655 21.0811 9.83981C21.3135 9.61415 21.4445 9.3083 21.4452 8.98917V7.78507C21.43 7.47526 21.2926 7.18301 21.0614 6.96896C20.8302 6.75491 20.5229 6.6355 20.2034 6.6355C19.8839 6.6355 19.5767 6.75491 19.3454 6.96896C19.1142 7.18301 18.9768 7.47526 18.9616 7.78507V8.98917C18.9624 9.30877 19.0937 9.61503 19.3267 9.84077C19.5598 10.0665 19.8756 10.1933 20.2048 10.1933Z" fill="url(#paint1_linear_1_115)"/>
<path d="M6.5576 27.0535H21.4452C21.7742 27.0535 22.0897 26.9266 22.3223 26.7008C22.5549 26.475 22.6856 26.1687 22.6856 25.8494C22.6856 25.53 22.5549 25.2238 22.3223 24.9979C22.0897 24.7721 21.7742 24.6453 21.4452 24.6453H6.5576C6.22863 24.6453 5.91312 24.7721 5.6805 24.9979C5.44788 25.2238 5.3172 25.53 5.3172 25.8494C5.3172 26.1687 5.44788 26.475 5.6805 26.7008C5.91312 26.9266 6.22863 27.0535 6.5576 27.0535Z" fill="url(#paint2_linear_1_115)"/>
<path d="M4.07402 10.1932H23.926C24.255 10.1932 24.5705 10.0664 24.8031 9.84057C25.0357 9.61476 25.1664 9.30849 25.1664 8.98914C25.1664 8.66979 25.0357 8.36352 24.8031 8.13771C24.5705 7.91189 24.255 7.78503 23.926 7.78503H4.07402C3.74504 7.78503 3.42954 7.91189 3.19692 8.13771C2.9643 8.36352 2.83362 8.66979 2.83362 8.98914C2.83362 9.30849 2.9643 9.61476 3.19692 9.84057C3.42954 10.0664 3.74504 10.1932 4.07402 10.1932Z" fill="url(#paint3_linear_1_115)"/>
<path d="M6.55759 27.0535C6.88657 27.0535 7.20207 26.9266 7.43469 26.7008C7.66731 26.475 7.79799 26.1687 7.79799 25.8494C7.79799 25.53 7.66731 25.2238 7.43469 24.998C7.20207 24.7722 6.88657 24.6453 6.55759 24.6453C6.21403 24.6399 5.87523 24.5665 5.56201 24.4293C5.24878 24.2922 4.96775 24.0944 4.73619 23.8479C4.50463 23.6015 4.32743 23.3117 4.21547 22.9964C4.10352 22.681 4.05919 22.3468 4.08519 22.0142C4.10655 21.7008 4.00096 21.3918 3.79093 21.153C3.58091 20.9141 3.28307 20.7644 2.96093 20.7356C2.6388 20.7069 2.31785 20.8015 2.06652 20.9992C1.8152 21.1969 1.65339 21.4821 1.61559 21.794C1.55771 22.46 1.64222 23.1305 1.86381 23.7633C2.0854 24.3961 2.43929 24.9777 2.9033 25.4715C3.36731 25.9653 3.93141 26.3608 4.56025 26.633C5.18908 26.9052 5.86908 27.0484 6.55759 27.0535Z" fill="url(#paint4_linear_1_115)"/>
<path d="M23.9148 22.0169C23.9404 22.349 23.8958 22.6827 23.7839 22.9976C23.6719 23.3124 23.4949 23.6017 23.2637 23.8478C23.0324 24.0939 22.7519 24.2916 22.4392 24.4287C22.1265 24.5658 21.7882 24.6395 21.4452 24.6452C21.1162 24.6452 20.8007 24.7721 20.5681 24.9979C20.3355 25.2237 20.2048 25.53 20.2048 25.8493C20.2048 26.1687 20.3355 26.475 20.5681 26.7008C20.8007 26.9266 21.1162 27.0534 21.4452 27.0534C22.1337 27.048 22.8136 26.9045 23.4424 26.6319C24.0711 26.3593 24.635 25.9636 25.0987 25.4695C25.5625 24.9755 25.916 24.3937 26.1373 23.7607C26.3585 23.1278 26.4426 22.4573 26.3844 21.7913C26.3715 21.6321 26.3261 21.477 26.2508 21.335C26.1756 21.193 26.072 21.0669 25.9461 20.9642C25.8202 20.8614 25.6746 20.784 25.5175 20.7364C25.3605 20.6888 25.1953 20.672 25.0316 20.6869C24.8678 20.7019 24.7088 20.7483 24.5637 20.8235C24.4186 20.8987 24.2903 21.0012 24.1864 21.1249C24.0824 21.2487 24.0049 21.3913 23.9583 21.5444C23.9117 21.6975 23.8969 21.8581 23.9148 22.0169Z" fill="url(#paint5_linear_1_115)"/>
<path d="M7.79802 8.98957C8.12676 8.98886 8.44184 8.86176 8.6743 8.63611C8.90676 8.41045 9.03768 8.1046 9.03842 7.78547C9.07103 6.51779 9.60415 5.31073 10.5276 4.41381C11.451 3.51689 12.6941 2.99869 14 2.96632C15.3059 2.99869 16.549 3.51689 17.4725 4.41381C18.3959 5.31073 18.929 6.51779 18.9616 7.78547C18.9768 8.09528 19.1142 8.38752 19.3454 8.60157C19.5767 8.81562 19.8839 8.93504 20.2034 8.93504C20.5229 8.93504 20.8302 8.81562 21.0614 8.60157C21.2926 8.38752 21.4301 8.09528 21.4452 7.78547C21.4198 5.87631 20.6273 4.05229 19.2365 2.7022C17.8457 1.35212 15.9667 0.582752 14 0.558105C12.0338 0.583455 10.1555 1.35313 8.76534 2.70314C7.37516 4.05316 6.58299 5.87678 6.55762 7.78547C6.55762 8.10482 6.6883 8.41109 6.92092 8.6369C7.15354 8.86271 7.46904 8.98957 7.79802 8.98957Z" fill="url(#paint6_linear_1_115)"/>
<path d="M2.7356 23.1041H2.8532C3.16089 23.1035 3.45736 22.9919 3.68504 22.791C3.91271 22.5901 4.05533 22.3142 4.0852 22.0169L5.32 9.09787C5.33489 8.94028 5.31766 8.78138 5.26929 8.63026C5.22093 8.47913 5.14237 8.33873 5.03811 8.21708C4.93385 8.09542 4.80592 7.99489 4.66164 7.92123C4.51735 7.84757 4.35954 7.80221 4.1972 7.78776C3.86934 7.75856 3.54296 7.85699 3.28986 8.0614C3.16454 8.16261 3.06098 8.28679 2.98509 8.42685C2.90921 8.56691 2.86249 8.72011 2.8476 8.8777L1.6156 21.794C1.60018 21.9515 1.61695 22.1103 1.66495 22.2615C1.71294 22.4127 1.79122 22.5532 1.89528 22.6749C1.99934 22.7966 2.12714 22.8972 2.27134 22.9708C2.41555 23.0445 2.57332 23.0898 2.7356 23.1041Z" fill="url(#paint7_linear_1_115)"/>
<path d="M25.1496 23.1095H25.2644C25.5916 23.0792 25.8931 22.9244 26.103 22.6789C26.3128 22.4334 26.414 22.1172 26.3844 21.7994L25.1608 8.8777C25.1307 8.55944 24.9717 8.2658 24.7186 8.0614C24.4655 7.85699 24.1391 7.75856 23.8112 7.78776C23.4834 7.81695 23.1809 7.97138 22.9703 8.21708C22.7597 8.46277 22.6583 8.7796 22.6884 9.09787L23.9148 22.0142C23.9447 22.3119 24.0878 22.5882 24.316 22.7892C24.5443 22.9902 24.8414 23.1015 25.1496 23.1014V23.1095Z" fill="url(#paint8_linear_1_115)"/>
</g>
<defs>
<linearGradient id="paint0_linear_1_115" x1="7.79522" y1="33.0713" x2="7.79522" y2="-5.46014" gradientUnits="userSpaceOnUse">
<stop/>
<stop offset="1" stop-color="#646464"/>
</linearGradient>
<linearGradient id="paint1_linear_1_115" x1="20.2048" y1="33.0713" x2="20.2048" y2="-5.46011" gradientUnits="userSpaceOnUse">
<stop/>
<stop offset="1" stop-color="#646464"/>
</linearGradient>
<linearGradient id="paint2_linear_1_115" x1="14" y1="33.0713" x2="14" y2="-5.46014" gradientUnits="userSpaceOnUse">
<stop/>
<stop offset="1" stop-color="#646464"/>
</linearGradient>
<linearGradient id="paint3_linear_1_115" x1="14" y1="33.0713" x2="14" y2="-5.46015" gradientUnits="userSpaceOnUse">
<stop/>
<stop offset="1" stop-color="#646464"/>
</linearGradient>
<linearGradient id="paint4_linear_1_115" x1="4.70399" y1="33.0713" x2="4.70399" y2="-5.46012" gradientUnits="userSpaceOnUse">
<stop/>
<stop offset="1" stop-color="#646464"/>
</linearGradient>
<linearGradient id="paint5_linear_1_115" x1="23.296" y1="33.0713" x2="23.296" y2="-5.46016" gradientUnits="userSpaceOnUse">
<stop/>
<stop offset="1" stop-color="#646464"/>
</linearGradient>
<linearGradient id="paint6_linear_1_115" x1="14" y1="33.0717" x2="14" y2="-5.45971" gradientUnits="userSpaceOnUse">
<stop/>
<stop offset="1" stop-color="#646464"/>
</linearGradient>
<linearGradient id="paint7_linear_1_115" x1="3.472" y1="33.0713" x2="3.472" y2="-5.46014" gradientUnits="userSpaceOnUse">
<stop/>
<stop offset="1" stop-color="#646464"/>
</linearGradient>
<linearGradient id="paint8_linear_1_115" x1="24.528" y1="33.0713" x2="24.528" y2="-5.46014" gradientUnits="userSpaceOnUse">
<stop/>
<stop offset="1" stop-color="#646464"/>
</linearGradient>
<clipPath id="clip0_1_115">
<rect width="28" height="27.1808" fill="white" transform="translate(0 0.21521)"/>
</clipPath>
</defs>
</svg>
