<svg width="29" height="29" viewBox="0 0 29 29" fill="none" xmlns="http://www.w3.org/2000/svg">
<path d="M3.53801 28.188C2.72601 28.188 2.08801 27.608 2.08801 26.912V4.98801C2.08801 4.29201 2.72601 3.71201 3.53801 3.71201C4.35001 3.71201 4.98801 4.29201 4.98801 4.98801V26.912C4.98801 27.608 4.32101 28.188 3.53801 28.188ZM10.469 26.912V13.688C10.469 12.992 9.83101 12.412 9.01901 12.412C8.20701 12.412 7.56901 12.992 7.56901 13.688V26.912C7.56901 27.608 8.20701 28.188 9.01901 28.188C9.83101 28.188 10.469 27.608 10.469 26.912ZM15.95 26.912V7.88801C15.95 7.19201 15.312 6.61201 14.5 6.61201C13.688 6.61201 13.05 7.19201 13.05 7.88801V26.912C13.05 27.608 13.688 28.188 14.5 28.188C15.312 28.188 15.95 27.608 15.95 26.912ZM26.912 26.912V4.98801C26.912 4.29201 26.274 3.71201 25.462 3.71201C24.65 3.71201 24.012 4.29201 24.012 4.98801V26.912C24.012 27.608 24.65 28.188 25.462 28.188C26.274 28.188 26.912 27.608 26.912 26.912ZM21.431 26.912V2.08801C21.431 1.39201 20.793 0.812012 19.981 0.812012C19.169 0.812012 18.531 1.39201 18.531 2.08801V26.912C18.531 27.608 19.169 28.188 19.981 28.188C20.793 28.188 21.431 27.608 21.431 26.912Z" fill="url(#paint0_linear_1_132)"/>
<defs>
<linearGradient id="paint0_linear_1_132" x1="-3.38513" y1="23.9405" x2="23.7929" y2="11.7983" gradientUnits="userSpaceOnUse">
<stop/>
<stop offset="1" stop-color="#646464"/>
</linearGradient>
</defs>
</svg>
