<svg width="27" height="27" viewBox="0 0 27 27" fill="none" xmlns="http://www.w3.org/2000/svg">
<path d="M3.29385 26.244C2.53785 26.244 1.94385 25.704 1.94385 25.056V4.64398C1.94385 3.99598 2.53785 3.45598 3.29385 3.45598C4.04985 3.45598 4.64385 3.99598 4.64385 4.64398V25.056C4.64385 25.704 4.02285 26.244 3.29385 26.244ZM9.74685 25.056V12.744C9.74685 12.096 9.15285 11.556 8.39685 11.556C7.64085 11.556 7.04685 12.096 7.04685 12.744V25.056C7.04685 25.704 7.64085 26.244 8.39685 26.244C9.15285 26.244 9.74685 25.704 9.74685 25.056ZM14.8498 25.056V7.34398C14.8498 6.69598 14.2558 6.15598 13.4998 6.15598C12.7438 6.15598 12.1498 6.69598 12.1498 7.34398V25.056C12.1498 25.704 12.7438 26.244 13.4998 26.244C14.2558 26.244 14.8498 25.704 14.8498 25.056ZM25.0559 25.056V4.64398C25.0559 3.99598 24.4619 3.45598 23.7059 3.45598C22.9499 3.45598 22.3559 3.99598 22.3559 4.64398V25.056C22.3559 25.704 22.9499 26.244 23.7059 26.244C24.4619 26.244 25.0559 25.704 25.0559 25.056ZM19.9529 25.056V1.94398C19.9529 1.29598 19.3588 0.755981 18.6028 0.755981C17.8468 0.755981 17.2528 1.29598 17.2528 1.94398V25.056C17.2528 25.704 17.8468 26.244 18.6028 26.244C19.3588 26.244 19.9529 25.704 19.9529 25.056Z" fill="url(#paint0_linear_5_328)"/>
<defs>
<linearGradient id="paint0_linear_5_328" x1="-3.15184" y1="22.2894" x2="22.1519" y2="10.9846" gradientUnits="userSpaceOnUse">
<stop stop-color="#F0F0F0"/>
<stop offset="1" stop-color="#646464"/>
</linearGradient>
</defs>
</svg>
