<svg width="28" height="28" viewBox="0 0 28 28" fill="none" xmlns="http://www.w3.org/2000/svg">
<path d="M19.0568 2.03003C17.2083 2.03508 15.4197 2.68577 14 3.86963C12.5813 2.68411 10.792 2.03319 8.94321 2.03003C4.39041 2.03003 0.688812 5.97803 0.688812 10.8332C0.688812 13.6332 2.85321 17.0156 7.12881 20.9132C9.07353 22.6635 11.1323 24.2826 13.2916 25.76C13.5017 25.899 13.7481 25.973 14 25.9728C14.2587 25.972 14.5112 25.894 14.7252 25.7488L14.7616 25.7236C16.8997 24.2473 18.9413 22.6359 20.874 20.8992C25.1468 17.0156 27.314 13.6192 27.314 10.8332C27.3112 5.97803 23.6096 2.03003 19.0568 2.03003ZM24.7156 10.8332C24.7156 12.7932 22.736 15.6548 19.1464 18.9168C17.5111 20.3896 15.7928 21.7676 14 23.044C12.2101 21.7669 10.4929 20.3909 8.85641 18.9224C5.26401 15.6604 3.28721 12.7876 3.28721 10.8332C3.28721 7.43683 5.82401 4.67323 8.94321 4.67323C9.72135 4.67695 10.4895 4.84876 11.1951 5.1769C11.9006 5.50504 12.527 5.98176 13.0312 6.57443C13.1526 6.71161 13.3017 6.82145 13.4687 6.89668C13.6358 6.97191 13.8168 7.01081 14 7.01081C14.1832 7.01081 14.3643 6.97191 14.5313 6.89668C14.6983 6.82145 14.8474 6.71161 14.9688 6.57443C15.4613 5.98884 16.074 5.516 16.7653 5.18798C17.4565 4.85995 18.2103 4.68441 18.9754 4.67326C19.7404 4.6621 20.499 4.8156 21.1995 5.12333C21.9001 5.43107 22.5263 5.88585 23.0356 6.45683C24.1255 7.65277 24.7253 9.21518 24.7156 10.8332Z" fill="url(#paint0_linear_1_113)"/>
<defs>
<linearGradient id="paint0_linear_1_113" x1="0.688812" y1="14" x2="27.3112" y2="14" gradientUnits="userSpaceOnUse">
<stop/>
<stop offset="1" stop-color="#646464"/>
</linearGradient>
</defs>
</svg>
