<svg width="26" height="26" viewBox="0 0 26 26" fill="none" xmlns="http://www.w3.org/2000/svg">
<path d="M17.6957 1.88501C15.9792 1.8897 14.3183 2.49391 13 3.59321C11.6827 2.49237 10.0212 1.88795 8.30445 1.88501C4.07685 1.88501 0.639648 5.55101 0.639648 10.0594C0.639648 12.6594 2.64945 15.8002 6.61965 19.4194C8.42545 21.0446 10.3372 22.5481 12.3422 23.92C12.5373 24.0491 12.7661 24.1178 13 24.1176C13.2402 24.1169 13.4747 24.0444 13.6734 23.9096L13.7072 23.8862C15.6926 22.5153 17.5884 21.019 19.3831 19.4064C23.3507 15.8002 25.3631 12.6464 25.3631 10.0594C25.3605 5.55101 21.9233 1.88501 17.6957 1.88501ZM22.9502 10.0594C22.9502 11.8794 21.112 14.5366 17.7788 17.5656C16.2603 18.9332 14.6648 20.2128 13 21.398C11.338 20.2121 9.74348 18.9344 8.22385 17.5708C4.88805 14.5418 3.05245 11.8742 3.05245 10.0594C3.05245 6.90561 5.40805 4.33941 8.30445 4.33941C9.027 4.34286 9.74028 4.5024 10.3955 4.8071C11.0506 5.1118 11.6322 5.55447 12.1004 6.10481C12.2132 6.23219 12.3516 6.33419 12.5067 6.40404C12.6618 6.4739 12.83 6.51002 13 6.51002C13.1701 6.51002 13.3383 6.4739 13.4934 6.40404C13.6485 6.33419 13.7869 6.23219 13.8996 6.10481C14.357 5.56105 14.9259 5.12198 15.5678 4.81739C16.2097 4.5128 16.9096 4.34979 17.62 4.33944C18.3304 4.32908 19.0348 4.47161 19.6853 4.75736C20.3358 5.04312 20.9173 5.46541 21.3902 5.99561C22.4023 7.10613 22.9592 8.55693 22.9502 10.0594Z" fill="url(#paint0_linear_5_314)"/>
<defs>
<linearGradient id="paint0_linear_5_314" x1="0.639648" y1="13" x2="25.3605" y2="13" gradientUnits="userSpaceOnUse">
<stop stop-color="#F0F0F0"/>
<stop offset="1" stop-color="#646464"/>
</linearGradient>
</defs>
</svg>
