<svg width="288" height="43" viewBox="0 0 288 43" fill="none" xmlns="http://www.w3.org/2000/svg">
<path d="M59.5911 5.15998C59.5911 4.08498 59.8756 3.22498 60.3733 2.72332C60.8711 2.07832 61.9378 1.64832 62.8622 1.64832H74.8089C76.3733 1.64832 78.2933 1.79165 79.5733 3.08165C80.7822 4.37165 80.9245 6.37831 80.9245 7.81165C80.9245 9.02998 80.8533 10.1766 79.8578 11.2516C79.2178 11.9683 78.5778 12.3266 77.6533 12.3266V12.47C78.7911 12.5416 79.7156 13.0433 80.2845 13.6166C81.4222 14.7633 81.4933 16.1966 81.4933 17.5583C81.4933 18.9916 81.4933 20.7833 80.1422 22.2166C78.72 23.7933 77.0845 23.7933 75.2356 23.7933H63.6445C62.6489 23.7933 61.3689 23.865 60.3733 22.7183C59.8756 22.0733 59.5911 21.1416 59.5911 20.2816V5.15998ZM71.8933 10.105C72.4622 10.105 73.2445 10.105 73.6 9.53165C73.7422 9.24498 73.8133 8.81498 73.8133 8.52831C73.8133 8.09831 73.6711 7.81165 73.4578 7.59665C73.0311 7.16665 72.32 7.16665 71.8933 7.16665H67.84C67.4845 7.16665 67.2 7.16665 66.9156 7.45331C66.6311 7.73998 66.6311 8.02665 66.6311 8.38498V10.1766H71.8933V10.105ZM66.6311 16.555C66.6311 17.3433 66.7022 17.7016 66.9156 17.9166C67.2 18.2033 67.9111 18.2033 68.2667 18.2033H72.0356C73.3867 18.2033 73.8133 17.9166 73.8845 17.7733C74.0978 17.4866 74.3111 16.9133 74.3111 16.4833C74.3111 16.125 74.24 15.7666 74.0267 15.5516C73.5289 14.9066 72.8178 14.9066 72.1778 14.9066H66.6311V16.555Z" fill="#1C1C1B"/>
<path d="M87.5378 23.7216C86.6134 23.7216 85.6889 23.65 84.9067 22.9333C83.9111 22.0733 83.9111 21.2133 83.9111 20.1383V5.01665C83.9111 4.15665 84.0534 3.22498 84.8356 2.50832C85.6178 1.71998 86.6845 1.64832 87.5378 1.64832H103.324V7.02332H92.4445C92.0178 7.02332 91.5911 7.09498 91.3778 7.30998C91.0222 7.59665 91.0222 8.09832 91.0222 8.38498V10.0333H103.04V14.835H91.0222V17.2717C91.0222 17.7017 91.1645 17.9883 91.3067 18.06C91.6622 18.3467 92.2311 18.3467 92.6578 18.3467H103.396V23.7216H87.5378Z" fill="#1C1C1B"/>
<path d="M112.853 3.58337C113.778 1.43337 116.267 1.29004 117.618 1.29004C118.969 1.29004 121.458 1.43337 122.382 3.58337L130.844 23.7217H123.307L117.973 9.10171C117.902 8.95837 117.76 8.60004 117.618 8.60004C117.476 8.60004 117.333 9.03004 117.262 9.10171L111.929 23.7217H104.391L112.853 3.58337Z" fill="#1C1C1B"/>
<path d="M135.04 23.7216C134.116 23.7216 133.191 23.65 132.409 22.9333C131.413 22.0733 131.413 21.2133 131.413 20.1383V5.01665C131.413 4.15665 131.556 3.22498 132.338 2.50832C133.12 1.71998 134.187 1.64832 134.969 1.64832H150.756V7.02332H139.876C139.449 7.02332 139.022 7.09498 138.809 7.30998C138.453 7.59665 138.453 8.09832 138.453 8.38498V10.0333H150.471V14.835H138.453V17.2717C138.453 17.7017 138.596 17.9883 138.738 18.06C139.093 18.3467 139.662 18.3467 140.089 18.3467H150.827V23.7216H135.04Z" fill="#1C1C1B"/>
<path d="M161.92 23.7217C158.507 23.7217 156.231 23.22 154.453 20.9983C153.102 19.35 152.462 17.2 152.462 12.9C152.462 9.17333 152.818 6.44999 154.382 4.44333C156.373 1.86333 159.573 1.57666 162.062 1.57666H171.378V7.09499H165.476C163.129 7.09499 161.422 7.09499 160.427 8.81499C159.787 9.88999 159.716 11.7533 159.716 12.8283C159.716 15.265 160.071 16.125 160.213 16.4833C161.138 18.2033 163.2 18.2033 165.547 18.2033H171.662V23.7217H161.92Z" fill="#1C1C1B"/>
<path d="M173.227 12.7567H186.596V17.7734H173.227V12.7567Z" fill="#1C1C1B"/>
<path d="M192.213 23.7217L195.698 17.415L186.951 1.57666H194.844L199.396 10.965L204.018 1.57666H211.769L199.964 23.7217H192.213Z" fill="#1C1C1B"/>
<path d="M212.693 23.7217V5.73333C212.693 4.80166 212.836 3.58333 213.547 2.72333C214.044 2.22166 214.969 1.57666 216.462 1.57666H228.622C230.4 1.57666 232.036 1.79166 233.244 3.15333C234.311 4.22833 234.88 6.01999 234.88 9.17333C234.88 10.75 234.738 14.5483 232.889 16.125C231.822 16.985 230.258 17.3433 229.049 17.3433H219.804V23.7217H212.693ZM224.853 11.825C225.707 11.825 226.631 11.8967 227.2 11.2517C227.556 10.8933 227.769 10.2483 227.769 9.31666C227.769 8.74333 227.698 8.02666 227.129 7.59666C226.56 7.09499 225.707 7.09499 224.924 7.09499H221.013C219.876 7.09499 219.804 7.88333 219.804 8.38499V11.825H224.853Z" fill="#1C1C1B"/>
<path d="M240.782 4.01336C241.493 2.36503 242.418 1.36169 245.831 1.36169C247.964 1.36169 249.813 1.57669 250.88 4.01336L258.987 23.7217H251.52L249.813 19.135H241.92L240.213 23.7217H232.747L240.782 4.01336ZM243.556 14.1184H248.107L246.116 8.52836C246.044 8.38503 245.902 8.02669 245.831 8.02669C245.76 8.02669 245.618 8.31336 245.547 8.52836L243.556 14.1184Z" fill="#1C1C1B"/>
<path d="M268.16 3.58337C269.084 1.43337 271.573 1.29004 272.924 1.29004C274.276 1.29004 276.764 1.43337 277.689 3.58337L286.151 23.7217H278.613L273.28 9.10171C273.209 8.95837 273.067 8.60004 272.924 8.60004C272.782 8.60004 272.64 9.03004 272.569 9.10171L267.236 23.7217H259.698L268.16 3.58337Z" fill="#1C1C1B"/>
<path d="M65.7778 33.6117H66.1333V40.85H65.28V35.69L62.9333 38.915H62.7911L60.4445 35.6184V40.85H59.5911V33.6117H59.9467L62.8622 37.625L65.7778 33.6117Z" fill="#1C1C1B"/>
<path d="M78.2934 34.4H75.0222V36.765H78.2222V37.4817H75.0222V40.0617H78.4356V40.85H74.1689V33.6833H78.2934V34.4Z" fill="#1C1C1B"/>
<path d="M86.8978 36.4784H88.8889C90.5245 36.4784 91.3778 37.3384 91.3778 38.6284C91.3778 39.8467 90.5245 40.85 88.8889 40.85C87.9645 40.85 86.9689 40.85 86.0445 40.85C86.0445 38.4133 86.0445 36.0483 86.0445 33.6833H90.8089V34.4H86.8978V36.4784ZM86.8978 37.195V40.0617C87.5378 40.0617 88.2489 40.0617 88.8889 40.0617C89.9556 40.0617 90.5245 39.4884 90.5245 38.6284C90.5245 37.84 89.9556 37.195 88.8889 37.195H86.8978Z" fill="#1C1C1B"/>
<path d="M103.04 34.4H99.7689V36.765H102.969V37.4817H99.7689V40.0617H103.182V40.85H98.9156V33.6833H103.04V34.4Z" fill="#1C1C1B"/>
<path d="M112.213 39.0584C112.071 40.4917 111.573 40.9934 110.08 40.7784V40.1334C111.004 40.2767 111.289 39.8467 111.36 38.9867L111.929 33.6117C113.28 33.6117 114.916 33.6117 116.267 33.6117V40.7784H115.413V34.3284H112.64L112.213 39.0584Z" fill="#1C1C1B"/>
<path d="M125.084 36.12H127.076C128.569 36.12 129.564 37.1234 129.564 38.485C129.564 39.8467 128.569 40.85 127.076 40.85H124.302V33.6833H125.156V36.12H125.084ZM125.084 36.8367V40.0617C125.724 40.0617 126.364 40.0617 127.076 40.0617C128 40.0617 128.782 39.4167 128.711 38.4133C128.711 37.4817 128 36.8367 127.076 36.8367H125.084Z" fill="#1C1C1B"/>
<path d="M141.582 40.85V37.4817H137.813V40.85H136.96V33.6833H137.813V36.6934H141.582V33.6833H142.436V40.85H141.582Z" fill="#1C1C1B"/>
<path d="M151.324 39.0584L150.471 40.85H149.618V40.7067L152.96 33.6117H153.316L156.587 40.7067V40.85H155.733L154.88 39.0584H151.324ZM151.609 38.27H154.596L153.102 34.9017L151.609 38.27Z" fill="#1C1C1B"/>
<path d="M165.191 38.055C164.196 37.84 163.484 36.98 163.484 35.905C163.484 34.615 164.48 33.6117 165.902 33.6117H168.747V40.7784H167.893V38.1984H166.044L164.124 40.7784H163.2V40.635L165.191 38.055ZM167.893 37.4817V34.4H165.902C164.978 34.4 164.267 35.045 164.267 35.9767C164.267 36.9084 164.978 37.5534 165.902 37.5534H167.893V37.4817Z" fill="#1C1C1B"/>
<path d="M186.382 36.9084C187.093 36.9084 187.662 36.9084 188.018 36.6934C188.444 36.4067 188.729 35.6184 188.942 34.9734C189.227 34.0417 189.724 33.3967 191.004 33.6117V34.185C190.222 34.1134 189.867 34.4717 189.653 35.1884C189.44 35.905 189.227 36.6934 188.729 37.1234L191.218 40.635V40.85H190.222L187.947 37.5534C187.591 37.6967 186.809 37.6967 186.382 37.6967V40.85H185.529V33.6834H186.382V36.9084Z" fill="#1C1C1B"/>
<path d="M201.316 40.9217C199.324 40.9217 197.689 39.4884 197.689 37.1951C197.689 34.9017 199.324 33.4684 201.316 33.4684C203.307 33.4684 204.942 34.9017 204.942 37.1951C204.942 39.4167 203.449 40.9217 201.316 40.9217ZM201.316 40.1334C202.88 40.1334 204.089 38.9867 204.089 37.1951C204.089 35.4034 202.88 34.2567 201.316 34.2567C199.751 34.2567 198.542 35.4034 198.542 37.1951C198.542 38.9867 199.751 40.1334 201.316 40.1334Z" fill="#1C1C1B"/>
<path d="M218.738 33.6117H219.093V40.85H218.24V35.69L215.893 38.915H215.751L213.404 35.69V40.85H212.551V33.6117H212.907L215.822 37.625L218.738 33.6117Z" fill="#1C1C1B"/>
<path d="M232.533 33.6117V40.7784C232.249 40.7784 231.964 40.7784 231.68 40.7784V34.4H227.911V40.85C227.627 40.85 227.342 40.85 227.058 40.85V33.6834H232.533V33.6117Z" fill="#1C1C1B"/>
<path d="M241.422 39.0584L240.569 40.85H239.716V40.7067L243.058 33.6117H243.413L246.684 40.7067V40.85H245.831L244.978 39.0584H241.422ZM241.707 38.27H244.693L243.2 34.9017L241.707 38.27Z" fill="#1C1C1B"/>
<path d="M258.489 40.85V37.4817H254.72V40.85H253.867V33.6833H254.72V36.6934H258.489V33.6833H259.342V40.85H258.489Z" fill="#1C1C1B"/>
<path d="M267.662 40.85H267.378V33.6117H268.231V36.98L268.16 39.0584L272.782 33.6117H273.067V40.85H272.213V37.41L272.284 35.4034L267.662 40.85Z" fill="#1C1C1B"/>
<path d="M282.524 38.055C281.529 37.84 280.818 36.98 280.818 35.905C280.818 34.615 281.813 33.6117 283.236 33.6117H286.08V40.7784H285.227V38.1984H283.378L281.458 40.7784H280.533V40.635L282.524 38.055ZM285.227 37.4817V34.4H283.236C282.311 34.4 281.6 35.045 281.6 35.9767C281.6 36.9084 282.311 37.5534 283.236 37.5534H285.227V37.4817Z" fill="#1C1C1B"/>
<path d="M34.9867 1.57666L25.6711 27.305C25.6 27.52 25.3867 28.165 25.1022 28.2367H36.9778L48.2133 1.57666H34.9867Z" fill="#1C1C1B"/>
<path d="M24.4622 27.3051L21.6889 19.6367H9.5289L13.1556 28.2367H25.0311C24.8178 28.0934 24.6045 27.4484 24.4622 27.3051ZM19.5556 24.3667H15.1467V23.2917H19.5556V24.3667Z" fill="#1C1C1B"/>
<path d="M15.2178 1.57666H1.99112L5.47556 9.88999H18.2045L15.2178 1.57666ZM12.5156 6.23499H8.10667V5.23166H12.5156V6.23499Z" fill="#1C1C1B"/>
<path d="M18.4178 10.3916H5.6889L9.31557 18.9916H21.5467L18.4178 10.3916ZM15.7867 15.2649H11.3778V14.1899H15.7867V15.2649Z" fill="#1C1C1B"/>
<path d="M16.7822 36.8366C18.4178 40.635 22.7556 40.85 25.1022 40.85C27.4489 40.85 31.7867 40.635 33.4222 36.8366L36.8356 28.6666H13.3689L16.7822 36.8366Z" fill="#1C1C1B"/>
</svg>
