<svg width="285" height="42" viewBox="0 0 285 42" fill="none" xmlns="http://www.w3.org/2000/svg">
<path d="M58.9704 5.03998C58.9704 3.98998 59.2519 3.14999 59.7445 2.65999C60.2371 2.02999 61.2926 1.60999 62.2074 1.60999H74.0297C75.5778 1.60999 77.4778 1.74999 78.7445 3.00999C79.9408 4.26999 80.0815 6.22998 80.0815 7.62998C80.0815 8.81998 80.0111 9.93998 79.026 10.99C78.3926 11.69 77.7593 12.04 76.8445 12.04V12.18C77.9704 12.25 78.8852 12.74 79.4482 13.3C80.5741 14.42 80.6445 15.82 80.6445 17.15C80.6445 18.55 80.6445 20.3 79.3074 21.7C77.9 23.24 76.2815 23.24 74.4519 23.24H62.9815C61.9963 23.24 60.7297 23.31 59.7445 22.19C59.2519 21.56 58.9704 20.65 58.9704 19.81V5.03998ZM71.1445 9.86998C71.7074 9.86998 72.4815 9.86998 72.8334 9.30998C72.9741 9.02998 73.0445 8.60998 73.0445 8.32998C73.0445 7.90998 72.9037 7.62998 72.6926 7.41998C72.2704 6.99998 71.5667 6.99998 71.1445 6.99998H67.1334C66.7815 6.99998 66.5 6.99998 66.2185 7.27998C65.9371 7.55998 65.9371 7.83998 65.9371 8.18998V9.93998H71.1445V9.86998ZM65.9371 16.17C65.9371 16.94 66.0074 17.29 66.2185 17.5C66.5 17.78 67.2037 17.78 67.5556 17.78H71.2852C72.6222 17.78 73.0445 17.5 73.1148 17.36C73.326 17.08 73.5371 16.52 73.5371 16.1C73.5371 15.75 73.4667 15.4 73.2556 15.19C72.763 14.56 72.0593 14.56 71.426 14.56H65.9371V16.17Z" fill="white"/>
<path d="M86.6259 23.17C85.7111 23.17 84.7963 23.1 84.0222 22.4C83.037 21.56 83.037 20.72 83.037 19.67V4.89999C83.037 4.05999 83.1778 3.14999 83.9519 2.44999C84.7259 1.67999 85.7815 1.60999 86.6259 1.60999H102.248V6.85999H91.4815C91.0593 6.85999 90.637 6.92999 90.4259 7.13999C90.0741 7.41998 90.0741 7.90999 90.0741 8.18998V9.79998H101.967V14.49H90.0741V16.87C90.0741 17.29 90.2148 17.57 90.3556 17.64C90.7074 17.92 91.2704 17.92 91.6926 17.92H102.319V23.17H86.6259Z" fill="white"/>
<path d="M111.678 3.50001C112.593 1.40001 115.056 1.26001 116.393 1.26001C117.73 1.26001 120.193 1.40001 121.107 3.50001L129.481 23.17H122.022L116.744 8.89001C116.674 8.75001 116.533 8.40001 116.393 8.40001C116.252 8.40001 116.111 8.82001 116.041 8.89001L110.763 23.17H103.304L111.678 3.50001Z" fill="white"/>
<path d="M133.633 23.17C132.719 23.17 131.804 23.1 131.03 22.4C130.044 21.56 130.044 20.72 130.044 19.67V4.89999C130.044 4.05999 130.185 3.14999 130.959 2.44999C131.733 1.67999 132.789 1.60999 133.563 1.60999H149.185V6.85999H138.419C137.996 6.85999 137.574 6.92999 137.363 7.13999C137.011 7.41998 137.011 7.90999 137.011 8.18998V9.79998H148.904V14.49H137.011V16.87C137.011 17.29 137.152 17.57 137.293 17.64C137.644 17.92 138.207 17.92 138.63 17.92H149.256V23.17H133.633Z" fill="white"/>
<path d="M160.233 23.17C156.856 23.17 154.604 22.68 152.844 20.51C151.507 18.9 150.874 16.8 150.874 12.6C150.874 8.96004 151.226 6.30004 152.774 4.34004C154.744 1.82004 157.911 1.54004 160.374 1.54004H169.593V6.93004H163.752C161.43 6.93004 159.741 6.93004 158.756 8.61004C158.122 9.66004 158.052 11.48 158.052 12.53C158.052 14.91 158.404 15.75 158.544 16.1C159.459 17.78 161.5 17.78 163.822 17.78H169.874V23.17H160.233Z" fill="white"/>
<path d="M171.422 12.46H184.652V17.36H171.422V12.46Z" fill="white"/>
<path d="M190.211 23.17L193.659 17.01L185.004 1.54004H192.815L197.319 10.71L201.893 1.54004H209.563L197.882 23.17H190.211Z" fill="white"/>
<path d="M210.478 23.17V5.60004C210.478 4.69004 210.619 3.50004 211.322 2.66004C211.815 2.17004 212.73 1.54004 214.207 1.54004H226.241C228 1.54004 229.619 1.75004 230.815 3.08004C231.87 4.13004 232.433 5.88004 232.433 8.96004C232.433 10.5 232.293 14.21 230.463 15.75C229.407 16.59 227.859 16.94 226.663 16.94H217.515V23.17H210.478ZM222.511 11.55C223.356 11.55 224.27 11.62 224.833 10.99C225.185 10.64 225.396 10.01 225.396 9.10004C225.396 8.54004 225.326 7.84004 224.763 7.42004C224.2 6.93004 223.356 6.93004 222.581 6.93004H218.711C217.585 6.93004 217.515 7.70004 217.515 8.19004V11.55H222.511Z" fill="white"/>
<path d="M238.274 3.91996C238.978 2.30996 239.893 1.32996 243.27 1.32996C245.382 1.32996 247.211 1.53996 248.267 3.91996L256.289 23.17H248.9L247.211 18.69H239.4L237.711 23.17H230.322L238.274 3.91996ZM241.019 13.79H245.522L243.552 8.32996C243.482 8.18996 243.341 7.83996 243.27 7.83996C243.2 7.83996 243.059 8.11996 242.989 8.32996L241.019 13.79Z" fill="white"/>
<path d="M265.367 3.50001C266.281 1.40001 268.744 1.26001 270.081 1.26001C271.419 1.26001 273.881 1.40001 274.796 3.50001L283.17 23.17H275.711L270.433 8.89001C270.363 8.75001 270.222 8.40001 270.081 8.40001C269.941 8.40001 269.8 8.82001 269.73 8.89001L264.452 23.17H256.993L265.367 3.50001Z" fill="white"/>
<path d="M65.0926 32.8301H65.4445V39.9001H64.6V34.8601L62.2778 38.0101H62.1371L59.8148 34.7901V39.9001H58.9704V32.8301H59.3222L62.2074 36.7501L65.0926 32.8301Z" fill="white"/>
<path d="M77.4778 33.6H74.2407V35.91H77.4074V36.61H74.2407V39.13H77.6185V39.9H73.3963V32.9H77.4778V33.6Z" fill="white"/>
<path d="M85.9926 35.63H87.963C89.5815 35.63 90.426 36.47 90.426 37.73C90.426 38.92 89.5815 39.9 87.963 39.9C87.0482 39.9 86.063 39.9 85.1482 39.9C85.1482 37.52 85.1482 35.21 85.1482 32.9H89.863V33.6H85.9926V35.63ZM85.9926 36.33V39.13C86.626 39.13 87.3297 39.13 87.963 39.13C89.0186 39.13 89.5815 38.57 89.5815 37.73C89.5815 36.96 89.0186 36.33 87.963 36.33H85.9926Z" fill="white"/>
<path d="M101.967 33.6H98.7297V35.91H101.896V36.61H98.7297V39.13H102.107V39.9H97.8852V32.9H101.967V33.6Z" fill="white"/>
<path d="M111.044 38.1501C110.904 39.5501 110.411 40.0401 108.933 39.8301V39.2001C109.848 39.3401 110.13 38.9201 110.2 38.0801L110.763 32.8301C112.1 32.8301 113.719 32.8301 115.056 32.8301V39.8301H114.211V33.5301H111.467L111.044 38.1501Z" fill="white"/>
<path d="M123.782 35.28H125.752C127.23 35.28 128.215 36.26 128.215 37.59C128.215 38.92 127.23 39.9 125.752 39.9H123.007V32.9H123.852V35.28H123.782ZM123.782 35.98V39.13C124.415 39.13 125.048 39.13 125.752 39.13C126.667 39.13 127.441 38.5 127.37 37.52C127.37 36.61 126.667 35.98 125.752 35.98H123.782Z" fill="white"/>
<path d="M140.107 39.9V36.61H136.378V39.9H135.533V32.9H136.378V35.84H140.107V32.9H140.952V39.9H140.107Z" fill="white"/>
<path d="M149.748 38.1501L148.904 39.9001H148.059V39.7601L151.367 32.8301H151.719L154.956 39.7601V39.9001H154.111L153.267 38.1501H149.748ZM150.03 37.3801H152.985L151.507 34.0901L150.03 37.3801Z" fill="white"/>
<path d="M163.47 37.1701C162.485 36.9601 161.782 36.1201 161.782 35.0701C161.782 33.8101 162.767 32.8301 164.174 32.8301H166.989V39.8301H166.144V37.3101H164.315L162.415 39.8301H161.5V39.6901L163.47 37.1701ZM166.144 36.6101V33.6001H164.174C163.259 33.6001 162.556 34.2301 162.556 35.1401C162.556 36.0501 163.259 36.6801 164.174 36.6801H166.144V36.6101Z" fill="white"/>
<path d="M184.441 36.0501C185.144 36.0501 185.707 36.0501 186.059 35.8401C186.481 35.5601 186.763 34.7901 186.974 34.1601C187.256 33.2501 187.748 32.6201 189.015 32.8301V33.3901C188.241 33.3201 187.889 33.6701 187.678 34.3701C187.467 35.0701 187.256 35.8401 186.763 36.2601L189.226 39.6901V39.9001H188.241L185.989 36.6801C185.637 36.8201 184.863 36.8201 184.441 36.8201V39.9001H183.596V32.9001H184.441V36.0501Z" fill="white"/>
<path d="M199.219 39.9701C197.248 39.9701 195.63 38.5701 195.63 36.3301C195.63 34.0901 197.248 32.6901 199.219 32.6901C201.189 32.6901 202.807 34.0901 202.807 36.3301C202.807 38.5001 201.33 39.9701 199.219 39.9701ZM199.219 39.2001C200.767 39.2001 201.963 38.0801 201.963 36.3301C201.963 34.5801 200.767 33.4601 199.219 33.4601C197.67 33.4601 196.474 34.5801 196.474 36.3301C196.474 38.0801 197.67 39.2001 199.219 39.2001Z" fill="white"/>
<path d="M216.459 32.8301H216.811V39.9001H215.967V34.8601L213.644 38.0101H213.504L211.181 34.8601V39.9001H210.337V32.8301H210.689L213.574 36.7501L216.459 32.8301Z" fill="white"/>
<path d="M230.111 32.8301V39.8301C229.83 39.8301 229.548 39.8301 229.267 39.8301V33.6001H225.537V39.9001C225.256 39.9001 224.974 39.9001 224.693 39.9001V32.9001H230.111V32.8301Z" fill="white"/>
<path d="M238.907 38.1501L238.063 39.9001H237.219V39.7601L240.526 32.8301H240.878L244.115 39.7601V39.9001H243.27L242.426 38.1501H238.907ZM239.189 37.3801H242.144L240.667 34.0901L239.189 37.3801Z" fill="white"/>
<path d="M255.796 39.9V36.61H252.067V39.9H251.222V32.9H252.067V35.84H255.796V32.9H256.641V39.9H255.796Z" fill="white"/>
<path d="M264.874 39.9001H264.593V32.8301H265.437V36.1201L265.367 38.1501L269.941 32.8301H270.222V39.9001H269.378V36.5401L269.448 34.5801L264.874 39.9001Z" fill="white"/>
<path d="M279.582 37.1701C278.596 36.9601 277.893 36.1201 277.893 35.0701C277.893 33.8101 278.878 32.8301 280.285 32.8301H283.1V39.8301H282.256V37.3101H280.426L278.526 39.8301H277.611V39.6901L279.582 37.1701ZM282.256 36.6101V33.6001H280.285C279.37 33.6001 278.667 34.2301 278.667 35.1401C278.667 36.0501 279.37 36.6801 280.285 36.6801H282.256V36.6101Z" fill="white"/>
<path d="M34.6222 1.54004L25.4037 26.67C25.3334 26.88 25.1222 27.51 24.8408 27.58H36.5926L47.7111 1.54004H34.6222Z" fill="white"/>
<path d="M24.2075 26.6701L21.463 19.1801H9.42969L13.0186 27.5801H24.7704C24.5593 27.4401 24.3482 26.8101 24.2075 26.6701ZM19.3519 23.8001H14.9889V22.7501H19.3519V23.8001Z" fill="white"/>
<path d="M15.0593 1.54004H1.9704L5.41855 9.66004H18.0148L15.0593 1.54004ZM12.3852 6.09004H8.02225V5.11004H12.3852V6.09004Z" fill="white"/>
<path d="M18.2259 10.15H5.62964L9.21853 18.55H21.3222L18.2259 10.15ZM15.6222 14.91H11.2593V13.86H15.6222V14.91Z" fill="white"/>
<path d="M16.6075 35.98C18.226 39.69 22.5186 39.9 24.8408 39.9C27.163 39.9 31.4556 39.69 33.0741 35.98L36.4519 28H13.2297L16.6075 35.98Z" fill="white"/>
</svg>
