<svg width="28" height="28" viewBox="0 0 28 28" fill="none" xmlns="http://www.w3.org/2000/svg">
<path d="M22.792 4.592L1.90399 10.472C0.979989 10.724 0.419988 11.704 0.671988 12.656L3.02399 21.056C3.27599 21.98 4.25599 22.54 5.20799 22.288L26.124 16.436C27.048 16.184 27.608 15.204 27.356 14.252L25.004 5.852C24.724 4.9 23.744 4.34 22.792 4.592Z" fill="url(#paint0_linear_1_263)"/>
<path d="M5.23601 12.572L7.02801 14.084L7.78401 11.872L9.43601 11.396L8.23201 14.896L11.34 17.472L9.66001 17.948L7.67201 16.324L6.83201 18.76L5.20801 19.208L6.52401 15.456L3.64001 13.048L5.23601 12.572Z" fill="white"/>
<path d="M10.612 11.088L12.012 10.696L13.132 14.672L14.924 9.856L16.24 9.492L17.948 15.624L16.548 16.016L15.428 12.04L13.608 16.828L12.32 17.192L10.612 11.088Z" fill="white"/>
<path d="M23.156 8.82001L21.196 9.38001L22.596 14.336L21.196 14.728L19.796 9.77201L17.836 10.332L17.5 9.18401L22.82 7.70001L23.156 8.82001Z" fill="white"/>
<defs>
<linearGradient id="paint0_linear_1_263" x1="0.608401" y1="13.4282" x2="27.3915" y2="13.4282" gradientUnits="userSpaceOnUse">
<stop/>
<stop offset="1" stop-color="#646464"/>
</linearGradient>
</defs>
</svg>
