<svg width="43" height="41" viewBox="0 0 43 41" fill="none" xmlns="http://www.w3.org/2000/svg">
<path d="M1.2394 7.1C1.2095 6.57524 1.38834 6.05995 1.7369 5.66654C2.08546 5.27313 2.57546 5.03352 3.1 5H39.0436C39.5681 5.03352 40.0581 5.27313 40.4067 5.66654C40.7553 6.05995 40.9341 6.57524 40.9042 7.1C40.9341 7.62476 40.7553 8.14005 40.4067 8.53346C40.0581 8.92687 39.5681 9.16648 39.0436 9.2H3.1C2.57546 9.16648 2.08546 8.92687 1.7369 8.53346C1.38834 8.14005 1.2095 7.62476 1.2394 7.1ZM3.1 17.957H39.0436C39.5681 17.9235 40.0581 17.6839 40.4067 17.2905C40.7553 16.8971 40.9341 16.3818 40.9042 15.857C40.9341 15.3322 40.7553 14.8169 40.4067 14.4235C40.0581 14.0301 39.5681 13.7905 39.0436 13.757H3.1C2.57546 13.7905 2.08546 14.0301 1.7369 14.4235C1.38834 14.8169 1.2095 15.3322 1.2394 15.857C1.2095 16.3818 1.38834 16.8971 1.7369 17.2905C2.08546 17.6839 2.57546 17.9235 3.1 17.957ZM3.1 26.7182H39.0436C39.6006 26.7182 40.1347 26.497 40.5285 26.1031C40.9223 25.7093 41.1436 25.1752 41.1436 24.6182C41.1436 24.0612 40.9223 23.5271 40.5285 23.1333C40.1347 22.7395 39.6006 22.5182 39.0436 22.5182H3.1C2.54305 22.5182 2.0089 22.7395 1.61508 23.1333C1.22125 23.5271 1 24.0612 1 24.6182C1 25.1752 1.22125 25.7093 1.61508 26.1031C2.0089 26.497 2.54305 26.7182 3.1 26.7182ZM3.1 35.4794H39.0436C39.6006 35.4794 40.1347 35.2582 40.5285 34.8643C40.9223 34.4705 41.1436 33.9364 41.1436 33.3794C41.1436 32.8224 40.9223 32.2883 40.5285 31.8945C40.1347 31.5007 39.6006 31.2794 39.0436 31.2794H3.1C2.54305 31.2794 2.0089 31.5007 1.61508 31.8945C1.22125 32.2883 1 32.8224 1 33.3794C1 33.9364 1.22125 34.4705 1.61508 34.8643C2.0089 35.2582 2.54305 35.4794 3.1 35.4794Z" fill="url(#paint0_linear_5_40)"/>
<defs>
<linearGradient id="paint0_linear_5_40" x1="21.0718" y1="-284.531" x2="21.0718" y2="203.106" gradientUnits="userSpaceOnUse">
<stop/>
<stop offset="1" stop-color="#646464"/>
</linearGradient>
</defs>
</svg>
