<svg width="28" height="28" viewBox="0 0 28 28" fill="none" xmlns="http://www.w3.org/2000/svg">
<g clip-path="url(#clip0_1_128)">
<path d="M26.544 21.784L19.908 15.148C22.344 10.136 20.3 4.03202 15.316 1.51202C12.88 0.280019 10.108 0.0840188 7.504 0.924019C4.9 1.79202 2.772 3.61202 1.54 6.04802C-1.008 11.088 1.036 17.276 6.076 19.824C8.876 21.252 12.264 21.28 15.092 19.936L21.728 26.572C22.372 27.216 23.24 27.58 24.136 27.58C26.012 27.58 27.524 26.068 27.524 24.192C27.552 23.296 27.188 22.428 26.544 21.784ZM5.404 16.268C3.92 14.812 3.108 12.88 3.108 10.836C3.108 8.76402 3.892 6.83202 5.348 5.37602C8.344 2.35202 13.244 2.32402 16.268 5.32002C18.788 7.81202 19.292 11.704 17.444 14.756C17.108 15.316 16.716 15.82 16.268 16.268C15.82 16.716 15.316 17.108 14.756 17.444C11.732 19.236 7.896 18.732 5.404 16.268ZM25.2 24.192C25.2 24.444 25.088 24.696 24.92 24.892C24.724 25.088 24.472 25.2 24.22 25.2C23.968 25.2 23.716 25.088 23.52 24.892L17.248 18.62C17.78 18.2 18.228 17.724 18.648 17.22L24.92 23.464C25.088 23.66 25.2 23.912 25.2 24.192Z" fill="url(#paint0_linear_1_128)"/>
</g>
<defs>
<linearGradient id="paint0_linear_1_128" x1="0.450294" y1="14" x2="27.5497" y2="14" gradientUnits="userSpaceOnUse">
<stop/>
<stop offset="1" stop-color="#646464"/>
</linearGradient>
<clipPath id="clip0_1_128">
<rect width="28" height="28" fill="white"/>
</clipPath>
</defs>
</svg>
