<svg width="12" height="19" viewBox="0 0 12 19" fill="none" xmlns="http://www.w3.org/2000/svg">
<path fill-rule="evenodd" clip-rule="evenodd" d="M11.9998 6.88221C11.9998 3.5685 9.31347 0.882202 5.99976 0.882202C2.68605 0.882202 -0.000244141 3.5685 -0.000244141 6.88221C-0.000244141 10.3898 2.33309 14.5489 4.48302 17.3629C4.9521 18.3372 6.32479 18.3772 6.84991 17.432C8.27645 15.8825 11.9998 10.9879 11.9998 6.88221ZM5.99975 9.68226C7.54615 9.68226 8.79975 8.42866 8.79975 6.88226C8.79975 5.33586 7.54615 4.08226 5.99975 4.08226C4.45336 4.08226 3.19975 5.33586 3.19975 6.88226C3.19975 8.42866 4.45336 9.68226 5.99975 9.68226Z" fill="white"/>
</svg>
