<svg width="15" height="13" viewBox="0 0 15 13" fill="none" xmlns="http://www.w3.org/2000/svg">
<path d="M14.9998 1.94C14.9998 1.14471 14.355 0.5 13.5598 0.5H1.43976C0.644466 0.5 -0.000244141 1.14471 -0.000244141 1.94V11.06C-0.000244141 11.8553 0.644466 12.5 1.43976 12.5H13.5598C14.355 12.5 14.9998 11.8553 14.9998 11.06V1.94ZM13.4998 3.1475C13.4998 3.36678 13.3868 3.5706 13.2008 3.68682L8.26295 6.773C7.79601 7.06484 7.20351 7.06484 6.73656 6.773L1.79868 3.68682C1.61272 3.5706 1.49976 3.36678 1.49976 3.1475C1.49976 2.64796 2.04923 2.34342 2.47283 2.60817L6.73656 5.273C7.20351 5.56484 7.79601 5.56484 8.26295 5.273L12.5267 2.60817C12.9503 2.34342 13.4998 2.64796 13.4998 3.1475Z" fill="white"/>
</svg>
