<svg width="12" height="17" viewBox="0 0 12 17" fill="none" xmlns="http://www.w3.org/2000/svg">
<path d="M4.66023 9.42418C5.32474 10.4414 6.2041 11.2983 7.23654 11.9348L8.99087 11.0208C9.04191 10.9986 9.09835 10.9923 9.15274 11.003C9.20712 11.0136 9.25687 11.0406 9.29541 11.0804L11.7342 13.4468C11.8277 13.532 11.9 13.6381 11.9455 13.7566C11.9909 13.8751 12.0082 14.0028 11.9959 14.1296C11.9837 14.2565 11.9423 14.379 11.875 14.4874C11.8077 14.5958 11.7164 14.6873 11.6082 14.7545L10.0307 15.8036C9.80478 15.9539 9.54578 16.046 9.2768 16.0716C9.00782 16.0973 8.73724 16.0557 8.48921 15.9506C6.01361 14.9086 3.8854 13.1858 2.34779 10.979C0.856187 8.76226 0.0405755 6.15326 -0.000103255 3.46849C-0.00369748 3.20116 0.0615341 2.93689 0.18927 2.70127C0.317005 2.46565 0.502913 2.26668 0.728977 2.12364L2.35778 1.06783C2.45965 0.997154 2.57593 0.950416 2.69792 0.931113C2.81992 0.911809 2.94445 0.920441 3.06222 0.956361C3.17998 0.99228 3.28791 1.05456 3.37793 1.13853C3.46795 1.2225 3.53772 1.32599 3.58203 1.44125L4.88821 4.59179C4.91161 4.64183 4.91832 4.69822 4.90735 4.75266C4.89639 4.80709 4.86833 4.85668 4.82731 4.89412L3.29745 6.14107C3.50267 7.32541 3.96818 8.4469 4.66023 9.42418Z" fill="white"/>
</svg>
