<svg width="48" height="48" viewBox="0 0 48 48" fill="none" xmlns="http://www.w3.org/2000/svg">
<g clip-path="url(#clip0_82_66)">
<circle cx="24" cy="24" r="24" fill="white"/>
<path fill-rule="evenodd" clip-rule="evenodd" d="M16.1687 23.5467C20.7321 21.7121 23.775 20.5027 25.2976 19.9183C29.6448 18.2498 30.5481 17.96 31.1369 17.9504C31.2664 17.9483 31.5559 17.9779 31.7435 18.1184C31.9018 18.2369 31.9454 18.3971 31.9663 18.5095C31.9871 18.622 32.0131 18.8781 31.9924 19.0782C31.7569 21.3622 30.7375 26.9049 30.2189 29.463C29.9995 30.5454 29.5674 30.9084 29.1492 30.9439C28.2401 31.0211 27.5498 30.3895 26.6694 29.857C25.2916 29.0236 24.5133 28.5048 23.176 27.6917C21.6305 26.7519 22.6323 26.2353 23.5131 25.3912C23.7436 25.1703 27.7489 21.8086 27.8264 21.5037C27.8361 21.4655 27.8451 21.3234 27.7536 21.2483C27.6621 21.1732 27.527 21.1989 27.4295 21.2193C27.2913 21.2482 25.0904 22.5906 20.8266 25.2464C20.2019 25.6422 19.636 25.8351 19.129 25.825C18.5701 25.8139 17.495 25.5334 16.6957 25.2937C15.7154 24.9996 14.9363 24.8441 15.0041 24.3448C15.0395 24.0847 15.4276 23.8186 16.1687 23.5467Z" fill="#181818"/>
</g>
<defs>
<clipPath id="clip0_82_66">
<rect width="48" height="48" fill="white"/>
</clipPath>
</defs>
</svg>
