<svg width="48" height="48" viewBox="0 0 48 48" fill="none" xmlns="http://www.w3.org/2000/svg">
<circle cx="24" cy="24" r="24" fill="white"/>
<path d="M32.6027 19.0458C32.4953 18.6502 32.2836 18.289 31.9888 17.9986C31.694 17.7082 31.3265 17.4987 30.923 17.391C29.4375 17 23.5 17 23.5 17C23.5 17 17.5625 17 16.077 17.391C15.6735 17.4987 15.306 17.7082 15.0112 17.9986C14.7164 18.289 14.5047 18.6502 14.3973 19.0458C14 20.5062 14 23.5517 14 23.5517C14 23.5517 14 26.5972 14.3973 28.0576C14.5047 28.4533 14.7164 28.8144 15.0112 29.1048C15.306 29.3952 15.6735 29.6048 16.077 29.7125C17.5625 30.1034 23.5 30.1034 23.5 30.1034C23.5 30.1034 29.4375 30.1034 30.923 29.7125C31.3265 29.6048 31.694 29.3952 31.9888 29.1048C32.2836 28.8144 32.4953 28.4533 32.6027 28.0576C33 26.5972 33 23.5517 33 23.5517C33 23.5517 33 20.5062 32.6027 19.0458Z" fill="#181818"/>
<path d="M21.8621 26.1724V20.931L26.4483 23.5517L21.8621 26.1724Z" fill="white"/>
</svg>
