<svg width="14" height="20" viewBox="0 0 14 20" fill="none" xmlns="http://www.w3.org/2000/svg">
<path d="M11.917 10.6973C12.6634 11.6317 13.0668 12.7847 13.0668 13.9829C13.0668 15.4335 12.4749 16.7447 11.5249 17.698C10.5749 18.6475 9.25547 19.239 7.80031 19.239H0.743165C0.731855 19.239 0.724309 19.2315 0.724309 19.2202L1.09753 11.741C1.09753 11.7259 1.1126 11.7183 1.12391 11.7259L3.65348 13.022C3.66856 13.0296 3.68741 13.0107 3.67987 12.9957L2.39058 10.6483C2.38304 10.637 2.39059 10.6219 2.40567 10.6219L8.3507 9.64225C8.37332 9.63848 8.37332 9.60833 8.3507 9.60456L2.40943 8.62115C2.39812 8.61739 2.39059 8.60608 2.39436 8.59478L3.68364 5.92712C3.69118 5.90828 3.67232 5.89321 3.65724 5.90452L1.12768 7.50586C1.11637 7.5134 1.09753 7.50586 1.09753 7.49079L0.701691 0.0190904C0.701691 0.0077868 0.709237 0.000244141 0.720547 0.000244141H7.79653C10.7031 0.000244141 13.0592 2.3514 13.0592 5.2602C13.0592 5.85176 12.9612 6.44332 12.7652 6.99343C12.5654 7.55107 12.2789 8.07104 11.9094 8.53449L11.1592 9.484C11.0914 9.56689 11.0914 9.67616 11.1592 9.74775L11.917 10.6973Z" fill="white"/>
</svg>
