<svg width="199" height="36" viewBox="0 0 199 36" fill="none" xmlns="http://www.w3.org/2000/svg">
<path d="M7.55895 22.3501L9.06147 32.8856C9.06147 32.9034 9.0496 32.9212 9.03178 32.9212H1.72109C0.230449 32.9212 -0.547546 31.1574 0.450176 30.0468L7.5055 22.3323C7.52332 22.3145 7.55301 22.3264 7.55895 22.3501Z" fill="#C4A730"/>
<path d="M1.72116 2.59766H9.04966C9.06748 2.59766 9.07935 2.61547 9.07935 2.63329L7.55901 13.5251C7.55307 13.5488 7.52338 13.5607 7.50557 13.5429L0.450242 5.46612C-0.553419 4.3615 0.230515 2.59766 1.72116 2.59766Z" fill="#C4A730"/>
<path d="M27.4302 19.458C28.6061 20.9308 29.2416 22.7481 29.2416 24.6366C29.2416 26.9231 28.3092 28.9898 26.8126 30.4923C25.316 31.9889 23.2374 32.9213 20.945 32.9213H9.82754C9.80973 32.9213 9.79784 32.9094 9.79784 32.8916L10.3858 21.103C10.3858 21.0793 10.4095 21.0674 10.4274 21.0793L14.4123 23.1222C14.4361 23.1341 14.4658 23.1044 14.4539 23.0807L12.4228 19.3808C12.4109 19.363 12.4228 19.3392 12.4466 19.3392L21.8121 17.7951C21.8477 17.7892 21.8477 17.7416 21.8121 17.7357L12.4525 16.1857C12.4347 16.1797 12.4228 16.1619 12.4288 16.1441L14.4598 11.9394C14.4717 11.9097 14.442 11.886 14.4182 11.9038L10.4333 14.4278C10.4155 14.4397 10.3858 14.4278 10.3858 14.404L9.76221 2.62736C9.76221 2.60954 9.7741 2.59766 9.79191 2.59766H20.9391C25.5179 2.59766 29.2297 6.30348 29.2297 10.8882C29.2297 11.8206 29.0753 12.753 28.7664 13.6201C28.4517 14.4991 28.0003 15.3186 27.4183 16.0491L26.2365 17.5457C26.1296 17.6763 26.1296 17.8485 26.2365 17.9614L27.4302 19.458Z" fill="#C4A730"/>
<path d="M41.1548 3.13377C41.1548 3.05096 41.2258 2.97998 41.3086 2.97998H49.5786C50.6079 2.97998 51.5011 3.08646 52.2702 3.31125C53.0333 3.53013 53.6662 3.83182 54.175 4.21633C54.6778 4.60085 55.0564 5.05635 55.2989 5.58283C55.5415 6.10932 55.6657 6.68312 55.6657 7.29242C55.6657 8.29216 55.3522 9.17359 54.7192 9.92486C55.4468 10.3567 55.9851 10.9128 56.346 11.599C56.7009 12.2852 56.8784 13.066 56.8784 13.9415C56.8784 14.6751 56.7542 15.3376 56.5116 15.9292C56.2632 16.5207 55.8905 17.0295 55.3936 17.4495C54.8908 17.8695 54.2578 18.1948 53.4947 18.4196C52.7316 18.6444 51.8324 18.7568 50.7972 18.7568H41.3145C41.2317 18.7568 41.1607 18.6858 41.1607 18.603V3.13377H41.1548ZM50.7144 9.04345C51.5366 9.05528 52.2938 8.42822 52.2997 7.60595C52.2997 7.60003 52.2997 7.59412 52.2997 7.5882C52.2997 7.37524 52.2702 7.18003 52.2051 7.00257C52.0986 6.70679 51.9093 6.45833 51.6254 6.26312C51.1758 5.94959 50.5251 5.79578 49.6614 5.79578H44.3551V9.03753H49.4839C49.4839 9.03753 50.1287 9.03753 50.7144 9.04345ZM50.8741 15.9706C51.7378 15.9706 52.3885 15.7872 52.8381 15.4145C53.2876 15.0478 53.5065 14.5213 53.5065 13.8528C53.5065 13.1784 53.2817 12.6579 52.8381 12.2793C52.3885 11.9007 51.7378 11.7114 50.8741 11.7114H44.3551V15.9706H50.8741Z" fill="#C4A730"/>
<path d="M59.6825 2.97998H62.5634C62.6522 2.97998 62.7232 3.05096 62.7232 3.13969V11.67C62.7232 12.3798 62.8237 13.0187 63.013 13.5748C63.2082 14.1308 63.4981 14.5982 63.8885 14.9827C64.273 15.3672 64.7522 15.6571 65.326 15.8582C65.8998 16.0534 66.5624 16.154 67.3255 16.154C68.0767 16.154 68.7452 16.0534 69.319 15.8582C69.8928 15.6571 70.372 15.3672 70.7624 14.9827C71.1469 14.5982 71.4427 14.1308 71.6379 13.5748C71.8331 13.0187 71.9278 12.3858 71.9278 11.67V3.13969C71.9278 3.05096 71.9988 2.97998 72.0875 2.97998H74.9684C75.0571 2.97998 75.1281 3.05096 75.1281 3.13969V12.0545C75.1281 13.0897 74.9507 14.0303 74.6016 14.8821C74.2526 15.7281 73.7439 16.4557 73.0754 17.0591C72.407 17.6624 71.5906 18.1298 70.6264 18.461C69.6621 18.7923 68.5618 18.9579 67.3195 18.9579C66.0832 18.9579 64.977 18.7923 64.0127 18.461C63.0485 18.1298 62.2322 17.6624 61.5637 17.0591C60.8952 16.4557 60.3924 15.7281 60.0375 14.8821C59.6885 14.0362 59.511 13.0897 59.511 12.0545V3.13969C59.5228 3.05096 59.5938 2.97998 59.6825 2.97998Z" fill="#C4A730"/>
<path d="M79.0209 3.13969C79.0209 3.05096 79.0919 2.97998 79.1806 2.97998H84.8063C86.4922 2.97998 87.9593 3.16335 89.2075 3.5242C90.4498 3.88505 91.485 4.40563 92.3013 5.08593C93.1177 5.7603 93.727 6.58257 94.1293 7.54681C94.5315 8.51105 94.7327 9.59951 94.7327 10.8004C94.7327 11.9421 94.5315 13.001 94.1352 13.9711C93.7388 14.9413 93.1354 15.7872 92.3191 16.4912C91.5027 17.201 90.4734 17.7571 89.2312 18.1593C87.9889 18.5616 86.5218 18.7568 84.83 18.7568L79.1865 18.745C79.0978 18.745 79.0268 18.674 79.0268 18.5853V3.13969H79.0209ZM85.5872 15.9883C86.5396 15.9883 87.3796 15.8641 88.1013 15.6216C88.823 15.379 89.4205 15.03 89.9055 14.5804C90.3847 14.1308 90.7455 13.5866 90.9881 12.9477C91.2306 12.3088 91.3489 11.5931 91.3489 10.8063C91.3489 10.0313 91.2306 9.33331 90.9881 8.71218C90.7455 8.09104 90.3847 7.56454 89.9055 7.12679C89.4264 6.69495 88.823 6.35777 88.1013 6.12115C87.3796 5.88453 86.5455 5.76621 85.5872 5.76621H82.2153V15.9883H85.5872Z" fill="#C4A730"/>
<path d="M97.0042 10.8241C97.0042 9.63507 97.223 8.54069 97.6608 7.55279C98.0985 6.56489 98.7138 5.71305 99.5005 5.00318C100.293 4.29331 101.24 3.74315 102.346 3.35273C103.452 2.9623 104.677 2.76709 106.025 2.76709C107.362 2.76709 108.587 2.9623 109.699 3.35273C110.811 3.74315 111.758 4.29331 112.55 5.00318C113.343 5.71305 113.952 6.56489 114.39 7.55279C114.828 8.54069 115.047 9.62916 115.047 10.8241C115.047 12.0191 114.828 13.1194 114.39 14.1191C113.952 15.1188 113.337 15.9766 112.55 16.6983C111.758 17.42 110.811 17.9761 109.699 18.3783C108.587 18.7806 107.362 18.9758 106.025 18.9758C104.683 18.9758 103.452 18.7747 102.346 18.3783C101.24 17.9761 100.293 17.42 99.5005 16.6983C98.7078 15.9766 98.0985 15.1188 97.6608 14.1191C97.223 13.1194 97.0042 12.0191 97.0042 10.8241ZM100.199 10.8241C100.199 11.6405 100.346 12.374 100.636 13.0247C100.926 13.6754 101.334 14.2315 101.855 14.6929C102.376 15.1543 102.991 15.5092 103.701 15.7577C104.41 16.0062 105.185 16.1304 106.02 16.1304C106.854 16.1304 107.629 16.0062 108.338 15.7577C109.048 15.5092 109.664 15.1543 110.178 14.6929C110.699 14.2315 111.101 13.6754 111.397 13.0247C111.693 12.374 111.84 11.6405 111.84 10.8241C111.84 10.0078 111.693 9.28015 111.397 8.63535C111.101 7.99055 110.693 7.44039 110.178 6.99673C109.658 6.54714 109.048 6.20996 108.338 5.97334C107.629 5.73672 106.86 5.6184 106.02 5.6184C105.185 5.6184 104.41 5.73672 103.701 5.97334C102.991 6.20996 102.376 6.55306 101.855 6.99673C101.334 7.44631 100.926 7.99055 100.636 8.63535C100.346 9.28015 100.199 10.0078 100.199 10.8241Z" fill="#C4A730"/>
<path d="M116.733 2.97998H119.927C119.992 2.97998 120.051 3.02138 120.075 3.08054L124.991 15.0123L129.907 3.08054C129.93 3.02138 129.989 2.97998 130.054 2.97998H133.249C133.361 2.97998 133.438 3.09828 133.397 3.20476L126.623 18.6622C126.6 18.7213 126.541 18.7568 126.475 18.7568H123.512C123.447 18.7568 123.393 18.7213 123.364 18.6622L116.591 3.20476C116.537 3.09828 116.614 2.97998 116.733 2.97998Z" fill="#C4A730"/>
<path d="M136.508 14.1841C136.556 14.1131 136.644 14.0953 136.715 14.1367C137.248 14.4325 137.786 14.6987 138.33 14.9354C138.916 15.1956 139.531 15.4145 140.164 15.592C140.797 15.7694 141.46 15.9055 142.158 16.0001C142.856 16.0948 143.595 16.1421 144.382 16.1421C145.328 16.1421 146.139 16.0771 146.801 15.9528C147.47 15.8286 148.008 15.6571 148.428 15.4382C148.848 15.2193 149.156 14.959 149.345 14.6573C149.534 14.3556 149.635 14.0243 149.635 13.6694C149.635 13.0956 149.398 12.646 148.919 12.3148C148.44 11.9835 147.706 11.8178 146.707 11.8178C146.269 11.8178 145.807 11.8474 145.322 11.9066C144.837 11.9657 144.346 12.0249 143.855 12.0959C143.364 12.1668 142.873 12.226 142.394 12.2852C141.915 12.3443 141.46 12.3739 141.04 12.3739C140.336 12.3739 139.655 12.2852 139.005 12.1018C138.354 11.9184 137.78 11.6463 137.277 11.2854C136.774 10.9246 136.378 10.4691 136.082 9.92485C135.787 9.38062 135.639 8.74174 135.639 8.02004C135.639 7.5882 135.698 7.16227 135.816 6.73635C135.934 6.31043 136.124 5.90817 136.384 5.51774C136.644 5.13323 136.976 4.77239 137.39 4.44112C137.798 4.10984 138.295 3.81997 138.88 3.57743C139.46 3.33489 140.134 3.1456 140.898 3.00954C141.661 2.87348 142.53 2.80249 143.506 2.80249C144.21 2.80249 144.92 2.83799 145.636 2.92081C146.352 2.99771 147.044 3.11011 147.718 3.25208C148.393 3.39405 149.043 3.5656 149.67 3.76081C150.238 3.93828 150.765 4.13941 151.256 4.35237C151.344 4.38786 151.374 4.49435 151.333 4.57716L150.079 6.88424C150.037 6.95522 149.96 6.98482 149.883 6.95524C149.475 6.78369 149.043 6.61805 148.576 6.47016C148.067 6.30452 147.529 6.16254 146.973 6.03831C146.417 5.92 145.837 5.81944 145.24 5.74846C144.642 5.67747 144.039 5.64198 143.418 5.64198C142.536 5.64198 141.809 5.70704 141.241 5.83126C140.673 5.96141 140.217 6.12114 139.886 6.32227C139.549 6.5234 139.318 6.74228 139.182 6.99073C139.052 7.23327 138.987 7.48172 138.987 7.72426C138.987 8.1975 139.2 8.58202 139.62 8.8778C140.046 9.1795 140.691 9.32737 141.56 9.32737C141.909 9.32737 142.311 9.30371 142.767 9.25047C143.222 9.19723 143.696 9.14399 144.198 9.08483C144.701 9.02568 145.21 8.96652 145.731 8.9192C146.251 8.86596 146.76 8.84229 147.251 8.84229C148.18 8.84229 149.002 8.94879 149.718 9.15584C150.433 9.36288 151.037 9.66456 151.522 10.0491C152.007 10.4336 152.374 10.9068 152.622 11.4511C152.871 12.0012 152.995 12.6164 152.995 13.2908C152.995 14.2018 152.782 15.0063 152.362 15.7162C151.942 16.4261 151.344 17.0235 150.564 17.5145C149.789 18.0055 148.848 18.3723 147.754 18.6267C146.659 18.881 145.435 19.0053 144.092 19.0053C143.205 19.0053 142.335 18.952 141.489 18.8396C140.643 18.7272 139.827 18.5675 139.052 18.3664C138.277 18.1593 137.538 17.9168 136.834 17.6269C136.189 17.3666 135.585 17.0768 135.029 16.7692C134.946 16.7219 134.923 16.6154 134.976 16.5385L136.508 14.1841Z" fill="#C4A730"/>
<path d="M156.68 2.97998H159.561C159.65 2.97998 159.721 3.05096 159.721 3.13969V11.1435L167.997 3.0273C168.026 2.99772 168.068 2.97998 168.109 2.97998H171.747C171.889 2.97998 171.96 3.15153 171.86 3.25209L164.371 10.5046L171.889 18.4788C171.984 18.5794 171.913 18.745 171.771 18.745H167.95C167.908 18.745 167.867 18.7272 167.837 18.6977L162.069 12.7348L159.721 15.0063V18.5912C159.721 18.6799 159.65 18.7509 159.561 18.7509H156.68C156.592 18.7509 156.521 18.6799 156.521 18.5912V3.13377C156.521 3.05096 156.592 2.97998 156.68 2.97998Z" fill="#C4A730"/>
<path d="M180.343 14.8111L173.611 3.2166C173.551 3.11012 173.628 2.97998 173.747 2.97998H177C177.059 2.97998 177.113 3.00955 177.142 3.06279L181.952 11.948L186.702 3.06279C186.731 3.00955 186.785 2.97998 186.844 2.97998H190.097C190.222 2.97998 190.298 3.11012 190.233 3.2166L183.59 14.7875C183.578 14.8111 183.567 14.8407 183.567 14.8644V18.5912C183.567 18.6799 183.496 18.7509 183.407 18.7509H180.526C180.437 18.7509 180.366 18.6799 180.366 18.5912V14.888C180.366 14.8644 180.36 14.8348 180.343 14.8111Z" fill="#C4A730"/>
<path d="M194.854 2.75529C194.777 2.89135 194.741 3.05107 194.741 3.23445C194.741 3.41192 194.777 3.57164 194.854 3.71361C194.93 3.84967 195.037 3.95616 195.173 4.03306C195.303 4.10996 195.457 4.14546 195.623 4.14546C195.788 4.14546 195.93 4.10996 196.049 4.0508C196.167 3.99165 196.273 3.91474 196.344 3.82009L196.883 4.36433C196.723 4.54771 196.54 4.68377 196.321 4.78433C196.096 4.87898 195.865 4.9263 195.617 4.9263C195.291 4.9263 194.996 4.84939 194.735 4.7015C194.469 4.5477 194.262 4.34657 194.108 4.0922C193.96 3.83783 193.883 3.54797 193.883 3.22853C193.883 2.90909 193.96 2.61923 194.108 2.36486C194.262 2.10458 194.469 1.90345 194.735 1.75556C195.001 1.60175 195.297 1.53076 195.623 1.53076C195.871 1.53076 196.108 1.57218 196.321 1.66683C196.545 1.76148 196.729 1.89754 196.883 2.075L196.344 2.62515C196.256 2.52458 196.149 2.44176 196.025 2.39443C195.901 2.34711 195.765 2.31753 195.617 2.31753C195.451 2.31753 195.297 2.35302 195.167 2.42992C195.037 2.50683 194.925 2.61923 194.854 2.75529Z" fill="#C4A730"/>
<path d="M198.308 2.03348C198.16 1.66671 197.948 1.34136 197.681 1.07516C197.415 0.803041 197.102 0.584154 196.729 0.436265C196.362 0.276544 195.954 0.205566 195.51 0.205566C195.078 0.205566 194.67 0.28246 194.304 0.436265C193.943 0.59007 193.623 0.797125 193.351 1.07516C193.085 1.35319 192.878 1.67263 192.73 2.03348C192.582 2.39433 192.511 2.79658 192.511 3.2225C192.511 3.64842 192.582 4.04477 192.73 4.41746C192.878 4.79014 193.085 5.10957 193.357 5.3876C193.629 5.66563 193.949 5.88451 194.315 6.0324C194.676 6.19212 195.084 6.26311 195.522 6.26311C195.96 6.26311 196.362 6.1862 196.735 6.0324C197.096 5.87859 197.415 5.66563 197.681 5.3876C197.948 5.11548 198.16 4.79013 198.308 4.42928C198.45 4.06251 198.527 3.66618 198.527 3.23434C198.527 2.8025 198.45 2.40616 198.308 2.03348ZM197.806 4.57717C197.581 4.98534 197.273 5.30478 196.883 5.53549C196.486 5.77211 196.037 5.89635 195.516 5.89635C195.007 5.89635 194.558 5.77803 194.167 5.53549C193.777 5.30478 193.475 4.97943 193.251 4.57717C193.026 4.17491 192.913 3.71941 192.913 3.2225C192.913 2.72559 193.02 2.27009 193.245 1.87375C193.464 1.47149 193.771 1.15797 194.162 0.921346C194.558 0.690639 195.007 0.566408 195.516 0.566408C196.037 0.566408 196.486 0.684729 196.883 0.927268C197.273 1.15798 197.581 1.48332 197.806 1.87967C198.03 2.28193 198.137 2.72559 198.137 3.2225C198.137 3.71941 198.024 4.17491 197.806 4.57717Z" fill="#C4A730"/>
<path d="M195.528 6.47019C195.061 6.47019 194.623 6.38736 194.244 6.22173C193.86 6.06201 193.511 5.83131 193.221 5.52962C192.925 5.22201 192.712 4.88481 192.552 4.48847C192.399 4.09804 192.322 3.68395 192.322 3.21662C192.322 2.76112 192.399 2.33519 192.552 1.95068C192.706 1.56617 192.931 1.21716 193.215 0.927296C193.505 0.631517 193.842 0.406722 194.233 0.241086C195.013 -0.0842708 196.049 -0.0783675 196.818 0.246989C197.202 0.40671 197.539 0.63742 197.835 0.933199C198.125 1.22898 198.35 1.57209 198.504 1.96252C198.657 2.36478 198.734 2.79069 198.734 3.22845C198.734 3.6662 198.657 4.09213 198.504 4.49439C198.344 4.88482 198.119 5.23383 197.835 5.52369C197.551 5.81947 197.208 6.0561 196.824 6.21583C196.427 6.38738 196.001 6.47019 195.528 6.47019ZM195.51 0.773485C195.043 0.773485 194.623 0.879958 194.256 1.09883C193.895 1.31771 193.611 1.60757 193.416 1.96843C193.209 2.32928 193.109 2.74929 193.109 3.21662C193.109 3.67804 193.215 4.10396 193.422 4.47664C193.629 4.86116 193.907 5.1451 194.268 5.36398C194.629 5.58286 195.043 5.69525 195.516 5.69525C195.995 5.69525 196.409 5.58877 196.782 5.36398C197.143 5.15102 197.427 4.84931 197.634 4.48255C197.835 4.11578 197.942 3.69577 197.942 3.22253C197.942 2.76111 197.841 2.35295 197.634 1.98027C197.427 1.6135 197.143 1.31772 196.782 1.10476C196.409 0.879964 195.995 0.773485 195.51 0.773485Z" fill="#C4A730"/>
<path d="M196.35 3.82009L196.889 4.36433C196.729 4.54771 196.545 4.68377 196.327 4.78433C196.102 4.87898 195.871 4.9263 195.623 4.9263C195.297 4.9263 195.002 4.84939 194.741 4.7015C194.475 4.5477 194.268 4.34657 194.114 4.0922C193.966 3.83783 193.889 3.54797 193.889 3.22853C193.889 2.90909 193.966 2.61923 194.114 2.36486C194.268 2.10458 194.475 1.90345 194.741 1.75556C195.007 1.60175 195.303 1.53076 195.629 1.53076C195.877 1.53076 196.114 1.57218 196.327 1.66683C196.551 1.76148 196.735 1.89754 196.889 2.075L196.35 2.62515C196.262 2.52458 196.155 2.44176 196.031 2.39443C195.907 2.34711 195.771 2.31753 195.623 2.31753C195.457 2.31753 195.303 2.35302 195.173 2.42992C195.037 2.50683 194.931 2.61331 194.854 2.74937C194.777 2.88543 194.741 3.04515 194.741 3.22853C194.741 3.406 194.777 3.56572 194.854 3.70769C194.931 3.84375 195.037 3.95023 195.173 4.02714C195.303 4.10404 195.457 4.13953 195.623 4.13953C195.788 4.13953 195.93 4.10404 196.049 4.04488C196.173 3.99164 196.273 3.91474 196.35 3.82009Z" fill="#C4A730"/>
<path d="M196.35 3.82009L196.889 4.36433C196.729 4.54771 196.545 4.68377 196.327 4.78433C196.102 4.87898 195.871 4.9263 195.623 4.9263C195.297 4.9263 195.002 4.84939 194.741 4.7015C194.475 4.5477 194.268 4.34657 194.114 4.0922C193.966 3.83783 193.889 3.54797 193.889 3.22853C193.889 2.90909 193.966 2.61923 194.114 2.36486C194.268 2.10458 194.475 1.90345 194.741 1.75556C195.007 1.60175 195.303 1.53076 195.629 1.53076C195.877 1.53076 196.114 1.57218 196.327 1.66683C196.551 1.76148 196.735 1.89754 196.889 2.075L196.35 2.62515C196.262 2.52458 196.155 2.44176 196.031 2.39443C195.907 2.34711 195.771 2.31753 195.623 2.31753C195.457 2.31753 195.303 2.35302 195.173 2.42992C195.037 2.50683 194.931 2.61331 194.854 2.74937C194.777 2.88543 194.741 3.04515 194.741 3.22853C194.741 3.406 194.777 3.56572 194.854 3.70769C194.931 3.84375 195.037 3.95023 195.173 4.02714C195.303 4.10404 195.457 4.13953 195.623 4.13953C195.788 4.13953 195.93 4.10404 196.049 4.04488C196.173 3.99164 196.273 3.91474 196.35 3.82009Z" fill="#C4A730"/>
<path d="M43.6749 33.07C43.0656 33.07 42.5451 32.9576 42.1251 32.7269C41.7051 32.4962 41.3797 32.1767 41.1549 31.7686L42.0245 31.384C42.1665 31.6443 42.3735 31.8455 42.6456 31.9874C42.9177 32.1353 43.2431 32.2063 43.6276 32.2063C44.0831 32.2063 44.4499 32.1057 44.7161 31.9046C44.9823 31.7035 45.1124 31.4373 45.1124 31.0942C45.1124 30.7866 45.0059 30.544 44.793 30.3547C44.58 30.1654 44.2783 30.0649 43.8938 30.0589H43.2549V29.3609H43.9293C44.1009 29.3609 44.2488 29.3195 44.3848 29.2367C44.515 29.1539 44.6214 29.0355 44.6983 28.8936C44.7752 28.7516 44.8107 28.586 44.8107 28.4085C44.8107 28.1245 44.7102 27.8998 44.509 27.7282C44.3079 27.5567 44.0062 27.4679 43.604 27.4679C43.2727 27.4679 43.0006 27.533 42.7758 27.6631C42.5569 27.7933 42.3735 27.9826 42.2375 28.2429L41.427 27.811C41.6281 27.4324 41.918 27.1367 42.3025 26.9237C42.687 26.7107 43.1307 26.6042 43.6454 26.6042C44.0535 26.6042 44.4203 26.6693 44.7397 26.8054C45.0592 26.9414 45.3076 27.1307 45.4851 27.3792C45.6685 27.6276 45.7572 27.9293 45.7572 28.2843C45.7572 28.58 45.6862 28.8581 45.5443 29.1124C45.4023 29.3668 45.1952 29.5561 44.9231 29.6863C45.3017 29.7987 45.5916 29.9939 45.7927 30.2719C45.9938 30.5499 46.0944 30.8753 46.0944 31.2539C46.0944 31.6384 45.9879 31.9697 45.7809 32.2418C45.5738 32.5139 45.284 32.7269 44.9231 32.8688C44.5623 33.0108 44.1482 33.07 43.6749 33.07Z" fill="#C4A730"/>
<path d="M47.3666 32.9516V26.6929H48.4255V29.2721H51.7086V26.6929H52.7675V32.9516H51.7086V30.2126H48.4255V32.9516H47.3666Z" fill="#C4A730"/>
<path d="M53.986 31.1416C53.986 30.7393 54.0984 30.3962 54.3291 30.1063C54.5598 29.8165 54.8733 29.5858 55.2756 29.426C55.6778 29.2663 56.1452 29.1835 56.6776 29.1835C56.9615 29.1835 57.2573 29.2072 57.5708 29.2486C57.8843 29.2959 58.1624 29.361 58.4049 29.4497V28.9942C58.4049 28.521 58.2629 28.1424 57.9731 27.8703C57.6832 27.5981 57.275 27.4621 56.7426 27.4621C56.3995 27.4621 56.0623 27.5271 55.7488 27.6514C55.4353 27.7756 55.0981 27.9531 54.7432 28.1897L54.3586 27.4443C54.7668 27.1604 55.1809 26.9533 55.5891 26.8114C55.9973 26.6694 56.4232 26.5984 56.8669 26.5984C57.6714 26.5984 58.3043 26.8173 58.7717 27.2609C59.239 27.7046 59.4697 28.3198 59.4697 29.1066V31.7509C59.4697 31.881 59.4934 31.9697 59.5466 32.0289C59.5999 32.0881 59.6827 32.1235 59.8069 32.1295V32.9517C59.7004 32.9695 59.6117 32.9813 59.5348 32.9872C59.4579 32.9931 59.3987 32.999 59.3455 32.999C59.097 32.999 58.9077 32.9281 58.7835 32.792C58.6593 32.6559 58.5883 32.5081 58.5705 32.3602L58.5469 31.9638C58.2748 32.3188 57.9139 32.5909 57.4762 32.7861C57.0384 32.9813 56.5947 33.076 56.1629 33.076C55.7429 33.076 55.3702 32.9872 55.0389 32.8157C54.7077 32.6441 54.4533 32.4134 54.264 32.1176C54.0806 31.8278 53.986 31.5024 53.986 31.1416ZM58.0914 31.5852C58.186 31.4728 58.2629 31.3604 58.3221 31.2421C58.3753 31.1297 58.4049 31.0292 58.4049 30.9523V30.1773C58.1564 30.0827 57.8962 30.0058 57.6181 29.9585C57.346 29.9052 57.0739 29.8815 56.8077 29.8815C56.2694 29.8815 55.8316 29.988 55.5004 30.201C55.1691 30.4139 54.9975 30.6979 54.9975 31.0647C54.9975 31.2658 55.0508 31.4551 55.1632 31.6444C55.2756 31.8337 55.4353 31.9875 55.6482 32.1058C55.8612 32.2241 56.1274 32.2833 56.4409 32.2833C56.7722 32.2833 57.0857 32.2182 57.3815 32.088C57.6714 31.9461 57.9139 31.7804 58.0914 31.5852Z" fill="#C4A730"/>
<path d="M61.1495 32.9516V26.6929H62.2084V29.2721H65.4916V26.6929H66.5505V32.9516H65.4916V30.2126H62.2084V32.9516H61.1495Z" fill="#C4A730"/>
<path d="M68.2601 32.9516V26.7047H69.319V31.5377L72.8388 26.6929H73.803V32.9516H72.7441V28.2132L69.2717 32.9516H68.2601Z" fill="#C4A730"/>
<path d="M75.0334 32.9516L76.82 30.4315C76.4118 30.3546 76.0805 30.1594 75.8321 29.8518C75.5836 29.5442 75.4594 29.1301 75.4594 28.6154C75.4594 28.2428 75.5481 27.9115 75.7256 27.6216C75.903 27.3318 76.1515 27.107 76.465 26.9413C76.7785 26.7757 77.1571 26.6929 77.5831 26.6929H80.1623V32.9516H79.1034V30.5972H77.8729L76.2107 32.9516H75.0334ZM77.6541 29.8163H79.1034V27.521H77.7783C77.3997 27.521 77.098 27.6275 76.8732 27.8346C76.6484 28.0416 76.536 28.3137 76.536 28.6391C76.536 28.9645 76.6307 29.2425 76.82 29.4732C77.0033 29.698 77.2814 29.8163 77.6541 29.8163Z" fill="#C4A730"/>
<path d="M84.9185 32.9516V26.6929H85.9774V29.2602H86.6754L88.6512 26.6929H89.858L87.5036 29.7216L90.136 32.9516H88.9056L86.6754 30.2363H85.9774V32.9516H84.9185Z" fill="#C4A730"/>
<path d="M93.6142 33.07C93.141 33.07 92.7091 32.9813 92.3246 32.8097C91.9401 32.6382 91.6029 32.4016 91.3249 32.1058C91.0409 31.8041 90.828 31.461 90.6742 31.0706C90.5204 30.6801 90.4435 30.2661 90.4435 29.8401C90.4435 29.4024 90.5204 28.9883 90.6742 28.5919C90.828 28.2015 91.0409 27.8525 91.3249 27.5567C91.6088 27.255 91.9401 27.0243 92.3305 26.8528C92.721 26.6812 93.1469 26.5984 93.6142 26.5984C94.0875 26.5984 94.5193 26.6812 94.9038 26.8528C95.2883 27.0243 95.6255 27.2609 95.9095 27.5567C96.1934 27.8584 96.4123 28.2015 96.5661 28.5919C96.7199 28.9824 96.7968 29.3965 96.7968 29.8401C96.7968 30.272 96.7199 30.6801 96.5661 31.0706C96.4123 31.461 96.1934 31.81 95.9154 32.1058C95.6314 32.4075 95.3002 32.6382 94.9097 32.8097C94.5193 32.9872 94.0875 33.07 93.6142 33.07ZM91.526 29.852C91.526 30.2838 91.6207 30.6742 91.81 31.0232C91.9993 31.3723 92.2477 31.6503 92.5613 31.8514C92.8748 32.0526 93.2238 32.1531 93.6083 32.1531C93.9928 32.1531 94.3477 32.0526 94.6613 31.8396C94.9807 31.6326 95.2351 31.3545 95.4185 30.9996C95.6019 30.6446 95.7024 30.2542 95.7024 29.8224C95.7024 29.3905 95.6078 29.0001 95.4185 28.6511C95.2292 28.3021 94.9748 28.024 94.6613 27.817C94.3477 27.61 93.9928 27.5094 93.6083 27.5094C93.2238 27.5094 92.8748 27.6159 92.5613 27.8229C92.2477 28.0359 91.9934 28.3139 91.81 28.6629C91.6266 29.012 91.526 29.4142 91.526 29.852Z" fill="#C4A730"/>
<path d="M99.6185 32.9516V27.6334H97.4475V26.6929H102.854V27.6334H100.683V32.9516H99.6185Z" fill="#C4A730"/>
<path d="M106.664 33.07C106.191 33.07 105.759 32.9813 105.375 32.8097C104.99 32.6382 104.653 32.4016 104.375 32.1058C104.091 31.8041 103.878 31.461 103.724 31.0706C103.57 30.6801 103.493 30.2661 103.493 29.8401C103.493 29.4024 103.57 28.9883 103.724 28.5919C103.878 28.2015 104.091 27.8525 104.375 27.5567C104.659 27.255 104.99 27.0243 105.38 26.8528C105.771 26.6812 106.197 26.5984 106.664 26.5984C107.137 26.5984 107.569 26.6812 107.954 26.8528C108.338 27.0243 108.675 27.2609 108.959 27.5567C109.243 27.8584 109.462 28.2015 109.616 28.5919C109.77 28.9824 109.847 29.3965 109.847 29.8401C109.847 30.272 109.77 30.6801 109.616 31.0706C109.462 31.461 109.243 31.81 108.965 32.1058C108.681 32.4075 108.35 32.6382 107.96 32.8097C107.569 32.9872 107.137 33.07 106.664 33.07ZM104.576 29.852C104.576 30.2838 104.671 30.6742 104.86 31.0232C105.049 31.3723 105.298 31.6503 105.611 31.8514C105.925 32.0526 106.274 32.1531 106.658 32.1531C107.043 32.1531 107.398 32.0526 107.711 31.8396C108.031 31.6326 108.285 31.3545 108.468 30.9996C108.652 30.6446 108.752 30.2542 108.752 29.8224C108.752 29.3905 108.658 29.0001 108.468 28.6511C108.279 28.3021 108.025 28.024 107.711 27.817C107.398 27.61 107.043 27.5094 106.658 27.5094C106.274 27.5094 105.925 27.6159 105.611 27.8229C105.298 28.0359 105.043 28.3139 104.86 28.6629C104.677 29.012 104.576 29.4142 104.576 29.852Z" fill="#C4A730"/>
<path d="M114.532 33.0699C114.017 33.0699 113.556 32.9398 113.154 32.6854C112.751 32.431 112.432 32.1057 112.201 31.7152V35.519H111.142V26.687H112.083V27.8701C112.331 27.4856 112.657 27.178 113.059 26.9414C113.461 26.7047 113.899 26.5864 114.372 26.5864C114.804 26.5864 115.206 26.6752 115.567 26.8526C115.928 27.0301 116.241 27.2667 116.508 27.5684C116.774 27.8701 116.981 28.2191 117.129 28.6036C117.277 28.9882 117.354 29.3963 117.354 29.8163C117.354 30.4079 117.235 30.9521 116.999 31.4431C116.762 31.9341 116.431 32.3305 116.005 32.6203C115.573 32.9279 115.088 33.0699 114.532 33.0699ZM114.206 32.153C114.52 32.153 114.804 32.0879 115.058 31.9578C115.313 31.8276 115.532 31.6502 115.709 31.4313C115.887 31.2124 116.028 30.964 116.123 30.6859C116.218 30.4079 116.271 30.118 116.271 29.8282C116.271 29.5206 116.218 29.2248 116.105 28.9467C115.999 28.6687 115.845 28.4202 115.644 28.2073C115.443 27.9943 115.218 27.8228 114.958 27.6986C114.697 27.5743 114.414 27.5152 114.106 27.5152C113.911 27.5152 113.715 27.5507 113.508 27.6217C113.301 27.6926 113.106 27.7932 112.923 27.9234C112.739 28.0535 112.58 28.2014 112.45 28.3729C112.319 28.5386 112.237 28.716 112.195 28.9112V30.6978C112.313 30.9699 112.479 31.2124 112.68 31.4372C112.881 31.662 113.112 31.8335 113.378 31.9696C113.65 32.0879 113.923 32.153 114.206 32.153Z" fill="#C4A730"/>
<path d="M118.643 32.9516V26.6929H119.702V28.8284H120.98C121.719 28.8284 122.281 29.0118 122.66 29.3845C123.045 29.7572 123.234 30.2422 123.234 30.8397C123.234 31.242 123.151 31.5969 122.985 31.9222C122.82 32.2417 122.577 32.4961 122.258 32.6794C121.938 32.8628 121.536 32.9575 121.051 32.9575H118.643V32.9516ZM119.708 32.1175H120.915C121.211 32.1175 121.453 32.0583 121.631 31.9459C121.814 31.8335 121.944 31.6797 122.033 31.4845C122.122 31.2893 122.163 31.0882 122.163 30.8634C122.163 30.6504 122.122 30.4493 122.045 30.2659C121.968 30.0825 121.832 29.9346 121.648 29.8222C121.465 29.7098 121.211 29.6566 120.891 29.6566H119.708V32.1175ZM124.328 32.9516V26.7047H125.387V32.9516H124.328Z" fill="#C4A730"/>
<path d="M129.889 33.07C129.415 33.07 128.983 32.9813 128.593 32.8097C128.203 32.6382 127.865 32.4016 127.581 32.1058C127.297 31.81 127.073 31.461 126.919 31.0706C126.759 30.6801 126.682 30.2661 126.682 29.8283C126.682 29.2367 126.818 28.6984 127.09 28.2133C127.363 27.7283 127.741 27.3378 128.232 27.0421C128.717 26.7463 129.273 26.5984 129.9 26.5984C130.533 26.5984 131.089 26.7463 131.557 27.048C132.03 27.3497 132.391 27.7401 132.657 28.2252C132.917 28.7103 133.047 29.2308 133.047 29.7869C133.047 29.8638 133.047 29.9466 133.041 30.0176C133.036 30.0945 133.03 30.1537 133.024 30.1891H127.8C127.83 30.5973 127.948 30.9523 128.143 31.2658C128.339 31.5793 128.593 31.8278 128.907 32.0052C129.22 32.1827 129.557 32.2714 129.918 32.2714C130.303 32.2714 130.669 32.1768 131.012 31.9816C131.356 31.7864 131.586 31.5379 131.716 31.2244L132.633 31.4787C132.497 31.7864 132.296 32.0585 132.024 32.301C131.752 32.5436 131.438 32.7328 131.072 32.8689C130.711 33.005 130.314 33.07 129.889 33.07ZM127.765 29.4497H132.06C132.03 29.0474 131.912 28.6866 131.71 28.379C131.509 28.0714 131.255 27.8288 130.941 27.6514C130.628 27.4739 130.279 27.3911 129.906 27.3911C129.539 27.3911 129.196 27.4798 128.883 27.6514C128.569 27.8229 128.315 28.0714 128.12 28.379C127.925 28.6866 127.794 29.0474 127.765 29.4497Z" fill="#C4A730"/>
<path d="M136.727 32.9516V31.9991C136.934 31.9991 137.123 31.9459 137.289 31.8394C137.454 31.733 137.602 31.5496 137.727 31.2952C137.857 31.0349 137.957 30.68 138.034 30.2245C138.111 29.769 138.158 29.1892 138.182 28.4853L138.253 26.6929H142.536V32.9042H141.477V27.6334H139.2L139.176 28.5977C139.146 29.4436 139.069 30.1476 138.957 30.7096C138.845 31.2715 138.685 31.7152 138.49 32.0406C138.289 32.3659 138.04 32.5966 137.75 32.7386C137.46 32.8806 137.111 32.9516 136.727 32.9516Z" fill="#C4A730"/>
<path d="M147.038 33.07C146.565 33.07 146.133 32.9813 145.743 32.8097C145.352 32.6382 145.015 32.4016 144.731 32.1058C144.447 31.81 144.222 31.461 144.069 31.0706C143.909 30.6801 143.832 30.2661 143.832 29.8283C143.832 29.2367 143.968 28.6984 144.24 28.2133C144.512 27.7283 144.891 27.3378 145.382 27.0421C145.867 26.7463 146.423 26.5984 147.05 26.5984C147.683 26.5984 148.239 26.7463 148.706 27.048C149.18 27.3497 149.541 27.7401 149.807 28.2252C150.067 28.7103 150.197 29.2308 150.197 29.7869C150.197 29.8638 150.197 29.9466 150.191 30.0176C150.185 30.0945 150.179 30.1537 150.174 30.1891H144.95C144.98 30.5973 145.098 30.9523 145.293 31.2658C145.488 31.5793 145.743 31.8278 146.056 32.0052C146.37 32.1827 146.707 32.2714 147.068 32.2714C147.452 32.2714 147.819 32.1768 148.162 31.9816C148.505 31.7864 148.736 31.5379 148.866 31.2244L149.783 31.4787C149.647 31.7864 149.446 32.0585 149.174 32.301C148.902 32.5436 148.588 32.7328 148.221 32.8689C147.861 33.005 147.464 33.07 147.038 33.07ZM144.915 29.4497H149.209C149.18 29.0474 149.061 28.6866 148.86 28.379C148.659 28.0714 148.405 27.8288 148.091 27.6514C147.778 27.4739 147.429 27.3911 147.056 27.3911C146.689 27.3911 146.346 27.4798 146.033 27.6514C145.719 27.8229 145.465 28.0714 145.27 28.379C145.074 28.6866 144.95 29.0474 144.915 29.4497Z" fill="#C4A730"/>
<path d="M154.953 32.9516V30.4433C154.705 30.5617 154.444 30.6504 154.178 30.7096C153.906 30.7687 153.61 30.7924 153.291 30.7924C152.605 30.7924 152.084 30.6149 151.729 30.26C151.368 29.905 151.191 29.3726 151.191 28.6568V26.6929H152.25V28.5149C152.25 29.0177 152.356 29.3845 152.563 29.6152C152.77 29.8459 153.107 29.9642 153.563 29.9642C153.817 29.9642 154.078 29.9346 154.326 29.8814C154.58 29.8281 154.787 29.7512 154.947 29.6507V26.6929H156.024V32.9516H154.953Z" fill="#C4A730"/>
<path d="M157.242 31.1416C157.242 30.7393 157.355 30.3962 157.585 30.1063C157.816 29.8165 158.13 29.5858 158.532 29.426C158.934 29.2663 159.402 29.1835 159.934 29.1835C160.218 29.1835 160.514 29.2072 160.827 29.2486C161.141 29.2959 161.419 29.361 161.661 29.4497V28.9942C161.661 28.521 161.513 28.1424 161.229 27.8703C160.94 27.5981 160.531 27.4621 159.999 27.4621C159.656 27.4621 159.319 27.5271 159.005 27.6514C158.686 27.7756 158.349 27.9531 158 28.1897L157.615 27.4443C158.023 27.1604 158.437 26.9533 158.845 26.8114C159.254 26.6694 159.68 26.5984 160.123 26.5984C160.928 26.5984 161.561 26.8173 162.028 27.2609C162.495 27.7046 162.726 28.3198 162.726 29.1066V31.7509C162.726 31.881 162.75 31.9697 162.803 32.0289C162.856 32.0881 162.939 32.1235 163.063 32.1295V32.9517C162.957 32.9695 162.868 32.9813 162.791 32.9872C162.714 32.9931 162.655 32.999 162.602 32.999C162.353 32.999 162.164 32.9281 162.04 32.792C161.916 32.6559 161.845 32.5081 161.827 32.3602L161.803 31.9638C161.531 32.3188 161.17 32.5909 160.727 32.7861C160.283 32.9813 159.845 33.076 159.413 33.076C158.993 33.076 158.621 32.9872 158.289 32.8157C157.958 32.6441 157.704 32.4134 157.52 32.1176C157.337 31.8278 157.242 31.5024 157.242 31.1416ZM161.348 31.5852C161.442 31.4728 161.519 31.3604 161.578 31.2421C161.632 31.1297 161.661 31.0292 161.661 30.9523V30.1773C161.413 30.0827 161.153 30.0058 160.874 29.9585C160.602 29.9052 160.33 29.8815 160.064 29.8815C159.526 29.8815 159.088 29.988 158.757 30.201C158.425 30.4139 158.254 30.6979 158.254 31.0647C158.254 31.2658 158.307 31.4551 158.42 31.6444C158.532 31.8337 158.692 31.9875 158.905 32.1058C159.118 32.2241 159.378 32.2833 159.691 32.2833C160.023 32.2833 160.336 32.2182 160.632 32.088C160.934 31.9461 161.17 31.7804 161.348 31.5852Z" fill="#C4A730"/>
<path d="M165.879 32.9516V27.6334H163.708V26.6929H169.115V27.6334H166.944V32.9516H165.879Z" fill="#C4A730"/>
</svg>
