<svg width="19" height="14" viewBox="0 0 19 14" fill="none" xmlns="http://www.w3.org/2000/svg">
<path d="M18.906 2C18.906 0.89543 18.0106 0 16.906 0H2.90601C1.80144 0 0.906006 0.895431 0.906006 2V12C0.906006 13.1046 1.80144 14 2.90601 14H16.906C18.0106 14 18.906 13.1046 18.906 12V2ZM17.106 3.07938C17.106 3.34055 16.9697 3.5828 16.7465 3.71842L10.9446 7.24392C10.3065 7.63166 9.50553 7.63166 8.86743 7.24392L3.06547 3.71842C2.84227 3.5828 2.70601 3.34055 2.70601 3.07938C2.70601 2.49626 3.34376 2.13753 3.84209 2.44033L8.86743 5.49392C9.50553 5.88166 10.3065 5.88166 10.9446 5.49392L15.9699 2.44033C16.4682 2.13753 17.106 2.49626 17.106 3.07938Z" fill="#D3D3D3"/>
</svg>
