<svg width="20" height="19" viewBox="0 0 20 19" fill="none" xmlns="http://www.w3.org/2000/svg">
<mask id="mask0_80_736" style="mask-type:alpha" maskUnits="userSpaceOnUse" x="0" y="0" width="20" height="19">
<rect x="0.145264" width="19.8547" height="18.0497" fill="#D9D9D9"/>
</mask>
<g mask="url(#mask0_80_736)">
<path fill-rule="evenodd" clip-rule="evenodd" d="M5.26213 10.4124C2.72986 12.0108 1.04785 14.8338 1.04785 18.0496C1.04785 23.0339 5.08842 27.0745 10.0727 27.0745C15.057 27.0745 19.0976 23.0339 19.0976 18.0496C19.0976 14.8337 17.4155 12.0107 14.8833 10.4124C14.5437 10.8109 14.1555 11.1667 13.7278 11.4705C16.0361 12.7557 17.5976 15.2203 17.5976 18.0496C17.5976 22.2055 14.2286 25.5745 10.0727 25.5745C5.91684 25.5745 2.54785 22.2055 2.54785 18.0496C2.54785 15.2203 4.10935 12.7557 6.41757 11.4706C5.9899 11.1667 5.60169 10.8109 5.26213 10.4124Z" fill="#181818"/>
<circle cx="10.0725" cy="6.3174" r="5.5674" stroke="#181818" stroke-width="1.5" stroke-linejoin="round"/>
</g>
</svg>
