<svg width="15" height="19" viewBox="0 0 15 19" fill="none" xmlns="http://www.w3.org/2000/svg">
<path d="M5.58248 10.1223C6.35775 11.3302 7.38367 12.3478 8.58818 13.1037L10.6349 12.0184C10.6944 11.9919 10.7603 11.9845 10.8237 11.9971C10.8872 12.0098 10.9452 12.0418 10.9902 12.0891L13.8354 14.8992C13.9445 15.0004 14.0289 15.1263 14.0819 15.2671C14.1349 15.4078 14.1551 15.5594 14.1408 15.7101C14.1266 15.8607 14.0783 16.0061 13.9998 16.1349C13.9212 16.2637 13.8146 16.3723 13.6884 16.4521L11.848 17.6979C11.5845 17.8764 11.2823 17.9857 10.9685 18.0162C10.6547 18.0466 10.339 17.9972 10.0496 17.8724C7.16143 16.6351 4.67851 14.5892 2.88464 11.9687C1.14443 9.3363 0.192887 6.23812 0.145428 3.04995C0.141235 2.7325 0.217338 2.41867 0.366363 2.13887C0.515388 1.85908 0.732281 1.6228 0.996021 1.45295L2.89629 0.199163C3.01514 0.115238 3.1508 0.059737 3.29313 0.0368142C3.43545 0.0138914 3.58075 0.0241412 3.71813 0.0667961C3.85552 0.109451 3.98144 0.183406 4.08646 0.283123C4.19149 0.38284 4.27289 0.505735 4.32458 0.642606L5.84846 4.38387C5.87576 4.44329 5.88359 4.51026 5.8708 4.5749C5.858 4.63953 5.82526 4.69843 5.77741 4.74289L3.99257 6.22364C4.23199 7.63004 4.7751 8.96181 5.58248 10.1223Z" fill="#181818"/>
</svg>
