<svg width="97" height="33" viewBox="0 0 97 33" fill="none" xmlns="http://www.w3.org/2000/svg">
<path d="M14.4068 8.35052L10.8037 13.21C12.0995 13.447 13.1425 14.0001 13.9327 14.8693C14.7228 15.7385 15.1179 16.8131 15.1179 18.0931C15.1179 19.7209 14.5648 20.993 13.4586 21.9096C12.3366 22.842 10.9933 23.3082 9.42879 23.3082C8.13294 23.3082 7.00301 23.0158 6.03902 22.4311C5.07503 21.8464 4.3876 21.0167 3.97672 19.9421L5.82568 18.8517C6.31558 20.3846 7.51661 21.151 9.42879 21.151C10.4718 21.151 11.3094 20.8824 11.9415 20.3451C12.5894 19.792 12.9134 19.0413 12.9134 18.0931C12.9134 17.1449 12.5894 16.3943 11.9415 15.8412C11.3094 15.2881 10.4718 15.0115 9.42879 15.0115H8.85988L7.98281 13.6604L11.823 8.46904H4.45081V6.40674H14.4068V8.35052ZM27.4862 11.6692C27.4862 12.965 27.1464 14.0791 26.4669 15.0115H26.4906L21.1333 23H18.6443L22.5793 17.1924C22.1052 17.224 21.8366 17.2398 21.7734 17.2398C20.0982 17.2398 18.7234 16.7262 17.6488 15.699C16.5899 14.656 16.0605 13.3127 16.0605 11.6692C16.0605 10.0098 16.5899 8.67448 17.6488 7.66309C18.7076 6.62008 20.0824 6.09858 21.7734 6.09858C23.4327 6.09858 24.7997 6.62008 25.8743 7.66309C26.9489 8.69029 27.4862 10.0256 27.4862 11.6692ZM21.7734 8.20829C20.7304 8.20829 19.877 8.52435 19.2133 9.15648C18.5653 9.7886 18.2414 10.6262 18.2414 11.6692C18.2414 12.7122 18.5653 13.5576 19.2133 14.2056C19.877 14.8377 20.7304 15.1538 21.7734 15.1538C22.8164 15.1538 23.6618 14.8377 24.3098 14.2056C24.9735 13.5576 25.3054 12.7122 25.3054 11.6692C25.3054 10.6262 24.9814 9.7886 24.3335 9.15648C23.6855 8.52435 22.8322 8.20829 21.7734 8.20829ZM46.1675 11.6692C46.1675 12.965 45.8277 14.0791 45.1482 15.0115H45.1719L39.8146 23H37.3257L41.2606 17.1924C40.7865 17.224 40.5179 17.2398 40.4547 17.2398C38.7795 17.2398 37.4047 16.7262 36.3301 15.699C35.2713 14.656 34.7418 13.3127 34.7418 11.6692C34.7418 10.0098 35.2713 8.67448 36.3301 7.66309C37.3889 6.62008 38.7637 6.09858 40.4547 6.09858C42.114 6.09858 43.481 6.62008 44.5556 7.66309C45.6302 8.69029 46.1675 10.0256 46.1675 11.6692ZM40.4547 8.20829C39.4117 8.20829 38.5583 8.52435 37.8946 9.15648C37.2466 9.7886 36.9227 10.6262 36.9227 11.6692C36.9227 12.7122 37.2466 13.5576 37.8946 14.2056C38.5583 14.8377 39.4117 15.1538 40.4547 15.1538C41.4977 15.1538 42.3431 14.8377 42.9911 14.2056C43.6548 13.5576 43.9867 12.7122 43.9867 11.6692C43.9867 10.6262 43.6627 9.7886 43.0148 9.15648C42.3668 8.52435 41.5135 8.20829 40.4547 8.20829ZM58.9226 11.6692C58.9226 12.965 58.5829 14.0791 57.9033 15.0115H57.927L52.5698 23H50.0808L54.0158 17.1924C53.5417 17.224 53.273 17.2398 53.2098 17.2398C51.5347 17.2398 50.1598 16.7262 49.0852 15.699C48.0264 14.656 47.497 13.3127 47.497 11.6692C47.497 10.0098 48.0264 8.67448 49.0852 7.66309C50.144 6.62008 51.5189 6.09858 53.2098 6.09858C54.8691 6.09858 56.2361 6.62008 57.3107 7.66309C58.3853 8.69029 58.9226 10.0256 58.9226 11.6692ZM53.2098 8.20829C52.1668 8.20829 51.3134 8.52435 50.6497 9.15648C50.0018 9.7886 49.6778 10.6262 49.6778 11.6692C49.6778 12.7122 50.0018 13.5576 50.6497 14.2056C51.3134 14.8377 52.1668 15.1538 53.2098 15.1538C54.2528 15.1538 55.0983 14.8377 55.7462 14.2056C56.4099 13.5576 56.7418 12.7122 56.7418 11.6692C56.7418 10.6262 56.4178 9.7886 55.7699 9.15648C55.122 8.52435 54.2686 8.20829 53.2098 8.20829ZM71.7726 20.9614C70.6664 22.5259 69.094 23.3082 67.0554 23.3082C65.0168 23.3082 63.4444 22.5259 62.3381 20.9614C61.2161 19.3811 60.6551 17.2951 60.6551 14.7034C60.6551 12.1117 61.2161 10.0257 62.3381 8.44534C63.4444 6.88083 65.0168 6.09858 67.0554 6.09858C69.094 6.09858 70.6664 6.88083 71.7726 8.44534C72.8946 10.0257 73.4556 12.1117 73.4556 14.7034C73.4556 17.2951 72.8946 19.3811 71.7726 20.9614ZM62.8596 14.7034C62.8596 16.7578 63.2231 18.346 63.9501 19.468C64.677 20.59 65.7121 21.151 67.0554 21.151C68.3986 21.151 69.4337 20.59 70.1607 19.468C70.9034 18.346 71.2748 16.7578 71.2748 14.7034C71.2748 12.649 70.9034 11.0608 70.1607 9.93873C69.4337 8.80091 68.3986 8.232 67.0554 8.232C65.7121 8.232 64.677 8.79301 63.9501 9.91503C63.2231 11.037 62.8596 12.6332 62.8596 14.7034ZM88.8846 16.6472H85.0681V18.5672H90.9469V20.1791H85.0681V23H82.8873V20.1791H80.8724V18.5672H82.8873V16.6472H80.8724V14.656H82.8873V6.40674H88.8846C90.3227 6.40674 91.5474 6.91244 92.5588 7.92384C93.5702 8.91943 94.0759 10.1284 94.0759 11.5506C94.0759 12.9729 93.5702 14.1819 92.5588 15.1775C91.5474 16.1573 90.3227 16.6472 88.8846 16.6472ZM88.8846 8.46904H85.0681V14.656H88.8846C89.6905 14.656 90.3938 14.3557 90.9943 13.7552C91.5948 13.1231 91.8951 12.3882 91.8951 11.5506C91.8951 10.6815 91.6027 9.95454 91.018 9.36982C90.4175 8.7693 89.7063 8.46904 88.8846 8.46904Z" fill="#9B9B9B"/>
<path d="M1.09033 22.9638L95.909 5.1853" stroke="#F27575" stroke-width="2.96308"/>
</svg>
