<svg width="17" height="14" viewBox="0 0 17 14" fill="none" xmlns="http://www.w3.org/2000/svg">
<path fill-rule="evenodd" clip-rule="evenodd" d="M1.16866 6.46812C5.73205 4.63352 8.77503 3.42404 10.2976 2.83968C14.6448 1.17121 15.5481 0.881377 16.1369 0.871806C16.2664 0.869701 16.5559 0.899314 16.7435 1.03974C16.9018 1.15832 16.9454 1.31849 16.9663 1.43092C16.9871 1.54334 17.0131 1.79944 16.9924 1.99955C16.7569 4.28355 15.7375 9.82624 15.2189 12.3844C14.9995 13.4668 14.5674 13.8297 14.1492 13.8653C13.2401 13.9425 12.5498 13.3109 11.6694 12.7784C10.2916 11.945 9.5133 11.4262 8.17597 10.613C6.63045 9.67325 7.63235 9.15672 8.51313 8.31257C8.74364 8.09166 12.7489 4.73 12.8264 4.42505C12.8361 4.38691 12.8451 4.24474 12.7536 4.16967C12.6621 4.0946 12.527 4.12027 12.4295 4.14069C12.2913 4.16963 10.0904 5.51199 5.82663 8.16777C5.2019 8.56362 4.63604 8.75649 4.12904 8.74638C3.57012 8.73524 2.49499 8.45477 1.69573 8.21504C0.715411 7.92099 -0.063727 7.76553 0.00411841 7.26615C0.0394565 7.00605 0.427637 6.74003 1.16866 6.46812Z" fill="#181818"/>
</svg>
