<svg width="50" height="50" viewBox="0 0 50 50" fill="none" xmlns="http://www.w3.org/2000/svg">
<path d="M34.7917 39.5417H15.2083C14.3333 39.5417 13.3542 38.8542 13.0625 38.0209L4.43749 13.8959C3.20832 10.4376 4.64582 9.37508 7.60415 11.5001L15.7292 17.3126C17.0833 18.2501 18.625 17.7709 19.2083 16.2501L22.875 6.47925C24.0417 3.35425 25.9792 3.35425 27.1458 6.47925L30.8125 16.2501C31.3958 17.7709 32.9375 18.2501 34.2708 17.3126L41.8958 11.8751C45.1458 9.54175 46.7083 10.7292 45.375 14.5001L36.9583 38.0626C36.6458 38.8543 35.6667 39.5417 34.7917 39.5417Z" stroke="white" stroke-width="1.5" stroke-linecap="round" stroke-linejoin="round"/>
<path d="M13.5417 45.8333H36.4583" stroke="white" stroke-width="1.5" stroke-linecap="round" stroke-linejoin="round"/>
<path d="M19.7917 29.1667H30.2083" stroke="white" stroke-width="1.5" stroke-linecap="round" stroke-linejoin="round"/>
</svg>
