<svg width="21" height="21" viewBox="0 0 21 21" fill="none" xmlns="http://www.w3.org/2000/svg">
<path d="M11.3047 1.85999C11.3047 1.3077 10.857 0.859985 10.3047 0.859985C9.7524 0.859985 9.30469 1.3077 9.30469 1.85999L10.3047 1.85999L11.3047 1.85999ZM9.59758 16.2471C9.98811 16.6376 10.6213 16.6376 11.0118 16.2471L17.3758 9.88312C17.7663 9.4926 17.7663 8.85943 17.3758 8.46891C16.9852 8.07839 16.3521 8.07839 15.9615 8.46891L10.3047 14.1258L4.64783 8.46891C4.25731 8.07839 3.62414 8.07839 3.23362 8.46891C2.8431 8.85943 2.8431 9.4926 3.23362 9.88312L9.59758 16.2471ZM10.3047 1.85999L9.30469 1.85999L9.30469 15.54L10.3047 15.54L11.3047 15.54L11.3047 1.85999L10.3047 1.85999Z" fill="white"/>
<path d="M1.66602 19.14H19.666" stroke="white" stroke-width="2" stroke-linecap="round"/>
</svg>
