<svg width="68" height="67" viewBox="0 0 68 67" fill="none" xmlns="http://www.w3.org/2000/svg">
<rect x="0.916016" width="67" height="67" rx="10" fill="#FF6A00"/>
<path fill-rule="evenodd" clip-rule="evenodd" d="M18.9594 46.3494C18.2729 46.1463 17.6466 45.785 17.1332 45.296C16.6198 44.807 16.2345 44.2046 16.0097 43.5396C14.7251 40.1029 14.3445 25.7521 16.8184 22.9191C17.6418 21.9975 18.8043 21.4301 20.0536 21.3401C26.6904 20.6434 47.1956 20.7363 49.5506 21.5723C50.213 21.7821 50.8181 22.1354 51.3207 22.606C51.8233 23.0765 52.2103 23.6519 52.4527 24.2892C53.8562 27.842 53.9038 40.7531 52.2624 44.1666C51.827 45.0552 51.0981 45.7749 50.1929 46.2101C47.7189 47.4176 22.2421 47.3944 18.9594 46.3494ZM29.4974 39.6152L41.3913 33.5777L29.4974 27.4937V39.6152Z" fill="white"/>
</svg>
