<svg width="47" height="47" viewBox="0 0 47 47" fill="none" xmlns="http://www.w3.org/2000/svg">
<path d="M23.8979 0.708C11.0979 0.708 0.85791 10.948 0.85791 23.748C0.85791 36.548 11.0979 46.788 23.8979 46.788C36.6979 46.788 46.9379 36.548 46.9379 23.748C46.9379 10.948 36.6979 0.708 23.8979 0.708ZM23.8979 2.756C35.6739 2.756 44.8899 11.972 44.8899 23.748C44.8899 35.524 35.6739 44.74 23.8979 44.74C12.1219 44.74 2.90591 35.524 2.90591 23.748C2.90591 11.972 12.1219 2.756 23.8979 2.756ZM13.6579 16.58H9.56191C9.56191 16.58 9.56191 16.58 9.04991 16.58C8.53791 16.58 8.53791 16.58 8.02591 17.092C8.02591 17.604 8.02591 18.116 8.02591 18.628C8.02591 19.14 8.02591 19.14 8.02591 19.14C8.02591 19.14 11.0979 26.308 14.6819 30.404C17.2419 32.964 20.3139 33.988 22.3619 33.988H23.8979C24.4099 33.988 24.9219 33.988 24.9219 33.988C24.9219 33.988 25.9459 32.964 25.9459 32.452C25.9459 31.94 25.9459 31.428 25.9459 31.428L26.4579 31.94C26.9699 32.452 27.9939 32.964 28.5059 33.476C29.5299 34.5 31.0659 33.988 31.0659 33.988H35.1619C35.1619 33.988 35.6739 33.988 36.6979 33.476C37.2099 33.476 37.2099 32.964 37.7219 32.452C37.7219 31.94 37.7219 31.428 37.2099 30.916C37.2099 30.916 36.6979 29.892 34.1379 27.844C33.6259 26.82 33.6259 26.308 33.1139 26.308C33.1139 26.308 33.1139 25.796 33.6259 25.796C34.1379 25.284 34.6499 24.26 35.1619 23.236C36.1859 22.212 36.6979 21.188 37.2099 20.164C37.7219 19.652 37.7219 19.14 37.7219 19.14C37.7219 18.628 37.7219 18.628 37.7219 18.116C37.7219 17.604 37.2099 17.604 37.2099 17.092C37.2099 17.092 36.6979 17.092 36.6979 16.58C36.1859 16.58 35.6739 16.58 35.6739 16.58C35.1619 16.58 31.5779 16.58 31.5779 16.58C31.0659 16.58 30.5539 16.58 30.5539 17.092C29.5299 17.092 29.5299 17.604 29.5299 17.604C29.5299 17.604 29.0179 20.164 27.9939 21.188C26.9699 22.724 26.4579 23.748 25.9459 23.748C25.9459 23.748 25.9459 23.748 25.9459 23.236C25.9459 22.724 25.9459 22.212 25.9459 21.7C25.9459 20.164 25.9459 19.14 25.9459 18.628C25.9459 18.116 25.9459 17.604 25.4339 17.604C24.9219 17.092 24.4099 17.092 23.8979 17.092C23.3859 17.092 22.8739 17.092 21.8499 17.092C20.3139 17.092 19.2899 17.092 18.2659 17.604C17.7539 17.604 17.7539 18.116 17.2419 18.116C17.2419 18.116 16.7299 18.116 16.7299 18.628C16.7299 18.628 16.7299 19.14 16.7299 19.652C16.7299 20.164 17.2419 20.164 17.2419 20.164C17.2419 20.164 17.2419 20.164 17.7539 20.164H18.2659V20.676C18.2659 21.188 18.2659 21.188 18.2659 21.188C18.2659 21.188 18.2659 21.7 18.2659 22.724C18.2659 23.236 18.2659 23.236 18.2659 23.748C18.2659 23.748 17.2419 22.724 16.7299 21.7C16.2179 20.164 15.7059 18.116 15.7059 18.116C15.7059 18.116 15.7059 17.604 15.1939 17.092C14.1699 16.58 13.6579 16.58 13.6579 16.58ZM13.6579 18.628C13.6579 18.628 14.6819 20.676 15.7059 22.724C16.7299 24.26 17.2419 24.772 17.7539 25.284C18.2659 25.796 19.2899 25.796 19.8019 25.284C20.3139 25.284 20.3139 24.772 20.8259 24.26C20.8259 23.748 20.8259 23.236 20.8259 22.724C20.8259 21.7 20.8259 21.188 20.8259 21.188C20.8259 21.188 20.8259 20.676 20.8259 20.164C20.8259 19.652 20.8259 19.14 20.3139 18.628C20.8259 18.628 20.8259 18.628 21.8499 18.628C22.8739 18.628 23.3859 18.628 23.3859 18.628C23.3859 19.14 23.3859 20.164 23.3859 21.7C23.3859 22.212 23.3859 22.724 23.3859 23.236C23.3859 23.748 23.8979 24.772 24.4099 25.284C24.9219 25.796 25.4339 25.796 26.4579 25.284C27.4819 24.772 28.5059 24.26 29.5299 22.724C30.5539 21.188 31.0659 19.14 31.0659 18.628C31.5779 18.628 34.6499 18.628 35.1619 18.628H35.6739C35.6739 18.628 35.6739 19.14 35.1619 19.652C35.1619 20.164 34.6499 21.188 33.6259 22.212C33.1139 23.236 32.6019 23.748 32.0899 24.26C31.5779 24.772 31.5779 25.284 31.0659 25.796C31.0659 26.308 31.0659 27.332 31.5779 27.332C32.0899 27.844 32.6019 28.356 33.1139 28.868C35.1619 30.916 35.6739 31.428 35.6739 31.428H35.1619H31.5779C31.5779 31.428 31.0659 31.428 30.0419 30.916C29.5299 30.916 29.0179 30.404 27.9939 29.892C27.4819 29.38 27.4819 28.868 26.9699 28.868C26.4579 28.868 25.9459 28.356 25.4339 28.868C24.4099 28.868 23.8979 29.892 23.8979 30.404C23.8979 30.916 23.8979 31.428 23.8979 31.428H22.3619C20.3139 31.428 18.2659 30.916 15.7059 28.356C12.6339 25.284 10.0739 19.14 9.56191 18.116L13.6579 18.628Z" fill="#FF6A00"/>
</svg>
