<svg width="47" height="47" viewBox="0 0 47 47" fill="none" xmlns="http://www.w3.org/2000/svg">
<path d="M23.6299 0.66C10.9299 0.66 0.629883 10.96 0.629883 23.66C0.629883 36.36 10.9299 46.66 23.6299 46.66C36.3299 46.66 46.6299 36.36 46.6299 23.66C46.6299 10.96 36.3299 0.66 23.6299 0.66ZM23.6299 2.66C35.2299 2.66 44.6299 12.06 44.6299 23.66C44.6299 35.26 35.2299 44.66 23.6299 44.66C12.0299 44.66 2.62988 35.26 2.62988 23.66C2.62988 12.06 12.0299 2.66 23.6299 2.66ZM32.7299 12.66C32.0299 12.66 31.2299 12.86 30.3299 13.16C28.9299 13.66 12.5299 20.66 10.7299 21.46C9.62988 21.86 7.62988 22.76 7.62988 24.76C7.62988 26.06 8.42988 27.06 9.92988 27.56C10.7299 27.86 12.7299 28.46 13.8299 28.76C14.3299 28.86 14.8299 28.96 15.3299 28.96C16.3299 28.96 17.4299 28.66 18.2299 28.26C18.2299 28.46 18.2299 28.56 18.2299 28.76C18.3299 29.76 19.0299 30.76 19.9299 31.36C20.5299 31.76 25.7299 35.16 26.4299 35.76C27.5299 36.56 28.7299 36.96 29.8299 36.96C32.0299 36.96 32.8299 34.66 33.2299 33.56C33.7299 31.96 35.7299 18.86 35.9299 16.56C36.1299 14.96 35.4299 13.66 34.1299 13.06C33.8299 12.76 33.3299 12.66 32.7299 12.66ZM32.7299 14.66C33.0299 14.66 33.2299 14.66 33.4299 14.76C33.9299 14.96 34.1299 15.46 34.0299 16.26C33.8299 18.76 31.8299 31.56 31.4299 32.86C31.0299 33.96 30.7299 34.86 29.9299 34.86C29.2299 34.86 28.4299 34.56 27.6299 34.06C26.8299 33.46 21.7299 30.06 21.0299 29.66C20.4299 29.26 19.7299 28.26 20.6299 27.36C21.4299 26.56 27.2299 20.96 27.7299 20.46C28.1299 20.06 27.9299 19.66 27.5299 19.66C27.4299 19.66 27.2299 19.76 27.1299 19.86C26.5299 20.36 18.0299 26.06 17.3299 26.46C16.8299 26.76 16.1299 26.96 15.3299 26.96C15.0299 26.96 14.6299 26.96 14.3299 26.86C13.2299 26.56 11.3299 25.96 10.5299 25.66C9.82988 25.36 9.52988 25.16 9.52988 24.66C9.52988 24.06 10.4299 23.56 11.3299 23.16C12.3299 22.76 29.5299 15.46 30.9299 14.96C31.6299 14.86 32.2299 14.66 32.7299 14.66Z" fill="#FF6A00"/>
</svg>
