<svg width="68" height="67" viewBox="0 0 68 67" fill="none" xmlns="http://www.w3.org/2000/svg">
<rect x="0.958984" width="67" height="67" rx="10" fill="#FF6A00"/>
<path d="M36.1059 45.2231C23.5156 45.2231 16.3344 36.4205 16.0352 21.7731H22.3418C22.5489 32.5239 27.1983 37.0778 30.881 38.0167V21.7731H36.8194V31.0451C40.4561 30.646 44.2768 26.4208 45.5658 21.7731H51.5041C51.0184 24.1835 50.0503 26.4658 48.6601 28.4773C47.27 30.4887 45.4879 32.1859 43.4252 33.4629C45.7277 34.6296 47.7613 36.2811 49.392 38.3082C51.0226 40.3354 52.2132 42.6922 52.8852 45.2231H46.3484C45.7452 43.0248 44.5192 41.057 42.8241 39.5663C41.129 38.0756 39.0402 37.1283 36.8194 36.843V45.2231H36.1059Z" fill="white"/>
</svg>
