<svg width="47" height="47" viewBox="0 0 47 47" fill="none" xmlns="http://www.w3.org/2000/svg">
<path d="M22.9 12.66C18.3 12.66 14 12.96 11.7 13.46C10.2 13.76 8.9 14.86 8.6 16.46C8.3 18.16 8 20.66 8 23.76C8 26.86 8.3 29.26 8.6 31.06C8.9 32.56 10.2 33.66 11.7 34.06C14.1 34.56 18.3 34.86 22.9 34.86C27.5 34.86 31.6 34.56 34.1 34.06C35.6 33.76 36.9 32.66 37.2 31.06C37.5 29.36 37.8 26.86 37.9 23.66C37.9 20.56 37.6 18.06 37.2 16.26C36.9 14.76 35.6 13.66 34.1 13.26C31.8 12.96 27.5 12.66 22.9 12.66ZM22.9 14.06C27.9 14.06 31.9 14.46 33.9 14.86C34.9 15.16 35.8 15.86 35.9 16.76C36.3 18.96 36.6 21.36 36.6 23.76C36.5 26.76 36.2 29.16 35.9 30.86C35.7 32.16 34.3 32.56 33.9 32.76C31.4 33.26 27.2 33.56 23.1 33.56C19 33.56 14.7 33.26 12.3 32.76C11.3 32.46 10.4 31.76 10.3 30.86C9.7 28.96 9.5 26.36 9.5 23.76C9.5 20.56 9.8 18.26 10.1 16.76C10.3 15.46 11.8 15.06 12.1 14.86C14.3 14.36 18.6 14.06 22.9 14.06ZM19.2 18.16V29.26L28.9 23.66L19.2 18.16Z" fill="#FF6A00"/>
<path d="M23.1001 0.860001C10.4001 0.860001 0.100098 11.16 0.100098 23.86C0.100098 36.56 10.4001 46.86 23.1001 46.86C35.8001 46.86 46.1001 36.56 46.1001 23.86C46.1001 11.16 35.8001 0.860001 23.1001 0.860001ZM23.1001 44.86C11.5001 44.86 2.1001 35.46 2.1001 23.86C2.1001 12.26 11.5001 2.86 23.1001 2.86C34.7001 2.86 44.1001 12.26 44.1001 23.86C44.1001 35.46 34.6001 44.86 23.1001 44.86Z" fill="#FF6A00"/>
</svg>
