<svg width="29" height="38" viewBox="0 0 29 38" fill="none" xmlns="http://www.w3.org/2000/svg">
<path d="M14.5 0.927246C6.49165 0.927246 0 7.4189 0 15.4272C0 19.43 1.62183 23.0542 4.24487 25.678C6.86865 28.3032 13.05 32.1023 13.4125 36.0898C13.4669 36.6876 13.8997 37.1772 14.5 37.1772C15.1003 37.1772 15.5331 36.6876 15.5875 36.0898C15.95 32.1023 22.1313 28.3032 24.7551 25.678C27.3782 23.0542 29 19.43 29 15.4272C29 7.4189 22.5084 0.927246 14.5 0.927246Z" fill="#E41919"/>
<path d="M14.5005 20.5025C17.3034 20.5025 19.5755 18.2304 19.5755 15.4275C19.5755 12.6247 17.3034 10.3525 14.5005 10.3525C11.6977 10.3525 9.42554 12.6247 9.42554 15.4275C9.42554 18.2304 11.6977 20.5025 14.5005 20.5025Z" fill="white"/>
</svg>
