<svg width="41" height="39" viewBox="0 0 41 39" fill="none" xmlns="http://www.w3.org/2000/svg">
<path d="M19.5538 0.99759C19.8831 -0.0158515 21.3168 -0.0158539 21.6461 0.997588L25.6515 13.3249C25.7988 13.7781 26.2211 14.085 26.6977 14.085H39.6594C40.725 14.085 41.168 15.4486 40.306 16.0749L29.8197 23.6936C29.4342 23.9737 29.2729 24.4702 29.4201 24.9235L33.4255 37.2508C33.7548 38.2642 32.5949 39.107 31.7328 38.4806L21.2465 30.8619C20.861 30.5818 20.3389 30.5818 19.9534 30.8619L9.46714 38.4806C8.60506 39.107 7.44513 38.2642 7.77441 37.2508L11.7798 24.9235C11.9271 24.4702 11.7657 23.9737 11.3802 23.6936L0.893954 16.0749C0.0318685 15.4486 0.47492 14.085 1.54052 14.085H14.5022C14.9788 14.085 15.4011 13.7781 15.5484 13.3249L19.5538 0.99759Z" fill="#FEBE35"/>
</svg>
