<?xml version="1.0" encoding="utf-8"?>
<!-- Generator: Adobe Illustrator 28.0.0, SVG Export Plug-In . SVG Version: 6.00 Build 0)  -->
<svg version="1.1" id="Capa_1" xmlns="http://www.w3.org/2000/svg" xmlns:xlink="http://www.w3.org/1999/xlink" x="0px" y="0px"
	 viewBox="0 0 433.7 433.7" style="enable-background:new 0 0 433.7 433.7;" xml:space="preserve">
<style type="text/css">
	.st0{fill:url(#SVGID_1_);}
	.st1{fill:url(#SVGID_00000044162430311138309060000002266960375415354023_);}
</style>
<g>
	<g>
		<linearGradient id="SVGID_1_" gradientUnits="userSpaceOnUse" x1="216.832" y1="376.576" x2="216.832" y2="147.2">
			<stop  offset="0" style="stop-color:#FF3300"/>
			<stop  offset="1" style="stop-color:#FF6600"/>
		</linearGradient>
		<path class="st0" d="M229.4,271.6c-4.1,2.6-8.7,3.6-12.8,3.6s-8.7-1-12.8-3.6L0,147.2v165.4c0,35.3,28.7,64,64,64h305.7
			c35.3,0,64-28.7,64-64V147.2L229.4,271.6z"/>
	</g>
</g>
<g>
	<g>
		
			<linearGradient id="SVGID_00000141435574676881670960000015397344562202456466_" gradientUnits="userSpaceOnUse" x1="216.832" y1="238.336" x2="216.832" y2="57.088">
			<stop  offset="0" style="stop-color:#FF3300"/>
			<stop  offset="1" style="stop-color:#FF6600"/>
		</linearGradient>
		<path style="fill:url(#SVGID_00000141435574676881670960000015397344562202456466_);" d="M369.7,57.1H64
			c-30.2,0-55.8,21.5-62,50.2l215,131.1l214.5-131.1C425.5,78.6,399.9,57.1,369.7,57.1z"/>
	</g>
</g>
</svg>
