<?xml version="1.0" encoding="utf-8"?>
<!-- Generator: Adobe Illustrator 28.0.0, SVG Export Plug-In . SVG Version: 6.00 Build 0)  -->
<svg version="1.1" id="Capa_1" xmlns="http://www.w3.org/2000/svg" xmlns:xlink="http://www.w3.org/1999/xlink" x="0px" y="0px"
	 viewBox="0 0 512 362.7" style="enable-background:new 0 0 512 362.7;" xml:space="preserve">
<style type="text/css">
	.st0{fill:#FFFFFF;}
</style>
<g>
	<path class="st0" d="M480,149.3H32c-17.7,0-32,14.3-32,32s14.3,32,32,32h448c17.7,0,32-14.3,32-32S497.7,149.3,480,149.3z"/>
	<path class="st0" d="M32,64h448c17.7,0,32-14.3,32-32S497.7,0,480,0H32C14.3,0,0,14.3,0,32S14.3,64,32,64z"/>
	<path class="st0" d="M480,298.7H32c-17.7,0-32,14.3-32,32c0,17.7,14.3,32,32,32h448c17.7,0,32-14.3,32-32
		C512,313,497.7,298.7,480,298.7z"/>
</g>
</svg>
